<svg width="215" height="76" viewBox="0 0 215 76" fill="none" xmlns="http://www.w3.org/2000/svg">
<path d="M6.75 32.0689L9.02273 34.5L14.25 29.25" stroke="#0874AA" stroke-width="1.5" stroke-linecap="round" stroke-linejoin="round"/>
<path d="M15.75 33C15.75 36.7279 12.7279 39.75 9 39.75C5.27208 39.75 2.25 36.7279 2.25 33C2.25 29.2721 5.27208 26.25 9 26.25C9.73664 26.25 10.4457 26.368 11.1094 26.5861" stroke="#0874AA" stroke-width="1.5" stroke-linecap="round" stroke-linejoin="round"/>
<path d="M30.89 34.95H27.85L27.29 36.5H26.33L28.85 29.57H29.9L32.41 36.5H31.45L30.89 34.95ZM30.63 34.21L29.37 30.69L28.11 34.21H30.63ZM33.1683 33.75C33.1683 33.1833 33.2816 32.69 33.5083 32.27C33.7349 31.8433 34.0483 31.5133 34.4483 31.28C34.8549 31.0467 35.3183 30.93 35.8383 30.93C36.5116 30.93 37.0649 31.0933 37.4983 31.42C37.9383 31.7467 38.2283 32.2 38.3683 32.78H37.3883C37.2949 32.4467 37.1116 32.1833 36.8383 31.99C36.5716 31.7967 36.2383 31.7 35.8383 31.7C35.3183 31.7 34.8983 31.88 34.5783 32.24C34.2583 32.5933 34.0983 33.0967 34.0983 33.75C34.0983 34.41 34.2583 34.92 34.5783 35.28C34.8983 35.64 35.3183 35.82 35.8383 35.82C36.2383 35.82 36.5716 35.7267 36.8383 35.54C37.1049 35.3533 37.2883 35.0867 37.3883 34.74H38.3683C38.2216 35.3 37.9283 35.75 37.4883 36.09C37.0483 36.4233 36.4983 36.59 35.8383 36.59C35.3183 36.59 34.8549 36.4733 34.4483 36.24C34.0483 36.0067 33.7349 35.6767 33.5083 35.25C33.2816 34.8233 33.1683 34.3233 33.1683 33.75ZM39.2425 33.75C39.2425 33.1833 39.3558 32.69 39.5825 32.27C39.8092 31.8433 40.1225 31.5133 40.5225 31.28C40.9292 31.0467 41.3925 30.93 41.9125 30.93C42.5858 30.93 43.1392 31.0933 43.5725 31.42C44.0125 31.7467 44.3025 32.2 44.4425 32.78H43.4625C43.3692 32.4467 43.1858 32.1833 42.9125 31.99C42.6458 31.7967 42.3125 31.7 41.9125 31.7C41.3925 31.7 40.9725 31.88 40.6525 32.24C40.3325 32.5933 40.1725 33.0967 40.1725 33.75C40.1725 34.41 40.3325 34.92 40.6525 35.28C40.9725 35.64 41.3925 35.82 41.9125 35.82C42.3125 35.82 42.6458 35.7267 42.9125 35.54C43.1792 35.3533 43.3625 35.0867 43.4625 34.74H44.4425C44.2958 35.3 44.0025 35.75 43.5625 36.09C43.1225 36.4233 42.5725 36.59 41.9125 36.59C41.3925 36.59 40.9292 36.4733 40.5225 36.24C40.1225 36.0067 39.8092 35.6767 39.5825 35.25C39.3558 34.8233 39.2425 34.3233 39.2425 33.75ZM50.6567 33.55C50.6567 33.7233 50.6467 33.9067 50.6267 34.1H46.2467C46.2801 34.64 46.4634 35.0633 46.7967 35.37C47.1367 35.67 47.5467 35.82 48.0267 35.82C48.4201 35.82 48.7467 35.73 49.0067 35.55C49.2734 35.3633 49.4601 35.1167 49.5667 34.81H50.5467C50.4001 35.3367 50.1067 35.7667 49.6667 36.1C49.2267 36.4267 48.6801 36.59 48.0267 36.59C47.5067 36.59 47.0401 36.4733 46.6267 36.24C46.2201 36.0067 45.9001 35.6767 45.6667 35.25C45.4334 34.8167 45.3167 34.3167 45.3167 33.75C45.3167 33.1833 45.4301 32.6867 45.6567 32.26C45.8834 31.8333 46.2001 31.5067 46.6067 31.28C47.0201 31.0467 47.4934 30.93 48.0267 30.93C48.5467 30.93 49.0067 31.0433 49.4067 31.27C49.8067 31.4967 50.1134 31.81 50.3267 32.21C50.5467 32.6033 50.6567 33.05 50.6567 33.55ZM49.7167 33.36C49.7167 33.0133 49.6401 32.7167 49.4867 32.47C49.3334 32.2167 49.1234 32.0267 48.8567 31.9C48.5967 31.7667 48.3067 31.7 47.9867 31.7C47.5267 31.7 47.1334 31.8467 46.8067 32.14C46.4867 32.4333 46.3034 32.84 46.2567 33.36H49.7167ZM53.7979 36.59C53.3779 36.59 53.0012 36.52 52.6679 36.38C52.3346 36.2333 52.0712 36.0333 51.8779 35.78C51.6846 35.52 51.5779 35.2233 51.5579 34.89H52.4979C52.5246 35.1633 52.6512 35.3867 52.8779 35.56C53.1112 35.7333 53.4146 35.82 53.7879 35.82C54.1346 35.82 54.4079 35.7433 54.6079 35.59C54.8079 35.4367 54.9079 35.2433 54.9079 35.01C54.9079 34.77 54.8012 34.5933 54.5879 34.48C54.3746 34.36 54.0446 34.2433 53.5979 34.13C53.1912 34.0233 52.8579 33.9167 52.5979 33.81C52.3446 33.6967 52.1246 33.5333 51.9379 33.32C51.7579 33.1 51.6679 32.8133 51.6679 32.46C51.6679 32.18 51.7512 31.9233 51.9179 31.69C52.0846 31.4567 52.3212 31.2733 52.6279 31.14C52.9346 31 53.2846 30.93 53.6779 30.93C54.2846 30.93 54.7746 31.0833 55.1479 31.39C55.5212 31.6967 55.7212 32.1167 55.7479 32.65H54.8379C54.8179 32.3633 54.7012 32.1333 54.4879 31.96C54.2812 31.7867 54.0012 31.7 53.6479 31.7C53.3212 31.7 53.0612 31.77 52.8679 31.91C52.6746 32.05 52.5779 32.2333 52.5779 32.46C52.5779 32.64 52.6346 32.79 52.7479 32.91C52.8679 33.0233 53.0146 33.1167 53.1879 33.19C53.3679 33.2567 53.6146 33.3333 53.9279 33.42C54.3212 33.5267 54.6412 33.6333 54.8879 33.74C55.1346 33.84 55.3446 33.9933 55.5179 34.2C55.6979 34.4067 55.7912 34.6767 55.7979 35.01C55.7979 35.31 55.7146 35.58 55.5479 35.82C55.3812 36.06 55.1446 36.25 54.8379 36.39C54.5379 36.5233 54.1912 36.59 53.7979 36.59ZM59.0225 36.59C58.6025 36.59 58.2258 36.52 57.8925 36.38C57.5592 36.2333 57.2958 36.0333 57.1025 35.78C56.9092 35.52 56.8025 35.2233 56.7825 34.89H57.7225C57.7492 35.1633 57.8758 35.3867 58.1025 35.56C58.3358 35.7333 58.6392 35.82 59.0125 35.82C59.3592 35.82 59.6325 35.7433 59.8325 35.59C60.0325 35.4367 60.1325 35.2433 60.1325 35.01C60.1325 34.77 60.0258 34.5933 59.8125 34.48C59.5992 34.36 59.2692 34.2433 58.8225 34.13C58.4158 34.0233 58.0825 33.9167 57.8225 33.81C57.5692 33.6967 57.3492 33.5333 57.1625 33.32C56.9825 33.1 56.8925 32.8133 56.8925 32.46C56.8925 32.18 56.9758 31.9233 57.1425 31.69C57.3092 31.4567 57.5458 31.2733 57.8525 31.14C58.1592 31 58.5092 30.93 58.9025 30.93C59.5092 30.93 59.9992 31.0833 60.3725 31.39C60.7458 31.6967 60.9458 32.1167 60.9725 32.65H60.0625C60.0425 32.3633 59.9258 32.1333 59.7125 31.96C59.5058 31.7867 59.2258 31.7 58.8725 31.7C58.5458 31.7 58.2858 31.77 58.0925 31.91C57.8992 32.05 57.8025 32.2333 57.8025 32.46C57.8025 32.64 57.8592 32.79 57.9725 32.91C58.0925 33.0233 58.2392 33.1167 58.4125 33.19C58.5925 33.2567 58.8392 33.3333 59.1525 33.42C59.5458 33.5267 59.8658 33.6333 60.1125 33.74C60.3592 33.84 60.5692 33.9933 60.7425 34.2C60.9225 34.4067 61.0158 34.6767 61.0225 35.01C61.0225 35.31 60.9392 35.58 60.7725 35.82C60.6058 36.06 60.3692 36.25 60.0625 36.39C59.7625 36.5233 59.4158 36.59 59.0225 36.59ZM66.0831 31.77V35C66.0831 35.2667 66.1398 35.4567 66.2531 35.57C66.3665 35.6767 66.5631 35.73 66.8431 35.73H67.5131V36.5H66.6931C66.1865 36.5 65.8065 36.3833 65.5531 36.15C65.2998 35.9167 65.1731 35.5333 65.1731 35V31.77H64.4631V31.02H65.1731V29.64H66.0831V31.02H67.5131V31.77H66.0831ZM71.0057 36.59C70.4924 36.59 70.0257 36.4733 69.6057 36.24C69.1924 36.0067 68.8657 35.6767 68.6257 35.25C68.3924 34.8167 68.2757 34.3167 68.2757 33.75C68.2757 33.19 68.3957 32.6967 68.6357 32.27C68.8824 31.8367 69.2157 31.5067 69.6357 31.28C70.0557 31.0467 70.5257 30.93 71.0457 30.93C71.5657 30.93 72.0357 31.0467 72.4557 31.28C72.8757 31.5067 73.2057 31.8333 73.4457 32.26C73.6924 32.6867 73.8157 33.1833 73.8157 33.75C73.8157 34.3167 73.689 34.8167 73.4357 35.25C73.189 35.6767 72.8524 36.0067 72.4257 36.24C71.999 36.4733 71.5257 36.59 71.0057 36.59ZM71.0057 35.79C71.3324 35.79 71.639 35.7133 71.9257 35.56C72.2124 35.4067 72.4424 35.1767 72.6157 34.87C72.7957 34.5633 72.8857 34.19 72.8857 33.75C72.8857 33.31 72.799 32.9367 72.6257 32.63C72.4524 32.3233 72.2257 32.0967 71.9457 31.95C71.6657 31.7967 71.3624 31.72 71.0357 31.72C70.7024 31.72 70.3957 31.7967 70.1157 31.95C69.8424 32.0967 69.6224 32.3233 69.4557 32.63C69.289 32.9367 69.2057 33.31 69.2057 33.75C69.2057 34.1967 69.2857 34.5733 69.4457 34.88C69.6124 35.1867 69.8324 35.4167 70.1057 35.57C70.379 35.7167 70.679 35.79 71.0057 35.79ZM77.3382 33.74C77.3382 33.18 77.4515 32.69 77.6782 32.27C77.9049 31.8433 78.2149 31.5133 78.6082 31.28C79.0082 31.0467 79.4515 30.93 79.9382 30.93C80.4182 30.93 80.8349 31.0333 81.1882 31.24C81.5415 31.4467 81.8049 31.7067 81.9782 32.02V31.02H82.8982V36.5H81.9782V35.48C81.7982 35.8 81.5282 36.0667 81.1682 36.28C80.8149 36.4867 80.4015 36.59 79.9282 36.59C79.4415 36.59 79.0015 36.47 78.6082 36.23C78.2149 35.99 77.9049 35.6533 77.6782 35.22C77.4515 34.7867 77.3382 34.2933 77.3382 33.74ZM81.9782 33.75C81.9782 33.3367 81.8949 32.9767 81.7282 32.67C81.5615 32.3633 81.3349 32.13 81.0482 31.97C80.7682 31.8033 80.4582 31.72 80.1182 31.72C79.7782 31.72 79.4682 31.8 79.1882 31.96C78.9082 32.12 78.6849 32.3533 78.5182 32.66C78.3515 32.9667 78.2682 33.3267 78.2682 33.74C78.2682 34.16 78.3515 34.5267 78.5182 34.84C78.6849 35.1467 78.9082 35.3833 79.1882 35.55C79.4682 35.71 79.7782 35.79 80.1182 35.79C80.4582 35.79 80.7682 35.71 81.0482 35.55C81.3349 35.3833 81.5615 35.1467 81.7282 34.84C81.8949 34.5267 81.9782 34.1633 81.9782 33.75ZM92.382 31.55C92.1887 31.1433 91.9087 30.83 91.542 30.61C91.1754 30.3833 90.7487 30.27 90.262 30.27C89.7754 30.27 89.3354 30.3833 88.942 30.61C88.5554 30.83 88.2487 31.15 88.022 31.57C87.802 31.9833 87.692 32.4633 87.692 33.01C87.692 33.5567 87.802 34.0367 88.022 34.45C88.2487 34.8633 88.5554 35.1833 88.942 35.41C89.3354 35.63 89.7754 35.74 90.262 35.74C90.942 35.74 91.502 35.5367 91.942 35.13C92.382 34.7233 92.6387 34.1733 92.712 33.48H89.932V32.74H93.682V33.44C93.6287 34.0133 93.4487 34.54 93.142 35.02C92.8354 35.4933 92.432 35.87 91.932 36.15C91.432 36.4233 90.8754 36.56 90.262 36.56C89.6154 36.56 89.0254 36.41 88.492 36.11C87.9587 35.8033 87.5354 35.38 87.222 34.84C86.9154 34.3 86.762 33.69 86.762 33.01C86.762 32.33 86.9154 31.72 87.222 31.18C87.5354 30.6333 87.9587 30.21 88.492 29.91C89.0254 29.6033 89.6154 29.45 90.262 29.45C91.002 29.45 91.6554 29.6333 92.222 30C92.7954 30.3667 93.212 30.8833 93.472 31.55H92.382ZM95.7952 29.1V36.5H94.8852V29.1H95.7952ZM99.7362 36.59C99.2228 36.59 98.7562 36.4733 98.3362 36.24C97.9228 36.0067 97.5962 35.6767 97.3562 35.25C97.1228 34.8167 97.0062 34.3167 97.0062 33.75C97.0062 33.19 97.1262 32.6967 97.3662 32.27C97.6128 31.8367 97.9462 31.5067 98.3662 31.28C98.7862 31.0467 99.2562 30.93 99.7762 30.93C100.296 30.93 100.766 31.0467 101.186 31.28C101.606 31.5067 101.936 31.8333 102.176 32.26C102.423 32.6867 102.546 33.1833 102.546 33.75C102.546 34.3167 102.42 34.8167 102.166 35.25C101.92 35.6767 101.583 36.0067 101.156 36.24C100.73 36.4733 100.256 36.59 99.7362 36.59ZM99.7362 35.79C100.063 35.79 100.37 35.7133 100.656 35.56C100.943 35.4067 101.173 35.1767 101.346 34.87C101.526 34.5633 101.616 34.19 101.616 33.75C101.616 33.31 101.53 32.9367 101.356 32.63C101.183 32.3233 100.956 32.0967 100.676 31.95C100.396 31.7967 100.093 31.72 99.7662 31.72C99.4328 31.72 99.1262 31.7967 98.8462 31.95C98.5728 32.0967 98.3528 32.3233 98.1862 32.63C98.0195 32.9367 97.9362 33.31 97.9362 33.75C97.9362 34.1967 98.0162 34.5733 98.1762 34.88C98.3428 35.1867 98.5628 35.4167 98.8362 35.57C99.1095 35.7167 99.4095 35.79 99.7362 35.79ZM104.653 32.04C104.839 31.7133 105.113 31.4467 105.473 31.24C105.833 31.0333 106.243 30.93 106.703 30.93C107.196 30.93 107.639 31.0467 108.033 31.28C108.426 31.5133 108.736 31.8433 108.963 32.27C109.189 32.69 109.303 33.18 109.303 33.74C109.303 34.2933 109.189 34.7867 108.963 35.22C108.736 35.6533 108.423 35.99 108.023 36.23C107.629 36.47 107.189 36.59 106.703 36.59C106.229 36.59 105.813 36.4867 105.453 36.28C105.099 36.0733 104.833 35.81 104.653 35.49V36.5H103.743V29.1H104.653V32.04ZM108.373 33.74C108.373 33.3267 108.289 32.9667 108.123 32.66C107.956 32.3533 107.729 32.12 107.443 31.96C107.163 31.8 106.853 31.72 106.513 31.72C106.179 31.72 105.869 31.8033 105.583 31.97C105.303 32.13 105.076 32.3667 104.903 32.68C104.736 32.9867 104.653 33.3433 104.653 33.75C104.653 34.1633 104.736 34.5267 104.903 34.84C105.076 35.1467 105.303 35.3833 105.583 35.55C105.869 35.71 106.179 35.79 106.513 35.79C106.853 35.79 107.163 35.71 107.443 35.55C107.729 35.3833 107.956 35.1467 108.123 34.84C108.289 34.5267 108.373 34.16 108.373 33.74ZM110.16 33.74C110.16 33.18 110.274 32.69 110.5 32.27C110.727 31.8433 111.037 31.5133 111.43 31.28C111.83 31.0467 112.274 30.93 112.76 30.93C113.24 30.93 113.657 31.0333 114.01 31.24C114.364 31.4467 114.627 31.7067 114.8 32.02V31.02H115.72V36.5H114.8V35.48C114.62 35.8 114.35 36.0667 113.99 36.28C113.637 36.4867 113.224 36.59 112.75 36.59C112.264 36.59 111.824 36.47 111.43 36.23C111.037 35.99 110.727 35.6533 110.5 35.22C110.274 34.7867 110.16 34.2933 110.16 33.74ZM114.8 33.75C114.8 33.3367 114.717 32.9767 114.55 32.67C114.384 32.3633 114.157 32.13 113.87 31.97C113.59 31.8033 113.28 31.72 112.94 31.72C112.6 31.72 112.29 31.8 112.01 31.96C111.73 32.12 111.507 32.3533 111.34 32.66C111.174 32.9667 111.09 33.3267 111.09 33.74C111.09 34.16 111.174 34.5267 111.34 34.84C111.507 35.1467 111.73 35.3833 112.01 35.55C112.29 35.71 112.6 35.79 112.94 35.79C113.28 35.79 113.59 35.71 113.87 35.55C114.157 35.3833 114.384 35.1467 114.55 34.84C114.717 34.5267 114.8 34.1633 114.8 33.75ZM118.168 29.1V36.5H117.258V29.1H118.168ZM126.675 29.53V30.27H124.775V36.5H123.865V30.27H121.955V29.53H126.675ZM127.455 33.74C127.455 33.18 127.569 32.69 127.795 32.27C128.022 31.8433 128.332 31.5133 128.725 31.28C129.125 31.0467 129.569 30.93 130.055 30.93C130.535 30.93 130.952 31.0333 131.305 31.24C131.659 31.4467 131.922 31.7067 132.095 32.02V31.02H133.015V36.5H132.095V35.48C131.915 35.8 131.645 36.0667 131.285 36.28C130.932 36.4867 130.519 36.59 130.045 36.59C129.559 36.59 129.119 36.47 128.725 36.23C128.332 35.99 128.022 35.6533 127.795 35.22C127.569 34.7867 127.455 34.2933 127.455 33.74ZM132.095 33.75C132.095 33.3367 132.012 32.9767 131.845 32.67C131.679 32.3633 131.452 32.13 131.165 31.97C130.885 31.8033 130.575 31.72 130.235 31.72C129.895 31.72 129.585 31.8 129.305 31.96C129.025 32.12 128.802 32.3533 128.635 32.66C128.469 32.9667 128.385 33.3267 128.385 33.74C128.385 34.16 128.469 34.5267 128.635 34.84C128.802 35.1467 129.025 35.3833 129.305 35.55C129.585 35.71 129.895 35.79 130.235 35.79C130.575 35.79 130.885 35.71 131.165 35.55C131.452 35.3833 131.679 35.1467 131.845 34.84C132.012 34.5267 132.095 34.1633 132.095 33.75ZM135.463 29.1V36.5H134.553V29.1H135.463ZM142.014 33.55C142.014 33.7233 142.004 33.9067 141.984 34.1H137.604C137.637 34.64 137.821 35.0633 138.154 35.37C138.494 35.67 138.904 35.82 139.384 35.82C139.777 35.82 140.104 35.73 140.364 35.55C140.631 35.3633 140.817 35.1167 140.924 34.81H141.904C141.757 35.3367 141.464 35.7667 141.024 36.1C140.584 36.4267 140.037 36.59 139.384 36.59C138.864 36.59 138.397 36.4733 137.984 36.24C137.577 36.0067 137.257 35.6767 137.024 35.25C136.791 34.8167 136.674 34.3167 136.674 33.75C136.674 33.1833 136.787 32.6867 137.014 32.26C137.241 31.8333 137.557 31.5067 137.964 31.28C138.377 31.0467 138.851 30.93 139.384 30.93C139.904 30.93 140.364 31.0433 140.764 31.27C141.164 31.4967 141.471 31.81 141.684 32.21C141.904 32.6033 142.014 33.05 142.014 33.55ZM141.074 33.36C141.074 33.0133 140.997 32.7167 140.844 32.47C140.691 32.2167 140.481 32.0267 140.214 31.9C139.954 31.7667 139.664 31.7 139.344 31.7C138.884 31.7 138.491 31.8467 138.164 32.14C137.844 32.4333 137.661 32.84 137.614 33.36H141.074ZM145.885 30.92C146.552 30.92 147.092 31.1233 147.505 31.53C147.919 31.93 148.125 32.51 148.125 33.27V36.5H147.225V33.4C147.225 32.8533 147.089 32.4367 146.815 32.15C146.542 31.8567 146.169 31.71 145.695 31.71C145.215 31.71 144.832 31.86 144.545 32.16C144.265 32.46 144.125 32.8967 144.125 33.47V36.5H143.215V31.02H144.125V31.8C144.305 31.52 144.549 31.3033 144.855 31.15C145.169 30.9967 145.512 30.92 145.885 30.92ZM150.722 31.77V35C150.722 35.2667 150.778 35.4567 150.892 35.57C151.005 35.6767 151.202 35.73 151.482 35.73H152.152V36.5H151.332C150.825 36.5 150.445 36.3833 150.192 36.15C149.938 35.9167 149.812 35.5333 149.812 35V31.77H149.102V31.02H149.812V29.64H150.722V31.02H152.152V31.77H150.722ZM160.58 31.57C160.58 32.15 160.38 32.6333 159.98 33.02C159.587 33.4 158.984 33.59 158.17 33.59H156.83V36.5H155.92V29.53H158.17C158.957 29.53 159.554 29.72 159.96 30.1C160.374 30.48 160.58 30.97 160.58 31.57ZM158.17 32.84C158.677 32.84 159.05 32.73 159.29 32.51C159.53 32.29 159.65 31.9767 159.65 31.57C159.65 30.71 159.157 30.28 158.17 30.28H156.83V32.84H158.17ZM164.101 36.59C163.588 36.59 163.121 36.4733 162.701 36.24C162.288 36.0067 161.961 35.6767 161.721 35.25C161.488 34.8167 161.371 34.3167 161.371 33.75C161.371 33.19 161.491 32.6967 161.731 32.27C161.978 31.8367 162.311 31.5067 162.731 31.28C163.151 31.0467 163.621 30.93 164.141 30.93C164.661 30.93 165.131 31.0467 165.551 31.28C165.971 31.5067 166.301 31.8333 166.541 32.26C166.788 32.6867 166.911 33.1833 166.911 33.75C166.911 34.3167 166.785 34.8167 166.531 35.25C166.285 35.6767 165.948 36.0067 165.521 36.24C165.095 36.4733 164.621 36.59 164.101 36.59ZM164.101 35.79C164.428 35.79 164.735 35.7133 165.021 35.56C165.308 35.4067 165.538 35.1767 165.711 34.87C165.891 34.5633 165.981 34.19 165.981 33.75C165.981 33.31 165.895 32.9367 165.721 32.63C165.548 32.3233 165.321 32.0967 165.041 31.95C164.761 31.7967 164.458 31.72 164.131 31.72C163.798 31.72 163.491 31.7967 163.211 31.95C162.938 32.0967 162.718 32.3233 162.551 32.63C162.385 32.9367 162.301 33.31 162.301 33.75C162.301 34.1967 162.381 34.5733 162.541 34.88C162.708 35.1867 162.928 35.4167 163.201 35.57C163.475 35.7167 163.775 35.79 164.101 35.79ZM170.498 36.59C169.985 36.59 169.518 36.4733 169.098 36.24C168.685 36.0067 168.358 35.6767 168.118 35.25C167.885 34.8167 167.768 34.3167 167.768 33.75C167.768 33.19 167.888 32.6967 168.128 32.27C168.375 31.8367 168.708 31.5067 169.128 31.28C169.548 31.0467 170.018 30.93 170.538 30.93C171.058 30.93 171.528 31.0467 171.948 31.28C172.368 31.5067 172.698 31.8333 172.938 32.26C173.185 32.6867 173.308 33.1833 173.308 33.75C173.308 34.3167 173.181 34.8167 172.928 35.25C172.681 35.6767 172.345 36.0067 171.918 36.24C171.491 36.4733 171.018 36.59 170.498 36.59ZM170.498 35.79C170.825 35.79 171.131 35.7133 171.418 35.56C171.705 35.4067 171.935 35.1767 172.108 34.87C172.288 34.5633 172.378 34.19 172.378 33.75C172.378 33.31 172.291 32.9367 172.118 32.63C171.945 32.3233 171.718 32.0967 171.438 31.95C171.158 31.7967 170.855 31.72 170.528 31.72C170.195 31.72 169.888 31.7967 169.608 31.95C169.335 32.0967 169.115 32.3233 168.948 32.63C168.781 32.9367 168.698 33.31 168.698 33.75C168.698 34.1967 168.778 34.5733 168.938 34.88C169.105 35.1867 169.325 35.4167 169.598 35.57C169.871 35.7167 170.171 35.79 170.498 35.79ZM175.414 29.1V36.5H174.504V29.1H175.414Z" fill="#141219" fill-opacity="0.8"/>
<path d="M6.75 56.0689L9.02273 58.5L14.25 53.25" stroke="#0874AA" stroke-width="1.5" stroke-linecap="round" stroke-linejoin="round"/>
<path d="M15.75 57C15.75 60.7279 12.7279 63.75 9 63.75C5.27208 63.75 2.25 60.7279 2.25 57C2.25 53.2721 5.27208 50.25 9 50.25C9.73664 50.25 10.4457 50.368 11.1094 50.5861" stroke="#0874AA" stroke-width="1.5" stroke-linecap="round" stroke-linejoin="round"/>
<path d="M32.14 53.53V60.5H31.23V57.34H27.68V60.5H26.77V53.53H27.68V56.59H31.23V53.53H32.14ZM34.1638 54.13C33.9905 54.13 33.8438 54.07 33.7238 53.95C33.6038 53.83 33.5438 53.6833 33.5438 53.51C33.5438 53.3367 33.6038 53.19 33.7238 53.07C33.8438 52.95 33.9905 52.89 34.1638 52.89C34.3305 52.89 34.4705 52.95 34.5838 53.07C34.7038 53.19 34.7638 53.3367 34.7638 53.51C34.7638 53.6833 34.7038 53.83 34.5838 53.95C34.4705 54.07 34.3305 54.13 34.1638 54.13ZM34.6038 55.02V60.5H33.6938V55.02H34.6038ZM37.0648 55.91C37.2248 55.5967 37.4514 55.3533 37.7448 55.18C38.0448 55.0067 38.4081 54.92 38.8348 54.92V55.86H38.5948C37.5748 55.86 37.0648 56.4133 37.0648 57.52V60.5H36.1548V55.02H37.0648V55.91ZM44.8852 57.55C44.8852 57.7233 44.8752 57.9067 44.8552 58.1H40.4752C40.5086 58.64 40.6919 59.0633 41.0252 59.37C41.3652 59.67 41.7752 59.82 42.2552 59.82C42.6486 59.82 42.9752 59.73 43.2352 59.55C43.5019 59.3633 43.6886 59.1167 43.7952 58.81H44.7752C44.6286 59.3367 44.3352 59.7667 43.8952 60.1C43.4552 60.4267 42.9086 60.59 42.2552 60.59C41.7352 60.59 41.2686 60.4733 40.8552 60.24C40.4486 60.0067 40.1286 59.6767 39.8952 59.25C39.6619 58.8167 39.5452 58.3167 39.5452 57.75C39.5452 57.1833 39.6586 56.6867 39.8852 56.26C40.1119 55.8333 40.4286 55.5067 40.8352 55.28C41.2486 55.0467 41.7219 54.93 42.2552 54.93C42.7752 54.93 43.2352 55.0433 43.6352 55.27C44.0352 55.4967 44.3419 55.81 44.5552 56.21C44.7752 56.6033 44.8852 57.05 44.8852 57.55ZM43.9452 57.36C43.9452 57.0133 43.8686 56.7167 43.7152 56.47C43.5619 56.2167 43.3519 56.0267 43.0852 55.9C42.8252 55.7667 42.5352 55.7 42.2152 55.7C41.7552 55.7 41.3619 55.8467 41.0352 56.14C40.7152 56.4333 40.5319 56.84 40.4852 57.36H43.9452ZM56.0524 55.02L54.3424 60.5H53.4024L52.0824 56.15L50.7624 60.5H49.8224L48.1024 55.02H49.0324L50.2924 59.62L51.6524 55.02H52.5824L53.9124 59.63L55.1524 55.02H56.0524ZM57.4255 54.13C57.2522 54.13 57.1055 54.07 56.9855 53.95C56.8655 53.83 56.8055 53.6833 56.8055 53.51C56.8055 53.3367 56.8655 53.19 56.9855 53.07C57.1055 52.95 57.2522 52.89 57.4255 52.89C57.5922 52.89 57.7322 52.95 57.8455 53.07C57.9655 53.19 58.0255 53.3367 58.0255 53.51C58.0255 53.6833 57.9655 53.83 57.8455 53.95C57.7322 54.07 57.5922 54.13 57.4255 54.13ZM57.8655 55.02V60.5H56.9555V55.02H57.8655ZM60.5265 55.77V59C60.5265 59.2667 60.5832 59.4567 60.6965 59.57C60.8098 59.6767 61.0065 59.73 61.2865 59.73H61.9565V60.5H61.1365C60.6298 60.5 60.2498 60.3833 59.9965 60.15C59.7432 59.9167 59.6165 59.5333 59.6165 59V55.77H58.9065V55.02H59.6165V53.64H60.5265V55.02H61.9565V55.77H60.5265ZM65.7791 54.92C66.1924 54.92 66.5657 55.01 66.8991 55.19C67.2324 55.3633 67.4924 55.6267 67.6791 55.98C67.8724 56.3333 67.9691 56.7633 67.9691 57.27V60.5H67.0691V57.4C67.0691 56.8533 66.9324 56.4367 66.6591 56.15C66.3857 55.8567 66.0124 55.71 65.5391 55.71C65.0591 55.71 64.6757 55.86 64.3891 56.16C64.1091 56.46 63.9691 56.8967 63.9691 57.47V60.5H63.0591V53.1H63.9691V55.8C64.1491 55.52 64.3957 55.3033 64.7091 55.15C65.0291 54.9967 65.3857 54.92 65.7791 54.92ZM73.0316 56.03C73.2116 55.7167 73.4782 55.4567 73.8316 55.25C74.1916 55.0367 74.6082 54.93 75.0816 54.93C75.5682 54.93 76.0082 55.0467 76.4016 55.28C76.8016 55.5133 77.1149 55.8433 77.3416 56.27C77.5682 56.69 77.6816 57.18 77.6816 57.74C77.6816 58.2933 77.5682 58.7867 77.3416 59.22C77.1149 59.6533 76.8016 59.99 76.4016 60.23C76.0082 60.47 75.5682 60.59 75.0816 60.59C74.6149 60.59 74.2016 60.4867 73.8416 60.28C73.4882 60.0667 73.2182 59.8033 73.0316 59.49V63.1H72.1216V55.02H73.0316V56.03ZM76.7516 57.74C76.7516 57.3267 76.6682 56.9667 76.5016 56.66C76.3349 56.3533 76.1082 56.12 75.8216 55.96C75.5416 55.8 75.2316 55.72 74.8916 55.72C74.5582 55.72 74.2482 55.8033 73.9616 55.97C73.6816 56.13 73.4549 56.3667 73.2816 56.68C73.1149 56.9867 73.0316 57.3433 73.0316 57.75C73.0316 58.1633 73.1149 58.5267 73.2816 58.84C73.4549 59.1467 73.6816 59.3833 73.9616 59.55C74.2482 59.71 74.5582 59.79 74.8916 59.79C75.2316 59.79 75.5416 59.71 75.8216 59.55C76.1082 59.3833 76.3349 59.1467 76.5016 58.84C76.6682 58.5267 76.7516 58.16 76.7516 57.74ZM79.7894 55.91C79.9494 55.5967 80.176 55.3533 80.4694 55.18C80.7694 55.0067 81.1327 54.92 81.5594 54.92V55.86H81.3194C80.2994 55.86 79.7894 56.4133 79.7894 57.52V60.5H78.8794V55.02H79.7894V55.91ZM87.6098 57.55C87.6098 57.7233 87.5998 57.9067 87.5798 58.1H83.1998C83.2332 58.64 83.4165 59.0633 83.7498 59.37C84.0898 59.67 84.4998 59.82 84.9798 59.82C85.3732 59.82 85.6998 59.73 85.9598 59.55C86.2265 59.3633 86.4132 59.1167 86.5198 58.81H87.4998C87.3532 59.3367 87.0598 59.7667 86.6198 60.1C86.1798 60.4267 85.6332 60.59 84.9798 60.59C84.4598 60.59 83.9932 60.4733 83.5798 60.24C83.1732 60.0067 82.8532 59.6767 82.6198 59.25C82.3865 58.8167 82.2698 58.3167 82.2698 57.75C82.2698 57.1833 82.3832 56.6867 82.6098 56.26C82.8365 55.8333 83.1532 55.5067 83.5598 55.28C83.9732 55.0467 84.4465 54.93 84.9798 54.93C85.4998 54.93 85.9598 55.0433 86.3598 55.27C86.7598 55.4967 87.0665 55.81 87.2798 56.21C87.4998 56.6033 87.6098 57.05 87.6098 57.55ZM86.6698 57.36C86.6698 57.0133 86.5932 56.7167 86.4398 56.47C86.2865 56.2167 86.0765 56.0267 85.8098 55.9C85.5498 55.7667 85.2598 55.7 84.9398 55.7C84.4798 55.7 84.0865 55.8467 83.7598 56.14C83.4398 56.4333 83.2565 56.84 83.2098 57.36H86.6698ZM88.471 57.75C88.471 57.1833 88.5843 56.69 88.811 56.27C89.0377 55.8433 89.351 55.5133 89.751 55.28C90.1577 55.0467 90.621 54.93 91.141 54.93C91.8143 54.93 92.3677 55.0933 92.801 55.42C93.241 55.7467 93.531 56.2 93.671 56.78H92.691C92.5977 56.4467 92.4143 56.1833 92.141 55.99C91.8743 55.7967 91.541 55.7 91.141 55.7C90.621 55.7 90.201 55.88 89.881 56.24C89.561 56.5933 89.401 57.0967 89.401 57.75C89.401 58.41 89.561 58.92 89.881 59.28C90.201 59.64 90.621 59.82 91.141 59.82C91.541 59.82 91.8743 59.7267 92.141 59.54C92.4077 59.3533 92.591 59.0867 92.691 58.74H93.671C93.5243 59.3 93.231 59.75 92.791 60.09C92.351 60.4233 91.801 60.59 91.141 60.59C90.621 60.59 90.1577 60.4733 89.751 60.24C89.351 60.0067 89.0377 59.6767 88.811 59.25C88.5843 58.8233 88.471 58.3233 88.471 57.75ZM95.3552 54.13C95.1819 54.13 95.0352 54.07 94.9152 53.95C94.7952 53.83 94.7352 53.6833 94.7352 53.51C94.7352 53.3367 94.7952 53.19 94.9152 53.07C95.0352 52.95 95.1819 52.89 95.3552 52.89C95.5219 52.89 95.6619 52.95 95.7752 53.07C95.8952 53.19 95.9552 53.3367 95.9552 53.51C95.9552 53.6833 95.8952 53.83 95.7752 53.95C95.6619 54.07 95.5219 54.13 95.3552 54.13ZM95.7952 55.02V60.5H94.8852V55.02H95.7952ZM99.2862 60.59C98.8662 60.59 98.4895 60.52 98.1562 60.38C97.8228 60.2333 97.5595 60.0333 97.3662 59.78C97.1728 59.52 97.0662 59.2233 97.0462 58.89H97.9862C98.0128 59.1633 98.1395 59.3867 98.3662 59.56C98.5995 59.7333 98.9028 59.82 99.2762 59.82C99.6228 59.82 99.8962 59.7433 100.096 59.59C100.296 59.4367 100.396 59.2433 100.396 59.01C100.396 58.77 100.29 58.5933 100.076 58.48C99.8628 58.36 99.5328 58.2433 99.0862 58.13C98.6795 58.0233 98.3462 57.9167 98.0862 57.81C97.8328 57.6967 97.6128 57.5333 97.4262 57.32C97.2462 57.1 97.1562 56.8133 97.1562 56.46C97.1562 56.18 97.2395 55.9233 97.4062 55.69C97.5728 55.4567 97.8095 55.2733 98.1162 55.14C98.4228 55 98.7728 54.93 99.1662 54.93C99.7728 54.93 100.263 55.0833 100.636 55.39C101.01 55.6967 101.21 56.1167 101.236 56.65H100.326C100.306 56.3633 100.19 56.1333 99.9762 55.96C99.7695 55.7867 99.4895 55.7 99.1362 55.7C98.8095 55.7 98.5495 55.77 98.3562 55.91C98.1628 56.05 98.0662 56.2333 98.0662 56.46C98.0662 56.64 98.1228 56.79 98.2362 56.91C98.3562 57.0233 98.5028 57.1167 98.6762 57.19C98.8562 57.2567 99.1028 57.3333 99.4162 57.42C99.8095 57.5267 100.13 57.6333 100.376 57.74C100.623 57.84 100.833 57.9933 101.006 58.2C101.186 58.4067 101.28 58.6767 101.286 59.01C101.286 59.31 101.203 59.58 101.036 59.82C100.87 60.06 100.633 60.25 100.326 60.39C100.026 60.5233 99.6795 60.59 99.2862 60.59ZM103.041 54.13C102.867 54.13 102.721 54.07 102.601 53.95C102.481 53.83 102.421 53.6833 102.421 53.51C102.421 53.3367 102.481 53.19 102.601 53.07C102.721 52.95 102.867 52.89 103.041 52.89C103.207 52.89 103.347 52.95 103.461 53.07C103.581 53.19 103.641 53.3367 103.641 53.51C103.641 53.6833 103.581 53.83 103.461 53.95C103.347 54.07 103.207 54.13 103.041 54.13ZM103.481 55.02V60.5H102.571V55.02H103.481ZM107.422 60.59C106.908 60.59 106.442 60.4733 106.022 60.24C105.608 60.0067 105.282 59.6767 105.042 59.25C104.808 58.8167 104.692 58.3167 104.692 57.75C104.692 57.19 104.812 56.6967 105.052 56.27C105.298 55.8367 105.632 55.5067 106.052 55.28C106.472 55.0467 106.942 54.93 107.462 54.93C107.982 54.93 108.452 55.0467 108.872 55.28C109.292 55.5067 109.622 55.8333 109.862 56.26C110.108 56.6867 110.232 57.1833 110.232 57.75C110.232 58.3167 110.105 58.8167 109.852 59.25C109.605 59.6767 109.268 60.0067 108.842 60.24C108.415 60.4733 107.942 60.59 107.422 60.59ZM107.422 59.79C107.748 59.79 108.055 59.7133 108.342 59.56C108.628 59.4067 108.858 59.1767 109.032 58.87C109.212 58.5633 109.302 58.19 109.302 57.75C109.302 57.31 109.215 56.9367 109.042 56.63C108.868 56.3233 108.642 56.0967 108.362 55.95C108.082 55.7967 107.778 55.72 107.452 55.72C107.118 55.72 106.812 55.7967 106.532 55.95C106.258 56.0967 106.038 56.3233 105.872 56.63C105.705 56.9367 105.622 57.31 105.622 57.75C105.622 58.1967 105.702 58.5733 105.862 58.88C106.028 59.1867 106.248 59.4167 106.522 59.57C106.795 59.7167 107.095 59.79 107.422 59.79ZM114.098 54.92C114.765 54.92 115.305 55.1233 115.718 55.53C116.132 55.93 116.338 56.51 116.338 57.27V60.5H115.438V57.4C115.438 56.8533 115.302 56.4367 115.028 56.15C114.755 55.8567 114.382 55.71 113.908 55.71C113.428 55.71 113.045 55.86 112.758 56.16C112.478 56.46 112.338 56.8967 112.338 57.47V60.5H111.428V55.02H112.338V55.8C112.518 55.52 112.762 55.3033 113.068 55.15C113.382 54.9967 113.725 54.92 114.098 54.92ZM120.151 57.74C120.151 57.18 120.264 56.69 120.491 56.27C120.717 55.8433 121.027 55.5133 121.421 55.28C121.821 55.0467 122.264 54.93 122.751 54.93C123.231 54.93 123.647 55.0333 124.001 55.24C124.354 55.4467 124.617 55.7067 124.791 56.02V55.02H125.711V60.5H124.791V59.48C124.611 59.8 124.341 60.0667 123.981 60.28C123.627 60.4867 123.214 60.59 122.741 60.59C122.254 60.59 121.814 60.47 121.421 60.23C121.027 59.99 120.717 59.6533 120.491 59.22C120.264 58.7867 120.151 58.2933 120.151 57.74ZM124.791 57.75C124.791 57.3367 124.707 56.9767 124.541 56.67C124.374 56.3633 124.147 56.13 123.861 55.97C123.581 55.8033 123.271 55.72 122.931 55.72C122.591 55.72 122.281 55.8 122.001 55.96C121.721 56.12 121.497 56.3533 121.331 56.66C121.164 56.9667 121.081 57.3267 121.081 57.74C121.081 58.16 121.164 58.5267 121.331 58.84C121.497 59.1467 121.721 59.3833 122.001 59.55C122.281 59.71 122.591 59.79 122.931 59.79C123.271 59.79 123.581 59.71 123.861 59.55C124.147 59.3833 124.374 59.1467 124.541 58.84C124.707 58.5267 124.791 58.1633 124.791 57.75ZM129.919 54.92C130.585 54.92 131.125 55.1233 131.539 55.53C131.952 55.93 132.159 56.51 132.159 57.27V60.5H131.259V57.4C131.259 56.8533 131.122 56.4367 130.849 56.15C130.575 55.8567 130.202 55.71 129.729 55.71C129.249 55.71 128.865 55.86 128.579 56.16C128.299 56.46 128.159 56.8967 128.159 57.47V60.5H127.249V55.02H128.159V55.8C128.339 55.52 128.582 55.3033 128.889 55.15C129.202 54.9967 129.545 54.92 129.919 54.92ZM133.305 57.74C133.305 57.18 133.418 56.69 133.645 56.27C133.872 55.8433 134.182 55.5133 134.575 55.28C134.975 55.0467 135.422 54.93 135.915 54.93C136.342 54.93 136.738 55.03 137.105 55.23C137.472 55.4233 137.752 55.68 137.945 56V53.1H138.865V60.5H137.945V59.47C137.765 59.7967 137.498 60.0667 137.145 60.28C136.792 60.4867 136.378 60.59 135.905 60.59C135.418 60.59 134.975 60.47 134.575 60.23C134.182 59.99 133.872 59.6533 133.645 59.22C133.418 58.7867 133.305 58.2933 133.305 57.74ZM137.945 57.75C137.945 57.3367 137.862 56.9767 137.695 56.67C137.528 56.3633 137.302 56.13 137.015 55.97C136.735 55.8033 136.425 55.72 136.085 55.72C135.745 55.72 135.435 55.8 135.155 55.96C134.875 56.12 134.652 56.3533 134.485 56.66C134.318 56.9667 134.235 57.3267 134.235 57.74C134.235 58.16 134.318 58.5267 134.485 58.84C134.652 59.1467 134.875 59.3833 135.155 59.55C135.435 59.71 135.745 59.79 136.085 59.79C136.425 59.79 136.735 59.71 137.015 59.55C137.302 59.3833 137.528 59.1467 137.695 58.84C137.862 58.5267 137.945 58.1633 137.945 57.75ZM143.539 54.13C143.365 54.13 143.219 54.07 143.099 53.95C142.979 53.83 142.919 53.6833 142.919 53.51C142.919 53.3367 142.979 53.19 143.099 53.07C143.219 52.95 143.365 52.89 143.539 52.89C143.705 52.89 143.845 52.95 143.959 53.07C144.079 53.19 144.139 53.3367 144.139 53.51C144.139 53.6833 144.079 53.83 143.959 53.95C143.845 54.07 143.705 54.13 143.539 54.13ZM143.979 55.02V60.5H143.069V55.02H143.979ZM152.12 54.92C152.546 54.92 152.926 55.01 153.26 55.19C153.593 55.3633 153.856 55.6267 154.05 55.98C154.243 56.3333 154.34 56.7633 154.34 57.27V60.5H153.44V57.4C153.44 56.8533 153.303 56.4367 153.03 56.15C152.763 55.8567 152.4 55.71 151.94 55.71C151.466 55.71 151.09 55.8633 150.81 56.17C150.53 56.47 150.39 56.9067 150.39 57.48V60.5H149.49V57.4C149.49 56.8533 149.353 56.4367 149.08 56.15C148.813 55.8567 148.45 55.71 147.99 55.71C147.516 55.71 147.14 55.8633 146.86 56.17C146.58 56.47 146.44 56.9067 146.44 57.48V60.5H145.53V55.02H146.44V55.81C146.62 55.5233 146.86 55.3033 147.16 55.15C147.466 54.9967 147.803 54.92 148.17 54.92C148.63 54.92 149.036 55.0233 149.39 55.23C149.743 55.4367 150.006 55.74 150.18 56.14C150.333 55.7533 150.586 55.4533 150.94 55.24C151.293 55.0267 151.686 54.92 152.12 54.92ZM156.743 56.03C156.923 55.7167 157.189 55.4567 157.543 55.25C157.903 55.0367 158.319 54.93 158.793 54.93C159.279 54.93 159.719 55.0467 160.112 55.28C160.512 55.5133 160.826 55.8433 161.053 56.27C161.279 56.69 161.393 57.18 161.393 57.74C161.393 58.2933 161.279 58.7867 161.053 59.22C160.826 59.6533 160.512 59.99 160.112 60.23C159.719 60.47 159.279 60.59 158.793 60.59C158.326 60.59 157.913 60.4867 157.553 60.28C157.199 60.0667 156.929 59.8033 156.743 59.49V63.1H155.833V55.02H156.743V56.03ZM160.463 57.74C160.463 57.3267 160.379 56.9667 160.213 56.66C160.046 56.3533 159.819 56.12 159.533 55.96C159.253 55.8 158.943 55.72 158.603 55.72C158.269 55.72 157.959 55.8033 157.673 55.97C157.393 56.13 157.166 56.3667 156.993 56.68C156.826 56.9867 156.743 57.3433 156.743 57.75C156.743 58.1633 156.826 58.5267 156.993 58.84C157.166 59.1467 157.393 59.3833 157.673 59.55C157.959 59.71 158.269 59.79 158.603 59.79C158.943 59.79 159.253 59.71 159.533 59.55C159.819 59.3833 160.046 59.1467 160.213 58.84C160.379 58.5267 160.463 58.16 160.463 57.74ZM162.25 57.74C162.25 57.18 162.364 56.69 162.59 56.27C162.817 55.8433 163.127 55.5133 163.52 55.28C163.92 55.0467 164.364 54.93 164.85 54.93C165.33 54.93 165.747 55.0333 166.1 55.24C166.454 55.4467 166.717 55.7067 166.89 56.02V55.02H167.81V60.5H166.89V59.48C166.71 59.8 166.44 60.0667 166.08 60.28C165.727 60.4867 165.314 60.59 164.84 60.59C164.354 60.59 163.914 60.47 163.52 60.23C163.127 59.99 162.817 59.6533 162.59 59.22C162.364 58.7867 162.25 58.2933 162.25 57.74ZM166.89 57.75C166.89 57.3367 166.807 56.9767 166.64 56.67C166.474 56.3633 166.247 56.13 165.96 55.97C165.68 55.8033 165.37 55.72 165.03 55.72C164.69 55.72 164.38 55.8 164.1 55.96C163.82 56.12 163.597 56.3533 163.43 56.66C163.264 56.9667 163.18 57.3267 163.18 57.74C163.18 58.16 163.264 58.5267 163.43 58.84C163.597 59.1467 163.82 59.3833 164.1 59.55C164.38 59.71 164.69 59.79 165.03 59.79C165.37 59.79 165.68 59.71 165.96 59.55C166.247 59.3833 166.474 59.1467 166.64 58.84C166.807 58.5267 166.89 58.1633 166.89 57.75ZM169.008 57.75C169.008 57.1833 169.121 56.69 169.348 56.27C169.575 55.8433 169.888 55.5133 170.288 55.28C170.695 55.0467 171.158 54.93 171.678 54.93C172.351 54.93 172.905 55.0933 173.338 55.42C173.778 55.7467 174.068 56.2 174.208 56.78H173.228C173.135 56.4467 172.951 56.1833 172.678 55.99C172.411 55.7967 172.078 55.7 171.678 55.7C171.158 55.7 170.738 55.88 170.418 56.24C170.098 56.5933 169.938 57.0967 169.938 57.75C169.938 58.41 170.098 58.92 170.418 59.28C170.738 59.64 171.158 59.82 171.678 59.82C172.078 59.82 172.411 59.7267 172.678 59.54C172.945 59.3533 173.128 59.0867 173.228 58.74H174.208C174.061 59.3 173.768 59.75 173.328 60.09C172.888 60.4233 172.338 60.59 171.678 60.59C171.158 60.59 170.695 60.4733 170.288 60.24C169.888 60.0067 169.575 59.6767 169.348 59.25C169.121 58.8233 169.008 58.3233 169.008 57.75ZM176.532 55.77V59C176.532 59.2667 176.589 59.4567 176.702 59.57C176.816 59.6767 177.012 59.73 177.292 59.73H177.962V60.5H177.142C176.636 60.5 176.256 60.3833 176.002 60.15C175.749 59.9167 175.622 59.5333 175.622 59V55.77H174.912V55.02H175.622V53.64H176.532V55.02H177.962V55.77H176.532ZM179.355 60.56C179.182 60.56 179.035 60.5 178.915 60.38C178.795 60.26 178.735 60.1133 178.735 59.94C178.735 59.7667 178.795 59.62 178.915 59.5C179.035 59.38 179.182 59.32 179.355 59.32C179.522 59.32 179.662 59.38 179.775 59.5C179.895 59.62 179.955 59.7667 179.955 59.94C179.955 60.1133 179.895 60.26 179.775 60.38C179.662 60.5 179.522 60.56 179.355 60.56Z" fill="#141219" fill-opacity="0.8"/>
<path d="M6.75 8.06889L9.02273 10.5L14.25 5.25" stroke="#0874AA" stroke-width="1.5" stroke-linecap="round" stroke-linejoin="round"/>
<path d="M15.75 9C15.75 12.7279 12.7279 15.75 9 15.75C5.27208 15.75 2.25 12.7279 2.25 9C2.25 5.27208 5.27208 2.25 9 2.25C9.73664 2.25 10.4457 2.368 11.1094 2.58613" stroke="#0874AA" stroke-width="1.5" stroke-linecap="round" stroke-linejoin="round"/>
<path d="M26.43 9.01C26.43 8.33 26.5833 7.72 26.89 7.18C27.1967 6.63333 27.6133 6.20667 28.14 5.9C28.6733 5.59333 29.2633 5.44 29.91 5.44C30.67 5.44 31.3333 5.62333 31.9 5.99C32.4667 6.35667 32.88 6.87667 33.14 7.55H32.05C31.8567 7.13 31.5767 6.80667 31.21 6.58C30.85 6.35333 30.4167 6.24 29.91 6.24C29.4233 6.24 28.9867 6.35333 28.6 6.58C28.2133 6.80667 27.91 7.13 27.69 7.55C27.47 7.96333 27.36 8.45 27.36 9.01C27.36 9.56333 27.47 10.05 27.69 10.47C27.91 10.8833 28.2133 11.2033 28.6 11.43C28.9867 11.6567 29.4233 11.77 29.91 11.77C30.4167 11.77 30.85 11.66 31.21 11.44C31.5767 11.2133 31.8567 10.89 32.05 10.47H33.14C32.88 11.1367 32.4667 11.6533 31.9 12.02C31.3333 12.38 30.67 12.56 29.91 12.56C29.2633 12.56 28.6733 12.41 28.14 12.11C27.6133 11.8033 27.1967 11.38 26.89 10.84C26.5833 10.3 26.43 9.69 26.43 9.01ZM34.1546 9.74C34.1546 9.18 34.2679 8.69 34.4946 8.27C34.7213 7.84333 35.0313 7.51333 35.4246 7.28C35.8246 7.04667 36.2679 6.93 36.7546 6.93C37.2346 6.93 37.6513 7.03333 38.0046 7.24C38.3579 7.44667 38.6213 7.70667 38.7946 8.02V7.02H39.7146V12.5H38.7946V11.48C38.6146 11.8 38.3446 12.0667 37.9846 12.28C37.6313 12.4867 37.2179 12.59 36.7446 12.59C36.2579 12.59 35.8179 12.47 35.4246 12.23C35.0313 11.99 34.7213 11.6533 34.4946 11.22C34.2679 10.7867 34.1546 10.2933 34.1546 9.74ZM38.7946 9.75C38.7946 9.33667 38.7113 8.97667 38.5446 8.67C38.3779 8.36333 38.1513 8.13 37.8646 7.97C37.5846 7.80333 37.2746 7.72 36.9346 7.72C36.5946 7.72 36.2846 7.8 36.0046 7.96C35.7246 8.12 35.5013 8.35333 35.3346 8.66C35.1679 8.96667 35.0846 9.32667 35.0846 9.74C35.0846 10.16 35.1679 10.5267 35.3346 10.84C35.5013 11.1467 35.7246 11.3833 36.0046 11.55C36.2846 11.71 36.5946 11.79 36.9346 11.79C37.2746 11.79 37.5846 11.71 37.8646 11.55C38.1513 11.3833 38.3779 11.1467 38.5446 10.84C38.7113 10.5267 38.7946 10.1633 38.7946 9.75ZM43.9224 6.92C44.5891 6.92 45.1291 7.12333 45.5424 7.53C45.9558 7.93 46.1624 8.51 46.1624 9.27V12.5H45.2624V9.4C45.2624 8.85333 45.1258 8.43667 44.8524 8.15C44.5791 7.85667 44.2058 7.71 43.7324 7.71C43.2524 7.71 42.8691 7.86 42.5824 8.16C42.3024 8.46 42.1624 8.89667 42.1624 9.47V12.5H41.2524V7.02H42.1624V7.8C42.3424 7.52 42.5858 7.30333 42.8924 7.15C43.2058 6.99667 43.5491 6.92 43.9224 6.92ZM47.3089 9.74C47.3089 9.18 47.4222 8.69 47.6489 8.27C47.8756 7.84333 48.1856 7.51333 48.5789 7.28C48.9789 7.04667 49.4256 6.93 49.9189 6.93C50.3456 6.93 50.7422 7.03 51.1089 7.23C51.4756 7.42333 51.7556 7.68 51.9489 8V5.1H52.8689V12.5H51.9489V11.47C51.7689 11.7967 51.5022 12.0667 51.1489 12.28C50.7956 12.4867 50.3822 12.59 49.9089 12.59C49.4222 12.59 48.9789 12.47 48.5789 12.23C48.1856 11.99 47.8756 11.6533 47.6489 11.22C47.4222 10.7867 47.3089 10.2933 47.3089 9.74ZM51.9489 9.75C51.9489 9.33667 51.8656 8.97667 51.6989 8.67C51.5322 8.36333 51.3056 8.13 51.0189 7.97C50.7389 7.80333 50.4289 7.72 50.0889 7.72C49.7489 7.72 49.4389 7.8 49.1589 7.96C48.8789 8.12 48.6556 8.35333 48.4889 8.66C48.3222 8.96667 48.2389 9.32667 48.2389 9.74C48.2389 10.16 48.3222 10.5267 48.4889 10.84C48.6556 11.1467 48.8789 11.3833 49.1589 11.55C49.4389 11.71 49.7489 11.79 50.0889 11.79C50.4289 11.79 50.7389 11.71 51.0189 11.55C51.3056 11.3833 51.5322 11.1467 51.6989 10.84C51.8656 10.5267 51.9489 10.1633 51.9489 9.75ZM54.8767 6.13C54.7034 6.13 54.5567 6.07 54.4367 5.95C54.3167 5.83 54.2567 5.68333 54.2567 5.51C54.2567 5.33667 54.3167 5.19 54.4367 5.07C54.5567 4.95 54.7034 4.89 54.8767 4.89C55.0434 4.89 55.1834 4.95 55.2967 5.07C55.4167 5.19 55.4767 5.33667 55.4767 5.51C55.4767 5.68333 55.4167 5.83 55.2967 5.95C55.1834 6.07 55.0434 6.13 54.8767 6.13ZM55.3167 7.02V12.5H54.4067V7.02H55.3167ZM56.5277 9.74C56.5277 9.18 56.641 8.69 56.8677 8.27C57.0943 7.84333 57.4043 7.51333 57.7977 7.28C58.1977 7.04667 58.6443 6.93 59.1377 6.93C59.5643 6.93 59.961 7.03 60.3277 7.23C60.6943 7.42333 60.9743 7.68 61.1677 8V5.1H62.0877V12.5H61.1677V11.47C60.9877 11.7967 60.721 12.0667 60.3677 12.28C60.0143 12.4867 59.601 12.59 59.1277 12.59C58.641 12.59 58.1977 12.47 57.7977 12.23C57.4043 11.99 57.0943 11.6533 56.8677 11.22C56.641 10.7867 56.5277 10.2933 56.5277 9.74ZM61.1677 9.75C61.1677 9.33667 61.0843 8.97667 60.9177 8.67C60.751 8.36333 60.5243 8.13 60.2377 7.97C59.9577 7.80333 59.6477 7.72 59.3077 7.72C58.9677 7.72 58.6577 7.8 58.3777 7.96C58.0977 8.12 57.8743 8.35333 57.7077 8.66C57.541 8.96667 57.4577 9.32667 57.4577 9.74C57.4577 10.16 57.541 10.5267 57.7077 10.84C57.8743 11.1467 58.0977 11.3833 58.3777 11.55C58.6577 11.71 58.9677 11.79 59.3077 11.79C59.6477 11.79 59.9577 11.71 60.2377 11.55C60.5243 11.3833 60.751 11.1467 60.9177 10.84C61.0843 10.5267 61.1677 10.1633 61.1677 9.75ZM63.2855 9.74C63.2855 9.18 63.3988 8.69 63.6255 8.27C63.8521 7.84333 64.1621 7.51333 64.5555 7.28C64.9555 7.04667 65.3988 6.93 65.8855 6.93C66.3655 6.93 66.7821 7.03333 67.1355 7.24C67.4888 7.44667 67.7521 7.70667 67.9255 8.02V7.02H68.8455V12.5H67.9255V11.48C67.7455 11.8 67.4755 12.0667 67.1155 12.28C66.7621 12.4867 66.3488 12.59 65.8755 12.59C65.3888 12.59 64.9488 12.47 64.5555 12.23C64.1621 11.99 63.8521 11.6533 63.6255 11.22C63.3988 10.7867 63.2855 10.2933 63.2855 9.74ZM67.9255 9.75C67.9255 9.33667 67.8421 8.97667 67.6755 8.67C67.5088 8.36333 67.2821 8.13 66.9955 7.97C66.7155 7.80333 66.4055 7.72 66.0655 7.72C65.7255 7.72 65.4155 7.8 65.1355 7.96C64.8555 8.12 64.6321 8.35333 64.4655 8.66C64.2988 8.96667 64.2155 9.32667 64.2155 9.74C64.2155 10.16 64.2988 10.5267 64.4655 10.84C64.6321 11.1467 64.8555 11.3833 65.1355 11.55C65.4155 11.71 65.7255 11.79 66.0655 11.79C66.4055 11.79 66.7155 11.71 66.9955 11.55C67.2821 11.3833 67.5088 11.1467 67.6755 10.84C67.8421 10.5267 67.9255 10.1633 67.9255 9.75ZM71.4933 7.77V11C71.4933 11.2667 71.5499 11.4567 71.6633 11.57C71.7766 11.6767 71.9733 11.73 72.2533 11.73H72.9233V12.5H72.1033C71.5966 12.5 71.2166 12.3833 70.9633 12.15C70.7099 11.9167 70.5833 11.5333 70.5833 11V7.77H69.8733V7.02H70.5833V5.64H71.4933V7.02H72.9233V7.77H71.4933ZM79.0259 9.55C79.0259 9.72333 79.0159 9.90667 78.9959 10.1H74.6159C74.6492 10.64 74.8325 11.0633 75.1659 11.37C75.5059 11.67 75.9159 11.82 76.3959 11.82C76.7892 11.82 77.1159 11.73 77.3759 11.55C77.6425 11.3633 77.8292 11.1167 77.9359 10.81H78.9159C78.7692 11.3367 78.4759 11.7667 78.0359 12.1C77.5959 12.4267 77.0492 12.59 76.3959 12.59C75.8759 12.59 75.4092 12.4733 74.9959 12.24C74.5892 12.0067 74.2692 11.6767 74.0359 11.25C73.8025 10.8167 73.6859 10.3167 73.6859 9.75C73.6859 9.18333 73.7992 8.68667 74.0259 8.26C74.2525 7.83333 74.5692 7.50667 74.9759 7.28C75.3892 7.04667 75.8625 6.93 76.3959 6.93C76.9159 6.93 77.3759 7.04333 77.7759 7.27C78.1759 7.49667 78.4825 7.81 78.6959 8.21C78.9159 8.60333 79.0259 9.05 79.0259 9.55ZM78.0859 9.36C78.0859 9.01333 78.0092 8.71667 77.8559 8.47C77.7025 8.21667 77.4925 8.02667 77.2259 7.9C76.9659 7.76667 76.6759 7.7 76.3559 7.7C75.8959 7.7 75.5025 7.84667 75.1759 8.14C74.8559 8.43333 74.6725 8.84 74.6259 9.36H78.0859ZM89.963 5.58V12.5H89.053V7.34L86.753 12.5H86.113L83.803 7.33V12.5H82.893V5.58H83.873L86.433 11.3L88.993 5.58H89.963ZM91.1663 9.74C91.1663 9.18 91.2797 8.69 91.5063 8.27C91.733 7.84333 92.043 7.51333 92.4363 7.28C92.8363 7.04667 93.2797 6.93 93.7663 6.93C94.2463 6.93 94.663 7.03333 95.0163 7.24C95.3697 7.44667 95.633 7.70667 95.8063 8.02V7.02H96.7263V12.5H95.8063V11.48C95.6263 11.8 95.3563 12.0667 94.9963 12.28C94.643 12.4867 94.2297 12.59 93.7563 12.59C93.2697 12.59 92.8297 12.47 92.4363 12.23C92.043 11.99 91.733 11.6533 91.5063 11.22C91.2797 10.7867 91.1663 10.2933 91.1663 9.74ZM95.8063 9.75C95.8063 9.33667 95.723 8.97667 95.5563 8.67C95.3897 8.36333 95.163 8.13 94.8763 7.97C94.5963 7.80333 94.2863 7.72 93.9463 7.72C93.6063 7.72 93.2963 7.8 93.0163 7.96C92.7363 8.12 92.513 8.35333 92.3463 8.66C92.1797 8.96667 92.0963 9.32667 92.0963 9.74C92.0963 10.16 92.1797 10.5267 92.3463 10.84C92.513 11.1467 92.7363 11.3833 93.0163 11.55C93.2963 11.71 93.6063 11.79 93.9463 11.79C94.2863 11.79 94.5963 11.71 94.8763 11.55C95.163 11.3833 95.3897 11.1467 95.5563 10.84C95.723 10.5267 95.8063 10.1633 95.8063 9.75ZM99.3741 7.77V11C99.3741 11.2667 99.4308 11.4567 99.5441 11.57C99.6575 11.6767 99.8541 11.73 100.134 11.73H100.804V12.5H99.9841C99.4775 12.5 99.0975 12.3833 98.8441 12.15C98.5908 11.9167 98.4641 11.5333 98.4641 11V7.77H97.7541V7.02H98.4641V5.64H99.3741V7.02H100.804V7.77H99.3741ZM101.567 9.75C101.567 9.18333 101.68 8.69 101.907 8.27C102.133 7.84333 102.447 7.51333 102.847 7.28C103.253 7.04667 103.717 6.93 104.237 6.93C104.91 6.93 105.463 7.09333 105.897 7.42C106.337 7.74667 106.627 8.2 106.767 8.78H105.787C105.693 8.44667 105.51 8.18333 105.237 7.99C104.97 7.79667 104.637 7.7 104.237 7.7C103.717 7.7 103.297 7.88 102.977 8.24C102.657 8.59333 102.497 9.09667 102.497 9.75C102.497 10.41 102.657 10.92 102.977 11.28C103.297 11.64 103.717 11.82 104.237 11.82C104.637 11.82 104.97 11.7267 105.237 11.54C105.503 11.3533 105.687 11.0867 105.787 10.74H106.767C106.62 11.3 106.327 11.75 105.887 12.09C105.447 12.4233 104.897 12.59 104.237 12.59C103.717 12.59 103.253 12.4733 102.847 12.24C102.447 12.0067 102.133 11.6767 101.907 11.25C101.68 10.8233 101.567 10.3233 101.567 9.75ZM110.701 6.92C111.114 6.92 111.488 7.01 111.821 7.19C112.154 7.36333 112.414 7.62667 112.601 7.98C112.794 8.33333 112.891 8.76333 112.891 9.27V12.5H111.991V9.4C111.991 8.85333 111.854 8.43667 111.581 8.15C111.308 7.85667 110.934 7.71 110.461 7.71C109.981 7.71 109.598 7.86 109.311 8.16C109.031 8.46 108.891 8.89667 108.891 9.47V12.5H107.981V5.1H108.891V7.8C109.071 7.52 109.318 7.30333 109.631 7.15C109.951 6.99667 110.308 6.92 110.701 6.92ZM114.847 6.13C114.674 6.13 114.527 6.07 114.407 5.95C114.287 5.83 114.227 5.68333 114.227 5.51C114.227 5.33667 114.287 5.19 114.407 5.07C114.527 4.95 114.674 4.89 114.847 4.89C115.014 4.89 115.154 4.95 115.267 5.07C115.387 5.19 115.447 5.33667 115.447 5.51C115.447 5.68333 115.387 5.83 115.267 5.95C115.154 6.07 115.014 6.13 114.847 6.13ZM115.287 7.02V12.5H114.377V7.02H115.287ZM119.508 6.92C120.175 6.92 120.715 7.12333 121.128 7.53C121.542 7.93 121.748 8.51 121.748 9.27V12.5H120.848V9.4C120.848 8.85333 120.712 8.43667 120.438 8.15C120.165 7.85667 119.792 7.71 119.318 7.71C118.838 7.71 118.455 7.86 118.168 8.16C117.888 8.46 117.748 8.89667 117.748 9.47V12.5H116.838V7.02H117.748V7.8C117.928 7.52 118.172 7.30333 118.478 7.15C118.792 6.99667 119.135 6.92 119.508 6.92ZM125.495 6.93C125.968 6.93 126.382 7.03333 126.735 7.24C127.095 7.44667 127.362 7.70667 127.535 8.02V7.02H128.455V12.62C128.455 13.12 128.348 13.5633 128.135 13.95C127.922 14.3433 127.615 14.65 127.215 14.87C126.822 15.09 126.362 15.2 125.835 15.2C125.115 15.2 124.515 15.03 124.035 14.69C123.555 14.35 123.272 13.8867 123.185 13.3H124.085C124.185 13.6333 124.392 13.9 124.705 14.1C125.018 14.3067 125.395 14.41 125.835 14.41C126.335 14.41 126.742 14.2533 127.055 13.94C127.375 13.6267 127.535 13.1867 127.535 12.62V11.47C127.355 11.79 127.088 12.0567 126.735 12.27C126.382 12.4833 125.968 12.59 125.495 12.59C125.008 12.59 124.565 12.47 124.165 12.23C123.772 11.99 123.462 11.6533 123.235 11.22C123.008 10.7867 122.895 10.2933 122.895 9.74C122.895 9.18 123.008 8.69 123.235 8.27C123.462 7.84333 123.772 7.51333 124.165 7.28C124.565 7.04667 125.008 6.93 125.495 6.93ZM127.535 9.75C127.535 9.33667 127.452 8.97667 127.285 8.67C127.118 8.36333 126.892 8.13 126.605 7.97C126.325 7.80333 126.015 7.72 125.675 7.72C125.335 7.72 125.025 7.8 124.745 7.96C124.465 8.12 124.242 8.35333 124.075 8.66C123.908 8.96667 123.825 9.32667 123.825 9.74C123.825 10.16 123.908 10.5267 124.075 10.84C124.242 11.1467 124.465 11.3833 124.745 11.55C125.025 11.71 125.335 11.79 125.675 11.79C126.015 11.79 126.325 11.71 126.605 11.55C126.892 11.3833 127.118 11.1467 127.285 10.84C127.452 10.5267 127.535 10.1633 127.535 9.75ZM139.959 7.02L138.249 12.5H137.309L135.989 8.15L134.669 12.5H133.729L132.009 7.02H132.939L134.199 11.62L135.559 7.02H136.489L137.819 11.63L139.059 7.02H139.959ZM141.332 6.13C141.158 6.13 141.012 6.07 140.892 5.95C140.772 5.83 140.712 5.68333 140.712 5.51C140.712 5.33667 140.772 5.19 140.892 5.07C141.012 4.95 141.158 4.89 141.332 4.89C141.498 4.89 141.638 4.95 141.752 5.07C141.872 5.19 141.932 5.33667 141.932 5.51C141.932 5.68333 141.872 5.83 141.752 5.95C141.638 6.07 141.498 6.13 141.332 6.13ZM141.772 7.02V12.5H140.862V7.02H141.772ZM144.433 7.77V11C144.433 11.2667 144.489 11.4567 144.603 11.57C144.716 11.6767 144.913 11.73 145.193 11.73H145.863V12.5H145.043C144.536 12.5 144.156 12.3833 143.903 12.15C143.649 11.9167 143.523 11.5333 143.523 11V7.77H142.813V7.02H143.523V5.64H144.433V7.02H145.863V7.77H144.433ZM149.685 6.92C150.099 6.92 150.472 7.01 150.805 7.19C151.139 7.36333 151.399 7.62667 151.585 7.98C151.779 8.33333 151.875 8.76333 151.875 9.27V12.5H150.975V9.4C150.975 8.85333 150.839 8.43667 150.565 8.15C150.292 7.85667 149.919 7.71 149.445 7.71C148.965 7.71 148.582 7.86 148.295 8.16C148.015 8.46 147.875 8.89667 147.875 9.47V12.5H146.965V5.1H147.875V7.8C148.055 7.52 148.302 7.30333 148.615 7.15C148.935 6.99667 149.292 6.92 149.685 6.92ZM160.148 10.95H157.108L156.548 12.5H155.588L158.108 5.57H159.158L161.668 12.5H160.708L160.148 10.95ZM159.888 10.21L158.628 6.69L157.368 10.21H159.888ZM163.676 5.53V12.5H162.766V5.53H163.676Z" fill="#141219" fill-opacity="0.8"/>
</svg>
