<svg width="548" height="580" viewBox="0 0 548 580" fill="none" xmlns="http://www.w3.org/2000/svg">
<g filter="url(#filter0_i_1385_11492)">
<g clip-path="url(#clip0_1385_11492)">
<path d="M500.704 40.981L268.289 0L223.141 256.05L455.555 297.031L500.704 40.981Z" fill="white"/>
<path d="M236.986 177.528L242.496 174.671C248.024 171.862 259.043 166.149 269.599 162.906C280.164 159.62 290.273 158.763 299.679 162.049C309.092 165.293 317.793 172.724 327.214 175.925C336.635 179.126 346.774 178.098 356.39 180.189C366.014 182.238 375.122 187.364 384.181 192.614C393.233 197.906 402.244 203.279 411.575 206.993C420.905 210.706 430.569 212.674 440.901 210.711C451.239 208.706 462.252 202.728 467.732 199.734L473.238 196.745L455.48 297.458L450.651 296.606C445.848 295.759 436.19 294.056 426.506 292.349C416.822 290.641 407.112 288.929 397.428 287.222C387.744 285.514 378.086 283.811 368.402 282.104C358.718 280.396 349.008 278.684 339.324 276.976C329.64 275.269 319.982 273.566 310.298 271.858C300.614 270.151 290.905 268.439 281.221 266.731C271.537 265.024 261.879 263.321 252.195 261.613C242.511 259.905 232.801 258.193 227.92 257.333L223.065 256.477L236.986 177.528Z" fill="#FFFAC3"/>
<path d="M239.02 166.006L243.446 169.294C247.905 172.545 256.757 179.122 266.095 182.792C275.425 186.506 285.233 187.355 294.744 190.044C304.248 192.776 313.461 197.305 322.588 202.17C331.723 206.993 340.779 212.11 350.478 213.732C360.169 215.397 370.511 213.524 380.88 211.348C391.256 209.13 401.667 206.565 411.253 208.828C420.831 211.133 429.593 218.222 438.961 221.722C448.329 225.222 458.318 225.047 463.279 224.998L468.274 224.91L455.482 297.458L450.653 296.606C445.849 295.759 436.191 294.056 426.507 292.349C416.823 290.641 407.114 288.929 397.43 287.222C387.746 285.514 378.088 283.811 368.404 282.104C358.72 280.396 349.01 278.684 339.326 276.976C329.642 275.269 319.984 273.566 310.3 271.858C300.616 270.151 290.906 268.439 281.222 266.731C271.538 265.024 261.88 263.321 252.196 261.613C242.512 259.906 232.803 258.193 227.922 257.333L223.067 256.477L239.02 166.006Z" fill="#F8F2A9"/>
<path d="M232.774 201.426L237.915 200.66C243.089 199.857 253.37 198.325 263.092 199.82C272.814 201.314 281.975 205.833 291.569 208.053C301.162 210.273 311.203 210.107 321.346 209.211C331.497 208.273 341.757 206.562 351.027 210.617C360.297 214.671 368.577 224.492 377.87 228.418C387.17 232.302 397.475 230.335 407.302 231.232C417.121 232.171 426.455 236.017 436.237 237.17C446.026 238.28 456.256 236.74 461.353 235.922L466.468 235.152L455.481 297.458L450.652 296.606C445.849 295.759 436.191 294.056 426.507 292.349C416.823 290.641 407.113 288.929 397.429 287.222C387.746 285.514 378.087 283.811 368.403 282.104C358.72 280.396 349.01 278.684 339.326 276.976C329.642 275.269 319.984 273.566 310.3 271.858C300.616 270.151 290.906 268.439 281.222 266.731C271.538 265.024 261.88 263.321 252.196 261.613C242.512 259.906 232.802 258.193 227.922 257.333L223.067 256.477L232.774 201.426Z" fill="#F1E98F"/>
<path d="M231.117 210.815L235.498 214.359C239.897 217.951 248.659 225.04 258.23 227.388C267.801 229.735 278.181 227.342 288.219 227.043C298.257 226.745 307.936 228.628 317.5 231.018C327.056 233.451 336.488 236.435 346.285 237.502C356.082 238.569 366.243 237.721 375.604 241.264C384.956 244.849 393.516 252.782 403.2 254.49C412.884 256.197 423.692 251.679 433.782 251.082C443.865 250.528 453.222 253.938 457.875 255.638L462.554 257.343L455.48 297.458L450.651 296.606C445.848 295.759 436.19 294.056 426.506 292.349C416.822 290.641 407.112 288.929 397.428 287.222C387.744 285.514 378.086 283.811 368.402 282.104C358.718 280.396 349.009 278.684 339.325 276.976C329.641 275.269 319.983 273.566 310.299 271.858C300.615 270.151 290.905 268.439 281.221 266.731C271.537 265.024 261.879 263.321 252.195 261.613C242.511 259.906 232.801 258.193 227.921 257.333L223.066 256.477L231.117 210.815Z" fill="#EAE075"/>
<path d="M225.471 242.821L230.514 242.61C235.583 242.404 245.669 241.982 255.714 241.641C265.767 241.258 275.771 240.998 285.531 242.278C295.29 243.559 304.804 246.381 314.247 249.454C323.69 252.527 333.077 255.766 342.385 259.608C351.693 263.449 360.921 267.892 371.049 267.082C381.169 266.314 392.182 260.336 402.265 259.782C412.355 259.185 421.508 264.055 430.996 266.872C440.477 269.732 450.285 270.581 455.164 271.001L460.068 271.426L455.478 297.458L450.649 296.606C445.846 295.759 436.188 294.056 426.504 292.349C416.82 290.641 407.11 288.929 397.426 287.222C387.742 285.514 378.084 283.811 368.4 282.104C358.716 280.396 349.006 278.684 339.323 276.976C329.639 275.269 319.98 273.566 310.296 271.858C300.613 270.151 290.903 268.439 281.219 266.731C271.535 265.024 261.877 263.321 252.193 261.613C242.509 259.906 232.799 258.193 227.918 257.333L223.064 256.477L225.471 242.821Z" fill="#E2D759"/>
<path d="M323.252 65.1257L316.374 63.9129L314.6 67.0608L311.788 66.5648L320.574 51.1523L323.693 51.7024L326.678 69.1904L323.842 68.6903L323.252 65.1257ZM322.883 62.7942L321.558 54.689L317.518 61.8482L322.883 62.7942ZM334.828 53.6901L331.931 70.1167L329.237 69.6416L332.133 53.215L334.828 53.6901ZM347.175 62.8128L346.775 65.0818L337.061 63.3689L337.461 61.0999L347.175 62.8128ZM362.815 63.6697C362.668 64.5048 362.332 65.2579 361.808 65.929C361.283 66.6001 360.546 67.0956 359.596 67.4155C358.649 67.7197 357.498 67.7523 356.142 67.5133L353.164 66.9882L351.989 73.6534L349.295 73.1783L352.191 56.7517L357.864 57.7519C359.124 57.9742 360.149 58.3823 360.938 58.9763C361.745 59.5574 362.296 60.2557 362.591 61.0713C362.902 61.8896 362.976 62.7558 362.815 63.6697ZM356.53 65.3152C357.554 65.4958 358.359 65.4021 358.943 65.0341C359.531 64.6503 359.9 64.0329 360.05 63.1821C360.367 61.3858 359.509 60.3084 357.476 59.95L354.498 59.4249L353.552 64.7901L356.53 65.3152ZM368.963 76.8656C367.734 76.6489 366.671 76.1773 365.776 75.4508C364.883 74.7085 364.242 73.7831 363.853 72.6746C363.466 71.5504 363.391 70.3186 363.627 68.9793C363.86 67.6557 364.359 66.5332 365.122 65.6118C365.886 64.6904 366.821 64.0429 367.926 63.6692C369.032 63.2955 370.207 63.2184 371.452 63.4379C372.697 63.6574 373.775 64.1318 374.686 64.8611C375.597 65.5904 376.254 66.5186 376.657 67.6456C377.059 68.7726 377.143 69.9979 376.91 71.3215C376.677 72.645 376.17 73.7661 375.391 74.6848C374.612 75.6034 373.652 76.2546 372.512 76.6385C371.391 77.0094 370.207 77.0851 368.963 76.8656ZM369.375 74.5257C370.069 74.648 370.744 74.5964 371.401 74.3711C372.074 74.1486 372.658 73.7398 373.152 73.1446C373.647 72.5495 373.978 71.7793 374.145 70.8339C374.311 69.8884 374.271 69.0608 374.022 68.3508C373.776 67.6251 373.383 67.044 372.843 66.6076C372.302 66.1711 371.686 65.8917 370.992 65.7695C370.299 65.6472 369.624 65.6988 368.967 65.9241C368.325 66.1522 367.773 66.5666 367.31 67.1672C366.849 67.7522 366.535 68.5173 366.369 69.4627C366.121 70.8651 366.284 72.0148 366.857 72.912C367.449 73.7961 368.288 74.334 369.375 74.5257ZM398.21 68.3754L391.872 80.6858L389.036 80.1857L388.108 70.1035L383.789 79.2605L380.952 78.7604L379.183 65.0205L381.925 65.5039L382.797 76.4537L387.409 66.4708L390.221 66.9667L391.03 77.8567L395.563 67.9086L398.21 68.3754ZM411.068 77.0275C410.981 77.516 410.872 77.9516 410.74 78.3344L400.789 76.5799C400.685 77.6337 400.923 78.5369 401.505 79.2895C402.088 80.042 402.883 80.5072 403.891 80.685C405.341 80.9406 406.472 80.5145 407.285 79.4068L410.192 79.9194C409.587 81.0475 408.696 81.9059 407.52 82.4946C406.363 83.0704 405.02 83.2235 403.491 82.954C402.247 82.7345 401.176 82.2615 400.281 81.5349C399.404 80.7954 398.771 79.8714 398.381 78.763C398.011 77.6415 397.943 76.4111 398.179 75.0718C398.416 73.7325 398.89 72.6058 399.604 71.6918C400.336 70.7649 401.239 70.1118 402.313 69.7325C403.403 69.3561 404.586 69.2804 405.863 69.5054C407.092 69.7221 408.14 70.1831 409.006 70.8883C409.873 71.5935 410.488 72.4818 410.852 73.5532C411.218 74.6089 411.29 75.767 411.068 77.0275ZM408.405 75.6807C408.564 74.6852 408.35 73.827 407.762 73.106C407.175 72.385 406.369 71.9342 405.344 71.7536C404.415 71.5897 403.566 71.7487 402.799 72.2308C402.034 72.6971 401.5 73.4234 401.196 74.4096L408.405 75.6807ZM417.172 73.6685C417.683 73.0762 418.293 72.6558 419.003 72.4073C419.731 72.1458 420.545 72.0943 421.443 72.2526L420.951 75.0416L420.266 74.9207C419.21 74.7346 418.359 74.8608 417.713 75.2993C417.083 75.7405 416.651 76.623 416.418 77.9465L415.209 84.8008L412.515 84.3257L414.811 71.3026L417.505 71.7777L417.172 73.6685ZM434.726 81.1992C434.64 81.6876 434.531 82.1233 434.398 82.5061L424.448 80.7515C424.343 81.8054 424.582 82.7086 425.164 83.4611C425.746 84.2136 426.541 84.6788 427.55 84.8566C429 85.1122 430.131 84.6862 430.943 83.5785L433.851 84.0911C433.245 85.2191 432.355 86.0775 431.179 86.6662C430.021 87.242 428.678 87.3951 427.15 87.1256C425.905 86.9061 424.835 86.4331 423.939 85.7066C423.063 84.9671 422.429 84.0431 422.04 82.9346C421.669 81.8132 421.602 80.5828 421.838 79.2434C422.074 77.9041 422.549 76.7774 423.262 75.8635C423.994 74.9365 424.898 74.2834 425.972 73.9042C427.062 73.5277 428.245 73.452 429.521 73.6771C430.75 73.8938 431.798 74.3547 432.665 75.06C433.531 75.7652 434.147 76.6535 434.51 77.7249C434.876 78.7805 434.948 79.9386 434.726 81.1992ZM432.063 79.8523C432.223 78.8569 432.008 77.9986 431.421 77.2776C430.833 76.5566 430.027 76.1058 429.003 75.9252C428.073 75.7613 427.225 75.9204 426.457 76.4024C425.693 76.8688 425.159 77.595 424.855 78.5812L432.063 79.8523ZM436.434 81.7683C436.664 80.4605 437.136 79.3496 437.85 78.4356C438.579 77.5244 439.457 76.875 440.484 76.4875C441.53 76.0869 442.627 75.9881 443.778 76.1909C444.629 76.3409 445.43 76.6772 446.183 77.1999C446.954 77.7095 447.53 78.3147 447.91 79.0154L449.019 72.7283L451.737 73.2076L448.653 90.6978L445.935 90.2185L446.281 88.2568C445.728 88.8093 445.022 89.2209 444.162 89.4917C443.318 89.7652 442.391 89.8131 441.383 89.6352C440.248 89.4352 439.258 88.9682 438.413 88.2343C437.586 87.4873 436.987 86.5531 436.616 85.4317C436.264 84.2973 436.203 83.0761 436.434 81.7683ZM447.085 83.6952C447.243 82.797 447.192 81.9837 446.93 81.2552C446.684 80.5295 446.293 79.9406 445.755 79.4884C445.218 79.0361 444.602 78.7489 443.909 78.6266C443.215 78.5044 442.539 78.5638 441.879 78.8049C441.222 79.0302 440.646 79.4404 440.151 80.0355C439.675 80.6176 439.357 81.3578 439.199 82.2559C439.041 83.1541 439.083 83.9739 439.326 84.7153C439.585 85.4595 439.981 86.0657 440.516 86.5336C441.07 86.9887 441.685 87.2759 442.363 87.3954C443.056 87.5176 443.732 87.4582 444.392 87.2171C445.052 86.976 445.622 86.5566 446.101 85.9587C446.598 85.3478 446.926 84.5933 447.085 83.6952ZM311.597 86.1492L309.509 97.9905C309.251 99.4559 308.597 100.535 307.549 101.227C306.517 101.923 305.276 102.142 303.826 101.887C302.376 101.631 301.277 100.999 300.529 99.9896C299.797 98.9831 299.56 97.7472 299.818 96.2818L302.536 96.7611C302.424 97.4887 302.504 98.0958 302.776 98.5823C303.063 99.0717 303.554 99.3775 304.247 99.4997C304.94 99.622 305.506 99.5023 305.943 99.1408C306.383 98.7635 306.666 98.2203 306.791 97.5113L308.879 85.6699L311.597 86.1492ZM318.695 104.557C317.466 104.341 316.404 103.869 315.508 103.143C314.616 102.4 313.975 101.475 313.585 100.366C313.198 99.2422 313.123 98.0104 313.359 96.6711C313.593 95.3475 314.091 94.225 314.855 93.3036C315.618 92.3822 316.553 91.7347 317.659 91.361C318.764 90.9873 319.94 90.9103 321.185 91.1297C322.429 91.3492 323.507 91.8236 324.419 92.5529C325.33 93.2823 325.987 94.2104 326.389 95.3374C326.791 96.4644 326.876 97.6897 326.642 99.0133C326.409 100.337 325.903 101.458 325.123 102.377C324.344 103.295 323.384 103.946 322.244 104.33C321.123 104.701 319.94 104.777 318.695 104.557ZM319.108 102.218C319.801 102.34 320.476 102.288 321.133 102.063C321.806 101.84 322.39 101.432 322.885 100.836C323.38 100.241 323.71 99.4711 323.877 98.5257C324.044 97.5803 324.003 96.7526 323.754 96.0426C323.509 95.317 323.116 94.7359 322.575 94.2994C322.035 93.8629 321.418 93.5836 320.725 93.4613C320.031 93.3391 319.356 93.3906 318.699 93.6159C318.058 93.844 317.505 94.2584 317.042 94.8591C316.581 95.444 316.268 96.2091 316.101 97.1545C315.854 98.5569 316.017 99.7067 316.59 100.604C317.181 101.488 318.02 102.026 319.108 102.218ZM332.805 95.3964C333.373 94.8467 334.086 94.4444 334.943 94.1893C335.819 93.9214 336.745 93.8735 337.722 94.0458C338.872 94.2486 339.864 94.7077 340.696 95.4231C341.528 96.1385 342.122 97.0556 342.477 98.1742C342.835 99.2771 342.899 100.483 342.668 101.79C342.438 103.098 341.963 104.225 341.244 105.17C340.527 106.1 339.645 106.773 338.597 107.189C337.567 107.593 336.485 107.694 335.351 107.494C334.342 107.316 333.479 106.961 332.76 106.428C332.058 105.898 331.532 105.286 331.184 104.591L330.85 106.481L328.156 106.006L331.24 88.5161L333.934 88.9912L332.805 95.3964ZM339.927 101.307C340.085 100.409 340.032 99.6033 339.768 98.8906C339.522 98.1649 339.121 97.5824 338.565 97.1432C338.027 96.691 337.412 96.4037 336.719 96.2815C336.041 96.162 335.364 96.2214 334.689 96.4597C334.029 96.7008 333.452 97.1189 332.957 97.714C332.478 98.3119 332.159 99.0599 332 99.958C331.842 100.856 331.884 101.676 332.127 102.417C332.389 103.146 332.788 103.736 333.326 104.188C333.879 104.643 334.495 104.931 335.172 105.05C335.866 105.172 336.542 105.113 337.202 104.872C337.881 104.618 338.461 104.184 338.943 103.57C339.44 102.96 339.768 102.205 339.927 101.307ZM370.512 96.5374L367.615 112.964L364.921 112.489L366.904 101.238L359.91 111.605L358.043 111.276L354.992 99.138L353.008 110.388L350.314 109.913L353.21 93.4868L356.118 93.9994L359.613 107.898L367.628 96.029L370.512 96.5374ZM371.417 106.859C371.648 105.552 372.12 104.441 372.833 103.527C373.563 102.616 374.441 101.966 375.468 101.579C376.513 101.178 377.603 101.078 378.737 101.278C379.762 101.458 380.616 101.82 381.3 102.363C382.002 102.893 382.529 103.498 382.881 104.177L383.214 102.287L385.932 102.766L383.636 115.789L380.918 115.31L381.26 113.372C380.694 113.906 379.982 114.308 379.122 114.579C378.262 114.849 377.327 114.896 376.319 114.718C375.2 114.521 374.226 114.057 373.396 113.325C372.569 112.578 371.97 111.644 371.6 110.523C371.247 109.388 371.186 108.167 371.417 106.859ZM382.068 108.786C382.227 107.888 382.175 107.075 381.914 106.346C381.668 105.621 381.276 105.032 380.738 104.58C380.201 104.127 379.585 103.84 378.892 103.718C378.199 103.596 377.522 103.655 376.862 103.896C376.205 104.121 375.629 104.532 375.134 105.127C374.658 105.709 374.341 106.449 374.182 107.347C374.024 108.245 374.066 109.065 374.309 109.806C374.568 110.551 374.965 111.157 375.499 111.625C376.053 112.08 376.668 112.367 377.346 112.487C378.039 112.609 378.716 112.549 379.376 112.308C380.036 112.067 380.605 111.648 381.084 111.05C381.582 110.439 381.91 109.684 382.068 108.786ZM392.227 106.142L390.956 113.351C390.87 113.84 390.918 114.214 391.1 114.473C391.3 114.72 391.676 114.891 392.227 114.989L393.882 115.28L393.486 117.526L391.358 117.151C390.145 116.937 389.266 116.489 388.72 115.808C388.174 115.127 388.013 114.148 388.238 112.872L389.509 105.663L387.973 105.392L388.36 103.194L389.897 103.465L390.468 100.227L393.186 100.706L392.615 103.944L395.782 104.503L395.394 106.701L392.227 106.142ZM396.221 111.282C396.457 109.943 396.932 108.816 397.646 107.902C398.378 106.975 399.273 106.32 400.331 105.938C401.39 105.556 402.542 105.475 403.786 105.695C405.362 105.973 406.595 106.58 407.486 107.517C408.395 108.441 408.909 109.628 409.027 111.079L406.12 110.566C405.997 109.878 405.708 109.307 405.252 108.853C404.796 108.399 404.174 108.103 403.386 107.964C402.283 107.769 401.331 108.008 400.531 108.679C399.749 109.337 399.234 110.367 398.987 111.769C398.739 113.172 398.869 114.324 399.376 115.226C399.899 116.13 400.712 116.68 401.815 116.874C403.375 117.149 404.528 116.646 405.274 115.364L408.181 115.876C407.569 117.133 406.674 118.064 405.495 118.669C404.319 119.257 402.959 119.415 401.415 119.143C400.17 118.924 399.116 118.453 398.252 117.733C397.391 116.996 396.773 116.075 396.4 114.969C396.044 113.85 395.985 112.621 396.221 111.282ZM419.211 108.414C420.204 108.589 421.049 108.958 421.746 109.519C422.458 110.084 422.962 110.822 423.256 111.735C423.565 112.651 423.616 113.7 423.408 114.881L422.053 122.563L419.382 122.092L420.666 114.812C420.872 113.646 420.737 112.705 420.263 111.987C419.791 111.254 419.05 110.799 418.042 110.621C417.034 110.443 416.174 110.617 415.465 111.141C414.773 111.653 414.325 112.492 414.119 113.658L412.835 120.938L410.141 120.463L413.225 102.972L415.919 103.447L414.865 109.427C415.419 108.956 416.069 108.632 416.816 108.455C417.577 108.281 418.376 108.267 419.211 108.414ZM438.631 118.443C438.544 118.931 438.435 119.367 438.303 119.75L428.352 117.995C428.247 119.049 428.486 119.952 429.068 120.705C429.651 121.457 430.446 121.923 431.454 122.1C432.904 122.356 434.035 121.93 434.848 120.822L437.755 121.335C437.15 122.463 436.259 123.321 435.083 123.91C433.926 124.486 432.583 124.639 431.054 124.369C429.809 124.15 428.739 123.677 427.844 122.95C426.967 122.211 426.334 121.287 425.944 120.178C425.574 119.057 425.506 117.827 425.742 116.487C425.978 115.148 426.453 114.021 427.167 113.107C427.899 112.18 428.802 111.527 429.876 111.148C430.966 110.772 432.149 110.696 433.426 110.921C434.655 111.138 435.703 111.599 436.569 112.304C437.436 113.009 438.051 113.897 438.415 114.969C438.781 116.024 438.853 117.182 438.631 118.443ZM435.968 117.096C436.127 116.101 435.913 115.242 435.325 114.521C434.738 113.8 433.932 113.35 432.907 113.169C431.978 113.005 431.129 113.164 430.362 113.646C429.597 114.113 429.063 114.839 428.759 115.825L435.968 117.096ZM444.767 126.787C443.743 126.607 442.853 126.263 442.098 125.756C441.361 125.236 440.812 124.62 440.45 123.906C440.091 123.177 439.966 122.415 440.073 121.622L442.862 122.114C442.812 122.673 442.99 123.184 443.396 123.646C443.821 124.094 444.395 124.382 445.12 124.51C445.876 124.643 446.484 124.604 446.944 124.393C447.422 124.169 447.702 123.828 447.782 123.371C447.868 122.883 447.696 122.478 447.265 122.159C446.85 121.842 446.163 121.453 445.204 120.991C444.275 120.551 443.525 120.151 442.955 119.79C442.385 119.43 441.917 118.949 441.552 118.349C441.202 117.751 441.102 117.027 441.253 116.176C441.375 115.483 441.691 114.888 442.2 114.393C442.713 113.883 443.377 113.528 444.191 113.331C445.022 113.136 445.933 113.126 446.926 113.301C448.407 113.563 449.53 114.15 450.295 115.065C451.078 115.967 451.387 117.069 451.223 118.372L448.528 117.897C448.584 117.306 448.429 116.8 448.065 116.378C447.701 115.956 447.156 115.681 446.431 115.554C445.722 115.429 445.155 115.467 444.73 115.668C444.304 115.869 444.053 116.19 443.975 116.631C443.914 116.978 443.988 117.292 444.199 117.573C444.409 117.853 444.683 118.097 445.02 118.302C445.361 118.492 445.867 118.752 446.54 119.082C447.441 119.501 448.167 119.897 448.719 120.271C449.289 120.631 449.75 121.102 450.102 121.684C450.455 122.266 450.565 122.976 450.434 123.814C450.303 124.555 449.982 125.18 449.469 125.691C448.957 126.202 448.293 126.556 447.478 126.754C446.679 126.954 445.776 126.965 444.767 126.787Z" fill="#474E68"/>
</g>
</g>
<g filter="url(#filter1_i_1385_11492)">
<g clip-path="url(#clip1_1385_11492)">
<path d="M220.924 147.826L7.03516 247.564L116.916 483.204L330.805 383.467L220.924 147.826Z" fill="white"/>
<path d="M83.2188 410.941L86.0935 405.441C89.0102 399.969 94.7594 388.969 101.547 380.257C108.316 371.507 116.106 365.006 125.696 362.303C135.267 359.561 146.657 360.657 156.21 357.876C165.763 355.095 173.479 348.436 182.556 344.634C191.614 340.793 202.015 339.768 212.447 338.871C222.897 338.015 233.361 337.248 243.133 334.938C252.906 332.628 261.952 328.697 269.289 321.163C276.608 313.591 282.2 302.377 284.972 296.781L287.768 291.174L330.987 383.859L326.543 385.932C322.123 387.993 313.235 392.137 304.323 396.293C295.411 400.449 286.475 404.616 277.563 408.772C268.651 412.927 259.762 417.072 250.85 421.228C241.938 425.383 233.003 429.55 224.091 433.706C215.179 437.862 206.29 442.006 197.378 446.162C188.466 450.318 179.53 454.485 170.618 458.64C161.706 462.796 152.818 466.941 143.906 471.097C134.994 475.252 126.058 479.419 121.567 481.514L117.099 483.597L83.2188 410.941Z" fill="#FFE1E5"/>
<path d="M78.2734 400.338L83.7852 400.493C89.3024 400.598 100.326 400.908 110.08 398.559C119.853 396.249 128.375 391.319 137.708 388.066C147.06 384.853 157.204 383.278 167.472 382.029C177.721 380.74 188.074 379.737 196.949 375.503C205.843 371.308 213.24 363.842 220.486 356.113C227.713 348.344 234.77 340.272 243.92 336.626C253.089 333.021 264.332 333.802 274.013 331.296C283.694 328.79 291.777 322.917 295.813 320.031L299.854 317.095L330.987 383.859L326.542 385.932C322.122 387.993 313.234 392.138 304.322 396.293C295.41 400.449 286.474 404.616 277.562 408.772C268.65 412.927 259.762 417.072 250.85 421.228C241.938 425.383 233.002 429.55 224.09 433.706C215.178 437.862 206.29 442.006 197.378 446.162C188.465 450.318 179.53 454.485 170.618 458.641C161.706 462.796 152.817 466.941 143.905 471.097C134.993 475.252 126.058 479.419 121.566 481.514L117.098 483.597L78.2734 400.338Z" fill="#FFC6CD"/>
<path d="M93.4751 432.935L97.2471 429.359C101.025 425.733 108.568 418.581 117.389 414.229C126.209 409.877 136.306 408.324 145.438 404.64C154.57 400.955 162.7 395.06 170.495 388.509C178.271 381.918 185.695 374.632 195.614 372.636C205.533 370.64 217.948 373.935 227.813 371.822C237.659 369.669 244.972 362.147 253.536 357.245C262.119 352.382 271.97 350.179 280.644 345.513C289.3 340.807 296.796 333.678 300.502 330.085L304.25 326.52L330.988 383.859L326.544 385.932C322.124 387.993 313.235 392.137 304.323 396.293C295.411 400.449 286.476 404.616 277.563 408.772C268.651 412.927 259.763 417.072 250.851 421.228C241.939 425.383 233.003 429.55 224.091 433.706C215.179 437.862 206.291 442.006 197.379 446.162C188.467 450.318 179.531 454.485 170.619 458.641C161.707 462.796 152.819 466.941 143.907 471.097C134.995 475.252 126.059 479.419 121.567 481.514L117.099 483.597L93.4751 432.935Z" fill="#FFABB5"/>
<path d="M97.5039 441.575L103.126 441.965C108.789 442.384 120.033 443.166 129.219 439.599C138.406 436.033 145.536 428.118 153.587 422.116C161.639 416.115 170.648 412.105 179.853 408.578C189.076 405.09 198.514 402.123 207.151 397.378C215.789 392.633 223.626 386.11 233.325 383.643C243.043 381.215 254.605 382.805 263.517 378.649C272.429 374.493 278.691 364.592 286.614 358.316C294.555 352.079 304.176 349.505 308.963 348.229L313.773 346.942L330.988 383.859L326.544 385.932C322.123 387.993 313.235 392.137 304.323 396.293C295.411 400.449 286.475 404.616 277.563 408.772C268.651 412.927 259.763 417.072 250.851 421.228C241.939 425.383 233.003 429.55 224.091 433.706C215.179 437.862 206.291 442.006 197.379 446.162C188.467 450.318 179.531 454.485 170.619 458.641C161.707 462.796 152.819 466.941 143.907 471.097C134.995 475.252 126.059 479.419 121.567 481.514L117.099 483.597L97.5039 441.575Z" fill="#FF8F9C"/>
<path d="M111.241 471.03L115.251 467.964C119.284 464.888 127.305 458.758 135.338 452.717C143.352 446.637 151.398 440.685 160.127 436.137C168.856 431.588 178.268 428.443 187.766 425.544C197.264 422.645 206.811 419.914 216.639 417.722C226.467 415.53 236.575 413.876 244.406 407.404C252.256 400.97 257.848 389.756 265.789 383.519C273.712 377.242 284.003 375.982 293.392 372.847C302.798 369.752 311.32 364.822 315.557 362.368L319.818 359.903L330.99 383.859L326.545 385.932C322.125 387.993 313.237 392.138 304.325 396.293C295.413 400.449 286.477 404.616 277.565 408.772C268.653 412.927 259.765 417.072 250.853 421.228C241.941 425.383 233.005 429.55 224.093 433.706C215.181 437.862 206.292 442.006 197.38 446.162C188.468 450.318 179.533 454.485 170.621 458.641C161.709 462.796 152.82 466.941 143.908 471.097C134.996 475.252 126.06 479.419 121.569 481.514L117.101 483.597L111.241 471.03Z" fill="#FF7083"/>
<path d="M74.7875 261.561L81.8368 276.679L79.3571 277.835L76.2737 271.223L69.161 274.539L72.2444 281.152L69.7648 282.308L62.7155 267.191L65.1951 266.034L68.2177 272.516L75.3304 269.2L72.3078 262.718L74.7875 261.561ZM80.0336 260.995C79.5841 261.205 79.1361 261.228 78.6896 261.066C78.243 260.903 77.915 260.597 77.7054 260.148C77.4957 259.698 77.4722 259.25 77.6347 258.804C77.7972 258.357 78.1032 258.029 78.5528 257.82C78.9878 257.617 79.4286 257.597 79.8751 257.759C80.3216 257.922 80.6497 258.228 80.8593 258.677C81.0689 259.127 81.0925 259.575 80.93 260.021C80.7674 260.468 80.4687 260.792 80.0336 260.995ZM81.9921 262.015L87.5808 274L85.1012 275.156L79.5125 263.171L81.9921 262.015ZM89.9852 258.05C90.9133 257.617 91.8205 257.423 92.7068 257.469C93.6009 257.493 94.3795 257.686 95.0425 258.048L94.231 256.308L96.7324 255.142L102.412 267.322C102.926 268.424 103.151 269.511 103.086 270.583C103.027 271.67 102.671 272.666 102.016 273.571C101.376 274.47 100.447 275.203 99.2289 275.771C97.6048 276.529 96.077 276.773 94.6455 276.505C93.2209 276.252 92.1317 275.506 91.3781 274.268L93.836 273.122C94.3153 273.658 94.9474 273.972 95.7322 274.065C96.5383 274.166 97.3692 274.017 98.2247 273.618C99.2253 273.151 99.8881 272.472 100.213 271.579C100.553 270.679 100.452 269.649 99.911 268.489L98.9779 266.488C98.8211 267.249 98.4714 267.995 97.9289 268.725C97.3942 269.433 96.6701 270 95.7565 270.426C94.7124 270.913 93.6337 271.098 92.5202 270.982C91.4144 270.844 90.388 270.423 89.441 269.717C88.5017 268.99 87.7514 268.024 87.1901 266.821C86.6289 265.617 86.3784 264.436 86.4387 263.278C86.5135 262.114 86.8603 261.078 87.4792 260.171C88.1058 259.244 88.9412 258.536 89.9852 258.05ZM97.0203 262.29C96.6349 261.463 96.1262 260.826 95.4941 260.38C94.8766 259.926 94.218 259.668 93.5182 259.606C92.8184 259.544 92.1494 259.662 91.5114 259.96C90.8734 260.257 90.3532 260.694 89.9509 261.27C89.5419 261.831 89.3054 262.498 89.2413 263.269C89.1851 264.019 89.3496 264.807 89.7351 265.634C90.1205 266.46 90.6253 267.108 91.2496 267.576C91.8884 268.037 92.5611 268.306 93.2676 268.382C93.9819 268.438 94.6509 268.32 95.2744 268.029C95.9124 267.732 96.4326 267.295 96.8349 266.719C97.2371 266.143 97.463 265.473 97.5126 264.708C97.5698 263.922 97.4057 263.116 97.0203 262.29ZM106.097 250.536C107.011 250.11 107.914 249.928 108.807 249.988C109.715 250.041 110.551 250.357 111.315 250.937C112.094 251.509 112.737 252.339 113.244 253.427L116.541 260.496L114.083 261.642L110.959 254.943C110.458 253.87 109.808 253.175 109.008 252.86C108.201 252.53 107.333 252.582 106.405 253.014C105.477 253.447 104.873 254.082 104.592 254.919C104.32 255.735 104.433 256.679 104.934 257.752L108.058 264.452L105.578 265.608L98.0724 249.512L100.552 248.356L103.118 253.859C103.302 253.155 103.649 252.517 104.158 251.944C104.682 251.364 105.329 250.895 106.097 250.536ZM124.746 245.813L125.72 247.901L116.78 252.069L115.806 249.981L124.746 245.813ZM127.858 236.814L134.907 251.932L132.427 253.088L125.378 237.971L127.858 236.814ZM146.991 231.467C147.933 231.028 148.866 230.831 149.788 230.878C150.724 230.918 151.582 231.224 152.361 231.797C153.155 232.362 153.805 233.189 154.312 234.277L157.608 241.346L155.151 242.492L152.027 235.792C151.526 234.719 150.876 234.025 150.076 233.71C149.269 233.38 148.401 233.431 147.473 233.864C146.545 234.297 145.941 234.932 145.66 235.769C145.387 236.585 145.501 237.529 146.001 238.602L149.125 245.301L146.667 246.448L143.543 239.748C143.043 238.675 142.393 237.981 141.593 237.666C140.786 237.336 139.918 237.387 138.99 237.82C138.062 238.253 137.458 238.888 137.177 239.725C136.904 240.54 137.018 241.485 137.518 242.558L140.642 249.257L138.163 250.413L132.574 238.428L135.054 237.272L135.693 238.643C135.869 237.96 136.204 237.336 136.699 236.77C137.194 236.203 137.797 235.754 138.508 235.423C139.465 234.977 140.415 234.781 141.358 234.835C142.302 234.89 143.156 235.207 143.92 235.786C143.945 234.892 144.243 234.055 144.815 233.276C145.381 232.483 146.106 231.88 146.991 231.467ZM158.476 228.495C158.64 227.748 158.996 227.017 159.545 226.302C160.095 225.586 160.826 225.016 161.74 224.59C162.784 224.103 163.855 223.921 164.954 224.044C166.061 224.146 167.077 224.546 168.003 225.244C168.929 225.942 169.672 226.893 170.234 228.097C170.795 229.3 171.052 230.496 171.005 231.683C170.952 232.855 170.615 233.912 169.995 234.855C169.383 235.776 168.555 236.48 167.511 236.966C166.597 237.392 165.701 237.59 164.821 237.559C163.935 237.513 163.138 237.319 162.432 236.978L165.901 244.417L163.421 245.573L155.175 227.889L157.655 226.733L158.476 228.495ZM167.71 229.273C167.325 228.447 166.82 227.817 166.194 227.385C165.577 226.932 164.914 226.685 164.207 226.644C163.507 226.582 162.838 226.699 162.2 226.997C161.576 227.288 161.056 227.724 160.64 228.307C160.237 228.883 160.004 229.557 159.94 230.328C159.891 231.093 160.059 231.888 160.444 232.715C160.829 233.541 161.334 234.189 161.959 234.657C162.591 235.103 163.256 235.358 163.956 235.42C164.671 235.475 165.339 235.357 165.963 235.067C166.601 234.769 167.121 234.332 167.523 233.756C167.933 233.159 168.16 232.471 168.203 231.692C168.26 230.906 168.096 230.1 167.71 229.273ZM171.859 227.339C171.298 226.135 171.047 224.954 171.108 223.797C171.182 222.632 171.529 221.596 172.148 220.69C172.775 219.762 173.61 219.055 174.654 218.568C175.597 218.128 176.504 217.935 177.376 217.987C178.255 218.018 179.034 218.211 179.711 218.566L178.9 216.826L181.401 215.66L186.99 227.645L184.489 228.811L183.657 227.028C183.5 227.789 183.147 228.528 182.598 229.243C182.049 229.958 181.31 230.532 180.382 230.965C179.352 231.445 178.288 231.623 177.189 231.5C176.083 231.363 175.057 230.941 174.11 230.235C173.171 229.508 172.42 228.542 171.859 227.339ZM181.689 222.808C181.304 221.981 180.795 221.345 180.163 220.898C179.546 220.444 178.887 220.187 178.187 220.125C177.487 220.062 176.818 220.18 176.18 220.478C175.542 220.775 175.022 221.212 174.62 221.788C174.211 222.349 173.974 223.016 173.91 223.787C173.854 224.537 174.019 225.326 174.404 226.152C174.789 226.979 175.294 227.626 175.919 228.094C176.557 228.555 177.23 228.824 177.937 228.901C178.651 228.956 179.32 228.838 179.943 228.548C180.581 228.25 181.102 227.813 181.504 227.237C181.906 226.661 182.132 225.991 182.182 225.226C182.239 224.441 182.075 223.634 181.689 222.808ZM186.621 220.508C186.046 219.276 185.789 218.08 185.849 216.922C185.917 215.743 186.275 214.694 186.923 213.774C187.571 212.853 188.468 212.126 189.613 211.592C191.063 210.916 192.422 210.706 193.689 210.963C194.964 211.198 196.066 211.876 196.994 212.996L194.319 214.244C193.824 213.751 193.26 213.449 192.626 213.339C191.992 213.228 191.312 213.342 190.587 213.68C189.572 214.154 188.929 214.895 188.658 215.904C188.395 216.892 188.564 218.031 189.166 219.321C189.768 220.612 190.535 221.481 191.468 221.929C192.415 222.37 193.396 222.354 194.411 221.881C195.847 221.211 196.502 220.137 196.378 218.66L199.053 217.412C199.273 218.792 199.074 220.068 198.455 221.24C197.829 222.396 196.806 223.306 195.385 223.969C194.239 224.503 193.106 224.723 191.984 224.627C190.856 224.518 189.822 224.117 188.882 223.426C187.949 222.713 187.196 221.741 186.621 220.508ZM201.537 208.733L204.63 215.367C204.84 215.817 205.094 216.096 205.391 216.204C205.697 216.291 206.103 216.217 206.611 215.98L208.133 215.27L209.097 217.336L207.139 218.249C206.023 218.77 205.046 218.908 204.208 218.663C203.37 218.418 202.677 217.708 202.129 216.534L199.035 209.9L197.622 210.559L196.678 208.536L198.092 207.877L196.703 204.897L199.204 203.73L200.594 206.71L203.508 205.351L204.452 207.374L201.537 208.733ZM86.1675 314.566C84.7609 315.222 83.3109 315.501 81.8176 315.403C80.3319 315.284 78.9672 314.799 77.7235 313.949C76.4875 313.078 75.5246 311.903 74.8349 310.423C74.1452 308.944 73.8672 307.459 74.0011 305.966C74.1494 304.467 74.6587 303.117 75.529 301.917C76.407 300.696 77.5493 299.757 78.9559 299.101C80.377 298.438 81.8304 298.167 83.316 298.286C84.8094 298.384 86.1707 298.861 87.3999 299.718C88.6292 300.575 89.5887 301.743 90.2784 303.222C90.9681 304.701 91.2494 306.194 91.1223 307.701C90.9885 309.193 90.4826 310.55 89.6046 311.772C88.7343 312.972 87.5886 313.904 86.1675 314.566ZM85.1633 312.413C86.1639 311.946 86.9509 311.306 87.5243 310.491C88.091 309.662 88.3958 308.725 88.4386 307.681C88.4892 306.616 88.2541 305.525 87.7335 304.409C87.2128 303.292 86.5316 302.418 85.6899 301.787C84.8627 301.148 83.9527 300.787 82.9601 300.703C81.9674 300.618 80.9708 300.81 79.9702 301.276C78.9696 301.743 78.1827 302.383 77.6092 303.198C77.0358 304.013 76.7204 304.945 76.6631 305.996C76.6202 307.04 76.8591 308.12 77.3798 309.237C77.9005 310.353 78.5778 311.238 79.4118 311.891C80.2535 312.522 81.1741 312.887 82.1735 312.986C83.1662 313.07 84.1628 312.879 85.1633 312.413ZM93.9607 298.274C94.0392 297.496 94.298 296.802 94.737 296.191C95.1837 295.559 95.8204 295.05 96.6469 294.665L97.8438 297.231L97.213 297.526C96.2414 297.979 95.6168 298.57 95.3392 299.3C95.0761 300.023 95.2285 300.993 95.7965 302.211L98.738 308.519L96.2583 309.675L90.6696 297.69L93.1492 296.534L93.9607 298.274ZM103.755 291.35C104.683 290.917 105.59 290.724 106.477 290.77C107.371 290.794 108.149 290.987 108.812 291.349L108.001 289.609L110.502 288.442L116.182 300.623C116.696 301.725 116.921 302.812 116.855 303.884C116.797 304.97 116.441 305.966 115.786 306.872C115.146 307.771 114.217 308.504 112.999 309.072C111.375 309.829 109.847 310.074 108.415 309.806C106.991 309.552 105.902 308.807 105.148 307.569L107.606 306.423C108.085 306.959 108.717 307.273 109.502 307.366C110.308 307.467 111.139 307.318 111.995 306.919C112.995 306.452 113.658 305.772 113.983 304.879C114.323 303.979 114.222 302.95 113.681 301.789L112.748 299.788C112.591 300.55 112.241 301.296 111.699 302.025C111.164 302.734 110.44 303.301 109.526 303.727C108.482 304.214 107.403 304.399 106.29 304.283C105.184 304.145 104.158 303.723 103.211 303.017C102.271 302.29 101.521 301.325 100.96 300.121C100.399 298.918 100.148 297.737 100.209 296.579C100.283 295.414 100.63 294.379 101.249 293.472C101.876 292.544 102.711 291.837 103.755 291.35ZM110.79 295.59C110.405 294.764 109.896 294.127 109.264 293.68C108.646 293.227 107.988 292.969 107.288 292.907C106.588 292.845 105.919 292.963 105.281 293.26C104.643 293.558 104.123 293.994 103.721 294.57C103.312 295.132 103.075 295.798 103.011 296.57C102.955 297.32 103.119 298.108 103.505 298.935C103.89 299.761 104.395 300.408 105.019 300.876C105.658 301.338 106.331 301.607 107.037 301.683C107.752 301.738 108.421 301.621 109.044 301.33C109.682 301.032 110.202 300.596 110.605 300.02C111.007 299.444 111.233 298.773 111.282 298.009C111.34 297.223 111.176 296.417 110.79 295.59ZM115.702 293.247C115.14 292.044 114.89 290.863 114.95 289.705C115.025 288.54 115.372 287.504 115.991 286.598C116.617 285.67 117.453 284.963 118.497 284.476C119.439 284.037 120.346 283.843 121.218 283.895C122.098 283.927 122.876 284.12 123.554 284.475L122.743 282.735L125.244 281.568L130.833 293.553L128.331 294.72L127.5 292.936C127.343 293.698 126.99 294.436 126.44 295.151C125.891 295.866 125.153 296.44 124.224 296.873C123.195 297.353 122.131 297.531 121.032 297.408C119.926 297.271 118.9 296.849 117.952 296.143C117.013 295.416 116.263 294.451 115.702 293.247ZM125.532 288.716C125.146 287.89 124.638 287.253 124.006 286.806C123.388 286.353 122.729 286.095 122.03 286.033C121.33 285.971 120.661 286.088 120.023 286.386C119.385 286.684 118.865 287.12 118.462 287.696C118.053 288.258 117.817 288.924 117.753 289.695C117.697 290.446 117.861 291.234 118.247 292.06C118.632 292.887 119.137 293.534 119.761 294.002C120.4 294.463 121.073 294.732 121.779 294.809C122.493 294.864 123.162 294.747 123.786 294.456C124.424 294.158 124.944 293.722 125.346 293.146C125.749 292.57 125.975 291.899 126.024 291.135C126.081 290.349 125.917 289.543 125.532 288.716ZM134.456 277.034C135.399 276.594 136.331 276.398 137.253 276.445C138.19 276.485 139.048 276.791 139.827 277.363C140.606 277.936 141.249 278.766 141.756 279.853L145.052 286.922L142.594 288.069L139.47 281.369C138.97 280.296 138.32 279.602 137.519 279.286C136.712 278.957 135.845 279.008 134.917 279.441C133.989 279.874 133.384 280.509 133.104 281.345C132.831 282.161 132.945 283.106 133.445 284.179L136.569 290.878L134.09 292.034L128.501 280.049L130.981 278.893L131.62 280.263C131.796 279.581 132.131 278.957 132.626 278.39C133.136 277.817 133.746 277.365 134.456 277.034ZM143.148 271.286C142.698 271.496 142.25 271.52 141.804 271.357C141.357 271.194 141.029 270.888 140.819 270.439C140.61 269.989 140.586 269.541 140.749 269.095C140.911 268.648 141.217 268.32 141.667 268.111C142.102 267.908 142.543 267.888 142.989 268.05C143.436 268.213 143.764 268.519 143.973 268.968C144.183 269.418 144.207 269.866 144.044 270.312C143.881 270.759 143.583 271.083 143.148 271.286ZM145.106 272.306L150.695 284.291L148.215 285.447L142.627 273.462L145.106 272.306ZM155.204 279.726L160.642 277.19L161.585 279.213L153.276 283.088L152.333 281.065L154.09 270.58L148.631 273.125L147.687 271.103L155.996 267.228L156.94 269.251L155.204 279.726ZM160.543 272.337C159.981 271.134 159.731 269.953 159.791 268.795C159.866 267.63 160.213 266.595 160.832 265.688C161.458 264.761 162.294 264.053 163.338 263.566C164.28 263.127 165.187 262.933 166.059 262.986C166.939 263.017 167.717 263.21 168.395 263.565L167.584 261.825L170.085 260.658L175.674 272.643L173.172 273.81L172.341 272.026C172.184 272.788 171.831 273.526 171.281 274.241C170.732 274.956 169.994 275.53 169.065 275.963C168.036 276.443 166.972 276.622 165.873 276.499C164.767 276.361 163.741 275.939 162.793 275.233C161.854 274.506 161.104 273.541 160.543 272.337ZM170.373 267.806C169.987 266.98 169.479 266.343 168.847 265.897C168.229 265.443 167.57 265.185 166.871 265.123C166.171 265.061 165.502 265.179 164.864 265.476C164.226 265.774 163.706 266.211 163.303 266.787C162.894 267.348 162.658 268.014 162.594 268.786C162.538 269.536 162.702 270.324 163.088 271.151C163.473 271.977 163.978 272.625 164.602 273.093C165.241 273.554 165.914 273.823 166.62 273.899C167.334 273.955 168.003 273.837 168.627 273.546C169.265 273.249 169.785 272.812 170.187 272.236C170.59 271.66 170.816 270.99 170.865 270.225C170.922 269.439 170.758 268.633 170.373 267.806ZM177.178 259.814L180.272 266.448C180.481 266.897 180.735 267.176 181.033 267.285C181.338 267.372 181.744 267.297 182.252 267.06L183.775 266.35L184.738 268.417L182.781 269.329C181.664 269.85 180.687 269.988 179.849 269.743C179.011 269.498 178.318 268.789 177.77 267.614L174.677 260.98L173.263 261.639L172.32 259.616L173.733 258.957L172.344 255.977L174.845 254.811L176.235 257.791L179.149 256.432L180.093 258.454L177.178 259.814ZM181.956 253.19C181.507 253.399 181.059 253.423 180.612 253.26C180.165 253.098 179.837 252.792 179.628 252.342C179.418 251.893 179.395 251.445 179.557 250.998C179.72 250.552 180.026 250.224 180.475 250.014C180.91 249.811 181.351 249.791 181.798 249.953C182.244 250.116 182.572 250.422 182.782 250.872C182.991 251.321 183.015 251.769 182.852 252.216C182.69 252.662 182.391 252.987 181.956 253.19ZM183.915 254.21L189.503 266.195L187.024 267.351L181.435 255.366L183.915 254.21ZM198.049 262.448C196.918 262.976 195.777 263.198 194.627 263.117C193.47 263.021 192.414 262.631 191.459 261.946C190.498 261.247 189.729 260.281 189.155 259.048C188.587 257.83 188.351 256.625 188.448 255.432C188.545 254.239 188.939 253.173 189.631 252.233C190.322 251.292 191.241 250.555 192.386 250.021C193.532 249.487 194.687 249.257 195.852 249.332C197.016 249.406 198.087 249.79 199.063 250.482C200.039 251.175 200.811 252.13 201.379 253.348C201.947 254.566 202.175 255.775 202.064 256.974C201.952 258.174 201.54 259.258 200.826 260.226C200.12 261.173 199.194 261.914 198.049 262.448ZM197.045 260.295C197.683 259.997 198.206 259.568 198.615 259.006C199.039 258.438 199.282 257.768 199.347 256.997C199.411 256.226 199.24 255.405 198.834 254.535C198.428 253.665 197.92 253.01 197.309 252.571C196.692 252.118 196.036 251.867 195.343 251.82C194.65 251.772 193.985 251.897 193.347 252.195C192.709 252.492 192.185 252.922 191.776 253.483C191.382 254.038 191.167 254.694 191.132 255.452C191.09 256.195 191.272 257.002 191.678 257.872C192.28 259.162 193.072 260.011 194.056 260.417C195.048 260.802 196.044 260.761 197.045 260.295ZM206.996 243.208C207.939 242.768 208.871 242.572 209.794 242.619C210.73 242.659 211.588 242.965 212.367 243.537C213.146 244.11 213.789 244.94 214.296 246.027L217.592 253.096L215.134 254.243L212.01 247.543C211.51 246.47 210.86 245.776 210.059 245.461C209.252 245.131 208.385 245.182 207.457 245.615C206.529 246.048 205.924 246.683 205.644 247.52C205.371 248.335 205.485 249.28 205.985 250.353L209.109 257.052L206.63 258.208L201.041 246.223L203.521 245.067L204.16 246.437C204.336 245.755 204.671 245.131 205.166 244.565C205.676 243.991 206.286 243.539 206.996 243.208ZM225.197 249.789C224.254 250.228 223.328 250.457 222.419 250.475C221.517 250.472 220.713 250.282 220.008 249.905C219.295 249.513 218.756 248.961 218.389 248.25L220.955 247.053C221.235 247.54 221.674 247.856 222.271 248.002C222.877 248.125 223.513 248.032 224.18 247.721C224.876 247.396 225.351 247.016 225.607 246.579C225.87 246.121 225.903 245.681 225.707 245.261C225.497 244.811 225.124 244.579 224.588 244.565C224.066 244.543 223.28 244.618 222.23 244.79C221.216 244.963 220.372 245.065 219.699 245.097C219.025 245.128 218.366 245.003 217.723 244.721C217.093 244.431 216.596 243.895 216.231 243.112C215.934 242.474 215.852 241.806 215.985 241.108C216.112 240.396 216.453 239.725 217.007 239.096C217.575 238.46 218.316 237.929 219.23 237.503C220.593 236.868 221.85 236.705 223.001 237.016C224.16 237.305 225.046 238.031 225.658 239.193L223.178 240.349C222.885 239.833 222.468 239.507 221.927 239.37C221.387 239.234 220.784 239.321 220.116 239.632C219.464 239.936 219.021 240.293 218.788 240.702C218.555 241.111 218.533 241.518 218.722 241.924C218.871 242.243 219.112 242.457 219.446 242.567C219.779 242.676 220.143 242.718 220.537 242.693C220.925 242.654 221.489 242.576 222.23 242.46C223.208 242.286 224.03 242.194 224.696 242.184C225.37 242.152 226.018 242.274 226.64 242.548C227.263 242.823 227.76 243.341 228.133 244.103C228.451 244.785 228.546 245.482 228.42 246.194C228.293 246.906 227.952 247.577 227.398 248.206C226.859 248.828 226.125 249.356 225.197 249.789Z" fill="#474E68"/>
</g>
</g>
<g filter="url(#filter2_i_1385_11492)">
<g clip-path="url(#clip2_1385_11492)">
<path d="M547.267 334.714L325.5 253.997L236.575 498.317L458.342 579.034L547.267 334.714Z" fill="white"/>
<path d="M263.847 423.392L269.769 421.536C275.701 419.729 287.544 416.016 298.504 414.655C309.478 413.254 319.583 414.165 328.275 419.035C336.982 423.864 344.261 432.693 352.982 437.481C361.704 442.27 371.868 443.018 380.975 446.748C390.097 450.437 398.176 457.066 406.186 463.809C414.182 470.593 422.123 477.449 430.667 482.726C439.21 488.003 448.386 491.62 458.901 491.481C469.431 491.302 481.314 487.326 487.231 485.33L493.173 483.342L458.196 579.441L453.588 577.764C449.005 576.096 439.789 572.742 430.549 569.378C421.309 566.015 412.044 562.643 402.803 559.28C393.563 555.917 384.347 552.562 375.107 549.199C365.867 545.836 356.602 542.464 347.361 539.101C338.121 535.737 328.905 532.383 319.665 529.02C310.425 525.657 301.16 522.285 291.92 518.921C282.679 515.558 273.464 512.204 264.223 508.841C254.983 505.478 245.718 502.105 241.061 500.41L236.428 498.724L263.847 423.392Z" fill="#D1FFEC"/>
<path d="M267.848 412.398L271.635 416.405C275.462 420.38 283.038 428.395 291.596 433.631C300.14 438.908 309.652 441.448 318.552 445.748C327.436 450.088 335.723 456.148 343.867 462.524C352.025 468.86 360.055 475.472 369.325 478.754C378.58 482.076 389.09 482.028 399.679 481.685C410.283 481.302 420.981 480.585 430.028 484.477C439.061 488.41 446.459 496.913 455.076 501.987C463.694 507.06 473.562 508.623 478.456 509.436L483.39 510.217L458.195 579.441L453.587 577.764C449.004 576.096 439.788 572.742 430.548 569.378C421.308 566.015 412.043 562.643 402.802 559.28C393.562 555.917 384.346 552.562 375.106 549.199C365.866 545.836 356.601 542.464 347.36 539.101C338.12 535.737 328.904 532.383 319.664 529.02C310.424 525.657 301.159 522.285 291.919 518.921C282.678 515.558 273.463 512.204 264.222 508.841C254.982 505.478 245.717 502.106 241.06 500.41L236.427 498.724L267.848 412.398Z" fill="#B5F4D9"/>
<path d="M255.546 446.196L260.742 446.334C265.977 446.441 276.368 446.719 285.682 449.878C294.997 453.038 303.234 459.08 312.297 462.931C321.359 466.783 331.276 468.364 341.421 469.243C351.58 470.082 361.981 470.178 370.406 475.781C378.832 481.384 385.281 492.493 393.75 497.973C402.235 503.413 412.725 503.266 422.247 505.855C431.754 508.485 440.278 513.894 449.711 516.727C459.159 519.521 469.501 519.78 474.662 519.86L479.833 519.99L458.194 579.441L453.587 577.764C449.003 576.096 439.788 572.742 430.547 569.378C421.307 566.015 412.042 562.643 402.802 559.28C393.562 555.917 384.346 552.562 375.106 549.199C365.865 545.836 356.6 542.464 347.36 539.101C338.12 535.737 328.904 532.383 319.664 529.02C310.423 525.657 301.158 522.285 291.918 518.921C282.678 515.558 273.462 512.204 264.222 508.841C254.982 505.478 245.717 502.105 241.059 500.41L236.427 498.724L255.546 446.196Z" fill="#99E8C6"/>
<path d="M252.285 455.154L255.984 459.405C259.692 463.707 267.09 472.209 276.108 476.183C285.126 480.157 295.764 479.602 305.701 481.052C315.638 482.501 324.844 486.036 333.847 490.051C342.835 494.106 351.607 498.682 361.069 501.435C370.532 504.187 380.686 505.116 389.289 510.23C397.877 515.385 404.929 524.684 414.169 528.048C423.41 531.411 434.838 528.838 444.879 530.002C454.905 531.207 463.528 536.19 467.814 538.673L472.126 541.164L458.194 579.441L453.586 577.764C449.003 576.096 439.788 572.742 430.547 569.378C421.307 566.015 412.042 562.643 402.802 559.28C393.561 555.917 384.346 552.562 375.105 549.199C365.865 545.836 356.6 542.464 347.36 539.101C338.12 535.737 328.904 532.383 319.664 529.02C310.423 525.657 301.158 522.285 291.918 518.921C282.678 515.558 273.462 512.204 264.222 508.841C254.981 505.478 245.716 502.105 241.059 500.41L236.427 498.724L252.285 455.154Z" fill="#7CDCB3"/>
<path d="M241.17 485.694L246.173 486.362C251.2 487.039 261.206 488.375 271.158 489.784C281.124 491.152 291.022 492.633 300.41 495.589C309.799 498.545 318.679 502.976 327.445 507.642C336.211 512.308 344.893 517.128 353.392 522.528C361.891 527.927 370.208 533.905 380.322 534.866C390.422 535.867 402.306 531.892 412.332 533.097C422.372 534.261 430.54 540.647 439.395 545.069C448.236 549.531 457.748 552.071 462.479 553.332L467.235 554.602L458.194 579.441L453.587 577.764C449.003 576.096 439.788 572.742 430.547 569.378C421.307 566.015 412.042 562.643 402.802 559.28C393.562 555.917 384.346 552.562 375.106 549.199C365.865 545.836 356.6 542.464 347.36 539.101C338.12 535.737 328.904 532.383 319.664 529.02C310.423 525.657 301.158 522.285 291.918 518.921C282.678 515.558 273.462 512.204 264.222 508.841C254.981 505.478 245.717 502.105 241.059 500.41L236.427 498.724L241.17 485.694Z" fill="#5DD0A0"/>
<path d="M394.67 328.431C394.38 329.228 393.918 329.912 393.285 330.481C392.652 331.051 391.84 331.411 390.849 331.561C389.863 331.696 388.724 331.529 387.431 331.058L384.589 330.024L382.275 336.384L379.704 335.448L385.408 319.774L390.821 321.744C392.024 322.182 392.962 322.761 393.636 323.483C394.33 324.196 394.751 324.979 394.9 325.834C395.064 326.693 394.987 327.559 394.67 328.431ZM388.194 328.961C389.172 329.316 389.98 329.364 390.62 329.103C391.265 328.827 391.736 328.283 392.031 327.471C392.655 325.757 391.997 324.547 390.058 323.841L387.216 322.807L385.353 327.926L388.194 328.961ZM399.553 330.643C400.159 330.148 400.833 329.84 401.575 329.719C402.338 329.588 403.148 329.678 404.005 329.99L403.036 332.651L402.382 332.413C401.375 332.047 400.515 332.023 399.803 332.343C399.106 332.668 398.527 333.462 398.068 334.725L395.687 341.265L393.116 340.33L397.639 327.903L400.21 328.839L399.553 330.643ZM407.088 345.645C405.915 345.218 404.951 344.569 404.195 343.698C403.445 342.812 402.974 341.789 402.783 340.63C402.598 339.456 402.738 338.23 403.203 336.952C403.662 335.689 404.348 334.67 405.26 333.895C406.172 333.12 407.205 332.645 408.359 332.469C409.513 332.293 410.683 332.421 411.871 332.853C413.059 333.286 414.038 333.94 414.809 334.816C415.58 335.693 416.065 336.721 416.266 337.901C416.466 339.081 416.337 340.302 415.877 341.565C415.418 342.828 414.724 343.844 413.797 344.613C412.87 345.383 411.812 345.857 410.623 346.037C409.454 346.208 408.276 346.077 407.088 345.645ZM407.9 343.412C408.562 343.653 409.236 343.719 409.922 343.611C410.623 343.509 411.269 343.208 411.86 342.708C412.451 342.208 412.91 341.507 413.239 340.604C413.567 339.702 413.67 338.88 413.549 338.138C413.433 337.38 413.147 336.74 412.69 336.216C412.234 335.693 411.675 335.31 411.013 335.07C410.352 334.829 409.678 334.762 408.992 334.87C408.321 334.983 407.705 335.296 407.144 335.807C406.589 336.303 406.147 337.002 405.819 337.904C405.332 339.242 405.292 340.403 405.701 341.385C406.13 342.359 406.863 343.034 407.9 343.412ZM421.794 348.162L428.998 339.317L431.727 340.31L422.468 351.013L419.401 349.896L419.21 335.754L421.962 336.756L421.794 348.162ZM442.909 351.071C442.739 351.538 442.556 351.948 442.359 352.302L432.864 348.846C432.578 349.865 432.657 350.796 433.099 351.639C433.542 352.481 434.244 353.077 435.207 353.427C436.59 353.931 437.778 353.708 438.77 352.758L441.544 353.767C440.753 354.773 439.727 355.464 438.466 355.84C437.226 356.206 435.877 356.123 434.419 355.592C433.231 355.16 432.259 354.508 431.503 353.637C430.768 352.757 430.305 351.737 430.114 350.578C429.944 349.409 430.091 348.185 430.556 346.907C431.021 345.629 431.684 344.602 432.546 343.826C433.428 343.04 434.431 342.554 435.554 342.367C436.693 342.186 437.871 342.317 439.089 342.76C440.262 343.187 441.214 343.823 441.945 344.668C442.676 345.513 443.128 346.494 443.299 347.612C443.477 348.716 443.347 349.869 442.909 351.071ZM440.521 349.283C440.85 348.33 440.788 347.448 440.335 346.636C439.881 345.823 439.166 345.24 438.188 344.884C437.301 344.561 436.438 344.57 435.599 344.912C434.765 345.238 434.113 345.861 433.642 346.779L440.521 349.283ZM453.933 348.163C454.91 348.518 455.709 349.039 456.328 349.724C456.962 350.414 457.352 351.237 457.498 352.193C457.644 353.148 457.511 354.19 457.101 355.318L454.433 362.647L451.885 361.72L454.413 354.773C454.818 353.661 454.849 352.71 454.506 351.921C454.169 351.117 453.519 350.54 452.557 350.19C451.594 349.84 450.718 349.861 449.928 350.255C449.158 350.639 448.571 351.387 448.166 352.5L445.638 359.446L443.067 358.51L447.59 346.084L450.161 347.019L449.643 348.44C450.25 348.082 450.929 347.878 451.68 347.828C452.445 347.783 453.196 347.894 453.933 348.163ZM368.3 351.857L362.595 367.531L360.024 366.595L365.729 350.921L368.3 351.857ZM376.837 358.412C377.814 358.768 378.612 359.288 379.231 359.973C379.865 360.664 380.255 361.487 380.401 362.442C380.547 363.398 380.415 364.44 380.005 365.567L377.337 372.897L374.788 371.969L377.317 365.023C377.721 363.91 377.753 362.96 377.41 362.171C377.072 361.367 376.422 360.79 375.46 360.44C374.498 360.089 373.622 360.111 372.831 360.504C372.062 360.888 371.474 361.637 371.069 362.749L368.541 369.695L365.97 368.76L370.493 356.333L373.064 357.269L372.547 358.69C373.154 358.332 373.833 358.128 374.583 358.077C375.349 358.032 376.1 358.144 376.837 358.412ZM382.041 367.509C382.495 366.261 383.153 365.249 384.015 364.473C384.891 363.702 385.869 363.215 386.947 363.012C388.046 362.799 389.145 362.892 390.242 363.291C391.054 363.587 391.785 364.057 392.436 364.703C393.107 365.339 393.569 366.035 393.821 366.791L396.005 360.792L398.598 361.736L392.524 378.424L389.93 377.48L390.612 375.609C389.972 376.057 389.205 376.34 388.311 376.457C387.432 376.58 386.511 376.466 385.549 376.116C384.467 375.722 383.573 375.09 382.868 374.22C382.183 373.341 381.755 372.317 381.585 371.148C381.435 369.97 381.587 368.757 382.041 367.509ZM392.196 371.256C392.508 370.399 392.598 369.589 392.467 368.826C392.351 368.069 392.068 367.421 391.617 366.882C391.166 366.343 390.61 365.954 389.948 365.713C389.287 365.472 388.61 365.413 387.918 365.536C387.232 365.644 386.594 365.948 386.003 366.448C385.433 366.938 384.992 367.612 384.68 368.469C384.368 369.326 384.267 370.141 384.378 370.913C384.503 371.691 384.789 372.357 385.234 372.911C385.7 373.455 386.256 373.845 386.903 374.08C387.564 374.321 388.241 374.38 388.933 374.257C389.625 374.134 390.258 373.82 390.834 373.314C391.43 372.799 391.884 372.113 392.196 371.256ZM411.678 371.323L407.155 383.75L404.584 382.814L405.117 381.348C404.525 381.711 403.844 381.923 403.073 381.983C402.322 382.033 401.579 381.924 400.842 381.656C399.865 381.301 399.059 380.777 398.425 380.087C397.806 379.402 397.416 378.579 397.255 377.618C397.109 376.662 397.241 375.621 397.651 374.493L400.311 367.186L402.859 368.114L400.339 375.037C399.935 376.15 399.901 377.108 400.238 377.912C400.581 378.701 401.234 379.27 402.196 379.621C403.158 379.971 404.024 379.954 404.794 379.57C405.584 379.177 406.182 378.424 406.587 377.311L409.107 370.387L411.678 371.323ZM414.984 386.829C414.006 386.473 413.19 385.98 412.534 385.35C411.898 384.71 411.464 384.007 411.232 383.242C411.006 382.461 411.014 381.689 411.258 380.927L413.919 381.895C413.772 382.438 413.859 382.972 414.179 383.497C414.519 384.012 415.035 384.396 415.726 384.647C416.448 384.91 417.054 384.977 417.543 384.849C418.053 384.711 418.387 384.424 418.546 383.988C418.716 383.522 418.616 383.094 418.247 382.704C417.893 382.32 417.284 381.818 416.421 381.197C415.581 380.602 414.912 380.077 414.414 379.623C413.915 379.169 413.538 378.615 413.282 377.96C413.042 377.311 413.069 376.58 413.365 375.768C413.606 375.107 414.02 374.576 414.608 374.177C415.201 373.763 415.916 373.53 416.753 373.477C417.605 373.429 418.504 373.578 419.451 373.923C420.864 374.437 421.868 375.211 422.463 376.245C423.077 377.269 423.191 378.408 422.802 379.663L420.231 378.727C420.388 378.154 420.324 377.629 420.039 377.15C419.753 376.672 419.265 376.307 418.573 376.055C417.896 375.809 417.331 375.748 416.877 375.872C416.423 375.996 416.12 376.269 415.967 376.69C415.846 377.02 415.865 377.342 416.024 377.655C416.182 377.969 416.41 378.256 416.706 378.517C417.008 378.763 417.462 379.107 418.068 379.549C418.882 380.118 419.529 380.634 420.007 381.097C420.506 381.551 420.878 382.095 421.124 382.73C421.37 383.364 421.355 384.082 421.08 384.885C420.823 385.591 420.398 386.152 419.804 386.566C419.211 386.98 418.496 387.213 417.659 387.266C416.838 387.325 415.946 387.179 414.984 386.829ZM429.353 380.132L426.849 387.01C426.68 387.476 426.662 387.853 426.796 388.14C426.95 388.418 427.29 388.652 427.817 388.844L429.395 389.418L428.616 391.561L426.586 390.822C425.428 390.401 424.64 389.807 424.22 389.041C423.801 388.276 423.813 387.284 424.256 386.066L426.759 379.188L425.294 378.654L426.057 376.557L427.523 377.09L428.647 374.001L431.241 374.945L430.116 378.034L433.138 379.134L432.375 381.232L429.353 380.132ZM437.422 382.737C438.028 382.242 438.702 381.934 439.444 381.812C440.207 381.681 441.017 381.772 441.874 382.084L440.906 384.745L440.252 384.507C439.244 384.14 438.384 384.117 437.672 384.437C436.975 384.762 436.396 385.556 435.937 386.819L433.556 393.359L430.985 392.423L435.508 379.997L438.079 380.932L437.422 382.737ZM455.35 387.218L441.078 402.712L438.417 401.743L443.143 396.618L442.698 382.613L445.562 383.656L445.61 394.4L452.688 386.25L455.35 387.218ZM352.843 399.942L358.143 401.871L357.388 403.946L349.517 401.082L355.222 385.407L357.793 386.343L352.843 399.942ZM373.299 402.356C373.13 402.823 372.946 403.233 372.749 403.587L363.255 400.131C362.969 401.15 363.047 402.081 363.49 402.924C363.932 403.766 364.635 404.362 365.597 404.712C366.98 405.216 368.168 404.993 369.161 404.043L371.935 405.052C371.143 406.058 370.117 406.749 368.857 407.125C367.617 407.491 366.267 407.408 364.809 406.877C363.621 406.445 362.65 405.793 361.894 404.922C361.159 404.042 360.696 403.022 360.505 401.863C360.334 400.694 360.481 399.47 360.946 398.192C361.412 396.914 362.075 395.887 362.936 395.111C363.818 394.325 364.821 393.839 365.945 393.652C367.084 393.471 368.262 393.602 369.48 394.045C370.652 394.472 371.604 395.108 372.335 395.953C373.066 396.798 373.518 397.779 373.69 398.897C373.867 400.001 373.737 401.154 373.299 402.356ZM370.911 400.568C371.241 399.615 371.179 398.733 370.725 397.921C370.272 397.108 369.556 396.525 368.579 396.169C367.692 395.846 366.829 395.855 365.989 396.197C365.155 396.523 364.503 397.146 364.032 398.064L370.911 400.568ZM374.882 403.214C375.336 401.966 375.994 400.954 376.856 400.177C377.732 399.407 378.71 398.92 379.788 398.716C380.887 398.503 381.978 398.594 383.061 398.988C384.038 399.344 384.816 399.848 385.396 400.502C385.995 401.146 386.409 401.833 386.638 402.563L387.294 400.759L389.888 401.703L385.365 414.129L382.771 413.185L383.444 411.336C382.795 411.764 382.023 412.036 381.129 412.153C380.235 412.271 379.307 412.154 378.345 411.804C377.277 411.415 376.399 410.789 375.708 409.925C375.024 409.046 374.596 408.022 374.426 406.853C374.276 405.675 374.428 404.461 374.882 403.214ZM385.037 406.961C385.349 406.104 385.439 405.294 385.308 404.531C385.192 403.774 384.909 403.126 384.458 402.587C384.007 402.048 383.451 401.658 382.789 401.418C382.128 401.177 381.451 401.118 380.759 401.241C380.073 401.348 379.435 401.652 378.844 402.153C378.274 402.643 377.833 403.317 377.521 404.174C377.209 405.031 377.108 405.846 377.219 406.618C377.344 407.396 377.63 408.062 378.075 408.615C378.541 409.16 379.097 409.549 379.744 409.785C380.405 410.025 381.082 410.084 381.774 409.962C382.465 409.839 383.099 409.525 383.675 409.019C384.271 408.504 384.725 407.818 385.037 406.961ZM390.167 408.777C390.621 407.529 391.279 406.517 392.14 405.741C393.017 404.97 393.994 404.483 395.073 404.279C396.172 404.066 397.27 404.16 398.368 404.559C399.18 404.855 399.911 405.325 400.561 405.971C401.232 406.606 401.694 407.302 401.947 408.058L404.13 402.059L406.724 403.003L400.65 419.692L398.056 418.748L398.737 416.876C398.097 417.325 397.331 417.607 396.436 417.725C395.557 417.847 394.637 417.734 393.675 417.383C392.592 416.989 391.698 416.358 390.993 415.488C390.309 414.609 389.881 413.585 389.71 412.416C389.56 411.238 389.713 410.025 390.167 408.777ZM400.322 412.524C400.634 411.667 400.724 410.857 400.593 410.094C400.477 409.337 400.194 408.689 399.743 408.15C399.292 407.611 398.735 407.222 398.074 406.981C397.412 406.74 396.736 406.681 396.044 406.804C395.358 406.912 394.719 407.216 394.129 407.716C393.558 408.206 393.117 408.88 392.805 409.737C392.494 410.594 392.393 411.409 392.503 412.181C392.629 412.959 392.914 413.625 393.36 414.179C393.826 414.723 394.382 415.112 395.029 415.348C395.69 415.589 396.367 415.648 397.058 415.525C397.75 415.402 398.384 415.088 398.959 414.582C399.556 414.067 400.01 413.381 400.322 412.524ZM417.788 418.549C417.618 419.015 417.435 419.425 417.238 419.779L407.743 416.323C407.457 417.343 407.536 418.274 407.978 419.116C408.421 419.958 409.123 420.555 410.086 420.905C411.469 421.408 412.657 421.185 413.65 420.235L416.423 421.245C415.632 422.251 414.606 422.941 413.345 423.317C412.105 423.683 410.756 423.601 409.298 423.07C408.11 422.637 407.138 421.986 406.382 421.115C405.647 420.234 405.184 419.214 404.993 418.055C404.823 416.886 404.97 415.663 405.435 414.385C405.9 413.107 406.563 412.08 407.425 411.304C408.307 410.518 409.31 410.032 410.433 409.845C411.572 409.663 412.75 409.794 413.968 410.237C415.141 410.664 416.093 411.3 416.824 412.145C417.555 412.99 418.007 413.972 418.178 415.09C418.356 416.193 418.226 417.346 417.788 418.549ZM415.4 416.76C415.729 415.808 415.667 414.925 415.214 414.113C414.76 413.301 414.045 412.717 413.067 412.361C412.18 412.038 411.317 412.048 410.478 412.389C409.644 412.716 408.992 413.338 408.521 414.257L415.4 416.76ZM424.383 416.301C424.989 415.806 425.663 415.498 426.405 415.377C427.168 415.246 427.978 415.336 428.835 415.648L427.866 418.309L427.212 418.071C426.205 417.705 425.345 417.681 424.633 418.001C423.935 418.326 423.357 419.12 422.897 420.383L420.517 426.923L417.946 425.988L422.469 413.561L425.04 414.497L424.383 416.301ZM431.038 430.983C430.061 430.627 429.244 430.134 428.588 429.503C427.952 428.864 427.519 428.161 427.287 427.395C427.06 426.615 427.068 425.843 427.312 425.08L429.973 426.049C429.827 426.592 429.913 427.125 430.233 427.65C430.573 428.166 431.089 428.549 431.781 428.801C432.502 429.064 433.108 429.131 433.597 429.003C434.107 428.865 434.442 428.578 434.6 428.142C434.77 427.676 434.67 427.248 434.301 426.858C433.947 426.474 433.339 425.971 432.475 425.35C431.636 424.756 430.967 424.231 430.468 423.777C429.969 423.323 429.592 422.769 429.336 422.114C429.096 421.464 429.124 420.734 429.419 419.922C429.66 419.26 430.074 418.73 430.662 418.331C431.256 417.917 431.971 417.684 432.807 417.631C433.659 417.583 434.558 417.731 435.505 418.076C436.919 418.591 437.923 419.365 438.517 420.398C439.132 421.422 439.245 422.562 438.856 423.816L436.285 422.881C436.443 422.308 436.379 421.782 436.093 421.304C435.807 420.825 435.319 420.46 434.627 420.208C433.951 419.962 433.385 419.901 432.932 420.025C432.478 420.15 432.174 420.422 432.021 420.843C431.901 421.174 431.92 421.496 432.078 421.809C432.237 422.122 432.464 422.409 432.761 422.671C433.063 422.917 433.516 423.261 434.122 423.702C434.936 424.271 435.583 424.787 436.061 425.251C436.56 425.705 436.932 426.249 437.178 426.883C437.424 427.518 437.409 428.236 437.134 429.038C436.877 429.745 436.452 430.305 435.858 430.719C435.265 431.134 434.55 431.367 433.714 431.42C432.892 431.479 432 431.333 431.038 430.983Z" fill="#474E68"/>
</g>
</g>
<defs>
<filter id="filter0_i_1385_11492" x="223.141" y="0" width="277.562" height="297.031" filterUnits="userSpaceOnUse" color-interpolation-filters="sRGB">
<feFlood flood-opacity="0" result="BackgroundImageFix"/>
<feBlend mode="normal" in="SourceGraphic" in2="BackgroundImageFix" result="shape"/>
<feColorMatrix in="SourceAlpha" type="matrix" values="0 0 0 0 0 0 0 0 0 0 0 0 0 0 0 0 0 0 127 0" result="hardAlpha"/>
<feOffset/>
<feGaussianBlur stdDeviation="3"/>
<feComposite in2="hardAlpha" operator="arithmetic" k2="-1" k3="1"/>
<feColorMatrix type="matrix" values="0 0 0 0 0.282353 0 0 0 0 0.282353 0 0 0 0 0.282353 0 0 0 0.25 0"/>
<feBlend mode="normal" in2="shape" result="effect1_innerShadow_1385_11492"/>
</filter>
<filter id="filter1_i_1385_11492" x="7.03516" y="147.826" width="323.77" height="335.378" filterUnits="userSpaceOnUse" color-interpolation-filters="sRGB">
<feFlood flood-opacity="0" result="BackgroundImageFix"/>
<feBlend mode="normal" in="SourceGraphic" in2="BackgroundImageFix" result="shape"/>
<feColorMatrix in="SourceAlpha" type="matrix" values="0 0 0 0 0 0 0 0 0 0 0 0 0 0 0 0 0 0 127 0" result="hardAlpha"/>
<feOffset/>
<feGaussianBlur stdDeviation="3"/>
<feComposite in2="hardAlpha" operator="arithmetic" k2="-1" k3="1"/>
<feColorMatrix type="matrix" values="0 0 0 0 0.282353 0 0 0 0 0.282353 0 0 0 0 0.282353 0 0 0 0.25 0"/>
<feBlend mode="normal" in2="shape" result="effect1_innerShadow_1385_11492"/>
</filter>
<filter id="filter2_i_1385_11492" x="236.574" y="253.997" width="310.691" height="325.037" filterUnits="userSpaceOnUse" color-interpolation-filters="sRGB">
<feFlood flood-opacity="0" result="BackgroundImageFix"/>
<feBlend mode="normal" in="SourceGraphic" in2="BackgroundImageFix" result="shape"/>
<feColorMatrix in="SourceAlpha" type="matrix" values="0 0 0 0 0 0 0 0 0 0 0 0 0 0 0 0 0 0 127 0" result="hardAlpha"/>
<feOffset/>
<feGaussianBlur stdDeviation="3"/>
<feComposite in2="hardAlpha" operator="arithmetic" k2="-1" k3="1"/>
<feColorMatrix type="matrix" values="0 0 0 0 0.282353 0 0 0 0 0.282353 0 0 0 0 0.282353 0 0 0 0.25 0"/>
<feBlend mode="normal" in2="shape" result="effect1_innerShadow_1385_11492"/>
</filter>
<clipPath id="clip0_1385_11492">
<rect x="268.289" width="236" height="260" rx="20" transform="rotate(10 268.289 0)" fill="white"/>
</clipPath>
<clipPath id="clip1_1385_11492">
<rect x="7.03516" y="247.564" width="236" height="260" rx="20" transform="rotate(-25 7.03516 247.564)" fill="white"/>
</clipPath>
<clipPath id="clip2_1385_11492">
<rect x="325.5" y="253.997" width="236" height="260" rx="20" transform="rotate(20 325.5 253.997)" fill="white"/>
</clipPath>
</defs>
</svg>
