<svg width="765" height="337" viewBox="0 0 765 337" fill="none" xmlns="http://www.w3.org/2000/svg">
<path d="M119.612 223.112C118.876 223.112 118.214 222.984 117.628 222.728C117.052 222.461 116.598 222.099 116.268 221.64C115.937 221.171 115.766 220.632 115.756 220.024H117.308C117.361 220.547 117.574 220.989 117.948 221.352C118.332 221.704 118.886 221.88 119.612 221.88C120.305 221.88 120.849 221.709 121.244 221.368C121.649 221.016 121.852 220.568 121.852 220.024C121.852 219.597 121.734 219.251 121.5 218.984C121.265 218.717 120.972 218.515 120.62 218.376C120.268 218.237 119.793 218.088 119.196 217.928C118.46 217.736 117.868 217.544 117.42 217.352C116.982 217.16 116.604 216.861 116.284 216.456C115.974 216.04 115.82 215.485 115.82 214.792C115.82 214.184 115.974 213.645 116.284 213.176C116.593 212.707 117.025 212.344 117.58 212.088C118.145 211.832 118.79 211.704 119.516 211.704C120.561 211.704 121.414 211.965 122.076 212.488C122.748 213.011 123.126 213.704 123.212 214.568H121.612C121.558 214.141 121.334 213.768 120.94 213.448C120.545 213.117 120.022 212.952 119.372 212.952C118.764 212.952 118.268 213.112 117.884 213.432C117.5 213.741 117.308 214.179 117.308 214.744C117.308 215.149 117.42 215.48 117.644 215.736C117.878 215.992 118.161 216.189 118.492 216.328C118.833 216.456 119.308 216.605 119.916 216.776C120.652 216.979 121.244 217.181 121.692 217.384C122.14 217.576 122.524 217.88 122.844 218.296C123.164 218.701 123.324 219.256 123.324 219.96C123.324 220.504 123.18 221.016 122.892 221.496C122.604 221.976 122.177 222.365 121.612 222.664C121.046 222.963 120.38 223.112 119.612 223.112ZM127.242 215.432V220.6C127.242 221.027 127.333 221.331 127.514 221.512C127.696 221.683 128.01 221.768 128.458 221.768H129.53V223H128.218C127.408 223 126.8 222.813 126.394 222.44C125.989 222.067 125.786 221.453 125.786 220.6V215.432H124.65V214.232H125.786V212.024H127.242V214.232H129.53V215.432H127.242ZM130.751 218.584C130.751 217.688 130.932 216.904 131.295 216.232C131.657 215.549 132.153 215.021 132.783 214.648C133.423 214.275 134.132 214.088 134.911 214.088C135.679 214.088 136.345 214.253 136.911 214.584C137.476 214.915 137.897 215.331 138.175 215.832V214.232H139.647V223H138.175V221.368C137.887 221.88 137.455 222.307 136.879 222.648C136.313 222.979 135.652 223.144 134.895 223.144C134.116 223.144 133.412 222.952 132.783 222.568C132.153 222.184 131.657 221.645 131.295 220.952C130.932 220.259 130.751 219.469 130.751 218.584ZM138.175 218.6C138.175 217.939 138.041 217.363 137.775 216.872C137.508 216.381 137.145 216.008 136.687 215.752C136.239 215.485 135.743 215.352 135.199 215.352C134.655 215.352 134.159 215.48 133.711 215.736C133.263 215.992 132.905 216.365 132.639 216.856C132.372 217.347 132.239 217.923 132.239 218.584C132.239 219.256 132.372 219.843 132.639 220.344C132.905 220.835 133.263 221.213 133.711 221.48C134.159 221.736 134.655 221.864 135.199 221.864C135.743 221.864 136.239 221.736 136.687 221.48C137.145 221.213 137.508 220.835 137.775 220.344C138.041 219.843 138.175 219.261 138.175 218.6ZM146.379 214.072C147.446 214.072 148.31 214.397 148.971 215.048C149.632 215.688 149.963 216.616 149.963 217.832V223H148.523V218.04C148.523 217.165 148.304 216.499 147.867 216.04C147.43 215.571 146.832 215.336 146.075 215.336C145.307 215.336 144.694 215.576 144.235 216.056C143.787 216.536 143.563 217.235 143.563 218.152V223H142.107V214.232H143.563V215.48C143.851 215.032 144.24 214.685 144.731 214.44C145.232 214.195 145.782 214.072 146.379 214.072ZM151.797 218.584C151.797 217.688 151.979 216.904 152.341 216.232C152.704 215.549 153.2 215.021 153.829 214.648C154.469 214.275 155.184 214.088 155.973 214.088C156.656 214.088 157.291 214.248 157.877 214.568C158.464 214.877 158.912 215.288 159.221 215.8V211.16H160.693V223H159.221V221.352C158.933 221.875 158.507 222.307 157.941 222.648C157.376 222.979 156.715 223.144 155.957 223.144C155.179 223.144 154.469 222.952 153.829 222.568C153.2 222.184 152.704 221.645 152.341 220.952C151.979 220.259 151.797 219.469 151.797 218.584ZM159.221 218.6C159.221 217.939 159.088 217.363 158.821 216.872C158.555 216.381 158.192 216.008 157.733 215.752C157.285 215.485 156.789 215.352 156.245 215.352C155.701 215.352 155.205 215.48 154.757 215.736C154.309 215.992 153.952 216.365 153.685 216.856C153.419 217.347 153.285 217.923 153.285 218.584C153.285 219.256 153.419 219.843 153.685 220.344C153.952 220.835 154.309 221.213 154.757 221.48C155.205 221.736 155.701 221.864 156.245 221.864C156.789 221.864 157.285 221.736 157.733 221.48C158.192 221.213 158.555 220.835 158.821 220.344C159.088 219.843 159.221 219.261 159.221 218.6ZM171.244 223.144C170.422 223.144 169.676 222.957 169.004 222.584C168.342 222.211 167.82 221.683 167.436 221C167.062 220.307 166.876 219.507 166.876 218.6C166.876 217.704 167.068 216.915 167.452 216.232C167.846 215.539 168.38 215.011 169.052 214.648C169.724 214.275 170.476 214.088 171.308 214.088C172.14 214.088 172.892 214.275 173.564 214.648C174.236 215.011 174.764 215.533 175.148 216.216C175.542 216.899 175.74 217.693 175.74 218.6C175.74 219.507 175.537 220.307 175.132 221C174.737 221.683 174.198 222.211 173.516 222.584C172.833 222.957 172.076 223.144 171.244 223.144ZM171.244 221.864C171.766 221.864 172.257 221.741 172.716 221.496C173.174 221.251 173.542 220.883 173.82 220.392C174.108 219.901 174.252 219.304 174.252 218.6C174.252 217.896 174.113 217.299 173.836 216.808C173.558 216.317 173.196 215.955 172.748 215.72C172.3 215.475 171.814 215.352 171.292 215.352C170.758 215.352 170.268 215.475 169.82 215.72C169.382 215.955 169.03 216.317 168.764 216.808C168.497 217.299 168.364 217.896 168.364 218.6C168.364 219.315 168.492 219.917 168.748 220.408C169.014 220.899 169.366 221.267 169.804 221.512C170.241 221.747 170.721 221.864 171.244 221.864ZM185.43 214.232V223H183.974V221.704C183.697 222.152 183.307 222.504 182.806 222.76C182.315 223.005 181.771 223.128 181.174 223.128C180.491 223.128 179.878 222.989 179.334 222.712C178.79 222.424 178.358 221.997 178.038 221.432C177.729 220.867 177.574 220.179 177.574 219.368V214.232H179.014V219.176C179.014 220.04 179.233 220.707 179.67 221.176C180.107 221.635 180.705 221.864 181.462 221.864C182.241 221.864 182.854 221.624 183.302 221.144C183.75 220.664 183.974 219.965 183.974 219.048V214.232H185.43ZM189.664 215.432V220.6C189.664 221.027 189.755 221.331 189.936 221.512C190.118 221.683 190.432 221.768 190.88 221.768H191.952V223H190.64C189.83 223 189.222 222.813 188.816 222.44C188.411 222.067 188.208 221.453 188.208 220.6V215.432H187.072V214.232H188.208V212.024H189.664V214.232H191.952V215.432H189.664ZM199.758 215.432V220.6C199.758 221.027 199.849 221.331 200.03 221.512C200.211 221.683 200.526 221.768 200.974 221.768H202.046V223H200.734C199.923 223 199.315 222.813 198.91 222.44C198.505 222.067 198.302 221.453 198.302 220.6V215.432H197.166V214.232H198.302V212.024H199.758V214.232H202.046V215.432H199.758ZM207.634 223.144C206.813 223.144 206.066 222.957 205.394 222.584C204.733 222.211 204.21 221.683 203.826 221C203.453 220.307 203.266 219.507 203.266 218.6C203.266 217.704 203.458 216.915 203.842 216.232C204.237 215.539 204.77 215.011 205.442 214.648C206.114 214.275 206.866 214.088 207.698 214.088C208.53 214.088 209.282 214.275 209.954 214.648C210.626 215.011 211.154 215.533 211.538 216.216C211.933 216.899 212.13 217.693 212.13 218.6C212.13 219.507 211.927 220.307 211.522 221C211.127 221.683 210.589 222.211 209.906 222.584C209.223 222.957 208.466 223.144 207.634 223.144ZM207.634 221.864C208.157 221.864 208.647 221.741 209.106 221.496C209.565 221.251 209.933 220.883 210.21 220.392C210.498 219.901 210.642 219.304 210.642 218.6C210.642 217.896 210.503 217.299 210.226 216.808C209.949 216.317 209.586 215.955 209.138 215.72C208.69 215.475 208.205 215.352 207.682 215.352C207.149 215.352 206.658 215.475 206.21 215.72C205.773 215.955 205.421 216.317 205.154 216.808C204.887 217.299 204.754 217.896 204.754 218.6C204.754 219.315 204.882 219.917 205.138 220.408C205.405 220.899 205.757 221.267 206.194 221.512C206.631 221.747 207.111 221.864 207.634 221.864ZM220.086 215.432V220.6C220.086 221.027 220.177 221.331 220.358 221.512C220.539 221.683 220.854 221.768 221.302 221.768H222.374V223H221.062C220.251 223 219.643 222.813 219.238 222.44C218.833 222.067 218.63 221.453 218.63 220.6V215.432H217.494V214.232H218.63V212.024H220.086V214.232H222.374V215.432H220.086ZM227.962 223.144C227.141 223.144 226.394 222.957 225.722 222.584C225.061 222.211 224.538 221.683 224.154 221C223.781 220.307 223.594 219.507 223.594 218.6C223.594 217.704 223.786 216.915 224.17 216.232C224.565 215.539 225.098 215.011 225.77 214.648C226.442 214.275 227.194 214.088 228.026 214.088C228.858 214.088 229.61 214.275 230.282 214.648C230.954 215.011 231.482 215.533 231.866 216.216C232.261 216.899 232.458 217.693 232.458 218.6C232.458 219.507 232.256 220.307 231.85 221C231.456 221.683 230.917 222.211 230.234 222.584C229.552 222.957 228.794 223.144 227.962 223.144ZM227.962 221.864C228.485 221.864 228.976 221.741 229.434 221.496C229.893 221.251 230.261 220.883 230.538 220.392C230.826 219.901 230.97 219.304 230.97 218.6C230.97 217.896 230.832 217.299 230.554 216.808C230.277 216.317 229.914 215.955 229.466 215.72C229.018 215.475 228.533 215.352 228.01 215.352C227.477 215.352 226.986 215.475 226.538 215.72C226.101 215.955 225.749 216.317 225.482 216.808C225.216 217.299 225.082 217.896 225.082 218.6C225.082 219.315 225.21 219.917 225.466 220.408C225.733 220.899 226.085 221.267 226.522 221.512C226.96 221.747 227.44 221.864 227.962 221.864ZM235.829 215.848C236.117 215.347 236.543 214.931 237.109 214.6C237.685 214.259 238.351 214.088 239.109 214.088C239.887 214.088 240.591 214.275 241.221 214.648C241.861 215.021 242.362 215.549 242.725 216.232C243.087 216.904 243.269 217.688 243.269 218.584C243.269 219.469 243.087 220.259 242.725 220.952C242.362 221.645 241.861 222.184 241.221 222.568C240.591 222.952 239.887 223.144 239.109 223.144C238.362 223.144 237.701 222.979 237.125 222.648C236.559 222.307 236.127 221.885 235.829 221.384V227.16H234.373V214.232H235.829V215.848ZM241.781 218.584C241.781 217.923 241.647 217.347 241.381 216.856C241.114 216.365 240.751 215.992 240.293 215.736C239.845 215.48 239.349 215.352 238.805 215.352C238.271 215.352 237.775 215.485 237.317 215.752C236.869 216.008 236.506 216.387 236.229 216.888C235.962 217.379 235.829 217.949 235.829 218.6C235.829 219.261 235.962 219.843 236.229 220.344C236.506 220.835 236.869 221.213 237.317 221.48C237.775 221.736 238.271 221.864 238.805 221.864C239.349 221.864 239.845 221.736 240.293 221.48C240.751 221.213 241.114 220.835 241.381 220.344C241.647 219.843 241.781 219.256 241.781 218.584ZM257.451 218.28C257.451 218.557 257.435 218.851 257.403 219.16H250.395C250.448 220.024 250.741 220.701 251.275 221.192C251.819 221.672 252.475 221.912 253.243 221.912C253.872 221.912 254.395 221.768 254.811 221.48C255.237 221.181 255.536 220.787 255.707 220.296H257.275C257.04 221.139 256.571 221.827 255.867 222.36C255.163 222.883 254.288 223.144 253.243 223.144C252.411 223.144 251.664 222.957 251.003 222.584C250.352 222.211 249.84 221.683 249.467 221C249.093 220.307 248.907 219.507 248.907 218.6C248.907 217.693 249.088 216.899 249.451 216.216C249.813 215.533 250.32 215.011 250.971 214.648C251.632 214.275 252.389 214.088 253.243 214.088C254.075 214.088 254.811 214.269 255.451 214.632C256.091 214.995 256.581 215.496 256.923 216.136C257.275 216.765 257.451 217.48 257.451 218.28ZM255.947 217.976C255.947 217.421 255.824 216.947 255.579 216.552C255.333 216.147 254.997 215.843 254.571 215.64C254.155 215.427 253.691 215.32 253.179 215.32C252.443 215.32 251.813 215.555 251.291 216.024C250.779 216.493 250.485 217.144 250.411 217.976H255.947ZM269.917 214.072C270.599 214.072 271.207 214.216 271.741 214.504C272.274 214.781 272.695 215.203 273.005 215.768C273.314 216.333 273.469 217.021 273.469 217.832V223H272.029V218.04C272.029 217.165 271.81 216.499 271.373 216.04C270.946 215.571 270.365 215.336 269.629 215.336C268.871 215.336 268.269 215.581 267.821 216.072C267.373 216.552 267.149 217.251 267.149 218.168V223H265.709V218.04C265.709 217.165 265.49 216.499 265.053 216.04C264.626 215.571 264.045 215.336 263.309 215.336C262.551 215.336 261.949 215.581 261.501 216.072C261.053 216.552 260.829 217.251 260.829 218.168V223H259.373V214.232H260.829V215.496C261.117 215.037 261.501 214.685 261.981 214.44C262.471 214.195 263.01 214.072 263.597 214.072C264.333 214.072 264.983 214.237 265.549 214.568C266.114 214.899 266.535 215.384 266.813 216.024C267.058 215.405 267.463 214.925 268.029 214.584C268.594 214.243 269.223 214.072 269.917 214.072ZM277.313 215.848C277.601 215.347 278.028 214.931 278.593 214.6C279.169 214.259 279.836 214.088 280.593 214.088C281.372 214.088 282.076 214.275 282.705 214.648C283.345 215.021 283.846 215.549 284.209 216.232C284.572 216.904 284.753 217.688 284.753 218.584C284.753 219.469 284.572 220.259 284.209 220.952C283.846 221.645 283.345 222.184 282.705 222.568C282.076 222.952 281.372 223.144 280.593 223.144C279.846 223.144 279.185 222.979 278.609 222.648C278.044 222.307 277.612 221.885 277.313 221.384V227.16H275.857V214.232H277.313V215.848ZM283.265 218.584C283.265 217.923 283.132 217.347 282.865 216.856C282.598 216.365 282.236 215.992 281.777 215.736C281.329 215.48 280.833 215.352 280.289 215.352C279.756 215.352 279.26 215.485 278.801 215.752C278.353 216.008 277.99 216.387 277.713 216.888C277.446 217.379 277.313 217.949 277.313 218.6C277.313 219.261 277.446 219.843 277.713 220.344C277.99 220.835 278.353 221.213 278.801 221.48C279.26 221.736 279.756 221.864 280.289 221.864C280.833 221.864 281.329 221.736 281.777 221.48C282.236 221.213 282.598 220.835 282.865 220.344C283.132 219.843 283.265 219.256 283.265 218.584ZM288.126 211.16V223H286.67V211.16H288.126ZM294.431 223.144C293.61 223.144 292.863 222.957 292.191 222.584C291.53 222.211 291.007 221.683 290.623 221C290.25 220.307 290.063 219.507 290.063 218.6C290.063 217.704 290.255 216.915 290.639 216.232C291.034 215.539 291.567 215.011 292.239 214.648C292.911 214.275 293.663 214.088 294.495 214.088C295.327 214.088 296.079 214.275 296.751 214.648C297.423 215.011 297.951 215.533 298.335 216.216C298.73 216.899 298.927 217.693 298.927 218.6C298.927 219.507 298.724 220.307 298.319 221C297.924 221.683 297.386 222.211 296.703 222.584C296.02 222.957 295.263 223.144 294.431 223.144ZM294.431 221.864C294.954 221.864 295.444 221.741 295.903 221.496C296.362 221.251 296.73 220.883 297.007 220.392C297.295 219.901 297.439 219.304 297.439 218.6C297.439 217.896 297.3 217.299 297.023 216.808C296.746 216.317 296.383 215.955 295.935 215.72C295.487 215.475 295.002 215.352 294.479 215.352C293.946 215.352 293.455 215.475 293.007 215.72C292.57 215.955 292.218 216.317 291.951 216.808C291.684 217.299 291.551 217.896 291.551 218.6C291.551 219.315 291.679 219.917 291.935 220.408C292.202 220.899 292.554 221.267 292.991 221.512C293.428 221.747 293.908 221.864 294.431 221.864ZM308.393 214.232L303.113 227.128H301.609L303.337 222.904L299.801 214.232H301.417L304.169 221.336L306.889 214.232H308.393ZM317.857 218.28C317.857 218.557 317.841 218.851 317.809 219.16H310.801C310.854 220.024 311.148 220.701 311.681 221.192C312.225 221.672 312.881 221.912 313.649 221.912C314.278 221.912 314.801 221.768 315.217 221.48C315.644 221.181 315.942 220.787 316.113 220.296H317.681C317.446 221.139 316.977 221.827 316.273 222.36C315.569 222.883 314.694 223.144 313.649 223.144C312.817 223.144 312.07 222.957 311.409 222.584C310.758 222.211 310.246 221.683 309.873 221C309.5 220.307 309.313 219.507 309.313 218.6C309.313 217.693 309.494 216.899 309.857 216.216C310.22 215.533 310.726 215.011 311.377 214.648C312.038 214.275 312.796 214.088 313.649 214.088C314.481 214.088 315.217 214.269 315.857 214.632C316.497 214.995 316.988 215.496 317.329 216.136C317.681 216.765 317.857 217.48 317.857 218.28ZM316.353 217.976C316.353 217.421 316.23 216.947 315.985 216.552C315.74 216.147 315.404 215.843 314.977 215.64C314.561 215.427 314.097 215.32 313.585 215.32C312.849 215.32 312.22 215.555 311.697 216.024C311.185 216.493 310.892 217.144 310.817 217.976H316.353ZM321.235 215.656C321.491 215.155 321.854 214.765 322.323 214.488C322.803 214.211 323.384 214.072 324.067 214.072V215.576H323.683C322.051 215.576 321.235 216.461 321.235 218.232V223H319.779V214.232H321.235V215.656ZM328.852 223.144C328.18 223.144 327.577 223.032 327.044 222.808C326.51 222.573 326.089 222.253 325.78 221.848C325.47 221.432 325.3 220.957 325.268 220.424H326.772C326.814 220.861 327.017 221.219 327.38 221.496C327.753 221.773 328.238 221.912 328.836 221.912C329.39 221.912 329.828 221.789 330.148 221.544C330.468 221.299 330.628 220.989 330.628 220.616C330.628 220.232 330.457 219.949 330.116 219.768C329.774 219.576 329.246 219.389 328.532 219.208C327.881 219.037 327.348 218.867 326.932 218.696C326.526 218.515 326.174 218.253 325.876 217.912C325.588 217.56 325.444 217.101 325.444 216.536C325.444 216.088 325.577 215.677 325.844 215.304C326.11 214.931 326.489 214.637 326.98 214.424C327.47 214.2 328.03 214.088 328.66 214.088C329.63 214.088 330.414 214.333 331.012 214.824C331.609 215.315 331.929 215.987 331.972 216.84H330.516C330.484 216.381 330.297 216.013 329.956 215.736C329.625 215.459 329.177 215.32 328.612 215.32C328.089 215.32 327.673 215.432 327.364 215.656C327.054 215.88 326.9 216.173 326.9 216.536C326.9 216.824 326.99 217.064 327.172 217.256C327.364 217.437 327.598 217.587 327.876 217.704C328.164 217.811 328.558 217.933 329.06 218.072C329.689 218.243 330.201 218.413 330.596 218.584C330.99 218.744 331.326 218.989 331.604 219.32C331.892 219.651 332.041 220.083 332.052 220.616C332.052 221.096 331.918 221.528 331.652 221.912C331.385 222.296 331.006 222.6 330.516 222.824C330.036 223.037 329.481 223.144 328.852 223.144ZM350.053 214.232L347.317 223H345.813L343.701 216.04L341.589 223H340.085L337.333 214.232H338.821L340.837 221.592L343.013 214.232H344.501L346.629 221.608L348.613 214.232H350.053ZM352.25 212.808C351.972 212.808 351.738 212.712 351.546 212.52C351.354 212.328 351.258 212.093 351.258 211.816C351.258 211.539 351.354 211.304 351.546 211.112C351.738 210.92 351.972 210.824 352.25 210.824C352.516 210.824 352.74 210.92 352.922 211.112C353.114 211.304 353.21 211.539 353.21 211.816C353.21 212.093 353.114 212.328 352.922 212.52C352.74 212.712 352.516 212.808 352.25 212.808ZM352.954 214.232V223H351.498V214.232H352.954ZM357.211 215.432V220.6C357.211 221.027 357.302 221.331 357.483 221.512C357.664 221.683 357.979 221.768 358.427 221.768H359.499V223H358.187C357.376 223 356.768 222.813 356.363 222.44C355.958 222.067 355.755 221.453 355.755 220.6V215.432H354.619V214.232H355.755V212.024H357.211V214.232H359.499V215.432H357.211ZM365.615 214.072C366.277 214.072 366.874 214.216 367.407 214.504C367.941 214.781 368.357 215.203 368.655 215.768C368.965 216.333 369.119 217.021 369.119 217.832V223H367.679V218.04C367.679 217.165 367.461 216.499 367.023 216.04C366.586 215.571 365.989 215.336 365.231 215.336C364.463 215.336 363.85 215.576 363.391 216.056C362.943 216.536 362.719 217.235 362.719 218.152V223H361.263V211.16H362.719V215.48C363.007 215.032 363.402 214.685 363.903 214.44C364.415 214.195 364.986 214.072 365.615 214.072ZM375.219 218.584C375.219 217.688 375.401 216.904 375.763 216.232C376.126 215.549 376.622 215.021 377.251 214.648C377.891 214.275 378.601 214.088 379.379 214.088C380.147 214.088 380.814 214.253 381.379 214.584C381.945 214.915 382.366 215.331 382.643 215.832V214.232H384.115V223H382.643V221.368C382.355 221.88 381.923 222.307 381.347 222.648C380.782 222.979 380.121 223.144 379.363 223.144C378.585 223.144 377.881 222.952 377.251 222.568C376.622 222.184 376.126 221.645 375.763 220.952C375.401 220.259 375.219 219.469 375.219 218.584ZM382.643 218.6C382.643 217.939 382.51 217.363 382.243 216.872C381.977 216.381 381.614 216.008 381.155 215.752C380.707 215.485 380.211 215.352 379.667 215.352C379.123 215.352 378.627 215.48 378.179 215.736C377.731 215.992 377.374 216.365 377.107 216.856C376.841 217.347 376.707 217.923 376.707 218.584C376.707 219.256 376.841 219.843 377.107 220.344C377.374 220.835 377.731 221.213 378.179 221.48C378.627 221.736 379.123 221.864 379.667 221.864C380.211 221.864 380.707 221.736 381.155 221.48C381.614 221.213 381.977 220.835 382.243 220.344C382.51 219.843 382.643 219.261 382.643 218.6ZM392.297 215.848C392.585 215.347 393.012 214.931 393.577 214.6C394.153 214.259 394.82 214.088 395.577 214.088C396.356 214.088 397.06 214.275 397.689 214.648C398.329 215.021 398.831 215.549 399.193 216.232C399.556 216.904 399.737 217.688 399.737 218.584C399.737 219.469 399.556 220.259 399.193 220.952C398.831 221.645 398.329 222.184 397.689 222.568C397.06 222.952 396.356 223.144 395.577 223.144C394.831 223.144 394.169 222.979 393.593 222.648C393.028 222.307 392.596 221.885 392.297 221.384V227.16H390.841V214.232H392.297V215.848ZM398.249 218.584C398.249 217.923 398.116 217.347 397.849 216.856C397.583 216.365 397.22 215.992 396.761 215.736C396.313 215.48 395.817 215.352 395.273 215.352C394.74 215.352 394.244 215.485 393.785 215.752C393.337 216.008 392.975 216.387 392.697 216.888C392.431 217.379 392.297 217.949 392.297 218.6C392.297 219.261 392.431 219.843 392.697 220.344C392.975 220.835 393.337 221.213 393.785 221.48C394.244 221.736 394.74 221.864 395.273 221.864C395.817 221.864 396.313 221.736 396.761 221.48C397.22 221.213 397.583 220.835 397.849 220.344C398.116 219.843 398.249 219.256 398.249 218.584ZM403.11 215.656C403.366 215.155 403.729 214.765 404.198 214.488C404.678 214.211 405.259 214.072 405.942 214.072V215.576H405.558C403.926 215.576 403.11 216.461 403.11 218.232V223H401.654V214.232H403.11V215.656ZM411.447 223.144C410.625 223.144 409.879 222.957 409.207 222.584C408.545 222.211 408.023 221.683 407.639 221C407.265 220.307 407.079 219.507 407.079 218.6C407.079 217.704 407.271 216.915 407.655 216.232C408.049 215.539 408.583 215.011 409.255 214.648C409.927 214.275 410.679 214.088 411.511 214.088C412.343 214.088 413.095 214.275 413.767 214.648C414.439 215.011 414.967 215.533 415.351 216.216C415.745 216.899 415.943 217.693 415.943 218.6C415.943 219.507 415.74 220.307 415.335 221C414.94 221.683 414.401 222.211 413.719 222.584C413.036 222.957 412.279 223.144 411.447 223.144ZM411.447 221.864C411.969 221.864 412.46 221.741 412.919 221.496C413.377 221.251 413.745 220.883 414.023 220.392C414.311 219.901 414.455 219.304 414.455 218.6C414.455 217.896 414.316 217.299 414.039 216.808C413.761 216.317 413.399 215.955 412.951 215.72C412.503 215.475 412.017 215.352 411.495 215.352C410.961 215.352 410.471 215.475 410.023 215.72C409.585 215.955 409.233 216.317 408.967 216.808C408.7 217.299 408.567 217.896 408.567 218.6C408.567 219.315 408.695 219.917 408.951 220.408C409.217 220.899 409.569 221.267 410.007 221.512C410.444 221.747 410.924 221.864 411.447 221.864ZM421.425 215.432H419.585V223H418.129V215.432H416.993V214.232H418.129V213.608C418.129 212.627 418.38 211.912 418.881 211.464C419.393 211.005 420.209 210.776 421.329 210.776V211.992C420.689 211.992 420.236 212.12 419.969 212.376C419.713 212.621 419.585 213.032 419.585 213.608V214.232H421.425V215.432ZM423.875 212.808C423.597 212.808 423.363 212.712 423.171 212.52C422.979 212.328 422.883 212.093 422.883 211.816C422.883 211.539 422.979 211.304 423.171 211.112C423.363 210.92 423.597 210.824 423.875 210.824C424.141 210.824 424.365 210.92 424.547 211.112C424.739 211.304 424.835 211.539 424.835 211.816C424.835 212.093 424.739 212.328 424.547 212.52C424.365 212.712 424.141 212.808 423.875 212.808ZM424.579 214.232V223H423.123V214.232H424.579ZM428.516 211.16V223H427.06V211.16H428.516ZM438.998 218.28C438.998 218.557 438.982 218.851 438.95 219.16H431.942C431.995 220.024 432.288 220.701 432.822 221.192C433.366 221.672 434.022 221.912 434.79 221.912C435.419 221.912 435.942 221.768 436.358 221.48C436.784 221.181 437.083 220.787 437.254 220.296H438.822C438.587 221.139 438.118 221.827 437.414 222.36C436.71 222.883 435.835 223.144 434.79 223.144C433.958 223.144 433.211 222.957 432.55 222.584C431.899 222.211 431.387 221.683 431.014 221C430.64 220.307 430.454 219.507 430.454 218.6C430.454 217.693 430.635 216.899 430.998 216.216C431.36 215.533 431.867 215.011 432.518 214.648C433.179 214.275 433.936 214.088 434.79 214.088C435.622 214.088 436.358 214.269 436.998 214.632C437.638 214.995 438.128 215.496 438.47 216.136C438.822 216.765 438.998 217.48 438.998 218.28ZM437.494 217.976C437.494 217.421 437.371 216.947 437.126 216.552C436.88 216.147 436.544 215.843 436.118 215.64C435.702 215.427 435.238 215.32 434.726 215.32C433.99 215.32 433.36 215.555 432.838 216.024C432.326 216.493 432.032 217.144 431.958 217.976H437.494ZM444.641 218.584C444.641 217.688 444.822 216.904 445.185 216.232C445.548 215.549 446.044 215.021 446.673 214.648C447.313 214.275 448.028 214.088 448.817 214.088C449.5 214.088 450.134 214.248 450.721 214.568C451.308 214.877 451.756 215.288 452.065 215.8V211.16H453.537V223H452.065V221.352C451.777 221.875 451.35 222.307 450.785 222.648C450.22 222.979 449.558 223.144 448.801 223.144C448.022 223.144 447.313 222.952 446.673 222.568C446.044 222.184 445.548 221.645 445.185 220.952C444.822 220.259 444.641 219.469 444.641 218.584ZM452.065 218.6C452.065 217.939 451.932 217.363 451.665 216.872C451.398 216.381 451.036 216.008 450.577 215.752C450.129 215.485 449.633 215.352 449.089 215.352C448.545 215.352 448.049 215.48 447.601 215.736C447.153 215.992 446.796 216.365 446.529 216.856C446.262 217.347 446.129 217.923 446.129 218.584C446.129 219.256 446.262 219.843 446.529 220.344C446.796 220.835 447.153 221.213 447.601 221.48C448.049 221.736 448.545 221.864 449.089 221.864C449.633 221.864 450.129 221.736 450.577 221.48C451.036 221.213 451.398 220.835 451.665 220.344C451.932 219.843 452.065 219.261 452.065 218.6ZM463.998 218.28C463.998 218.557 463.982 218.851 463.95 219.16H456.942C456.995 220.024 457.288 220.701 457.822 221.192C458.366 221.672 459.022 221.912 459.79 221.912C460.419 221.912 460.942 221.768 461.358 221.48C461.784 221.181 462.083 220.787 462.254 220.296H463.822C463.587 221.139 463.118 221.827 462.414 222.36C461.71 222.883 460.835 223.144 459.79 223.144C458.958 223.144 458.211 222.957 457.55 222.584C456.899 222.211 456.387 221.683 456.014 221C455.64 220.307 455.454 219.507 455.454 218.6C455.454 217.693 455.635 216.899 455.998 216.216C456.36 215.533 456.867 215.011 457.518 214.648C458.179 214.275 458.936 214.088 459.79 214.088C460.622 214.088 461.358 214.269 461.998 214.632C462.638 214.995 463.128 215.496 463.47 216.136C463.822 216.765 463.998 217.48 463.998 218.28ZM462.494 217.976C462.494 217.421 462.371 216.947 462.126 216.552C461.88 216.147 461.544 215.843 461.118 215.64C460.702 215.427 460.238 215.32 459.726 215.32C458.99 215.32 458.36 215.555 457.838 216.024C457.326 216.493 457.032 217.144 456.958 217.976H462.494ZM469.024 223.144C468.352 223.144 467.749 223.032 467.216 222.808C466.682 222.573 466.261 222.253 465.952 221.848C465.642 221.432 465.472 220.957 465.44 220.424H466.944C466.986 220.861 467.189 221.219 467.552 221.496C467.925 221.773 468.41 221.912 469.008 221.912C469.562 221.912 470 221.789 470.32 221.544C470.64 221.299 470.8 220.989 470.8 220.616C470.8 220.232 470.629 219.949 470.288 219.768C469.946 219.576 469.418 219.389 468.704 219.208C468.053 219.037 467.52 218.867 467.104 218.696C466.698 218.515 466.346 218.253 466.048 217.912C465.76 217.56 465.616 217.101 465.616 216.536C465.616 216.088 465.749 215.677 466.016 215.304C466.282 214.931 466.661 214.637 467.152 214.424C467.642 214.2 468.202 214.088 468.832 214.088C469.802 214.088 470.586 214.333 471.184 214.824C471.781 215.315 472.101 215.987 472.144 216.84H470.688C470.656 216.381 470.469 216.013 470.128 215.736C469.797 215.459 469.349 215.32 468.784 215.32C468.261 215.32 467.845 215.432 467.536 215.656C467.226 215.88 467.072 216.173 467.072 216.536C467.072 216.824 467.162 217.064 467.344 217.256C467.536 217.437 467.77 217.587 468.048 217.704C468.336 217.811 468.73 217.933 469.232 218.072C469.861 218.243 470.373 218.413 470.768 218.584C471.162 218.744 471.498 218.989 471.776 219.32C472.064 219.651 472.213 220.083 472.224 220.616C472.224 221.096 472.09 221.528 471.824 221.912C471.557 222.296 471.178 222.6 470.688 222.824C470.208 223.037 469.653 223.144 469.024 223.144ZM475.031 212.808C474.754 212.808 474.519 212.712 474.327 212.52C474.135 212.328 474.039 212.093 474.039 211.816C474.039 211.539 474.135 211.304 474.327 211.112C474.519 210.92 474.754 210.824 475.031 210.824C475.298 210.824 475.522 210.92 475.703 211.112C475.895 211.304 475.991 211.539 475.991 211.816C475.991 212.093 475.895 212.328 475.703 212.52C475.522 212.712 475.298 212.808 475.031 212.808ZM475.735 214.232V223H474.279V214.232H475.735ZM481.832 214.088C482.59 214.088 483.251 214.253 483.816 214.584C484.392 214.915 484.819 215.331 485.096 215.832V214.232H486.568V223.192C486.568 223.992 486.398 224.701 486.056 225.32C485.715 225.949 485.224 226.44 484.584 226.792C483.955 227.144 483.219 227.32 482.376 227.32C481.224 227.32 480.264 227.048 479.496 226.504C478.728 225.96 478.275 225.219 478.136 224.28H479.576C479.736 224.813 480.067 225.24 480.568 225.56C481.07 225.891 481.672 226.056 482.376 226.056C483.176 226.056 483.827 225.805 484.328 225.304C484.84 224.803 485.096 224.099 485.096 223.192V221.352C484.808 221.864 484.382 222.291 483.816 222.632C483.251 222.973 482.59 223.144 481.832 223.144C481.054 223.144 480.344 222.952 479.704 222.568C479.075 222.184 478.579 221.645 478.216 220.952C477.854 220.259 477.672 219.469 477.672 218.584C477.672 217.688 477.854 216.904 478.216 216.232C478.579 215.549 479.075 215.021 479.704 214.648C480.344 214.275 481.054 214.088 481.832 214.088ZM485.096 218.6C485.096 217.939 484.963 217.363 484.696 216.872C484.43 216.381 484.067 216.008 483.608 215.752C483.16 215.485 482.664 215.352 482.12 215.352C481.576 215.352 481.08 215.48 480.632 215.736C480.184 215.992 479.827 216.365 479.56 216.856C479.294 217.347 479.16 217.923 479.16 218.584C479.16 219.256 479.294 219.843 479.56 220.344C479.827 220.835 480.184 221.213 480.632 221.48C481.08 221.736 481.576 221.864 482.12 221.864C482.664 221.864 483.16 221.736 483.608 221.48C484.067 221.213 484.43 220.835 484.696 220.344C484.963 219.843 485.096 219.261 485.096 218.6ZM493.301 214.072C494.368 214.072 495.232 214.397 495.893 215.048C496.554 215.688 496.885 216.616 496.885 217.832V223H495.445V218.04C495.445 217.165 495.226 216.499 494.789 216.04C494.352 215.571 493.754 215.336 492.997 215.336C492.229 215.336 491.616 215.576 491.157 216.056C490.709 216.536 490.485 217.235 490.485 218.152V223H489.029V214.232H490.485V215.48C490.773 215.032 491.162 214.685 491.653 214.44C492.154 214.195 492.704 214.072 493.301 214.072ZM507.263 218.28C507.263 218.557 507.247 218.851 507.215 219.16H500.207C500.261 220.024 500.554 220.701 501.087 221.192C501.631 221.672 502.287 221.912 503.055 221.912C503.685 221.912 504.207 221.768 504.623 221.48C505.05 221.181 505.349 220.787 505.519 220.296H507.087C506.853 221.139 506.383 221.827 505.679 222.36C504.975 222.883 504.101 223.144 503.055 223.144C502.223 223.144 501.477 222.957 500.815 222.584C500.165 222.211 499.653 221.683 499.279 221C498.906 220.307 498.719 219.507 498.719 218.6C498.719 217.693 498.901 216.899 499.263 216.216C499.626 215.533 500.133 215.011 500.783 214.648C501.445 214.275 502.202 214.088 503.055 214.088C503.887 214.088 504.623 214.269 505.263 214.632C505.903 214.995 506.394 215.496 506.735 216.136C507.087 216.765 507.263 217.48 507.263 218.28ZM505.759 217.976C505.759 217.421 505.637 216.947 505.391 216.552C505.146 216.147 504.81 215.843 504.383 215.64C503.967 215.427 503.503 215.32 502.991 215.32C502.255 215.32 501.626 215.555 501.103 216.024C500.591 216.493 500.298 217.144 500.223 217.976H505.759ZM508.641 218.584C508.641 217.688 508.822 216.904 509.185 216.232C509.548 215.549 510.044 215.021 510.673 214.648C511.313 214.275 512.028 214.088 512.817 214.088C513.5 214.088 514.134 214.248 514.721 214.568C515.308 214.877 515.756 215.288 516.065 215.8V211.16H517.537V223H516.065V221.352C515.777 221.875 515.35 222.307 514.785 222.648C514.22 222.979 513.558 223.144 512.801 223.144C512.022 223.144 511.313 222.952 510.673 222.568C510.044 222.184 509.548 221.645 509.185 220.952C508.822 220.259 508.641 219.469 508.641 218.584ZM516.065 218.6C516.065 217.939 515.932 217.363 515.665 216.872C515.398 216.381 515.036 216.008 514.577 215.752C514.129 215.485 513.633 215.352 513.089 215.352C512.545 215.352 512.049 215.48 511.601 215.736C511.153 215.992 510.796 216.365 510.529 216.856C510.262 217.347 510.129 217.923 510.129 218.584C510.129 219.256 510.262 219.843 510.529 220.344C510.796 220.835 511.153 221.213 511.601 221.48C512.049 221.736 512.545 221.864 513.089 221.864C513.633 221.864 514.129 221.736 514.577 221.48C515.036 221.213 515.398 220.835 515.665 220.344C515.932 219.843 516.065 219.261 516.065 218.6ZM526.039 215.432V220.6C526.039 221.027 526.13 221.331 526.311 221.512C526.493 221.683 526.807 221.768 527.255 221.768H528.327V223H527.015C526.205 223 525.597 222.813 525.191 222.44C524.786 222.067 524.583 221.453 524.583 220.6V215.432H523.447V214.232H524.583V212.024H526.039V214.232H528.327V215.432H526.039ZM533.915 223.144C533.094 223.144 532.347 222.957 531.675 222.584C531.014 222.211 530.491 221.683 530.107 221C529.734 220.307 529.547 219.507 529.547 218.6C529.547 217.704 529.739 216.915 530.123 216.232C530.518 215.539 531.051 215.011 531.723 214.648C532.395 214.275 533.147 214.088 533.979 214.088C534.811 214.088 535.563 214.275 536.235 214.648C536.907 215.011 537.435 215.533 537.819 216.216C538.214 216.899 538.411 217.693 538.411 218.6C538.411 219.507 538.209 220.307 537.803 221C537.409 221.683 536.87 222.211 536.187 222.584C535.505 222.957 534.747 223.144 533.915 223.144ZM533.915 221.864C534.438 221.864 534.929 221.741 535.387 221.496C535.846 221.251 536.214 220.883 536.491 220.392C536.779 219.901 536.923 219.304 536.923 218.6C536.923 217.896 536.785 217.299 536.507 216.808C536.23 216.317 535.867 215.955 535.419 215.72C534.971 215.475 534.486 215.352 533.963 215.352C533.43 215.352 532.939 215.475 532.491 215.72C532.054 215.955 531.702 216.317 531.435 216.808C531.169 217.299 531.035 217.896 531.035 218.6C531.035 219.315 531.163 219.917 531.419 220.408C531.686 220.899 532.038 221.267 532.475 221.512C532.913 221.747 533.393 221.864 533.915 221.864ZM555.135 214.072C555.818 214.072 556.426 214.216 556.959 214.504C557.493 214.781 557.914 215.203 558.223 215.768C558.533 216.333 558.687 217.021 558.687 217.832V223H557.247V218.04C557.247 217.165 557.029 216.499 556.591 216.04C556.165 215.571 555.583 215.336 554.847 215.336C554.09 215.336 553.487 215.581 553.039 216.072C552.591 216.552 552.367 217.251 552.367 218.168V223H550.927V218.04C550.927 217.165 550.709 216.499 550.271 216.04C549.845 215.571 549.263 215.336 548.527 215.336C547.77 215.336 547.167 215.581 546.719 216.072C546.271 216.552 546.047 217.251 546.047 218.168V223H544.591V214.232H546.047V215.496C546.335 215.037 546.719 214.685 547.199 214.44C547.69 214.195 548.229 214.072 548.815 214.072C549.551 214.072 550.202 214.237 550.767 214.568C551.333 214.899 551.754 215.384 552.031 216.024C552.277 215.405 552.682 214.925 553.247 214.584C553.813 214.243 554.442 214.072 555.135 214.072ZM560.532 218.584C560.532 217.688 560.713 216.904 561.076 216.232C561.438 215.549 561.934 215.021 562.564 214.648C563.204 214.275 563.913 214.088 564.692 214.088C565.46 214.088 566.126 214.253 566.692 214.584C567.257 214.915 567.678 215.331 567.956 215.832V214.232H569.428V223H567.956V221.368C567.668 221.88 567.236 222.307 566.66 222.648C566.094 222.979 565.433 223.144 564.676 223.144C563.897 223.144 563.193 222.952 562.564 222.568C561.934 222.184 561.438 221.645 561.076 220.952C560.713 220.259 560.532 219.469 560.532 218.584ZM567.956 218.6C567.956 217.939 567.822 217.363 567.556 216.872C567.289 216.381 566.926 216.008 566.468 215.752C566.02 215.485 565.524 215.352 564.98 215.352C564.436 215.352 563.94 215.48 563.492 215.736C563.044 215.992 562.686 216.365 562.42 216.856C562.153 217.347 562.02 217.923 562.02 218.584C562.02 219.256 562.153 219.843 562.42 220.344C562.686 220.835 563.044 221.213 563.492 221.48C563.94 221.736 564.436 221.864 564.98 221.864C565.524 221.864 566.02 221.736 566.468 221.48C566.926 221.213 567.289 220.835 567.556 220.344C567.822 219.843 567.956 219.261 567.956 218.6ZM573.664 215.432V220.6C573.664 221.027 573.755 221.331 573.936 221.512C574.118 221.683 574.432 221.768 574.88 221.768H575.952V223H574.64C573.83 223 573.222 222.813 572.816 222.44C572.411 222.067 572.208 221.453 572.208 220.6V215.432H571.072V214.232H572.208V212.024H573.664V214.232H575.952V215.432H573.664ZM577.172 218.6C577.172 217.693 577.354 216.904 577.716 216.232C578.079 215.549 578.58 215.021 579.22 214.648C579.871 214.275 580.612 214.088 581.444 214.088C582.522 214.088 583.407 214.349 584.1 214.872C584.804 215.395 585.268 216.12 585.492 217.048H583.924C583.775 216.515 583.482 216.093 583.044 215.784C582.618 215.475 582.084 215.32 581.444 215.32C580.612 215.32 579.94 215.608 579.428 216.184C578.916 216.749 578.66 217.555 578.66 218.6C578.66 219.656 578.916 220.472 579.428 221.048C579.94 221.624 580.612 221.912 581.444 221.912C582.084 221.912 582.618 221.763 583.044 221.464C583.471 221.165 583.764 220.739 583.924 220.184H585.492C585.258 221.08 584.788 221.8 584.084 222.344C583.38 222.877 582.5 223.144 581.444 223.144C580.612 223.144 579.871 222.957 579.22 222.584C578.58 222.211 578.079 221.683 577.716 221C577.354 220.317 577.172 219.517 577.172 218.6ZM591.787 214.072C592.448 214.072 593.046 214.216 593.579 214.504C594.112 214.781 594.528 215.203 594.827 215.768C595.136 216.333 595.291 217.021 595.291 217.832V223H593.851V218.04C593.851 217.165 593.632 216.499 593.195 216.04C592.758 215.571 592.16 215.336 591.403 215.336C590.635 215.336 590.022 215.576 589.563 216.056C589.115 216.536 588.891 217.235 588.891 218.152V223H587.435V211.16H588.891V215.48C589.179 215.032 589.574 214.685 590.075 214.44C590.587 214.195 591.158 214.072 591.787 214.072ZM609.487 214.232L604.207 227.128H602.703L604.431 222.904L600.895 214.232H602.511L605.263 221.336L607.983 214.232H609.487ZM614.775 223.144C613.953 223.144 613.207 222.957 612.535 222.584C611.873 222.211 611.351 221.683 610.967 221C610.593 220.307 610.407 219.507 610.407 218.6C610.407 217.704 610.599 216.915 610.983 216.232C611.377 215.539 611.911 215.011 612.583 214.648C613.255 214.275 614.007 214.088 614.839 214.088C615.671 214.088 616.423 214.275 617.095 214.648C617.767 215.011 618.295 215.533 618.679 216.216C619.073 216.899 619.271 217.693 619.271 218.6C619.271 219.507 619.068 220.307 618.663 221C618.268 221.683 617.729 222.211 617.047 222.584C616.364 222.957 615.607 223.144 614.775 223.144ZM614.775 221.864C615.297 221.864 615.788 221.741 616.247 221.496C616.705 221.251 617.073 220.883 617.351 220.392C617.639 219.901 617.783 219.304 617.783 218.6C617.783 217.896 617.644 217.299 617.367 216.808C617.089 216.317 616.727 215.955 616.279 215.72C615.831 215.475 615.345 215.352 614.823 215.352C614.289 215.352 613.799 215.475 613.351 215.72C612.913 215.955 612.561 216.317 612.295 216.808C612.028 217.299 611.895 217.896 611.895 218.6C611.895 219.315 612.023 219.917 612.279 220.408C612.545 220.899 612.897 221.267 613.335 221.512C613.772 221.747 614.252 221.864 614.775 221.864ZM628.961 214.232V223H627.505V221.704C627.228 222.152 626.838 222.504 626.337 222.76C625.846 223.005 625.302 223.128 624.705 223.128C624.022 223.128 623.409 222.989 622.865 222.712C622.321 222.424 621.889 221.997 621.569 221.432C621.26 220.867 621.105 220.179 621.105 219.368V214.232H622.545V219.176C622.545 220.04 622.764 220.707 623.201 221.176C623.638 221.635 624.236 221.864 624.993 221.864C625.772 221.864 626.385 221.624 626.833 221.144C627.281 220.664 627.505 219.965 627.505 219.048V214.232H628.961ZM632.876 215.656C633.132 215.155 633.494 214.765 633.964 214.488C634.444 214.211 635.025 214.072 635.708 214.072V215.576H635.324C633.692 215.576 632.876 216.461 632.876 218.232V223H631.42V214.232H632.876V215.656ZM221.719 245.144C221.047 245.144 220.444 245.032 219.911 244.808C219.377 244.573 218.956 244.253 218.647 243.848C218.337 243.432 218.167 242.957 218.135 242.424H219.639C219.681 242.861 219.884 243.219 220.247 243.496C220.62 243.773 221.105 243.912 221.703 243.912C222.257 243.912 222.695 243.789 223.015 243.544C223.335 243.299 223.495 242.989 223.495 242.616C223.495 242.232 223.324 241.949 222.983 241.768C222.641 241.576 222.113 241.389 221.399 241.208C220.748 241.037 220.215 240.867 219.799 240.696C219.393 240.515 219.041 240.253 218.743 239.912C218.455 239.56 218.311 239.101 218.311 238.536C218.311 238.088 218.444 237.677 218.711 237.304C218.977 236.931 219.356 236.637 219.847 236.424C220.337 236.2 220.897 236.088 221.527 236.088C222.497 236.088 223.281 236.333 223.879 236.824C224.476 237.315 224.796 237.987 224.839 238.84H223.383C223.351 238.381 223.164 238.013 222.823 237.736C222.492 237.459 222.044 237.32 221.479 237.32C220.956 237.32 220.54 237.432 220.231 237.656C219.921 237.88 219.767 238.173 219.767 238.536C219.767 238.824 219.857 239.064 220.039 239.256C220.231 239.437 220.465 239.587 220.743 239.704C221.031 239.811 221.425 239.933 221.927 240.072C222.556 240.243 223.068 240.413 223.463 240.584C223.857 240.744 224.193 240.989 224.471 241.32C224.759 241.651 224.908 242.083 224.919 242.616C224.919 243.096 224.785 243.528 224.519 243.912C224.252 244.296 223.873 244.6 223.383 244.824C222.903 245.037 222.348 245.144 221.719 245.144ZM231.87 245L228.43 241.128V245H226.974V233.16H228.43V240.12L231.806 236.232H233.838L229.71 240.6L233.854 245H231.87ZM235.961 234.808C235.683 234.808 235.449 234.712 235.257 234.52C235.065 234.328 234.969 234.093 234.969 233.816C234.969 233.539 235.065 233.304 235.257 233.112C235.449 232.92 235.683 232.824 235.961 232.824C236.227 232.824 236.451 232.92 236.633 233.112C236.825 233.304 236.921 233.539 236.921 233.816C236.921 234.093 236.825 234.328 236.633 234.52C236.451 234.712 236.227 234.808 235.961 234.808ZM236.665 236.232V245H235.209V236.232H236.665ZM240.602 233.16V245H239.146V233.16H240.602ZM244.54 233.16V245H243.084V233.16H244.54ZM250.125 245.144C249.453 245.144 248.85 245.032 248.317 244.808C247.784 244.573 247.362 244.253 247.053 243.848C246.744 243.432 246.573 242.957 246.541 242.424H248.045C248.088 242.861 248.29 243.219 248.653 243.496C249.026 243.773 249.512 243.912 250.109 243.912C250.664 243.912 251.101 243.789 251.421 243.544C251.741 243.299 251.901 242.989 251.901 242.616C251.901 242.232 251.73 241.949 251.389 241.768C251.048 241.576 250.52 241.389 249.805 241.208C249.154 241.037 248.621 240.867 248.205 240.696C247.8 240.515 247.448 240.253 247.149 239.912C246.861 239.56 246.717 239.101 246.717 238.536C246.717 238.088 246.85 237.677 247.117 237.304C247.384 236.931 247.762 236.637 248.253 236.424C248.744 236.2 249.304 236.088 249.933 236.088C250.904 236.088 251.688 236.333 252.285 236.824C252.882 237.315 253.202 237.987 253.245 238.84H251.789C251.757 238.381 251.57 238.013 251.229 237.736C250.898 237.459 250.45 237.32 249.885 237.32C249.362 237.32 248.946 237.432 248.637 237.656C248.328 237.88 248.173 238.173 248.173 238.536C248.173 238.824 248.264 239.064 248.445 239.256C248.637 239.437 248.872 239.587 249.149 239.704C249.437 239.811 249.832 239.933 250.333 240.072C250.962 240.243 251.474 240.413 251.869 240.584C252.264 240.744 252.6 240.989 252.877 241.32C253.165 241.651 253.314 242.083 253.325 242.616C253.325 243.096 253.192 243.528 252.925 243.912C252.658 244.296 252.28 244.6 251.789 244.824C251.309 245.037 250.754 245.144 250.125 245.144ZM261.422 237.432V242.6C261.422 243.027 261.513 243.331 261.694 243.512C261.875 243.683 262.19 243.768 262.638 243.768H263.71V245H262.398C261.587 245 260.979 244.813 260.574 244.44C260.169 244.067 259.966 243.453 259.966 242.6V237.432H258.83V236.232H259.966V234.024H261.422V236.232H263.71V237.432H261.422ZM269.298 245.144C268.477 245.144 267.73 244.957 267.058 244.584C266.397 244.211 265.874 243.683 265.49 243C265.117 242.307 264.93 241.507 264.93 240.6C264.93 239.704 265.122 238.915 265.506 238.232C265.901 237.539 266.434 237.011 267.106 236.648C267.778 236.275 268.53 236.088 269.362 236.088C270.194 236.088 270.946 236.275 271.618 236.648C272.29 237.011 272.818 237.533 273.202 238.216C273.597 238.899 273.794 239.693 273.794 240.6C273.794 241.507 273.592 242.307 273.186 243C272.792 243.683 272.253 244.211 271.57 244.584C270.888 244.957 270.13 245.144 269.298 245.144ZM269.298 243.864C269.821 243.864 270.312 243.741 270.77 243.496C271.229 243.251 271.597 242.883 271.874 242.392C272.162 241.901 272.306 241.304 272.306 240.6C272.306 239.896 272.168 239.299 271.89 238.808C271.613 238.317 271.25 237.955 270.802 237.72C270.354 237.475 269.869 237.352 269.346 237.352C268.813 237.352 268.322 237.475 267.874 237.72C267.437 237.955 267.085 238.317 266.818 238.808C266.552 239.299 266.418 239.896 266.418 240.6C266.418 241.315 266.546 241.917 266.802 242.408C267.069 242.899 267.421 243.267 267.858 243.512C268.296 243.747 268.776 243.864 269.298 243.864ZM281.75 237.432V242.6C281.75 243.027 281.841 243.331 282.022 243.512C282.204 243.683 282.518 243.768 282.966 243.768H284.038V245H282.726C281.916 245 281.308 244.813 280.902 244.44C280.497 244.067 280.294 243.453 280.294 242.6V237.432H279.158V236.232H280.294V234.024H281.75V236.232H284.038V237.432H281.75ZM290.154 236.072C290.816 236.072 291.413 236.216 291.946 236.504C292.48 236.781 292.896 237.203 293.194 237.768C293.504 238.333 293.658 239.021 293.658 239.832V245H292.218V240.04C292.218 239.165 292 238.499 291.562 238.04C291.125 237.571 290.528 237.336 289.77 237.336C289.002 237.336 288.389 237.576 287.93 238.056C287.482 238.536 287.258 239.235 287.258 240.152V245H285.802V233.16H287.258V237.48C287.546 237.032 287.941 236.685 288.442 236.44C288.954 236.195 289.525 236.072 290.154 236.072ZM304.037 240.28C304.037 240.557 304.021 240.851 303.989 241.16H296.981C297.034 242.024 297.327 242.701 297.861 243.192C298.405 243.672 299.061 243.912 299.829 243.912C300.458 243.912 300.981 243.768 301.397 243.48C301.823 243.181 302.122 242.787 302.293 242.296H303.861C303.626 243.139 303.157 243.827 302.453 244.36C301.749 244.883 300.874 245.144 299.829 245.144C298.997 245.144 298.25 244.957 297.589 244.584C296.938 244.211 296.426 243.683 296.053 243C295.679 242.307 295.493 241.507 295.493 240.6C295.493 239.693 295.674 238.899 296.037 238.216C296.399 237.533 296.906 237.011 297.557 236.648C298.218 236.275 298.975 236.088 299.829 236.088C300.661 236.088 301.397 236.269 302.037 236.632C302.677 236.995 303.167 237.496 303.509 238.136C303.861 238.765 304.037 239.48 304.037 240.28ZM302.533 239.976C302.533 239.421 302.41 238.947 302.165 238.552C301.919 238.147 301.583 237.843 301.157 237.64C300.741 237.427 300.277 237.32 299.765 237.32C299.029 237.32 298.399 237.555 297.877 238.024C297.365 238.493 297.071 239.144 296.997 239.976H302.533ZM311.68 237.656C311.936 237.155 312.299 236.765 312.768 236.488C313.248 236.211 313.83 236.072 314.512 236.072V237.576H314.128C312.496 237.576 311.68 238.461 311.68 240.232V245H310.224V236.232H311.68V237.656ZM316.945 234.808C316.668 234.808 316.433 234.712 316.241 234.52C316.049 234.328 315.953 234.093 315.953 233.816C315.953 233.539 316.049 233.304 316.241 233.112C316.433 232.92 316.668 232.824 316.945 232.824C317.212 232.824 317.436 232.92 317.617 233.112C317.809 233.304 317.905 233.539 317.905 233.816C317.905 234.093 317.809 234.328 317.617 234.52C317.436 234.712 317.212 234.808 316.945 234.808ZM317.649 236.232V245H316.193V236.232H317.649ZM323.746 236.088C324.504 236.088 325.165 236.253 325.73 236.584C326.306 236.915 326.733 237.331 327.01 237.832V236.232H328.482V245.192C328.482 245.992 328.312 246.701 327.97 247.32C327.629 247.949 327.138 248.44 326.498 248.792C325.869 249.144 325.133 249.32 324.29 249.32C323.138 249.32 322.178 249.048 321.41 248.504C320.642 247.96 320.189 247.219 320.05 246.28H321.49C321.65 246.813 321.981 247.24 322.482 247.56C322.984 247.891 323.586 248.056 324.29 248.056C325.09 248.056 325.741 247.805 326.242 247.304C326.754 246.803 327.01 246.099 327.01 245.192V243.352C326.722 243.864 326.296 244.291 325.73 244.632C325.165 244.973 324.504 245.144 323.746 245.144C322.968 245.144 322.258 244.952 321.618 244.568C320.989 244.184 320.493 243.645 320.13 242.952C319.768 242.259 319.586 241.469 319.586 240.584C319.586 239.688 319.768 238.904 320.13 238.232C320.493 237.549 320.989 237.021 321.618 236.648C322.258 236.275 322.968 236.088 323.746 236.088ZM327.01 240.6C327.01 239.939 326.877 239.363 326.61 238.872C326.344 238.381 325.981 238.008 325.522 237.752C325.074 237.485 324.578 237.352 324.034 237.352C323.49 237.352 322.994 237.48 322.546 237.736C322.098 237.992 321.741 238.365 321.474 238.856C321.208 239.347 321.074 239.923 321.074 240.584C321.074 241.256 321.208 241.843 321.474 242.344C321.741 242.835 322.098 243.213 322.546 243.48C322.994 243.736 323.49 243.864 324.034 243.864C324.578 243.864 325.074 243.736 325.522 243.48C325.981 243.213 326.344 242.835 326.61 242.344C326.877 241.843 327.01 241.261 327.01 240.6ZM335.295 236.072C335.956 236.072 336.554 236.216 337.087 236.504C337.62 236.781 338.036 237.203 338.335 237.768C338.644 238.333 338.799 239.021 338.799 239.832V245H337.359V240.04C337.359 239.165 337.14 238.499 336.703 238.04C336.266 237.571 335.668 237.336 334.911 237.336C334.143 237.336 333.53 237.576 333.071 238.056C332.623 238.536 332.399 239.235 332.399 240.152V245H330.943V233.16H332.399V237.48C332.687 237.032 333.082 236.685 333.583 236.44C334.095 236.195 334.666 236.072 335.295 236.072ZM342.953 237.432V242.6C342.953 243.027 343.044 243.331 343.225 243.512C343.407 243.683 343.721 243.768 344.169 243.768H345.241V245H343.929C343.119 245 342.511 244.813 342.105 244.44C341.7 244.067 341.497 243.453 341.497 242.6V237.432H340.361V236.232H341.497V234.024H342.953V236.232H345.241V237.432H342.953ZM352.727 237.656C352.983 237.155 353.346 236.765 353.815 236.488C354.295 236.211 354.876 236.072 355.559 236.072V237.576H355.175C353.543 237.576 352.727 238.461 352.727 240.232V245H351.271V236.232H352.727V237.656ZM361.064 245.144C360.242 245.144 359.496 244.957 358.824 244.584C358.162 244.211 357.64 243.683 357.256 243C356.882 242.307 356.696 241.507 356.696 240.6C356.696 239.704 356.888 238.915 357.272 238.232C357.666 237.539 358.2 237.011 358.872 236.648C359.544 236.275 360.296 236.088 361.128 236.088C361.96 236.088 362.712 236.275 363.384 236.648C364.056 237.011 364.584 237.533 364.968 238.216C365.362 238.899 365.56 239.693 365.56 240.6C365.56 241.507 365.357 242.307 364.952 243C364.557 243.683 364.018 244.211 363.336 244.584C362.653 244.957 361.896 245.144 361.064 245.144ZM361.064 243.864C361.586 243.864 362.077 243.741 362.536 243.496C362.994 243.251 363.362 242.883 363.64 242.392C363.928 241.901 364.072 241.304 364.072 240.6C364.072 239.896 363.933 239.299 363.656 238.808C363.378 238.317 363.016 237.955 362.568 237.72C362.12 237.475 361.634 237.352 361.112 237.352C360.578 237.352 360.088 237.475 359.64 237.72C359.202 237.955 358.85 238.317 358.584 238.808C358.317 239.299 358.184 239.896 358.184 240.6C358.184 241.315 358.312 241.917 358.568 242.408C358.834 242.899 359.186 243.267 359.624 243.512C360.061 243.747 360.541 243.864 361.064 243.864ZM368.93 233.16V245H367.474V233.16H368.93ZM379.412 240.28C379.412 240.557 379.396 240.851 379.364 241.16H372.356C372.409 242.024 372.702 242.701 373.236 243.192C373.78 243.672 374.436 243.912 375.204 243.912C375.833 243.912 376.356 243.768 376.772 243.48C377.198 243.181 377.497 242.787 377.668 242.296H379.236C379.001 243.139 378.532 243.827 377.828 244.36C377.124 244.883 376.249 245.144 375.204 245.144C374.372 245.144 373.625 244.957 372.964 244.584C372.313 244.211 371.801 243.683 371.428 243C371.054 242.307 370.868 241.507 370.868 240.6C370.868 239.693 371.049 238.899 371.412 238.216C371.774 237.533 372.281 237.011 372.932 236.648C373.593 236.275 374.35 236.088 375.204 236.088C376.036 236.088 376.772 236.269 377.412 236.632C378.052 236.995 378.542 237.496 378.884 238.136C379.236 238.765 379.412 239.48 379.412 240.28ZM377.908 239.976C377.908 239.421 377.785 238.947 377.54 238.552C377.294 238.147 376.958 237.843 376.532 237.64C376.116 237.427 375.652 237.32 375.14 237.32C374.404 237.32 373.774 237.555 373.252 238.024C372.74 238.493 372.446 239.144 372.372 239.976H377.908ZM384.438 245.144C383.766 245.144 383.163 245.032 382.63 244.808C382.096 244.573 381.675 244.253 381.366 243.848C381.056 243.432 380.886 242.957 380.854 242.424H382.358C382.4 242.861 382.603 243.219 382.966 243.496C383.339 243.773 383.824 243.912 384.422 243.912C384.976 243.912 385.414 243.789 385.734 243.544C386.054 243.299 386.214 242.989 386.214 242.616C386.214 242.232 386.043 241.949 385.702 241.768C385.36 241.576 384.832 241.389 384.118 241.208C383.467 241.037 382.934 240.867 382.518 240.696C382.112 240.515 381.76 240.253 381.462 239.912C381.174 239.56 381.03 239.101 381.03 238.536C381.03 238.088 381.163 237.677 381.43 237.304C381.696 236.931 382.075 236.637 382.566 236.424C383.056 236.2 383.616 236.088 384.246 236.088C385.216 236.088 386 236.333 386.598 236.824C387.195 237.315 387.515 237.987 387.558 238.84H386.102C386.07 238.381 385.883 238.013 385.542 237.736C385.211 237.459 384.763 237.32 384.198 237.32C383.675 237.32 383.259 237.432 382.95 237.656C382.64 237.88 382.486 238.173 382.486 238.536C382.486 238.824 382.576 239.064 382.758 239.256C382.95 239.437 383.184 239.587 383.462 239.704C383.75 239.811 384.144 239.933 384.646 240.072C385.275 240.243 385.787 240.413 386.182 240.584C386.576 240.744 386.912 240.989 387.19 241.32C387.478 241.651 387.627 242.083 387.638 242.616C387.638 243.096 387.504 243.528 387.238 243.912C386.971 244.296 386.592 244.6 386.102 244.824C385.622 245.037 385.067 245.144 384.438 245.144ZM401.405 238.52V239.752H389.677V238.52H401.405ZM415.529 236.232L412.793 245H411.289L409.177 238.04L407.065 245H405.561L402.809 236.232H404.297L406.313 243.592L408.489 236.232H409.977L412.105 243.608L414.089 236.232H415.529ZM417.726 234.808C417.449 234.808 417.214 234.712 417.022 234.52C416.83 234.328 416.734 234.093 416.734 233.816C416.734 233.539 416.83 233.304 417.022 233.112C417.214 232.92 417.449 232.824 417.726 232.824C417.993 232.824 418.217 232.92 418.398 233.112C418.59 233.304 418.686 233.539 418.686 233.816C418.686 234.093 418.59 234.328 418.398 234.52C418.217 234.712 417.993 234.808 417.726 234.808ZM418.43 236.232V245H416.974V236.232H418.43ZM422.688 237.432V242.6C422.688 243.027 422.778 243.331 422.96 243.512C423.141 243.683 423.456 243.768 423.904 243.768H424.976V245H423.664C422.853 245 422.245 244.813 421.84 244.44C421.434 244.067 421.232 243.453 421.232 242.6V237.432H420.096V236.232H421.232V234.024H422.688V236.232H424.976V237.432H422.688ZM431.092 236.072C431.753 236.072 432.35 236.216 432.884 236.504C433.417 236.781 433.833 237.203 434.132 237.768C434.441 238.333 434.596 239.021 434.596 239.832V245H433.156V240.04C433.156 239.165 432.937 238.499 432.5 238.04C432.062 237.571 431.465 237.336 430.708 237.336C429.94 237.336 429.326 237.576 428.868 238.056C428.42 238.536 428.196 239.235 428.196 240.152V245H426.74V233.16H428.196V237.48C428.484 237.032 428.878 236.685 429.38 236.44C429.892 236.195 430.462 236.072 431.092 236.072ZM440.798 245.144C439.977 245.144 439.23 244.957 438.558 244.584C437.897 244.211 437.374 243.683 436.99 243C436.617 242.307 436.43 241.507 436.43 240.6C436.43 239.704 436.622 238.915 437.006 238.232C437.401 237.539 437.934 237.011 438.606 236.648C439.278 236.275 440.03 236.088 440.862 236.088C441.694 236.088 442.446 236.275 443.118 236.648C443.79 237.011 444.318 237.533 444.702 238.216C445.097 238.899 445.294 239.693 445.294 240.6C445.294 241.507 445.092 242.307 444.686 243C444.292 243.683 443.753 244.211 443.07 244.584C442.388 244.957 441.63 245.144 440.798 245.144ZM440.798 243.864C441.321 243.864 441.812 243.741 442.27 243.496C442.729 243.251 443.097 242.883 443.374 242.392C443.662 241.901 443.806 241.304 443.806 240.6C443.806 239.896 443.668 239.299 443.39 238.808C443.113 238.317 442.75 237.955 442.302 237.72C441.854 237.475 441.369 237.352 440.846 237.352C440.313 237.352 439.822 237.475 439.374 237.72C438.937 237.955 438.585 238.317 438.318 238.808C438.052 239.299 437.918 239.896 437.918 240.6C437.918 241.315 438.046 241.917 438.302 242.408C438.569 242.899 438.921 243.267 439.358 243.512C439.796 243.747 440.276 243.864 440.798 243.864ZM454.985 236.232V245H453.529V243.704C453.251 244.152 452.862 244.504 452.361 244.76C451.87 245.005 451.326 245.128 450.729 245.128C450.046 245.128 449.433 244.989 448.889 244.712C448.345 244.424 447.913 243.997 447.593 243.432C447.283 242.867 447.129 242.179 447.129 241.368V236.232H448.569V241.176C448.569 242.04 448.787 242.707 449.225 243.176C449.662 243.635 450.259 243.864 451.017 243.864C451.795 243.864 452.409 243.624 452.857 243.144C453.305 242.664 453.529 241.965 453.529 241.048V236.232H454.985ZM459.219 237.432V242.6C459.219 243.027 459.31 243.331 459.491 243.512C459.672 243.683 459.987 243.768 460.435 243.768H461.507V245H460.195C459.384 245 458.776 244.813 458.371 244.44C457.966 244.067 457.763 243.453 457.763 242.6V237.432H456.627V236.232H457.763V234.024H459.219V236.232H461.507V237.432H459.219ZM469.313 237.432V242.6C469.313 243.027 469.403 243.331 469.585 243.512C469.766 243.683 470.081 243.768 470.529 243.768H471.601V245H470.289C469.478 245 468.87 244.813 468.465 244.44C468.059 244.067 467.857 243.453 467.857 242.6V237.432H466.721V236.232H467.857V234.024H469.313V236.232H471.601V237.432H469.313ZM477.717 236.072C478.378 236.072 478.975 236.216 479.509 236.504C480.042 236.781 480.458 237.203 480.757 237.768C481.066 238.333 481.221 239.021 481.221 239.832V245H479.781V240.04C479.781 239.165 479.562 238.499 479.125 238.04C478.687 237.571 478.09 237.336 477.333 237.336C476.565 237.336 475.951 237.576 475.493 238.056C475.045 238.536 474.821 239.235 474.821 240.152V245H473.365V233.16H474.821V237.48C475.109 237.032 475.503 236.685 476.005 236.44C476.517 236.195 477.087 236.072 477.717 236.072ZM491.599 240.28C491.599 240.557 491.583 240.851 491.551 241.16H484.543C484.597 242.024 484.89 242.701 485.423 243.192C485.967 243.672 486.623 243.912 487.391 243.912C488.021 243.912 488.543 243.768 488.959 243.48C489.386 243.181 489.685 242.787 489.855 242.296H491.423C491.189 243.139 490.719 243.827 490.015 244.36C489.311 244.883 488.437 245.144 487.391 245.144C486.559 245.144 485.813 244.957 485.151 244.584C484.501 244.211 483.989 243.683 483.615 243C483.242 242.307 483.055 241.507 483.055 240.6C483.055 239.693 483.237 238.899 483.599 238.216C483.962 237.533 484.469 237.011 485.119 236.648C485.781 236.275 486.538 236.088 487.391 236.088C488.223 236.088 488.959 236.269 489.599 236.632C490.239 236.995 490.73 237.496 491.071 238.136C491.423 238.765 491.599 239.48 491.599 240.28ZM490.095 239.976C490.095 239.421 489.973 238.947 489.727 238.552C489.482 238.147 489.146 237.843 488.719 237.64C488.303 237.427 487.839 237.32 487.327 237.32C486.591 237.32 485.962 237.555 485.439 238.024C484.927 238.493 484.634 239.144 484.559 239.976H490.095ZM509.467 236.232L506.731 245H505.227L503.115 238.04L501.003 245H499.499L496.747 236.232H498.235L500.251 243.592L502.427 236.232H503.915L506.043 243.608L508.027 236.232H509.467ZM510.368 240.584C510.368 239.688 510.549 238.904 510.912 238.232C511.274 237.549 511.77 237.021 512.4 236.648C513.04 236.275 513.749 236.088 514.528 236.088C515.296 236.088 515.962 236.253 516.528 236.584C517.093 236.915 517.514 237.331 517.792 237.832V236.232H519.264V245H517.792V243.368C517.504 243.88 517.072 244.307 516.496 244.648C515.93 244.979 515.269 245.144 514.512 245.144C513.733 245.144 513.029 244.952 512.4 244.568C511.77 244.184 511.274 243.645 510.912 242.952C510.549 242.259 510.368 241.469 510.368 240.584ZM517.792 240.6C517.792 239.939 517.658 239.363 517.392 238.872C517.125 238.381 516.762 238.008 516.304 237.752C515.856 237.485 515.36 237.352 514.816 237.352C514.272 237.352 513.776 237.48 513.328 237.736C512.88 237.992 512.522 238.365 512.256 238.856C511.989 239.347 511.856 239.923 511.856 240.584C511.856 241.256 511.989 241.843 512.256 242.344C512.522 242.835 512.88 243.213 513.328 243.48C513.776 243.736 514.272 243.864 514.816 243.864C515.36 243.864 515.856 243.736 516.304 243.48C516.762 243.213 517.125 242.835 517.392 242.344C517.658 241.843 517.792 241.261 517.792 240.6ZM522.476 234.808C522.199 234.808 521.964 234.712 521.772 234.52C521.58 234.328 521.484 234.093 521.484 233.816C521.484 233.539 521.58 233.304 521.772 233.112C521.964 232.92 522.199 232.824 522.476 232.824C522.743 232.824 522.967 232.92 523.148 233.112C523.34 233.304 523.436 233.539 523.436 233.816C523.436 234.093 523.34 234.328 523.148 234.52C522.967 234.712 522.743 234.808 522.476 234.808ZM523.18 236.232V245H521.724V236.232H523.18ZM527.438 237.432V242.6C527.438 243.027 527.528 243.331 527.71 243.512C527.891 243.683 528.206 243.768 528.654 243.768H529.726V245H528.414C527.603 245 526.995 244.813 526.59 244.44C526.184 244.067 525.982 243.453 525.982 242.6V237.432H524.846V236.232H525.982V234.024H527.438V236.232H529.726V237.432H527.438ZM531.954 245.096C531.676 245.096 531.442 245 531.25 244.808C531.058 244.616 530.962 244.381 530.962 244.104C530.962 243.827 531.058 243.592 531.25 243.4C531.442 243.208 531.676 243.112 531.954 243.112C532.22 243.112 532.444 243.208 532.626 243.4C532.818 243.592 532.914 243.827 532.914 244.104C532.914 244.381 532.818 244.616 532.626 244.808C532.444 245 532.22 245.096 531.954 245.096Z" fill="black" fill-opacity="0.8"/>
<line x1="62.8937" y1="1.11001e-08" x2="62.8937" y2="337" stroke="url(#paint0_linear_0_1)" stroke-opacity="0.9" stroke-width="0.39186"/>
<line x1="127.55" y1="1.11001e-08" x2="127.55" y2="337" stroke="url(#paint1_linear_0_1)" stroke-opacity="0.9" stroke-width="0.39186"/>
<line y1="246.676" x2="581.913" y2="246.676" stroke="url(#paint2_linear_0_1)" stroke-opacity="0.9" stroke-width="0.39186"/>
<line x1="503.541" y1="246.676" x2="764.128" y2="246.676" stroke="url(#paint3_linear_0_1)" stroke-opacity="0.9" stroke-width="0.39186"/>
<line y1="164.386" x2="260.587" y2="164.386" stroke="url(#paint4_linear_0_1)" stroke-opacity="0.9" stroke-width="0.39186"/>
<line x1="503.541" y1="164.386" x2="764.128" y2="164.386" stroke="url(#paint5_linear_0_1)" stroke-opacity="0.9" stroke-width="0.39186"/>
<line x1="190.248" y1="1.11001e-08" x2="190.248" y2="337" stroke="url(#paint6_linear_0_1)" stroke-opacity="0.9" stroke-width="0.39186"/>
<line x1="249.027" y1="1.11001e-08" x2="249.027" y2="337" stroke="url(#paint7_linear_0_1)" stroke-opacity="0.9" stroke-width="0.39186"/>
<line opacity="0.3" x1="254.905" y1="1.11001e-08" x2="254.905" y2="337" stroke="url(#paint8_linear_0_1)" stroke-opacity="0.9" stroke-width="0.39186"/>
<line opacity="0.3" x1="319.562" y1="1.11001e-08" x2="319.562" y2="337" stroke="url(#paint9_linear_0_1)" stroke-opacity="0.9" stroke-width="0.39186"/>
<line opacity="0.3" x1="382.26" y1="1.11001e-08" x2="382.26" y2="337" stroke="url(#paint10_linear_0_1)" stroke-opacity="0.9" stroke-width="0.39186"/>
<line opacity="0.3" x1="446.917" y1="1.11001e-08" x2="446.917" y2="337" stroke="url(#paint11_linear_0_1)" stroke-opacity="0.9" stroke-width="0.39186"/>
<line opacity="0.3" x1="509.615" y1="1.11001e-08" x2="509.615" y2="337" stroke="url(#paint12_linear_0_1)" stroke-opacity="0.9" stroke-width="0.39186"/>
<line x1="574.271" y1="1.11001e-08" x2="574.271" y2="337" stroke="url(#paint13_linear_0_1)" stroke-opacity="0.9" stroke-width="0.39186"/>
<line x1="636.969" y1="1.11001e-08" x2="636.969" y2="337" stroke="url(#paint14_linear_0_1)" stroke-opacity="0.9" stroke-width="0.39186"/>
<line x1="701.626" y1="1.11001e-08" x2="701.626" y2="337" stroke="url(#paint15_linear_0_1)" stroke-opacity="0.9" stroke-width="0.39186"/>
<path d="M174.01 156.091C174.01 158.442 173.57 160.455 172.689 162.131C171.815 163.8 170.622 165.079 169.109 165.967C167.604 166.854 165.896 167.298 163.985 167.298C162.075 167.298 160.363 166.854 158.85 165.967C157.345 165.072 156.151 163.79 155.271 162.121C154.397 160.445 153.96 158.435 153.96 156.091C153.96 153.74 154.397 151.73 155.271 150.061C156.151 148.385 157.345 147.103 158.85 146.215C160.363 145.327 162.075 144.884 163.985 144.884C165.896 144.884 167.604 145.327 169.109 146.215C170.622 147.103 171.815 148.385 172.689 150.061C173.57 151.73 174.01 153.74 174.01 156.091ZM170.036 156.091C170.036 154.436 169.777 153.04 169.259 151.904C168.747 150.761 168.037 149.898 167.128 149.315C166.219 148.726 165.171 148.431 163.985 148.431C162.799 148.431 161.752 148.726 160.842 149.315C159.933 149.898 159.22 150.761 158.701 151.904C158.19 153.04 157.934 154.436 157.934 156.091C157.934 157.746 158.19 159.145 158.701 160.288C159.22 161.425 159.933 162.288 160.842 162.877C161.752 163.46 162.799 163.751 163.985 163.751C165.171 163.751 166.219 163.46 167.128 162.877C168.037 162.288 168.747 161.425 169.259 160.288C169.777 159.145 170.036 157.746 170.036 156.091ZM181.433 157.412V167H177.576V150.636H181.262V153.417H181.454C181.831 152.501 182.431 151.773 183.255 151.233C184.085 150.693 185.112 150.423 186.333 150.423C187.463 150.423 188.446 150.665 189.284 151.148C190.13 151.631 190.783 152.33 191.245 153.246C191.713 154.163 191.944 155.274 191.937 156.581V167H188.081V157.178C188.081 156.084 187.796 155.228 187.228 154.61C186.667 153.992 185.889 153.683 184.895 153.683C184.22 153.683 183.62 153.832 183.095 154.131C182.576 154.422 182.168 154.844 181.87 155.398C181.578 155.952 181.433 156.624 181.433 157.412ZM203.102 167.32C201.461 167.32 200.044 166.979 198.851 166.297C197.665 165.608 196.752 164.635 196.113 163.378C195.474 162.114 195.154 160.626 195.154 158.914C195.154 157.231 195.474 155.754 196.113 154.482C196.759 153.204 197.661 152.21 198.819 151.499C199.977 150.782 201.337 150.423 202.899 150.423C203.908 150.423 204.86 150.587 205.755 150.913C206.657 151.233 207.452 151.73 208.141 152.405C208.837 153.08 209.384 153.939 209.782 154.983C210.179 156.02 210.378 157.256 210.378 158.69V159.873H196.965V157.273H206.681C206.674 156.535 206.514 155.878 206.202 155.303C205.889 154.72 205.453 154.262 204.892 153.928C204.338 153.594 203.691 153.428 202.953 153.428C202.164 153.428 201.472 153.619 200.875 154.003C200.279 154.379 199.813 154.876 199.48 155.494C199.153 156.105 198.986 156.776 198.979 157.508V159.777C198.979 160.729 199.153 161.545 199.501 162.227C199.849 162.902 200.335 163.42 200.96 163.783C201.585 164.138 202.317 164.315 203.155 164.315C203.716 164.315 204.224 164.237 204.679 164.081C205.133 163.918 205.527 163.68 205.861 163.367C206.195 163.055 206.447 162.668 206.617 162.206L210.218 162.611C209.991 163.562 209.558 164.393 208.919 165.104C208.286 165.807 207.477 166.354 206.49 166.744C205.502 167.128 204.373 167.32 203.102 167.32ZM221.082 173.136V150.636H224.875V153.342H225.098C225.297 152.945 225.578 152.522 225.94 152.075C226.302 151.62 226.792 151.233 227.41 150.913C228.028 150.587 228.816 150.423 229.775 150.423C231.04 150.423 232.179 150.746 233.195 151.393C234.218 152.032 235.027 152.98 235.624 154.237C236.228 155.487 236.53 157.021 236.53 158.839C236.53 160.636 236.235 162.163 235.645 163.42C235.056 164.678 234.253 165.636 233.238 166.297C232.222 166.957 231.071 167.288 229.786 167.288C228.848 167.288 228.071 167.131 227.453 166.819C226.835 166.506 226.338 166.13 225.961 165.69C225.592 165.242 225.304 164.82 225.098 164.422H224.939V173.136H221.082ZM224.864 158.818C224.864 159.876 225.013 160.803 225.312 161.599C225.617 162.394 226.054 163.016 226.622 163.463C227.197 163.903 227.893 164.124 228.71 164.124C229.562 164.124 230.276 163.896 230.851 163.442C231.427 162.98 231.86 162.352 232.151 161.556C232.449 160.754 232.598 159.841 232.598 158.818C232.598 157.803 232.453 156.901 232.162 156.112C231.87 155.324 231.437 154.706 230.862 154.259C230.287 153.811 229.569 153.587 228.71 153.587C227.886 153.587 227.187 153.804 226.611 154.237C226.036 154.67 225.599 155.278 225.301 156.059C225.01 156.84 224.864 157.76 224.864 158.818ZM239.832 167V150.636H243.571V153.364H243.742C244.04 152.419 244.552 151.691 245.276 151.18C246.008 150.661 246.842 150.402 247.78 150.402C247.993 150.402 248.231 150.413 248.493 150.434C248.763 150.448 248.987 150.473 249.165 150.509V154.056C249.001 153.999 248.742 153.95 248.387 153.907C248.039 153.857 247.701 153.832 247.375 153.832C246.672 153.832 246.04 153.985 245.478 154.29C244.924 154.589 244.488 155.004 244.168 155.537C243.848 156.07 243.689 156.684 243.689 157.38V167H239.832ZM258.191 167.32C256.593 167.32 255.208 166.968 254.036 166.265C252.864 165.562 251.955 164.578 251.309 163.314C250.669 162.05 250.35 160.572 250.35 158.882C250.35 157.192 250.669 155.711 251.309 154.44C251.955 153.168 252.864 152.181 254.036 151.478C255.208 150.775 256.593 150.423 258.191 150.423C259.789 150.423 261.174 150.775 262.345 151.478C263.517 152.181 264.423 153.168 265.062 154.44C265.708 155.711 266.032 157.192 266.032 158.882C266.032 160.572 265.708 162.05 265.062 163.314C264.423 164.578 263.517 165.562 262.345 166.265C261.174 166.968 259.789 167.32 258.191 167.32ZM258.212 164.23C259.078 164.23 259.803 163.992 260.385 163.516C260.968 163.033 261.401 162.387 261.685 161.577C261.976 160.768 262.122 159.866 262.122 158.871C262.122 157.87 261.976 156.964 261.685 156.155C261.401 155.338 260.968 154.688 260.385 154.205C259.803 153.722 259.078 153.481 258.212 153.481C257.324 153.481 256.585 153.722 255.996 154.205C255.414 154.688 254.977 155.338 254.686 156.155C254.402 156.964 254.259 157.87 254.259 158.871C254.259 159.866 254.402 160.768 254.686 161.577C254.977 162.387 255.414 163.033 255.996 163.516C256.585 163.992 257.324 164.23 258.212 164.23ZM277.593 150.636V153.619H267.92V150.636H277.593ZM270.338 167V149.092C270.338 147.991 270.565 147.075 271.02 146.343C271.482 145.612 272.1 145.065 272.874 144.702C273.648 144.34 274.507 144.159 275.452 144.159C276.119 144.159 276.712 144.212 277.231 144.319C277.749 144.425 278.133 144.521 278.381 144.607L277.614 147.589C277.451 147.54 277.245 147.49 276.997 147.44C276.748 147.384 276.471 147.355 276.166 147.355C275.448 147.355 274.94 147.529 274.642 147.877C274.351 148.218 274.205 148.708 274.205 149.347V167H270.338ZM280.613 167V150.636H284.47V167H280.613ZM282.552 148.314C281.941 148.314 281.416 148.112 280.976 147.707C280.535 147.295 280.315 146.801 280.315 146.226C280.315 145.643 280.535 145.15 280.976 144.745C281.416 144.333 281.941 144.127 282.552 144.127C283.17 144.127 283.696 144.333 284.129 144.745C284.569 145.15 284.79 145.643 284.79 146.226C284.79 146.801 284.569 147.295 284.129 147.707C283.696 148.112 283.17 148.314 282.552 148.314ZM292.292 145.182V167H288.436V145.182H292.292ZM303.502 167.32C301.862 167.32 300.445 166.979 299.252 166.297C298.065 165.608 297.153 164.635 296.514 163.378C295.874 162.114 295.555 160.626 295.555 158.914C295.555 157.231 295.874 155.754 296.514 154.482C297.16 153.204 298.062 152.21 299.22 151.499C300.377 150.782 301.737 150.423 303.3 150.423C304.308 150.423 305.26 150.587 306.155 150.913C307.057 151.233 307.852 151.73 308.541 152.405C309.237 153.08 309.784 153.939 310.182 154.983C310.58 156.02 310.778 157.256 310.778 158.69V159.873H297.366V157.273H307.082C307.075 156.535 306.915 155.878 306.602 155.303C306.29 154.72 305.853 154.262 305.292 153.928C304.738 153.594 304.092 153.428 303.353 153.428C302.565 153.428 301.872 153.619 301.276 154.003C300.679 154.379 300.214 154.876 299.88 155.494C299.553 156.105 299.386 156.776 299.379 157.508V159.777C299.379 160.729 299.553 161.545 299.901 162.227C300.249 162.902 300.736 163.42 301.361 163.783C301.986 164.138 302.717 164.315 303.555 164.315C304.117 164.315 304.624 164.237 305.079 164.081C305.533 163.918 305.928 163.68 306.261 163.367C306.595 163.055 306.847 162.668 307.018 162.206L310.619 162.611C310.391 163.562 309.958 164.393 309.319 165.104C308.687 165.807 307.877 166.354 306.89 166.744C305.903 167.128 304.774 167.32 303.502 167.32ZM316.417 167.234C315.771 167.234 315.217 167.007 314.755 166.553C314.293 166.098 314.066 165.544 314.073 164.891C314.066 164.251 314.293 163.705 314.755 163.25C315.217 162.795 315.771 162.568 316.417 162.568C317.042 162.568 317.585 162.795 318.047 163.25C318.516 163.705 318.753 164.251 318.761 164.891C318.753 165.324 318.64 165.718 318.42 166.073C318.207 166.428 317.922 166.712 317.567 166.925C317.219 167.131 316.836 167.234 316.417 167.234Z" fill="#0052FF"/>
<path d="M337.223 167.298C335.639 167.298 334.233 167.032 333.004 166.499C331.783 165.967 330.824 165.239 330.128 164.315C329.439 163.385 329.098 162.33 329.105 161.151C329.098 160.235 329.297 159.393 329.702 158.626C330.106 157.859 330.653 157.22 331.342 156.709C332.038 156.19 332.812 155.86 333.665 155.718V155.569C332.543 155.32 331.633 154.749 330.937 153.854C330.248 152.952 329.908 151.911 329.915 150.732C329.908 149.61 330.22 148.609 330.852 147.728C331.484 146.847 332.351 146.155 333.452 145.651C334.552 145.139 335.81 144.884 337.223 144.884C338.622 144.884 339.869 145.139 340.962 145.651C342.063 146.155 342.93 146.847 343.562 147.728C344.201 148.609 344.521 149.61 344.521 150.732C344.521 151.911 344.169 152.952 343.466 153.854C342.77 154.749 341.871 155.32 340.771 155.569V155.718C341.623 155.86 342.39 156.19 343.072 156.709C343.761 157.22 344.307 157.859 344.712 158.626C345.124 159.393 345.33 160.235 345.33 161.151C345.33 162.33 344.982 163.385 344.286 164.315C343.59 165.239 342.631 165.967 341.41 166.499C340.195 167.032 338.8 167.298 337.223 167.298ZM337.223 164.251C338.04 164.251 338.75 164.113 339.354 163.836C339.957 163.552 340.426 163.154 340.76 162.643C341.094 162.131 341.264 161.542 341.271 160.874C341.264 160.178 341.083 159.564 340.728 159.031C340.38 158.491 339.9 158.069 339.29 157.763C338.686 157.458 337.997 157.305 337.223 157.305C336.442 157.305 335.746 157.458 335.135 157.763C334.524 158.069 334.041 158.491 333.686 159.031C333.338 159.564 333.168 160.178 333.175 160.874C333.168 161.542 333.331 162.131 333.665 162.643C333.998 163.147 334.467 163.541 335.071 163.825C335.682 164.109 336.399 164.251 337.223 164.251ZM337.223 154.312C337.891 154.312 338.48 154.177 338.991 153.907C339.51 153.637 339.918 153.261 340.217 152.778C340.515 152.295 340.668 151.737 340.675 151.105C340.668 150.48 340.518 149.933 340.227 149.464C339.936 148.989 339.531 148.623 339.013 148.367C338.494 148.104 337.898 147.973 337.223 147.973C336.534 147.973 335.927 148.104 335.401 148.367C334.883 148.623 334.478 148.989 334.187 149.464C333.903 149.933 333.764 150.48 333.771 151.105C333.764 151.737 333.906 152.295 334.197 152.778C334.496 153.254 334.904 153.63 335.422 153.907C335.948 154.177 336.548 154.312 337.223 154.312ZM356.663 167.298C355.129 167.298 353.765 167.036 352.572 166.51C351.386 165.984 350.448 165.253 349.759 164.315C349.07 163.378 348.705 162.295 348.662 161.066H352.668C352.703 161.656 352.899 162.17 353.254 162.611C353.609 163.044 354.081 163.381 354.671 163.623C355.26 163.864 355.921 163.985 356.652 163.985C357.433 163.985 358.126 163.85 358.729 163.58C359.333 163.303 359.805 162.92 360.146 162.43C360.487 161.94 360.654 161.375 360.647 160.736C360.654 160.075 360.484 159.493 360.136 158.989C359.788 158.484 359.283 158.09 358.623 157.806C357.97 157.522 357.181 157.38 356.258 157.38H354.33V154.333H356.258C357.018 154.333 357.682 154.202 358.25 153.939C358.825 153.676 359.276 153.307 359.603 152.831C359.93 152.348 360.09 151.79 360.082 151.158C360.09 150.54 359.951 150.004 359.667 149.55C359.39 149.088 358.996 148.729 358.484 148.474C357.98 148.218 357.387 148.09 356.705 148.09C356.038 148.09 355.42 148.211 354.852 148.452C354.283 148.694 353.825 149.038 353.477 149.486C353.129 149.926 352.945 150.452 352.923 151.062H349.12C349.149 149.841 349.5 148.768 350.175 147.845C350.857 146.915 351.766 146.19 352.902 145.672C354.038 145.146 355.313 144.884 356.727 144.884C358.183 144.884 359.447 145.157 360.519 145.704C361.599 146.244 362.433 146.972 363.023 147.888C363.612 148.804 363.907 149.816 363.907 150.924C363.914 152.153 363.552 153.183 362.82 154.013C362.096 154.844 361.144 155.388 359.965 155.643V155.814C361.499 156.027 362.675 156.595 363.492 157.518C364.315 158.435 364.724 159.575 364.717 160.938C364.717 162.16 364.369 163.254 363.673 164.219C362.984 165.178 362.032 165.931 360.818 166.478C359.61 167.025 358.225 167.298 356.663 167.298ZM380.039 162.909V161.759C380.039 160.913 380.217 160.136 380.572 159.425C380.934 158.715 381.459 158.143 382.148 157.71C382.837 157.277 383.672 157.06 384.652 157.06C385.66 157.06 386.506 157.277 387.187 157.71C387.869 158.136 388.384 158.705 388.732 159.415C389.087 160.125 389.265 160.906 389.265 161.759V162.909C389.265 163.754 389.087 164.532 388.732 165.242C388.377 165.952 387.855 166.524 387.166 166.957C386.484 167.391 385.646 167.607 384.652 167.607C383.658 167.607 382.816 167.391 382.127 166.957C381.438 166.524 380.916 165.952 380.561 165.242C380.213 164.532 380.039 163.754 380.039 162.909ZM382.82 161.759V162.909C382.82 163.47 382.954 163.985 383.224 164.454C383.494 164.923 383.97 165.157 384.652 165.157C385.341 165.157 385.813 164.926 386.069 164.464C386.332 163.996 386.463 163.477 386.463 162.909V161.759C386.463 161.19 386.339 160.672 386.09 160.203C385.842 159.727 385.362 159.489 384.652 159.489C383.984 159.489 383.512 159.727 383.235 160.203C382.958 160.672 382.82 161.19 382.82 161.759ZM368.949 150.423V149.273C368.949 148.42 369.13 147.639 369.492 146.929C369.854 146.219 370.38 145.651 371.069 145.224C371.758 144.791 372.592 144.575 373.572 144.575C374.574 144.575 375.415 144.791 376.097 145.224C376.786 145.651 377.305 146.219 377.653 146.929C378.001 147.639 378.175 148.42 378.175 149.273V150.423C378.175 151.276 377.997 152.057 377.642 152.767C377.294 153.47 376.775 154.035 376.087 154.461C375.398 154.887 374.56 155.1 373.572 155.1C372.571 155.1 371.726 154.887 371.037 154.461C370.355 154.035 369.837 153.467 369.481 152.756C369.126 152.046 368.949 151.268 368.949 150.423ZM371.751 149.273V150.423C371.751 150.991 371.882 151.51 372.145 151.979C372.415 152.44 372.891 152.671 373.572 152.671C374.254 152.671 374.723 152.44 374.979 151.979C375.241 151.51 375.373 150.991 375.373 150.423V149.273C375.373 148.705 375.248 148.186 375 147.717C374.751 147.241 374.275 147.004 373.572 147.004C372.898 147.004 372.425 147.241 372.155 147.717C371.886 148.193 371.751 148.712 371.751 149.273ZM370.163 167L385.163 145.182H387.827L372.827 167H370.163ZM401.34 167V145.182H405.197V153.342H405.357C405.556 152.945 405.836 152.522 406.198 152.075C406.561 151.62 407.051 151.233 407.669 150.913C408.286 150.587 409.075 150.423 410.034 150.423C411.298 150.423 412.438 150.746 413.453 151.393C414.476 152.032 415.286 152.98 415.882 154.237C416.486 155.487 416.788 157.021 416.788 158.839C416.788 160.636 416.493 162.163 415.904 163.42C415.314 164.678 414.512 165.636 413.496 166.297C412.48 166.957 411.33 167.288 410.044 167.288C409.107 167.288 408.329 167.131 407.711 166.819C407.093 166.506 406.596 166.13 406.22 165.69C405.85 165.242 405.563 164.82 405.357 164.422H405.133V167H401.34ZM405.122 158.818C405.122 159.876 405.272 160.803 405.57 161.599C405.875 162.394 406.312 163.016 406.88 163.463C407.456 163.903 408.152 164.124 408.968 164.124C409.821 164.124 410.534 163.896 411.11 163.442C411.685 162.98 412.118 162.352 412.409 161.556C412.708 160.754 412.857 159.841 412.857 158.818C412.857 157.803 412.711 156.901 412.42 156.112C412.129 155.324 411.696 154.706 411.12 154.259C410.545 153.811 409.828 153.587 408.968 153.587C408.144 153.587 407.445 153.804 406.87 154.237C406.294 154.67 405.858 155.278 405.559 156.059C405.268 156.84 405.122 157.76 405.122 158.818ZM427.311 167.32C425.67 167.32 424.253 166.979 423.06 166.297C421.874 165.608 420.961 164.635 420.322 163.378C419.683 162.114 419.363 160.626 419.363 158.914C419.363 157.231 419.683 155.754 420.322 154.482C420.968 153.204 421.87 152.21 423.028 151.499C424.186 150.782 425.546 150.423 427.108 150.423C428.117 150.423 429.069 150.587 429.964 150.913C430.866 151.233 431.661 151.73 432.35 152.405C433.046 153.08 433.593 153.939 433.991 154.983C434.388 156.02 434.587 157.256 434.587 158.69V159.873H421.174V157.273H430.89C430.883 156.535 430.723 155.878 430.411 155.303C430.098 154.72 429.662 154.262 429.101 153.928C428.547 153.594 427.9 153.428 427.162 153.428C426.373 153.428 425.681 153.619 425.084 154.003C424.488 154.379 424.022 154.876 423.689 155.494C423.362 156.105 423.195 156.776 423.188 157.508V159.777C423.188 160.729 423.362 161.545 423.71 162.227C424.058 162.902 424.544 163.42 425.169 163.783C425.794 164.138 426.526 164.315 427.364 164.315C427.925 164.315 428.433 164.237 428.888 164.081C429.342 163.918 429.736 163.68 430.07 163.367C430.404 163.055 430.656 162.668 430.826 162.206L434.427 162.611C434.2 163.562 433.767 164.393 433.128 165.104C432.495 165.807 431.686 166.354 430.699 166.744C429.711 167.128 428.582 167.32 427.311 167.32ZM446.021 150.636V153.619H436.614V150.636H446.021ZM438.936 146.716H442.793V162.078C442.793 162.597 442.871 162.994 443.027 163.271C443.191 163.541 443.404 163.726 443.666 163.825C443.929 163.925 444.22 163.974 444.54 163.974C444.782 163.974 445.002 163.957 445.201 163.921C445.407 163.886 445.563 163.854 445.669 163.825L446.319 166.84C446.113 166.911 445.818 166.989 445.435 167.075C445.059 167.16 444.597 167.21 444.05 167.224C443.084 167.252 442.214 167.107 441.44 166.787C440.666 166.46 440.051 165.956 439.597 165.274C439.149 164.592 438.929 163.74 438.936 162.717V146.716ZM457.417 150.636V153.619H448.01V150.636H457.417ZM450.333 146.716H454.189V162.078C454.189 162.597 454.267 162.994 454.424 163.271C454.587 163.541 454.8 163.726 455.063 163.825C455.326 163.925 455.617 163.974 455.937 163.974C456.178 163.974 456.398 163.957 456.597 163.921C456.803 163.886 456.959 163.854 457.066 163.825L457.716 166.84C457.51 166.911 457.215 166.989 456.831 167.075C456.455 167.16 455.993 167.21 455.446 167.224C454.481 167.252 453.611 167.107 452.836 166.787C452.062 166.46 451.448 165.956 450.993 165.274C450.546 164.592 450.326 163.74 450.333 162.717V146.716ZM467.711 167.32C466.071 167.32 464.654 166.979 463.46 166.297C462.274 165.608 461.362 164.635 460.723 163.378C460.083 162.114 459.764 160.626 459.764 158.914C459.764 157.231 460.083 155.754 460.723 154.482C461.369 153.204 462.271 152.21 463.429 151.499C464.586 150.782 465.946 150.423 467.509 150.423C468.517 150.423 469.469 150.587 470.364 150.913C471.266 151.233 472.061 151.73 472.75 152.405C473.446 153.08 473.993 153.939 474.391 154.983C474.789 156.02 474.987 157.256 474.987 158.69V159.873H461.575V157.273H471.291C471.284 156.535 471.124 155.878 470.811 155.303C470.499 154.72 470.062 154.262 469.501 153.928C468.947 153.594 468.301 153.428 467.562 153.428C466.774 153.428 466.081 153.619 465.485 154.003C464.888 154.379 464.423 154.876 464.089 155.494C463.762 156.105 463.595 156.776 463.588 157.508V159.777C463.588 160.729 463.762 161.545 464.11 162.227C464.458 162.902 464.945 163.42 465.57 163.783C466.195 164.138 466.926 164.315 467.764 164.315C468.326 164.315 468.833 164.237 469.288 164.081C469.742 163.918 470.137 163.68 470.47 163.367C470.804 163.055 471.056 162.668 471.227 162.206L474.828 162.611C474.6 163.562 474.167 164.393 473.528 165.104C472.896 165.807 472.086 166.354 471.099 166.744C470.112 167.128 468.983 167.32 467.711 167.32ZM478.25 167V150.636H481.989V153.364H482.16C482.458 152.419 482.97 151.691 483.694 151.18C484.426 150.661 485.26 150.402 486.198 150.402C486.411 150.402 486.649 150.413 486.911 150.434C487.181 150.448 487.405 150.473 487.582 150.509V154.056C487.419 153.999 487.16 153.95 486.805 153.907C486.457 153.857 486.119 153.832 485.793 153.832C485.09 153.832 484.457 153.985 483.896 154.29C483.342 154.589 482.906 155.004 482.586 155.537C482.266 156.07 482.107 156.684 482.107 157.38V167H478.25ZM497.586 167V150.636H501.272V153.417H501.464C501.805 152.479 502.369 151.748 503.158 151.222C503.946 150.69 504.887 150.423 505.981 150.423C507.089 150.423 508.023 150.693 508.783 151.233C509.55 151.766 510.09 152.494 510.402 153.417H510.573C510.935 152.508 511.546 151.783 512.405 151.244C513.271 150.697 514.298 150.423 515.484 150.423C516.989 150.423 518.218 150.899 519.17 151.851C520.122 152.803 520.597 154.191 520.597 156.016V167H516.73V156.613C516.73 155.597 516.46 154.855 515.921 154.386C515.381 153.911 514.72 153.673 513.939 153.673C513.009 153.673 512.281 153.964 511.755 154.546C511.237 155.121 510.977 155.871 510.977 156.794V167H507.195V156.453C507.195 155.608 506.94 154.933 506.428 154.429C505.924 153.925 505.264 153.673 504.447 153.673C503.893 153.673 503.389 153.815 502.934 154.099C502.479 154.376 502.117 154.77 501.847 155.281C501.578 155.786 501.443 156.375 501.443 157.05V167H497.586ZM529.219 167.33C528.182 167.33 527.248 167.146 526.417 166.776C525.593 166.4 524.94 165.846 524.457 165.114C523.981 164.383 523.743 163.481 523.743 162.408C523.743 161.485 523.913 160.722 524.254 160.118C524.595 159.514 525.06 159.031 525.65 158.669C526.239 158.307 526.903 158.033 527.642 157.849C528.388 157.657 529.158 157.518 529.954 157.433C530.913 157.334 531.69 157.245 532.287 157.167C532.883 157.082 533.317 156.954 533.587 156.783C533.864 156.606 534.002 156.332 534.002 155.963V155.899C534.002 155.097 533.764 154.475 533.288 154.035C532.812 153.594 532.127 153.374 531.232 153.374C530.288 153.374 529.538 153.58 528.984 153.992C528.437 154.404 528.068 154.891 527.876 155.452L524.275 154.94C524.56 153.946 525.028 153.115 525.682 152.447C526.335 151.773 527.134 151.268 528.079 150.935C529.023 150.594 530.067 150.423 531.211 150.423C531.999 150.423 532.784 150.516 533.565 150.7C534.347 150.885 535.06 151.19 535.707 151.616C536.353 152.036 536.871 152.607 537.262 153.332C537.66 154.056 537.859 154.962 537.859 156.048V167H534.151V164.752H534.023C533.789 165.207 533.459 165.633 533.033 166.031C532.614 166.421 532.084 166.737 531.445 166.979C530.813 167.213 530.071 167.33 529.219 167.33ZM530.22 164.496C530.994 164.496 531.665 164.344 532.234 164.038C532.802 163.726 533.239 163.314 533.544 162.803C533.856 162.291 534.013 161.734 534.013 161.13V159.202C533.892 159.301 533.686 159.393 533.395 159.479C533.111 159.564 532.791 159.638 532.436 159.702C532.081 159.766 531.729 159.823 531.381 159.873C531.033 159.923 530.731 159.965 530.476 160.001C529.9 160.079 529.386 160.207 528.931 160.384C528.476 160.562 528.118 160.81 527.855 161.13C527.592 161.442 527.461 161.847 527.461 162.344C527.461 163.055 527.72 163.591 528.239 163.953C528.757 164.315 529.418 164.496 530.22 164.496ZM549.908 150.636V153.619H540.501V150.636H549.908ZM542.823 146.716H546.68V162.078C546.68 162.597 546.758 162.994 546.914 163.271C547.077 163.541 547.29 163.726 547.553 163.825C547.816 163.925 548.107 163.974 548.427 163.974C548.668 163.974 548.888 163.957 549.087 163.921C549.293 163.886 549.449 163.854 549.556 163.825L550.206 166.84C550 166.911 549.705 166.989 549.322 167.075C548.945 167.16 548.484 167.21 547.937 167.224C546.971 167.252 546.101 167.107 545.327 166.787C544.552 166.46 543.938 165.956 543.484 165.274C543.036 164.592 542.816 163.74 542.823 162.717V146.716ZM560.095 167.32C558.461 167.32 557.059 166.961 555.887 166.244C554.722 165.526 553.824 164.536 553.191 163.271C552.566 162 552.254 160.537 552.254 158.882C552.254 157.22 552.574 155.754 553.213 154.482C553.852 153.204 554.754 152.21 555.919 151.499C557.091 150.782 558.476 150.423 560.074 150.423C561.402 150.423 562.577 150.668 563.6 151.158C564.63 151.641 565.45 152.327 566.061 153.214C566.672 154.095 567.02 155.125 567.105 156.304H563.419C563.27 155.516 562.915 154.859 562.353 154.333C561.799 153.8 561.057 153.534 560.127 153.534C559.339 153.534 558.646 153.747 558.049 154.173C557.453 154.592 556.988 155.196 556.654 155.984C556.327 156.773 556.164 157.717 556.164 158.818C556.164 159.933 556.327 160.892 556.654 161.695C556.981 162.49 557.439 163.104 558.028 163.538C558.625 163.964 559.324 164.177 560.127 164.177C560.695 164.177 561.203 164.07 561.65 163.857C562.105 163.637 562.485 163.321 562.79 162.909C563.096 162.497 563.305 161.996 563.419 161.407H567.105C567.013 162.565 566.672 163.591 566.082 164.486C565.493 165.374 564.69 166.07 563.674 166.574C562.659 167.071 561.466 167.32 560.095 167.32ZM574.128 157.412V167H570.272V145.182H574.043V153.417H574.235C574.618 152.494 575.211 151.766 576.014 151.233C576.823 150.693 577.853 150.423 579.103 150.423C580.24 150.423 581.23 150.661 582.076 151.137C582.921 151.613 583.574 152.309 584.036 153.225C584.505 154.141 584.739 155.26 584.739 156.581V167H580.882V157.178C580.882 156.077 580.598 155.221 580.03 154.61C579.469 153.992 578.681 153.683 577.665 153.683C576.983 153.683 576.372 153.832 575.833 154.131C575.3 154.422 574.881 154.844 574.576 155.398C574.277 155.952 574.128 156.624 574.128 157.412ZM595.914 167.32C594.274 167.32 592.857 166.979 591.664 166.297C590.478 165.608 589.565 164.635 588.926 163.378C588.286 162.114 587.967 160.626 587.967 158.914C587.967 157.231 588.286 155.754 588.926 154.482C589.572 153.204 590.474 152.21 591.632 151.499C592.789 150.782 594.149 150.423 595.712 150.423C596.72 150.423 597.672 150.587 598.567 150.913C599.469 151.233 600.264 151.73 600.953 152.405C601.649 153.08 602.196 153.939 602.594 154.983C602.992 156.02 603.191 157.256 603.191 158.69V159.873H589.778V157.273H599.494C599.487 156.535 599.327 155.878 599.014 155.303C598.702 154.72 598.265 154.262 597.704 153.928C597.15 153.594 596.504 153.428 595.765 153.428C594.977 153.428 594.284 153.619 593.688 154.003C593.091 154.379 592.626 154.876 592.292 155.494C591.965 156.105 591.799 156.776 591.791 157.508V159.777C591.791 160.729 591.965 161.545 592.313 162.227C592.661 162.902 593.148 163.42 593.773 163.783C594.398 164.138 595.13 164.315 595.968 164.315C596.529 164.315 597.036 164.237 597.491 164.081C597.946 163.918 598.34 163.68 598.674 163.367C599.007 163.055 599.259 162.668 599.43 162.206L603.031 162.611C602.804 163.562 602.37 164.393 601.731 165.104C601.099 165.807 600.289 166.354 599.302 166.744C598.315 167.128 597.186 167.32 595.914 167.32ZM619.386 154.962L615.871 155.345C615.771 154.99 615.597 154.656 615.349 154.344C615.107 154.031 614.781 153.779 614.369 153.587C613.957 153.396 613.453 153.3 612.856 153.3C612.053 153.3 611.379 153.474 610.832 153.822C610.292 154.17 610.026 154.621 610.033 155.175C610.026 155.651 610.2 156.038 610.555 156.336C610.917 156.634 611.514 156.879 612.345 157.071L615.136 157.668C616.684 158.001 617.835 158.531 618.587 159.255C619.347 159.979 619.731 160.928 619.738 162.099C619.731 163.129 619.429 164.038 618.832 164.827C618.243 165.608 617.423 166.219 616.372 166.659C615.32 167.099 614.113 167.32 612.749 167.32C610.747 167.32 609.134 166.901 607.913 166.062C606.691 165.217 605.963 164.042 605.729 162.536L609.489 162.174C609.66 162.913 610.022 163.47 610.576 163.847C611.13 164.223 611.851 164.411 612.739 164.411C613.655 164.411 614.39 164.223 614.944 163.847C615.505 163.47 615.786 163.005 615.786 162.451C615.786 161.982 615.604 161.595 615.242 161.29C614.887 160.984 614.333 160.75 613.58 160.587L610.789 160.001C609.22 159.674 608.058 159.124 607.305 158.349C606.553 157.568 606.18 156.581 606.187 155.388C606.18 154.379 606.453 153.506 607.007 152.767C607.568 152.021 608.346 151.446 609.34 151.041C610.342 150.629 611.496 150.423 612.803 150.423C614.72 150.423 616.229 150.832 617.33 151.648C618.438 152.465 619.124 153.57 619.386 154.962ZM625.294 167.234C624.647 167.234 624.093 167.007 623.632 166.553C623.17 166.098 622.943 165.544 622.95 164.891C622.943 164.251 623.17 163.705 623.632 163.25C624.093 162.795 624.647 162.568 625.294 162.568C625.919 162.568 626.462 162.795 626.924 163.25C627.392 163.705 627.63 164.251 627.638 164.891C627.63 165.324 627.517 165.718 627.297 166.073C627.084 166.428 626.799 166.712 626.444 166.925C626.096 167.131 625.713 167.234 625.294 167.234Z" fill="black"/>
<path d="M323.22 135.391H141.585V180.609H323.22V135.391Z" stroke="#0052FF" stroke-opacity="0.37" stroke-width="1.69565"/>
<path d="M323.932 133.019C324.629 134.904 326.115 136.39 328 137.087C326.115 137.784 324.629 139.27 323.932 141.155C323.235 139.27 321.749 137.784 319.864 137.087C321.749 136.39 323.235 134.904 323.932 133.019Z" fill="#0052FF"/>
<path d="M323.932 134.419C324.578 135.522 325.497 136.439 326.599 137.086C325.497 137.733 324.578 138.651 323.932 139.753C323.285 138.651 322.367 137.733 321.265 137.086C322.367 136.439 323.285 135.522 323.932 134.419Z" stroke="#A4DFFD" stroke-opacity="0.28" stroke-width="1.20939"/>
<path d="M323.22 177.026C323.818 178.642 325.091 179.915 326.707 180.513C325.091 181.111 323.818 182.385 323.22 184C322.622 182.385 321.349 181.111 319.733 180.513C321.349 179.915 322.622 178.642 323.22 177.026Z" fill="#0052FF"/>
<path d="M323.22 178.395C323.751 179.256 324.477 179.981 325.338 180.513C324.477 181.044 323.751 181.77 323.22 182.631C322.688 181.77 321.963 181.044 321.102 180.513C321.963 179.981 322.688 179.256 323.22 178.395Z" stroke="#A4DFFD" stroke-opacity="0.28" stroke-width="1.20939"/>
<path d="M141.487 132C142.085 133.615 143.358 134.889 144.974 135.487C143.358 136.085 142.085 137.358 141.487 138.974C140.889 137.358 139.615 136.085 138 135.487C139.615 134.889 140.889 133.615 141.487 132Z" fill="#0052FF"/>
<path d="M141.486 133.368C142.018 134.229 142.743 134.955 143.604 135.486C142.743 136.018 142.018 136.743 141.486 137.604C140.955 136.743 140.229 136.018 139.368 135.486C140.23 134.955 140.955 134.23 141.486 133.368Z" stroke="#A4DFFD" stroke-opacity="0.28" stroke-width="1.20939"/>
<path d="M142.365 174.845C143.063 176.73 144.548 178.216 146.433 178.913C144.548 179.61 143.063 181.096 142.365 182.981C141.668 181.096 140.182 179.61 138.297 178.913C140.182 178.216 141.668 176.73 142.365 174.845Z" fill="#0052FF"/>
<path d="M142.365 176.246C143.011 177.348 143.93 178.266 145.032 178.913C143.93 179.559 143.012 180.478 142.365 181.58C141.718 180.478 140.8 179.559 139.698 178.913C140.8 178.266 141.718 177.348 142.365 176.246Z" stroke="#A4DFFD" stroke-opacity="0.28" stroke-width="1.20939"/>
<defs>
<linearGradient id="paint0_linear_0_1" x1="62.1978" y1="-2.83266e-08" x2="62.1977" y2="337" gradientUnits="userSpaceOnUse">
<stop stop-opacity="0"/>
<stop offset="0.498481" stop-opacity="0.8"/>
<stop offset="1" stop-opacity="0"/>
</linearGradient>
<linearGradient id="paint1_linear_0_1" x1="126.854" y1="-2.83266e-08" x2="126.854" y2="337" gradientUnits="userSpaceOnUse">
<stop stop-opacity="0"/>
<stop offset="0.498481" stop-opacity="0.8"/>
<stop offset="1" stop-opacity="0"/>
</linearGradient>
<linearGradient id="paint2_linear_0_1" x1="0" y1="247.372" x2="581.913" y2="247.372" gradientUnits="userSpaceOnUse">
<stop stop-opacity="0"/>
<stop offset="0.498481" stop-opacity="0.8"/>
<stop offset="1" stop-opacity="0"/>
</linearGradient>
<linearGradient id="paint3_linear_0_1" x1="503.541" y1="247.372" x2="764.128" y2="247.372" gradientUnits="userSpaceOnUse">
<stop stop-opacity="0"/>
<stop offset="0.498481" stop-opacity="0.8"/>
<stop offset="1" stop-opacity="0"/>
</linearGradient>
<linearGradient id="paint4_linear_0_1" x1="0" y1="165.082" x2="260.587" y2="165.082" gradientUnits="userSpaceOnUse">
<stop stop-opacity="0"/>
<stop offset="0.498481" stop-opacity="0.8"/>
<stop offset="1" stop-opacity="0"/>
</linearGradient>
<linearGradient id="paint5_linear_0_1" x1="503.541" y1="165.082" x2="764.128" y2="165.082" gradientUnits="userSpaceOnUse">
<stop stop-opacity="0"/>
<stop offset="0.498481" stop-opacity="0.8"/>
<stop offset="1" stop-opacity="0"/>
</linearGradient>
<linearGradient id="paint6_linear_0_1" x1="189.552" y1="-2.83266e-08" x2="189.552" y2="337" gradientUnits="userSpaceOnUse">
<stop stop-opacity="0"/>
<stop offset="0.498481" stop-opacity="0.8"/>
<stop offset="1" stop-opacity="0"/>
</linearGradient>
<linearGradient id="paint7_linear_0_1" x1="248.332" y1="-2.83266e-08" x2="248.332" y2="337" gradientUnits="userSpaceOnUse">
<stop stop-opacity="0"/>
<stop offset="0.498481" stop-opacity="0.8"/>
<stop offset="1" stop-opacity="0"/>
</linearGradient>
<linearGradient id="paint8_linear_0_1" x1="254.209" y1="-2.83266e-08" x2="254.209" y2="337" gradientUnits="userSpaceOnUse">
<stop stop-opacity="0"/>
<stop offset="0.498481" stop-opacity="0.8"/>
<stop offset="1" stop-opacity="0"/>
</linearGradient>
<linearGradient id="paint9_linear_0_1" x1="318.866" y1="-2.83266e-08" x2="318.866" y2="337" gradientUnits="userSpaceOnUse">
<stop stop-opacity="0"/>
<stop offset="0.498481" stop-opacity="0.8"/>
<stop offset="1" stop-opacity="0"/>
</linearGradient>
<linearGradient id="paint10_linear_0_1" x1="381.564" y1="-2.83266e-08" x2="381.564" y2="337" gradientUnits="userSpaceOnUse">
<stop stop-opacity="0"/>
<stop offset="0.498481" stop-opacity="0.8"/>
<stop offset="1" stop-opacity="0"/>
</linearGradient>
<linearGradient id="paint11_linear_0_1" x1="446.221" y1="-2.83266e-08" x2="446.221" y2="337" gradientUnits="userSpaceOnUse">
<stop stop-opacity="0"/>
<stop offset="0.498481" stop-opacity="0.8"/>
<stop offset="1" stop-opacity="0"/>
</linearGradient>
<linearGradient id="paint12_linear_0_1" x1="508.919" y1="-2.83266e-08" x2="508.919" y2="337" gradientUnits="userSpaceOnUse">
<stop stop-opacity="0"/>
<stop offset="0.498481" stop-opacity="0.8"/>
<stop offset="1" stop-opacity="0"/>
</linearGradient>
<linearGradient id="paint13_linear_0_1" x1="573.575" y1="-2.83266e-08" x2="573.575" y2="337" gradientUnits="userSpaceOnUse">
<stop stop-opacity="0"/>
<stop offset="0.498481" stop-opacity="0.8"/>
<stop offset="1" stop-opacity="0"/>
</linearGradient>
<linearGradient id="paint14_linear_0_1" x1="636.273" y1="-2.83266e-08" x2="636.273" y2="337" gradientUnits="userSpaceOnUse">
<stop stop-opacity="0"/>
<stop offset="0.498481" stop-opacity="0.8"/>
<stop offset="1" stop-opacity="0"/>
</linearGradient>
<linearGradient id="paint15_linear_0_1" x1="700.93" y1="-2.83266e-08" x2="700.93" y2="337" gradientUnits="userSpaceOnUse">
<stop stop-opacity="0"/>
<stop offset="0.498481" stop-opacity="0.8"/>
<stop offset="1" stop-opacity="0"/>
</linearGradient>
</defs>
</svg>
