<svg width="172" height="192" viewBox="0 0 172 192" fill="none" xmlns="http://www.w3.org/2000/svg">
<g filter="url(#filter0_i_889_7045)">
<g clip-path="url(#clip0_889_7045)">
<path d="M172.001 0H0.96875L0.000810266 192H171.033L172.001 0Z" fill="white"/>
<path d="M0.291592 133.119L3.8783 130.335C7.48384 127.583 14.6573 122.015 21.8023 118.303C28.9475 114.559 36.0645 112.639 43.1849 113.823C50.3054 114.975 57.4291 119.263 64.5498 120.383C71.6705 121.503 78.7882 119.455 85.9131 119.743C93.0381 119.999 100.171 122.559 107.283 125.215C114.396 127.903 121.49 130.655 128.608 132.159C135.727 133.663 142.872 133.855 150.012 131.103C157.152 128.319 164.289 122.559 167.838 119.679L171.406 116.799L171.025 192.319H167.472C163.937 192.319 156.83 192.319 149.703 192.319C142.577 192.319 135.432 192.319 128.305 192.319C121.179 192.319 114.072 192.319 106.945 192.319C99.8188 192.319 92.6735 192.319 85.5472 192.319C78.4208 192.319 71.3135 192.319 64.1872 192.319C57.0608 192.319 49.9155 192.319 42.7892 192.319C35.6628 192.319 28.5555 192.319 21.4292 192.319C14.3028 192.319 7.15749 192.319 3.56581 192.319H-0.00685626L0.291592 133.119Z" fill="#FFE1E5"/>
<path d="M0.34375 124.481L3.90722 126.305C7.48986 128.097 14.6168 131.745 21.7357 133.217C28.8545 134.721 35.965 134.081 43.0877 134.817C50.2101 135.585 57.3448 137.697 64.4592 140.065C71.5738 142.401 78.6682 144.961 85.7949 144.897C92.9214 144.865 100.08 142.177 107.221 139.265C114.362 136.321 121.486 133.121 128.61 133.537C135.734 133.985 142.859 138.017 149.979 139.361C157.098 140.705 164.213 139.297 167.751 138.625L171.308 137.921L171.034 192.321H167.48C163.945 192.321 156.838 192.321 149.712 192.321C142.585 192.321 135.44 192.321 128.314 192.321C121.187 192.321 114.08 192.321 106.954 192.321C99.8274 192.321 92.6821 192.321 85.5558 192.321C78.4294 192.321 71.3221 192.321 64.1958 192.321C57.0694 192.321 49.9241 192.321 42.7978 192.321C35.6714 192.321 28.5641 192.321 21.4378 192.321C14.3114 192.321 7.16609 192.321 3.57441 192.321H0.00174465L0.34375 124.481Z" fill="#FFC6CD"/>
<path d="M0.204282 151.04L3.78308 149.824C7.38105 148.576 14.5386 146.144 21.6658 145.984C28.7929 145.824 35.8896 147.936 43.014 148.32C50.1384 148.704 57.2908 147.296 64.427 145.344C71.5634 143.36 78.6836 140.8 85.8011 142.56C92.9185 144.32 100.033 150.4 107.151 152.064C114.269 153.696 121.39 150.944 128.52 150.336C135.649 149.76 142.786 151.36 149.915 150.944C157.043 150.496 164.163 148.064 167.704 146.816L171.264 145.6L171.028 192.32H167.475C163.94 192.32 156.833 192.32 149.706 192.32C142.58 192.32 135.435 192.32 128.308 192.32C121.182 192.32 114.075 192.32 106.948 192.32C99.8219 192.32 92.6765 192.32 85.5502 192.32C78.4239 192.32 71.3165 192.32 64.1902 192.32C57.0639 192.32 49.9185 192.32 42.7922 192.32C35.6659 192.32 28.5585 192.32 21.4322 192.32C14.3059 192.32 7.16052 192.32 3.56884 192.32H-0.00382518L0.204282 151.04Z" fill="#FFABB5"/>
<path d="M0.171875 158.081L3.73438 160.097C7.31573 162.145 14.4407 166.177 21.5647 166.657C28.6886 167.137 35.8114 164.065 42.9453 162.561C50.0792 161.057 57.2239 161.185 64.3477 161.697C71.4713 162.241 78.5738 163.201 85.7025 162.721C92.8313 162.241 99.9863 160.321 107.106 161.697C114.225 163.105 121.309 167.777 128.435 167.777C135.561 167.777 142.73 163.105 149.865 161.377C157 159.681 164.101 160.961 167.632 161.601L171.183 162.241L171.031 192.321H167.478C163.943 192.321 156.836 192.321 149.709 192.321C142.583 192.321 135.438 192.321 128.311 192.321C121.185 192.321 114.078 192.321 106.951 192.321C99.825 192.321 92.6796 192.321 85.5533 192.321C78.427 192.321 71.3196 192.321 64.1933 192.321C57.0669 192.321 49.9216 192.321 42.7953 192.321C35.6689 192.321 28.5616 192.321 21.4353 192.321C14.3089 192.321 7.1636 192.321 3.57193 192.321H-0.000740887L0.171875 158.081Z" fill="#FF8F9C"/>
<path d="M0.0463482 182.08L3.62305 181.28C7.21876 180.48 14.3722 178.88 21.5062 177.344C28.6405 175.776 35.7552 174.304 42.8832 173.984C50.0111 173.664 57.1523 174.496 64.2734 175.52C71.3946 176.544 78.4961 177.696 85.6144 179.296C92.7327 180.896 99.8677 182.944 107.004 181.056C114.139 179.2 121.276 173.44 128.41 171.744C135.546 170.016 142.679 172.384 149.801 173.216C156.923 174.08 164.034 173.44 167.57 173.12L171.125 172.8L171.027 192.32H167.473C163.938 192.32 156.831 192.32 149.705 192.32C142.578 192.32 135.433 192.32 128.307 192.32C121.18 192.32 114.073 192.32 106.947 192.32C99.8204 192.32 92.6751 192.32 85.5488 192.32C78.4224 192.32 71.3151 192.32 64.1887 192.32C57.0624 192.32 49.9171 192.32 42.7907 192.32C35.6644 192.32 28.5571 192.32 21.4307 192.32C14.3044 192.32 7.15907 192.32 3.56739 192.32H-0.00527528L0.0463482 182.08Z" fill="#FF7083"/>
<path d="M45.3109 30.5108L45.2549 41.6306H43.4309L43.4554 36.7667H38.2234L38.1989 41.6306H36.3749L36.4309 30.5108H38.2549L38.2309 35.2787H43.4629L43.4869 30.5108H45.3109ZM48.6345 31.6468C48.3038 31.6468 48.027 31.5348 47.8042 31.3108C47.5813 31.0868 47.4707 30.8094 47.4724 30.4788C47.474 30.1481 47.5874 29.8708 47.8125 29.6468C48.0377 29.4228 48.3156 29.3108 48.6462 29.3108C48.9662 29.3108 49.2377 29.4228 49.4605 29.6468C49.6834 29.8708 49.794 30.1481 49.7924 30.4788C49.7907 30.8094 49.6773 31.0868 49.4522 31.3108C49.227 31.5348 48.9545 31.6468 48.6345 31.6468ZM49.5246 32.8147L49.4801 41.6306H47.6561L47.7006 32.8147H49.5246ZM55.4721 32.6707C56.1547 32.6707 56.7567 32.8094 57.278 33.0867C57.8099 33.3534 58.2242 33.6894 58.5209 34.0947L58.5273 32.8147H60.3673L60.3222 41.7746C60.3181 42.5853 60.1438 43.3053 59.7993 43.9346C59.4547 44.5746 58.9562 45.0759 58.3037 45.4386C57.6619 45.8012 56.8929 45.9826 55.9969 45.9826C54.8023 45.9826 53.8117 45.6999 53.0252 45.1346C52.2387 44.5799 51.7945 43.8226 51.6927 42.8626H53.5007C53.637 43.3213 53.9285 43.6893 54.3751 43.9666C54.8323 44.2546 55.3756 44.3986 56.0049 44.3986C56.7409 44.3986 57.3341 44.1746 57.7843 43.7266C58.2452 43.2786 58.4779 42.628 58.4822 41.7746L58.4896 40.3026C58.1781 40.7186 57.755 41.0706 57.2203 41.3586C56.6962 41.636 56.0982 41.7746 55.4262 41.7746C54.6582 41.7746 53.9551 41.5826 53.3171 41.1986C52.6897 40.804 52.1911 40.26 51.8213 39.5667C51.4622 38.8627 51.2848 38.068 51.2893 37.1827C51.2938 36.2974 51.4791 35.5134 51.8452 34.8307C52.2219 34.1481 52.7259 33.6201 53.3571 33.2467C53.9991 32.8627 54.7041 32.6707 55.4721 32.6707ZM58.5051 37.2147C58.5082 36.6067 58.3829 36.0787 58.1291 35.6307C57.8861 35.1827 57.5624 34.8414 57.1583 34.6067C56.7541 34.3721 56.3174 34.2547 55.8481 34.2547C55.3787 34.2547 54.9408 34.3721 54.5343 34.6067C54.1278 34.8307 53.7955 35.1667 53.5372 35.6147C53.2897 36.052 53.1644 36.5747 53.1613 37.1827C53.1582 37.7907 53.2782 38.324 53.5212 38.7827C53.7749 39.2413 54.1038 39.5933 54.5079 39.8387C54.9227 40.0733 55.3595 40.1906 55.8181 40.1906C56.2875 40.1906 56.7254 40.0733 57.1319 39.8387C57.5384 39.604 57.8655 39.2627 58.1131 38.8147C58.3714 38.356 58.5021 37.8227 58.5051 37.2147ZM67.3238 32.6707C67.9958 32.6707 68.5924 32.8147 69.1136 33.1027C69.6455 33.3907 70.0594 33.8174 70.3552 34.3827C70.6617 34.948 70.8129 35.6307 70.8088 36.4307L70.7826 41.6306H68.9746L68.9995 36.7027C69.0035 35.9134 68.8092 35.3107 68.4166 34.8947C68.0241 34.4681 67.4865 34.2547 66.8038 34.2547C66.1211 34.2547 65.5761 34.4681 65.1686 34.8947C64.7718 35.3107 64.5715 35.9134 64.5675 36.7027L64.5426 41.6306H62.7186L62.7783 29.7908H64.6023L64.5819 33.8387C64.8931 33.4654 65.2839 33.1774 65.7543 32.9747C66.2353 32.7721 66.7585 32.6707 67.3238 32.6707ZM79.9103 35.0707L79.9026 36.6067H73.3266L73.3343 35.0707H79.9103ZM84.3487 30.5108L84.2926 41.6306H82.4686L82.5247 30.5108H84.3487ZM97.4046 32.6707C98.0979 32.6707 98.7158 32.8147 99.2584 33.1027C99.8116 33.3907 100.241 33.8174 100.548 34.3827C100.865 34.948 101.022 35.6307 101.018 36.4307L100.991 41.6306H99.1834L99.2082 36.7027C99.2122 35.9134 99.0179 35.3107 98.6253 34.8947C98.2328 34.4681 97.6952 34.2547 97.0126 34.2547C96.3299 34.2547 95.7848 34.4681 95.3773 34.8947C94.9806 35.3107 94.7802 35.9134 94.7762 36.7027L94.7514 41.6306H92.9434L92.9682 36.7027C92.9722 35.9134 92.7779 35.3107 92.3853 34.8947C91.9928 34.4681 91.4552 34.2547 90.7726 34.2547C90.0899 34.2547 89.5448 34.4681 89.1373 34.8947C88.7406 35.3107 88.5402 35.9134 88.5362 36.7027L88.5114 41.6306H86.6874L86.7318 32.8147H88.5558L88.5507 33.8227C88.8512 33.4601 89.2313 33.1774 89.691 32.9747C90.1507 32.7721 90.6419 32.6707 91.1646 32.6707C91.8686 32.6707 92.4971 32.8201 93.0503 33.1187C93.6035 33.4174 94.0279 33.8494 94.3238 34.4147C94.5931 33.8814 95.0112 33.4601 95.5781 33.1507C96.1451 32.8307 96.7539 32.6707 97.4046 32.6707ZM105.174 34.1107C105.486 33.7054 105.909 33.3641 106.443 33.0867C106.978 32.8094 107.582 32.6707 108.254 32.6707C109.022 32.6707 109.719 32.8627 110.347 33.2467C110.985 33.6201 111.483 34.1481 111.843 34.8307C112.202 35.5134 112.379 36.2974 112.375 37.1827C112.37 38.068 112.185 38.8627 111.819 39.5667C111.453 40.26 110.949 40.804 110.307 41.1986C109.675 41.5826 108.976 41.7746 108.208 41.7746C107.536 41.7746 106.939 41.6413 106.418 41.3746C105.896 41.0973 105.471 40.756 105.143 40.3506L105.115 45.8226H103.291L103.357 32.8147H105.181L105.174 34.1107ZM110.519 37.1827C110.522 36.5747 110.397 36.052 110.143 35.6147C109.9 35.1667 109.571 34.8307 109.156 34.6067C108.752 34.3721 108.315 34.2547 107.846 34.2547C107.387 34.2547 106.949 34.3721 106.532 34.6067C106.125 34.8414 105.793 35.1827 105.535 35.6307C105.287 36.0787 105.162 36.6067 105.159 37.2147C105.156 37.8227 105.276 38.356 105.519 38.8147C105.772 39.2627 106.101 39.604 106.505 39.8387C106.92 40.0733 107.357 40.1906 107.816 40.1906C108.285 40.1906 108.723 40.0733 109.129 39.8387C109.547 39.5933 109.879 39.2413 110.127 38.7827C110.385 38.324 110.516 37.7907 110.519 37.1827ZM113.571 37.1827C113.575 36.2974 113.76 35.5134 114.126 34.8307C114.503 34.1481 115.007 33.6201 115.638 33.2467C116.28 32.8627 116.985 32.6707 117.753 32.6707C118.447 32.6707 119.049 32.8094 119.559 33.0867C120.081 33.3534 120.495 33.6894 120.802 34.0947L120.809 32.8147H122.649L122.604 41.6306H120.764L120.771 40.3186C120.459 40.7346 120.036 41.0813 119.502 41.3586C118.967 41.636 118.358 41.7746 117.675 41.7746C116.918 41.7746 116.226 41.5826 115.598 41.1986C114.971 40.804 114.472 40.26 114.103 39.5667C113.743 38.8627 113.566 38.068 113.571 37.1827ZM120.786 37.2147C120.789 36.6067 120.664 36.0787 120.41 35.6307C120.167 35.1827 119.844 34.8414 119.44 34.6067C119.035 34.3721 118.599 34.2547 118.129 34.2547C117.66 34.2547 117.222 34.3721 116.816 34.6067C116.409 34.8307 116.077 35.1667 115.818 35.6147C115.571 36.052 115.446 36.5747 115.443 37.1827C115.439 37.7907 115.559 38.324 115.802 38.7827C116.056 39.2413 116.385 39.5933 116.789 39.8387C117.204 40.0733 117.641 40.1906 118.099 40.1906C118.569 40.1906 119.007 40.0733 119.413 39.8387C119.82 39.604 120.147 39.2627 120.394 38.8147C120.653 38.356 120.783 37.8227 120.786 37.2147ZM124.414 37.2147C124.419 36.308 124.604 35.5134 124.97 34.8307C125.347 34.1374 125.862 33.6041 126.514 33.2307C127.167 32.8574 127.914 32.6707 128.757 32.6707C129.824 32.6707 130.702 32.9267 131.393 33.4387C132.095 33.9401 132.566 34.6601 132.806 35.5987H130.838C130.68 35.1614 130.426 34.8201 130.075 34.5747C129.725 34.3294 129.283 34.2067 128.749 34.2067C128.003 34.2067 127.404 34.4734 126.953 35.0067C126.513 35.5294 126.291 36.2654 126.286 37.2147C126.281 38.164 126.496 38.9053 126.931 39.4387C127.376 39.972 127.972 40.2386 128.719 40.2386C129.775 40.2386 130.476 39.7747 130.822 38.8467H132.79C132.529 39.7427 132.046 40.4573 131.339 40.9906C130.632 41.5133 129.756 41.7746 128.711 41.7746C127.868 41.7746 127.123 41.588 126.474 41.2146C125.825 40.8306 125.316 40.2973 124.946 39.6147C124.587 38.9213 124.41 38.1213 124.414 37.2147ZM136.759 34.3027L136.734 39.1827C136.732 39.5133 136.806 39.7533 136.954 39.9027C137.114 40.0413 137.38 40.1107 137.753 40.1107H138.873L138.866 41.6306H137.426C136.604 41.6306 135.976 41.4386 135.541 41.0546C135.105 40.6706 134.89 40.0467 134.894 39.1827L134.919 34.3027H133.879L133.886 32.8147H134.926L134.937 30.6228H136.777L136.766 32.8147H138.91L138.903 34.3027H136.759ZM37.0753 65.7423C36.0407 65.7423 35.0872 65.5023 34.215 65.0223C33.3534 64.5317 32.6688 63.8543 32.1612 62.9904C31.6643 62.1157 31.4186 61.1344 31.424 60.0464C31.4295 58.9584 31.6851 57.9824 32.1908 57.1184C32.7072 56.2544 33.3985 55.5825 34.265 55.1025C35.1421 54.6118 36.098 54.3665 37.1327 54.3665C38.178 54.3665 39.1314 54.6118 39.993 55.1025C40.8652 55.5825 41.5498 56.2544 42.0468 57.1184C42.5438 57.9824 42.7895 58.9584 42.784 60.0464C42.7786 61.1344 42.5229 62.1157 42.0172 62.9904C41.5115 63.8543 40.8201 64.5317 39.943 65.0223C39.0765 65.5023 38.1207 65.7423 37.0753 65.7423ZM37.0833 64.1583C37.8193 64.1583 38.4761 63.993 39.0538 63.6624C39.6315 63.321 40.082 62.841 40.4051 62.2224C40.7389 61.593 40.9079 60.8677 40.912 60.0464C40.9162 59.2251 40.7545 58.5051 40.4269 57.8864C40.11 57.2678 39.6644 56.7931 39.0901 56.4624C38.5158 56.1318 37.8606 55.9664 37.1246 55.9664C36.3886 55.9664 35.7318 56.1318 35.1541 56.4624C34.5764 56.7931 34.1207 57.2678 33.7869 57.8864C33.4638 58.5051 33.3002 59.2251 33.296 60.0464C33.2919 60.8677 33.4482 61.593 33.7651 62.2224C34.0926 62.841 34.5435 63.321 35.1178 63.6624C35.6921 63.993 36.3473 64.1583 37.0833 64.1583ZM46.4128 58.0944C46.6817 57.6464 47.0354 57.2998 47.474 57.0544C47.9233 56.7984 48.4519 56.6704 49.0599 56.6704L49.0504 58.5584H48.5864C47.8718 58.5584 47.3268 58.7397 46.9517 59.1024C46.5872 59.4651 46.4027 60.0944 46.3982 60.9904L46.3748 65.6303H44.5508L44.5952 56.8144H46.4192L46.4128 58.0944ZM54.2886 56.6704C54.9712 56.6704 55.5732 56.8091 56.0945 57.0864C56.6265 57.3531 57.0408 57.6891 57.3374 58.0944L57.3438 56.8144H59.1838L59.1387 65.7743C59.1346 66.585 58.9603 67.305 58.6158 67.9343C58.2712 68.5743 57.7727 69.0756 57.1202 69.4383C56.4784 69.8009 55.7095 69.9823 54.8135 69.9823C53.6188 69.9823 52.6282 69.6996 51.8417 69.1343C51.0552 68.5796 50.611 67.8223 50.5092 66.8623H52.3172C52.4535 67.321 52.745 67.689 53.1916 67.9663C53.6488 68.2543 54.1921 68.3983 54.8214 68.3983C55.5574 68.3983 56.1506 68.1743 56.6008 67.7263C57.0617 67.2783 57.2944 66.6276 57.2987 65.7743L57.3061 64.3023C56.9947 64.7183 56.5715 65.0703 56.0368 65.3583C55.5127 65.6357 54.9147 65.7743 54.2427 65.7743C53.4747 65.7743 52.7716 65.5823 52.1336 65.1983C51.5062 64.8037 51.0076 64.2597 50.6378 63.5664C50.2787 62.8624 50.1014 62.0677 50.1058 61.1824C50.1103 60.2971 50.2956 59.5131 50.6617 58.8304C51.0384 58.1478 51.5424 57.6198 52.1737 57.2464C52.8156 56.8624 53.5206 56.6704 54.2886 56.6704ZM57.3217 61.2144C57.3247 60.6064 57.1994 60.0784 56.9456 59.6304C56.7026 59.1824 56.379 58.8411 55.9748 58.6064C55.5707 58.3718 55.1339 58.2544 54.6646 58.2544C54.1952 58.2544 53.7573 58.3718 53.3508 58.6064C52.9443 58.8304 52.612 59.1664 52.3537 59.6144C52.1062 60.0517 51.9809 60.5744 51.9778 61.1824C51.9747 61.7904 52.0947 62.3237 52.3377 62.7824C52.5914 63.241 52.9203 63.593 53.3244 63.8383C53.7392 64.073 54.176 64.1903 54.6347 64.1903C55.104 64.1903 55.5419 64.073 55.9484 63.8383C56.3549 63.6037 56.682 63.2624 56.9296 62.8144C57.1879 62.3557 57.3186 61.8224 57.3217 61.2144ZM60.9496 61.1824C60.954 60.2971 61.1393 59.5131 61.5054 58.8304C61.8822 58.1478 62.3862 57.6198 63.0174 57.2464C63.6593 56.8624 64.3643 56.6704 65.1323 56.6704C65.8256 56.6704 66.4276 56.8091 66.9382 57.0864C67.4595 57.3531 67.8738 57.6891 68.1811 58.0944L68.1876 56.8144H70.0276L69.9831 65.6303H68.1431L68.1498 64.3183C67.8383 64.7343 67.4152 65.081 66.8805 65.3583C66.3458 65.6357 65.7371 65.7743 65.0544 65.7743C64.2971 65.7743 63.6047 65.5823 62.9773 65.1983C62.35 64.8037 61.8514 64.2597 61.4815 63.5664C61.1224 62.8624 60.9451 62.0677 60.9496 61.1824ZM68.1654 61.2144C68.1685 60.6064 68.0431 60.0784 67.7894 59.6304C67.5463 59.1824 67.2227 58.8411 66.8186 58.6064C66.4144 58.3718 65.9777 58.2544 65.5083 58.2544C65.039 58.2544 64.6011 58.3718 64.1946 58.6064C63.7881 58.8304 63.4557 59.1664 63.1975 59.6144C62.9499 60.0517 62.8246 60.5744 62.8216 61.1824C62.8185 61.7904 62.9385 62.3237 63.1815 62.7824C63.4352 63.241 63.7641 63.593 64.1682 63.8383C64.583 64.073 65.0197 64.1903 65.4784 64.1903C65.9477 64.1903 66.3857 64.073 66.7922 63.8383C67.1987 63.6037 67.5257 63.2624 67.7733 62.8144C68.0316 62.3557 68.1623 61.8224 68.1654 61.2144ZM76.8721 56.6704C77.5654 56.6704 78.1833 56.8144 78.7259 57.1024C79.2791 57.3904 79.7089 57.8171 80.0154 58.3824C80.3219 58.9477 80.4731 59.6304 80.4691 60.4304L80.4429 65.6303H78.6349L78.6597 60.7024C78.6637 59.9131 78.4694 59.3104 78.0768 58.8944C77.6843 58.4677 77.1467 58.2544 76.4641 58.2544C75.7814 58.2544 75.2363 58.4677 74.8288 58.8944C74.4321 59.3104 74.2317 59.9131 74.2277 60.7024L74.2029 65.6303H72.3789L72.4233 56.8144H74.2473L74.2423 57.8224C74.5427 57.4598 74.9228 57.1771 75.3825 56.9744C75.8529 56.7718 76.3494 56.6704 76.8721 56.6704ZM83.7478 55.6465C83.4172 55.6465 83.1404 55.5345 82.9175 55.3105C82.6947 55.0865 82.5841 54.8091 82.5857 54.4785C82.5874 54.1478 82.7008 53.8705 82.9259 53.6465C83.1511 53.4225 83.429 53.3105 83.7596 53.3105C84.0796 53.3105 84.3511 53.4225 84.5739 53.6465C84.7968 53.8705 84.9074 54.1478 84.9057 54.4785C84.9041 54.8091 84.7907 55.0865 84.5655 55.3105C84.3404 55.5345 84.0678 55.6465 83.7478 55.6465ZM84.638 56.8144L84.5935 65.6303H82.7695L82.814 56.8144H84.638ZM88.6118 64.1423H92.6118L92.6043 65.6303H86.4923L86.4998 64.1423L90.5452 58.3024H86.5292L86.5367 56.8144H92.6487L92.6412 58.3024L88.6118 64.1423ZM93.9339 61.1824C93.9384 60.2971 94.1237 59.5131 94.4898 58.8304C94.8666 58.1478 95.3706 57.6198 96.0018 57.2464C96.6437 56.8624 97.3487 56.6704 98.1167 56.6704C98.81 56.6704 99.412 56.8091 99.9226 57.0864C100.444 57.3531 100.858 57.6891 101.166 58.0944L101.172 56.8144H103.012L102.968 65.6303H101.128L101.134 64.3183C100.823 64.7343 100.4 65.081 99.8649 65.3583C99.3302 65.6357 98.7215 65.7743 98.0388 65.7743C97.2815 65.7743 96.5891 65.5823 95.9617 65.1983C95.3344 64.8037 94.8358 64.2597 94.4659 63.5664C94.1068 62.8624 93.9295 62.0677 93.9339 61.1824ZM101.15 61.2144C101.153 60.6064 101.028 60.0784 100.774 59.6304C100.531 59.1824 100.207 58.8411 99.8029 58.6064C99.3988 58.3718 98.962 58.2544 98.4927 58.2544C98.0234 58.2544 97.5854 58.3718 97.1789 58.6064C96.7725 58.8304 96.4401 59.1664 96.1818 59.6144C95.9343 60.0517 95.809 60.5744 95.8059 61.1824C95.8029 61.7904 95.9229 62.3237 96.1659 62.7824C96.4196 63.241 96.7485 63.593 97.1525 63.8383C97.5674 64.073 98.0041 64.1903 98.4628 64.1903C98.9321 64.1903 99.37 64.073 99.7766 63.8383C100.183 63.6037 100.51 63.2624 100.758 62.8144C101.016 62.3557 101.147 61.8224 101.15 61.2144ZM107.528 58.3024L107.504 63.1824C107.502 63.513 107.575 63.753 107.724 63.9023C107.883 64.041 108.15 64.1103 108.523 64.1103H109.643L109.635 65.6303H108.195C107.374 65.6303 106.746 65.4383 106.31 65.0543C105.875 64.6703 105.659 64.0463 105.664 63.1824L105.688 58.3024H104.648L104.656 56.8144H105.696L105.707 54.6225H107.547L107.536 56.8144H109.68L109.672 58.3024H107.528ZM112.295 55.6465C111.964 55.6465 111.687 55.5345 111.464 55.3105C111.242 55.0865 111.131 54.8091 111.133 54.4785C111.134 54.1478 111.248 53.8705 111.473 53.6465C111.698 53.4225 111.976 53.3105 112.306 53.3105C112.626 53.3105 112.898 53.4225 113.121 53.6465C113.344 53.8705 113.454 54.1478 113.453 54.4785C113.451 54.8091 113.338 55.0865 113.112 55.3105C112.887 55.5345 112.615 55.6465 112.295 55.6465ZM113.185 56.8144L113.14 65.6303H111.316L111.361 56.8144H113.185ZM119.358 65.7743C118.526 65.7743 117.775 65.5877 117.105 65.2143C116.435 64.8303 115.91 64.297 115.529 63.6144C115.149 62.921 114.961 62.121 114.965 61.2144C114.97 60.3184 115.171 59.5237 115.569 58.8304C115.968 58.1371 116.509 57.6038 117.193 57.2304C117.878 56.8571 118.642 56.6704 119.484 56.6704C120.327 56.6704 121.089 56.8571 121.769 57.2304C122.45 57.6038 122.986 58.1371 123.377 58.8304C123.769 59.5237 123.962 60.3184 123.957 61.2144C123.953 62.1104 123.746 62.905 123.337 63.5984C122.929 64.2917 122.371 64.8303 121.665 65.2143C120.97 65.5877 120.201 65.7743 119.358 65.7743ZM119.366 64.1903C119.836 64.1903 120.274 64.0783 120.68 63.8543C121.097 63.6304 121.435 63.2944 121.693 62.8464C121.951 62.3984 122.082 61.8544 122.085 61.2144C122.089 60.5744 121.969 60.0357 121.726 59.5984C121.482 59.1504 121.159 58.8144 120.755 58.5904C120.35 58.3664 119.914 58.2544 119.444 58.2544C118.975 58.2544 118.537 58.3664 118.131 58.5904C117.735 58.8144 117.418 59.1504 117.182 59.5984C116.945 60.0357 116.825 60.5744 116.821 61.2144C116.817 62.1637 117.053 62.8997 117.53 63.4224C118.018 63.9343 118.63 64.1903 119.366 64.1903ZM130.231 56.6704C130.925 56.6704 131.543 56.8144 132.085 57.1024C132.638 57.3904 133.068 57.8171 133.375 58.3824C133.681 58.9477 133.833 59.6304 133.828 60.4304L133.802 65.6303H131.994L132.019 60.7024C132.023 59.9131 131.829 59.3104 131.436 58.8944C131.044 58.4677 130.506 58.2544 129.823 58.2544C129.141 58.2544 128.596 58.4677 128.188 58.8944C127.791 59.3104 127.591 59.9131 127.587 60.7024L127.562 65.6303H125.738L125.783 56.8144H127.607L127.602 57.8224C127.902 57.4598 128.282 57.1771 128.742 56.9744C129.212 56.7718 129.709 56.6704 130.231 56.6704ZM139.328 65.7743C138.635 65.7743 138.011 65.6517 137.458 65.4063C136.915 65.1503 136.485 64.809 136.167 64.3823C135.849 63.945 135.681 63.4597 135.663 62.9264H137.551C137.581 63.2997 137.755 63.6144 138.074 63.8703C138.403 64.1157 138.813 64.2383 139.304 64.2383C139.816 64.2383 140.211 64.1423 140.489 63.9503C140.778 63.7477 140.924 63.4917 140.925 63.1824C140.927 62.8517 140.768 62.6064 140.449 62.4464C140.14 62.2864 139.645 62.1104 138.964 61.9184C138.303 61.737 137.765 61.561 137.35 61.3904C136.935 61.2197 136.574 60.9584 136.266 60.6064C135.969 60.2544 135.822 59.7904 135.825 59.2144C135.828 58.7451 135.968 58.3184 136.248 57.9344C136.527 57.5398 136.923 57.2304 137.436 57.0064C137.96 56.7824 138.558 56.6704 139.23 56.6704C140.233 56.6704 141.037 56.9264 141.642 57.4384C142.258 57.9398 142.586 58.6277 142.624 59.5024H140.8C140.77 59.1077 140.611 58.7931 140.325 58.5584C140.038 58.3238 139.649 58.2064 139.158 58.2064C138.678 58.2064 138.31 58.2971 138.053 58.4784C137.796 58.6597 137.667 58.8997 137.665 59.1984C137.664 59.4331 137.748 59.6304 137.918 59.7904C138.088 59.9504 138.296 60.0784 138.54 60.1744C138.785 60.2597 139.147 60.3717 139.627 60.5104C140.266 60.6811 140.788 60.8571 141.192 61.0384C141.607 61.209 141.963 61.465 142.26 61.8064C142.557 62.1477 142.709 62.601 142.717 63.1664C142.715 63.6677 142.574 64.1157 142.295 64.5103C142.015 64.905 141.619 65.2143 141.106 65.4383C140.603 65.6623 140.011 65.7743 139.328 65.7743Z" fill="#474E68"/>
</g>
</g>
<defs>
<filter id="filter0_i_889_7045" x="0" y="0" width="172" height="192" filterUnits="userSpaceOnUse" color-interpolation-filters="sRGB">
<feFlood flood-opacity="0" result="BackgroundImageFix"/>
<feBlend mode="normal" in="SourceGraphic" in2="BackgroundImageFix" result="shape"/>
<feColorMatrix in="SourceAlpha" type="matrix" values="0 0 0 0 0 0 0 0 0 0 0 0 0 0 0 0 0 0 127 0" result="hardAlpha"/>
<feOffset/>
<feGaussianBlur stdDeviation="3"/>
<feComposite in2="hardAlpha" operator="arithmetic" k2="-1" k3="1"/>
<feColorMatrix type="matrix" values="0 0 0 0 0.282353 0 0 0 0 0.282353 0 0 0 0 0.282353 0 0 0 0.25 0"/>
<feBlend mode="normal" in2="shape" result="effect1_innerShadow_889_7045"/>
</filter>
<clipPath id="clip0_889_7045">
<rect width="171.032" height="192.002" rx="20" transform="matrix(1 0 -0.00504129 0.999987 0.96875 0)" fill="white"/>
</clipPath>
</defs>
</svg>
