<svg width="172" height="192" viewBox="0 0 172 192" fill="none" xmlns="http://www.w3.org/2000/svg">
<g filter="url(#filter0_i_889_7054)">
<g clip-path="url(#clip0_889_7054)">
<path d="M172 0H0V192H172V0Z" fill="white"/>
<path d="M0 133.12L3.59289 130.336C7.20489 127.584 14.3907 122.016 21.5573 118.304C28.724 114.56 35.8716 112.64 43.0382 113.824C50.2049 114.976 57.3907 119.264 64.5573 120.384C71.724 121.504 78.8716 119.456 86.0382 119.744C93.2049 120 100.391 122.56 107.557 125.216C114.724 127.904 121.872 130.656 129.038 132.16C136.205 133.664 143.391 133.856 150.557 131.104C157.724 128.32 164.872 122.56 168.426 119.68L172 116.8V192.32H168.426C164.872 192.32 157.724 192.32 150.557 192.32C143.391 192.32 136.205 192.32 129.038 192.32C121.872 192.32 114.724 192.32 107.557 192.32C100.391 192.32 93.2049 192.32 86.0382 192.32C78.8716 192.32 71.724 192.32 64.5573 192.32C57.3907 192.32 50.2049 192.32 43.0382 192.32C35.8716 192.32 28.724 192.32 21.5573 192.32C14.3907 192.32 7.20489 192.32 3.59289 192.32H0V133.12Z" fill="#D1FFEC"/>
<path d="M0 124.48L3.59289 126.304C7.20489 128.096 14.3907 131.744 21.5573 133.216C28.724 134.72 35.8716 134.08 43.0382 134.816C50.2049 135.584 57.3907 137.696 64.5573 140.064C71.724 142.4 78.8716 144.96 86.0382 144.896C93.2049 144.864 100.391 142.176 107.557 139.264C114.724 136.32 121.872 133.12 129.038 133.536C136.205 133.984 143.391 138.016 150.557 139.36C157.724 140.704 164.872 139.296 168.426 138.624L172 137.92V192.32H168.426C164.872 192.32 157.724 192.32 150.557 192.32C143.391 192.32 136.205 192.32 129.038 192.32C121.872 192.32 114.724 192.32 107.557 192.32C100.391 192.32 93.2049 192.32 86.0382 192.32C78.8716 192.32 71.724 192.32 64.5573 192.32C57.3907 192.32 50.2049 192.32 43.0382 192.32C35.8716 192.32 28.724 192.32 21.5573 192.32C14.3907 192.32 7.20489 192.32 3.59289 192.32H0V124.48Z" fill="#B5F4D9"/>
<path d="M0 151.041L3.59289 149.825C7.20489 148.577 14.3907 146.145 21.5573 145.985C28.724 145.825 35.8716 147.937 43.0382 148.321C50.2049 148.705 57.3907 147.297 64.5573 145.345C71.724 143.361 78.8716 140.801 86.0382 142.561C93.2049 144.321 100.391 150.401 107.557 152.065C114.724 153.697 121.872 150.945 129.038 150.337C136.205 149.761 143.391 151.361 150.557 150.945C157.724 150.497 164.872 148.065 168.426 146.817L172 145.601V192.321H168.426C164.872 192.321 157.724 192.321 150.557 192.321C143.391 192.321 136.205 192.321 129.038 192.321C121.872 192.321 114.724 192.321 107.557 192.321C100.391 192.321 93.2049 192.321 86.0382 192.321C78.8716 192.321 71.724 192.321 64.5573 192.321C57.3907 192.321 50.2049 192.321 43.0382 192.321C35.8716 192.321 28.724 192.321 21.5573 192.321C14.3907 192.321 7.20489 192.321 3.59289 192.321H0V151.041Z" fill="#99E8C6"/>
<path d="M0 158.08L3.59289 160.096C7.20489 162.144 14.3907 166.176 21.5573 166.656C28.724 167.136 35.8716 164.064 43.0382 162.56C50.2049 161.056 57.3907 161.184 64.5573 161.696C71.724 162.24 78.8716 163.2 86.0382 162.72C93.2049 162.24 100.391 160.32 107.557 161.696C114.724 163.104 121.872 167.776 129.038 167.776C136.205 167.776 143.391 163.104 150.557 161.376C157.724 159.68 164.872 160.96 168.426 161.6L172 162.24V192.32H168.426C164.872 192.32 157.724 192.32 150.557 192.32C143.391 192.32 136.205 192.32 129.038 192.32C121.872 192.32 114.724 192.32 107.557 192.32C100.391 192.32 93.2049 192.32 86.0382 192.32C78.8716 192.32 71.724 192.32 64.5573 192.32C57.3907 192.32 50.2049 192.32 43.0382 192.32C35.8716 192.32 28.724 192.32 21.5573 192.32C14.3907 192.32 7.20489 192.32 3.59289 192.32H0V158.08Z" fill="#7CDCB3"/>
<path d="M0 182.079L3.59289 181.279C7.20489 180.479 14.3907 178.879 21.5573 177.343C28.724 175.775 35.8716 174.303 43.0382 173.983C50.2049 173.663 57.3907 174.495 64.5573 175.519C71.724 176.543 78.8716 177.695 86.0382 179.295C93.2049 180.895 100.391 182.943 107.557 181.055C114.724 179.199 121.872 173.439 129.038 171.743C136.205 170.015 143.391 172.383 150.557 173.215C157.724 174.079 164.872 173.439 168.426 173.119L172 172.799V192.319H168.426C164.872 192.319 157.724 192.319 150.557 192.319C143.391 192.319 136.205 192.319 129.038 192.319C121.872 192.319 114.724 192.319 107.557 192.319C100.391 192.319 93.2049 192.319 86.0382 192.319C78.8716 192.319 71.724 192.319 64.5573 192.319C57.3907 192.319 50.2049 192.319 43.0382 192.319C35.8716 192.319 28.724 192.319 21.5573 192.319C14.3907 192.319 7.20489 192.319 3.59289 192.319H0V182.079Z" fill="#5DD0A0"/>
<path d="M30.0915 39.3584H25.4355L24.6355 41.6304H22.7315L26.7155 30.4944H28.8275L32.8115 41.6304H30.8915L30.0915 39.3584ZM29.5795 37.8704L27.7715 32.7024L25.9475 37.8704H29.5795ZM36.3678 30.5104V41.6304H34.5438V30.5104H36.3678ZM45.5305 35.0704V36.6064H38.9545V35.0704H45.5305ZM55.8979 33.8224C55.8979 34.3877 55.7645 34.921 55.4979 35.4224C55.2312 35.9237 54.8045 36.3344 54.2179 36.6544C53.6312 36.9637 52.8792 37.1184 51.9619 37.1184H49.9459V41.6304H48.1219V30.5104H51.9619C52.8152 30.5104 53.5352 30.6597 54.1219 30.9584C54.7192 31.2464 55.1619 31.641 55.4499 32.1424C55.7485 32.6437 55.8979 33.2037 55.8979 33.8224ZM51.9619 35.6304C52.6552 35.6304 53.1725 35.4757 53.5139 35.1664C53.8552 34.8464 54.0259 34.3984 54.0259 33.8224C54.0259 32.6064 53.3379 31.9984 51.9619 31.9984H49.9459V35.6304H51.9619ZM61.4615 41.7744C60.6295 41.7744 59.8775 41.5877 59.2055 41.2144C58.5335 40.8304 58.0055 40.297 57.6215 39.6144C57.2375 38.921 57.0455 38.121 57.0455 37.2144C57.0455 36.3184 57.2428 35.5237 57.6375 34.8304C58.0322 34.137 58.5708 33.6037 59.2535 33.2304C59.9362 32.857 60.6988 32.6704 61.5415 32.6704C62.3842 32.6704 63.1468 32.857 63.8295 33.2304C64.5122 33.6037 65.0508 34.137 65.4455 34.8304C65.8402 35.5237 66.0375 36.3184 66.0375 37.2144C66.0375 38.1104 65.8348 38.905 65.4295 39.5984C65.0242 40.2917 64.4695 40.8304 63.7655 41.2144C63.0722 41.5877 62.3042 41.7744 61.4615 41.7744ZM61.4615 40.1904C61.9308 40.1904 62.3682 40.0784 62.7735 39.8544C63.1895 39.6304 63.5255 39.2944 63.7815 38.8464C64.0375 38.3984 64.1655 37.8544 64.1655 37.2144C64.1655 36.5744 64.0428 36.0357 63.7975 35.5984C63.5522 35.1504 63.2268 34.8144 62.8215 34.5904C62.4162 34.3664 61.9788 34.2544 61.5095 34.2544C61.0402 34.2544 60.6028 34.3664 60.1975 34.5904C59.8028 34.8144 59.4882 35.1504 59.2535 35.5984C59.0188 36.0357 58.9015 36.5744 58.9015 37.2144C58.9015 38.1637 59.1415 38.8997 59.6215 39.4224C60.1122 39.9344 60.7255 40.1904 61.4615 40.1904ZM79.6806 32.8144L76.9446 41.6304H75.0246L73.2486 35.1184L71.4726 41.6304H69.5526L66.8006 32.8144H68.6566L70.4966 39.9024L72.3686 32.8144H74.2726L76.0646 39.8704L77.8886 32.8144H79.6806ZM89.1238 37.0064C89.1238 37.337 89.1024 37.6357 89.0598 37.9024H82.3238C82.3771 38.6064 82.6384 39.1717 83.1078 39.5984C83.5771 40.025 84.1531 40.2384 84.8358 40.2384C85.8171 40.2384 86.5104 39.8277 86.9158 39.0064H88.8837C88.6171 39.817 88.1318 40.4837 87.4278 41.0064C86.7344 41.5184 85.8704 41.7744 84.8358 41.7744C83.9931 41.7744 83.2358 41.5877 82.5638 41.2144C81.9024 40.8304 81.3798 40.297 80.9958 39.6144C80.6224 38.921 80.4358 38.121 80.4358 37.2144C80.4358 36.3077 80.6171 35.513 80.9798 34.8304C81.3531 34.137 81.8704 33.6037 82.5318 33.2304C83.2038 32.857 83.9718 32.6704 84.8358 32.6704C85.6678 32.6704 86.4091 32.8517 87.0598 33.2144C87.7104 33.577 88.2171 34.089 88.5798 34.7504C88.9424 35.401 89.1238 36.153 89.1238 37.0064ZM87.2198 36.4304C87.2091 35.7584 86.9691 35.2197 86.4998 34.8144C86.0304 34.409 85.4491 34.2064 84.7558 34.2064C84.1264 34.2064 83.5878 34.409 83.1398 34.8144C82.6918 35.209 82.4251 35.7477 82.3398 36.4304H87.2198ZM92.7428 34.0944C93.0094 33.6464 93.3614 33.2997 93.7988 33.0544C94.2468 32.7984 94.7748 32.6704 95.3828 32.6704V34.5584H94.9188C94.2041 34.5584 93.6601 34.7397 93.2868 35.1024C92.9241 35.465 92.7428 36.0944 92.7428 36.9904V41.6304H90.9188V32.8144H92.7428V34.0944ZM105.139 37.0064C105.139 37.337 105.118 37.6357 105.075 37.9024H98.3394C98.3927 38.6064 98.654 39.1717 99.1234 39.5984C99.5927 40.025 100.169 40.2384 100.851 40.2384C101.833 40.2384 102.526 39.8277 102.931 39.0064H104.899C104.633 39.817 104.147 40.4837 103.443 41.0064C102.75 41.5184 101.886 41.7744 100.851 41.7744C100.009 41.7744 99.2514 41.5877 98.5794 41.2144C97.918 40.8304 97.3954 40.297 97.0114 39.6144C96.638 38.921 96.4514 38.121 96.4514 37.2144C96.4514 36.3077 96.6327 35.513 96.9954 34.8304C97.3687 34.137 97.886 33.6037 98.5474 33.2304C99.2194 32.857 99.9874 32.6704 100.851 32.6704C101.683 32.6704 102.425 32.8517 103.075 33.2144C103.726 33.577 104.233 34.089 104.595 34.7504C104.958 35.401 105.139 36.153 105.139 37.0064ZM103.235 36.4304C103.225 35.7584 102.985 35.2197 102.515 34.8144C102.046 34.409 101.465 34.2064 100.771 34.2064C100.142 34.2064 99.6034 34.409 99.1554 34.8144C98.7074 35.209 98.4407 35.7477 98.3554 36.4304H103.235ZM106.326 37.1824C106.326 36.297 106.508 35.513 106.87 34.8304C107.244 34.1477 107.745 33.6197 108.374 33.2464C109.014 32.8624 109.724 32.6704 110.502 32.6704C111.078 32.6704 111.644 32.7984 112.198 33.0544C112.764 33.2997 113.212 33.6304 113.542 34.0464V29.7904H115.382V41.6304H113.542V40.3024C113.244 40.729 112.828 41.081 112.294 41.3584C111.772 41.6357 111.169 41.7744 110.486 41.7744C109.718 41.7744 109.014 41.5824 108.374 41.1984C107.745 40.8037 107.244 40.2597 106.87 39.5664C106.508 38.8624 106.326 38.0677 106.326 37.1824ZM113.542 37.2144C113.542 36.6064 113.414 36.0784 113.158 35.6304C112.913 35.1824 112.588 34.841 112.182 34.6064C111.777 34.3717 111.34 34.2544 110.87 34.2544C110.401 34.2544 109.964 34.3717 109.558 34.6064C109.153 34.8304 108.822 35.1664 108.566 35.6144C108.321 36.0517 108.198 36.5744 108.198 37.1824C108.198 37.7904 108.321 38.3237 108.566 38.7824C108.822 39.241 109.153 39.593 109.558 39.8384C109.974 40.073 110.412 40.1904 110.87 40.1904C111.34 40.1904 111.777 40.073 112.182 39.8384C112.588 39.6037 112.913 39.2624 113.158 38.8144C113.414 38.3557 113.542 37.8224 113.542 37.2144ZM127.998 30.5104V38.5264C127.998 39.5184 127.694 40.3024 127.086 40.8784C126.489 41.4544 125.7 41.7424 124.718 41.7424C123.737 41.7424 122.942 41.4544 122.334 40.8784C121.737 40.3024 121.438 39.5184 121.438 38.5264H123.278C123.289 39.017 123.412 39.4064 123.646 39.6944C123.892 39.9824 124.249 40.1264 124.718 40.1264C125.188 40.1264 125.545 39.9824 125.79 39.6944C126.036 39.3957 126.158 39.0064 126.158 38.5264V30.5104H127.998ZM134.79 41.7744C133.958 41.7744 133.206 41.5877 132.534 41.2144C131.862 40.8304 131.334 40.297 130.95 39.6144C130.566 38.921 130.374 38.121 130.374 37.2144C130.374 36.3184 130.571 35.5237 130.966 34.8304C131.36 34.137 131.899 33.6037 132.582 33.2304C133.264 32.857 134.027 32.6704 134.87 32.6704C135.712 32.6704 136.475 32.857 137.158 33.2304C137.84 33.6037 138.379 34.137 138.774 34.8304C139.168 35.5237 139.366 36.3184 139.366 37.2144C139.366 38.1104 139.163 38.905 138.758 39.5984C138.352 40.2917 137.798 40.8304 137.094 41.2144C136.4 41.5877 135.632 41.7744 134.79 41.7744ZM134.79 40.1904C135.259 40.1904 135.696 40.0784 136.102 39.8544C136.518 39.6304 136.854 39.2944 137.11 38.8464C137.366 38.3984 137.494 37.8544 137.494 37.2144C137.494 36.5744 137.371 36.0357 137.126 35.5984C136.88 35.1504 136.555 34.8144 136.15 34.5904C135.744 34.3664 135.307 34.2544 134.838 34.2544C134.368 34.2544 133.931 34.3664 133.526 34.5904C133.131 34.8144 132.816 35.1504 132.582 35.5984C132.347 36.0357 132.23 36.5744 132.23 37.2144C132.23 38.1637 132.47 38.8997 132.95 39.4224C133.44 39.9344 134.054 40.1904 134.79 40.1904ZM142.993 34.1264C143.302 33.6997 143.723 33.353 144.257 33.0864C144.801 32.809 145.403 32.6704 146.065 32.6704C146.843 32.6704 147.547 32.857 148.177 33.2304C148.806 33.6037 149.302 34.137 149.665 34.8304C150.027 35.513 150.209 36.297 150.209 37.1824C150.209 38.0677 150.027 38.8624 149.665 39.5664C149.302 40.2597 148.801 40.8037 148.161 41.1984C147.531 41.5824 146.833 41.7744 146.065 41.7744C145.382 41.7744 144.774 41.641 144.241 41.3744C143.718 41.1077 143.302 40.7664 142.993 40.3504V41.6304H141.169V29.7904H142.993V34.1264ZM148.353 37.1824C148.353 36.5744 148.225 36.0517 147.969 35.6144C147.723 35.1664 147.393 34.8304 146.977 34.6064C146.571 34.3717 146.134 34.2544 145.665 34.2544C145.206 34.2544 144.769 34.3717 144.353 34.6064C143.947 34.841 143.617 35.1824 143.361 35.6304C143.115 36.0784 142.993 36.6064 142.993 37.2144C142.993 37.8224 143.115 38.3557 143.361 38.8144C143.617 39.2624 143.947 39.6037 144.353 39.8384C144.769 40.073 145.206 40.1904 145.665 40.1904C146.134 40.1904 146.571 40.073 146.977 39.8384C147.393 39.593 147.723 39.241 147.969 38.7824C148.225 38.3237 148.353 37.7904 148.353 37.1824ZM64.7558 54.5104V65.6304H62.9318V58.0144L59.5398 65.6304H58.2758L54.8678 58.0144V65.6304H53.0438V54.5104H55.0118L58.9158 63.2304L62.8038 54.5104H64.7558ZM66.5451 61.1824C66.5451 60.297 66.7265 59.513 67.0891 58.8304C67.4625 58.1477 67.9638 57.6197 68.5931 57.2464C69.2331 56.8624 69.9371 56.6704 70.7051 56.6704C71.3985 56.6704 72.0011 56.809 72.5131 57.0864C73.0358 57.353 73.4518 57.689 73.7611 58.0944V56.8144H75.6011V65.6304H73.7611V64.3184C73.4518 64.7344 73.0305 65.081 72.4971 65.3584C71.9638 65.6357 71.3558 65.7744 70.6731 65.7744C69.9158 65.7744 69.2225 65.5824 68.5931 65.1984C67.9638 64.8037 67.4625 64.2597 67.0891 63.5664C66.7265 62.8624 66.5451 62.0677 66.5451 61.1824ZM73.7611 61.2144C73.7611 60.6064 73.6331 60.0784 73.3771 59.6304C73.1318 59.1824 72.8065 58.841 72.4011 58.6064C71.9958 58.3717 71.5585 58.2544 71.0891 58.2544C70.6198 58.2544 70.1825 58.3717 69.7771 58.6064C69.3718 58.8304 69.0411 59.1664 68.7851 59.6144C68.5398 60.0517 68.4171 60.5744 68.4171 61.1824C68.4171 61.7904 68.5398 62.3237 68.7851 62.7824C69.0411 63.241 69.3718 63.593 69.7771 63.8384C70.1931 64.073 70.6305 64.1904 71.0891 64.1904C71.5585 64.1904 71.9958 64.073 72.4011 63.8384C72.8065 63.6037 73.1318 63.2624 73.3771 62.8144C73.6331 62.3557 73.7611 61.8224 73.7611 61.2144ZM80.1249 58.3024V63.1824C80.1249 63.513 80.1995 63.753 80.3489 63.9024C80.5089 64.041 80.7755 64.1104 81.1489 64.1104H82.2689V65.6304H80.8289C80.0075 65.6304 79.3782 65.4384 78.9409 65.0544C78.5035 64.6704 78.2849 64.0464 78.2849 63.1824V58.3024H77.2449V56.8144H78.2849V54.6224H80.1249V56.8144H82.2689V58.3024H80.1249ZM83.342 61.2144C83.342 60.3077 83.5233 59.513 83.886 58.8304C84.2593 58.137 84.7713 57.6037 85.422 57.2304C86.0727 56.857 86.8193 56.6704 87.662 56.6704C88.7287 56.6704 89.6087 56.9264 90.302 57.4384C91.006 57.9397 91.4807 58.6597 91.726 59.5984H89.758C89.598 59.161 89.342 58.8197 88.99 58.5744C88.638 58.329 88.1953 58.2064 87.662 58.2064C86.9153 58.2064 86.318 58.473 85.87 59.0064C85.4327 59.529 85.214 60.265 85.214 61.2144C85.214 62.1637 85.4327 62.905 85.87 63.4384C86.318 63.9717 86.9153 64.2384 87.662 64.2384C88.718 64.2384 89.4167 63.7744 89.758 62.8464H91.726C91.47 63.7424 90.99 64.457 90.286 64.9904C89.582 65.513 88.7073 65.7744 87.662 65.7744C86.8193 65.7744 86.0727 65.5877 85.422 65.2144C84.7713 64.8304 84.2593 64.297 83.886 63.6144C83.5233 62.921 83.342 62.121 83.342 61.2144ZM98.1038 56.6704C98.7758 56.6704 99.3731 56.8144 99.8958 57.1024C100.429 57.3904 100.845 57.817 101.144 58.3824C101.453 58.9477 101.608 59.6304 101.608 60.4304V65.6304H99.7998V60.7024C99.7998 59.913 99.6024 59.3104 99.2078 58.8944C98.8131 58.4677 98.2744 58.2544 97.5918 58.2544C96.9091 58.2544 96.3651 58.4677 95.9598 58.8944C95.5651 59.3104 95.3678 59.913 95.3678 60.7024V65.6304H93.5438V53.7904H95.3678V57.8384C95.6771 57.465 96.0664 57.177 96.5358 56.9744C97.0158 56.7717 97.5384 56.6704 98.1038 56.6704ZM112.014 61.0064C112.014 61.337 111.993 61.6357 111.95 61.9024H105.214C105.268 62.6064 105.529 63.1717 105.998 63.5984C106.468 64.025 107.044 64.2384 107.726 64.2384C108.708 64.2384 109.401 63.8277 109.806 63.0064H111.774C111.508 63.817 111.022 64.4837 110.318 65.0064C109.625 65.5184 108.761 65.7744 107.726 65.7744C106.884 65.7744 106.126 65.5877 105.454 65.2144C104.793 64.8304 104.27 64.297 103.886 63.6144C103.513 62.921 103.326 62.121 103.326 61.2144C103.326 60.3077 103.508 59.513 103.87 58.8304C104.244 58.137 104.761 57.6037 105.422 57.2304C106.094 56.857 106.862 56.6704 107.726 56.6704C108.558 56.6704 109.3 56.8517 109.95 57.2144C110.601 57.577 111.108 58.089 111.47 58.7504C111.833 59.401 112.014 60.153 112.014 61.0064ZM110.11 60.4304C110.1 59.7584 109.86 59.2197 109.39 58.8144C108.921 58.409 108.34 58.2064 107.646 58.2064C107.017 58.2064 106.478 58.409 106.03 58.8144C105.582 59.209 105.316 59.7477 105.23 60.4304H110.11ZM117.009 65.7744C116.316 65.7744 115.692 65.6517 115.137 65.4064C114.593 65.1504 114.161 64.809 113.841 64.3824C113.521 63.945 113.351 63.4597 113.329 62.9264H115.217C115.249 63.2997 115.425 63.6144 115.745 63.8704C116.076 64.1157 116.487 64.2384 116.977 64.2384C117.489 64.2384 117.884 64.1424 118.161 63.9504C118.449 63.7477 118.593 63.4917 118.593 63.1824C118.593 62.8517 118.433 62.6064 118.113 62.4464C117.804 62.2864 117.308 62.1104 116.625 61.9184C115.964 61.737 115.425 61.561 115.009 61.3904C114.593 61.2197 114.231 60.9584 113.921 60.6064C113.623 60.2544 113.473 59.7904 113.473 59.2144C113.473 58.745 113.612 58.3184 113.889 57.9344C114.167 57.5397 114.561 57.2304 115.073 57.0064C115.596 56.7824 116.193 56.6704 116.865 56.6704C117.868 56.6704 118.673 56.9264 119.281 57.4384C119.9 57.9397 120.231 58.6277 120.273 59.5024H118.449C118.417 59.1077 118.257 58.793 117.969 58.5584C117.681 58.3237 117.292 58.2064 116.801 58.2064C116.321 58.2064 115.953 58.297 115.697 58.4784C115.441 58.6597 115.313 58.8997 115.313 59.1984C115.313 59.433 115.399 59.6304 115.569 59.7904C115.74 59.9504 115.948 60.0784 116.193 60.1744C116.439 60.2597 116.801 60.3717 117.281 60.5104C117.921 60.681 118.444 60.857 118.849 61.0384C119.265 61.209 119.623 61.465 119.921 61.8064C120.22 62.1477 120.375 62.601 120.385 63.1664C120.385 63.6677 120.247 64.1157 119.969 64.5104C119.692 64.905 119.297 65.2144 118.785 65.4384C118.284 65.6624 117.692 65.7744 117.009 65.7744Z" fill="#474E68"/>
</g>
</g>
<defs>
<filter id="filter0_i_889_7054" x="0" y="0" width="172" height="192" filterUnits="userSpaceOnUse" color-interpolation-filters="sRGB">
<feFlood flood-opacity="0" result="BackgroundImageFix"/>
<feBlend mode="normal" in="SourceGraphic" in2="BackgroundImageFix" result="shape"/>
<feColorMatrix in="SourceAlpha" type="matrix" values="0 0 0 0 0 0 0 0 0 0 0 0 0 0 0 0 0 0 127 0" result="hardAlpha"/>
<feOffset/>
<feGaussianBlur stdDeviation="3"/>
<feComposite in2="hardAlpha" operator="arithmetic" k2="-1" k3="1"/>
<feColorMatrix type="matrix" values="0 0 0 0 0.282353 0 0 0 0 0.282353 0 0 0 0 0.282353 0 0 0 0.25 0"/>
<feBlend mode="normal" in2="shape" result="effect1_innerShadow_889_7054"/>
</filter>
<clipPath id="clip0_889_7054">
<rect width="172" height="192" rx="20" fill="white"/>
</clipPath>
</defs>
</svg>
