<svg width="172" height="192" viewBox="0 0 172 192" fill="none" xmlns="http://www.w3.org/2000/svg">
<g filter="url(#filter0_i_889_7037)">
<g clip-path="url(#clip0_889_7037)">
<path d="M172 0H0V192H172V0Z" fill="white"/>
<path d="M0 133.12L3.59289 130.336C7.20489 127.584 14.3907 122.016 21.5573 118.304C28.724 114.56 35.8716 112.64 43.0382 113.824C50.2049 114.976 57.3907 119.264 64.5573 120.384C71.724 121.504 78.8716 119.456 86.0382 119.744C93.2049 120 100.391 122.56 107.557 125.216C114.724 127.904 121.872 130.656 129.038 132.16C136.205 133.664 143.391 133.856 150.557 131.104C157.724 128.32 164.872 122.56 168.426 119.68L172 116.8V192.32H168.426C164.872 192.32 157.724 192.32 150.557 192.32C143.391 192.32 136.205 192.32 129.038 192.32C121.872 192.32 114.724 192.32 107.557 192.32C100.391 192.32 93.2049 192.32 86.0382 192.32C78.8716 192.32 71.724 192.32 64.5573 192.32C57.3907 192.32 50.2049 192.32 43.0382 192.32C35.8716 192.32 28.724 192.32 21.5573 192.32C14.3907 192.32 7.20489 192.32 3.59289 192.32H0V133.12Z" fill="#FFFAC3"/>
<path d="M0 124.48L3.59289 126.304C7.20489 128.096 14.3907 131.744 21.5573 133.216C28.724 134.72 35.8716 134.08 43.0382 134.816C50.2049 135.584 57.3907 137.696 64.5573 140.064C71.724 142.4 78.8716 144.96 86.0382 144.896C93.2049 144.864 100.391 142.176 107.557 139.264C114.724 136.32 121.872 133.12 129.038 133.536C136.205 133.984 143.391 138.016 150.557 139.36C157.724 140.704 164.872 139.296 168.426 138.624L172 137.92V192.32H168.426C164.872 192.32 157.724 192.32 150.557 192.32C143.391 192.32 136.205 192.32 129.038 192.32C121.872 192.32 114.724 192.32 107.557 192.32C100.391 192.32 93.2049 192.32 86.0382 192.32C78.8716 192.32 71.724 192.32 64.5573 192.32C57.3907 192.32 50.2049 192.32 43.0382 192.32C35.8716 192.32 28.724 192.32 21.5573 192.32C14.3907 192.32 7.20489 192.32 3.59289 192.32H0V124.48Z" fill="#F8F2A9"/>
<path d="M0 151.04L3.59289 149.824C7.20489 148.576 14.3907 146.144 21.5573 145.984C28.724 145.824 35.8716 147.936 43.0382 148.32C50.2049 148.704 57.3907 147.296 64.5573 145.344C71.724 143.36 78.8716 140.8 86.0382 142.56C93.2049 144.32 100.391 150.4 107.557 152.064C114.724 153.696 121.872 150.944 129.038 150.336C136.205 149.76 143.391 151.36 150.557 150.944C157.724 150.496 164.872 148.064 168.426 146.816L172 145.6V192.32H168.426C164.872 192.32 157.724 192.32 150.557 192.32C143.391 192.32 136.205 192.32 129.038 192.32C121.872 192.32 114.724 192.32 107.557 192.32C100.391 192.32 93.2049 192.32 86.0382 192.32C78.8716 192.32 71.724 192.32 64.5573 192.32C57.3907 192.32 50.2049 192.32 43.0382 192.32C35.8716 192.32 28.724 192.32 21.5573 192.32C14.3907 192.32 7.20489 192.32 3.59289 192.32H0V151.04Z" fill="#F1E98F"/>
<path d="M0 158.08L3.59289 160.096C7.20489 162.144 14.3907 166.176 21.5573 166.656C28.724 167.136 35.8716 164.064 43.0382 162.56C50.2049 161.056 57.3907 161.184 64.5573 161.696C71.724 162.24 78.8716 163.2 86.0382 162.72C93.2049 162.24 100.391 160.32 107.557 161.696C114.724 163.104 121.872 167.776 129.038 167.776C136.205 167.776 143.391 163.104 150.557 161.376C157.724 159.68 164.872 160.96 168.426 161.6L172 162.24V192.32H168.426C164.872 192.32 157.724 192.32 150.557 192.32C143.391 192.32 136.205 192.32 129.038 192.32C121.872 192.32 114.724 192.32 107.557 192.32C100.391 192.32 93.2049 192.32 86.0382 192.32C78.8716 192.32 71.724 192.32 64.5573 192.32C57.3907 192.32 50.2049 192.32 43.0382 192.32C35.8716 192.32 28.724 192.32 21.5573 192.32C14.3907 192.32 7.20489 192.32 3.59289 192.32H0V158.08Z" fill="#EAE075"/>
<path d="M0 182.08L3.59289 181.28C7.20489 180.48 14.3907 178.88 21.5573 177.344C28.724 175.776 35.8716 174.304 43.0382 173.984C50.2049 173.664 57.3907 174.496 64.5573 175.52C71.724 176.544 78.8716 177.696 86.0382 179.296C93.2049 180.896 100.391 182.944 107.557 181.056C114.724 179.2 121.872 173.44 129.038 171.744C136.205 170.016 143.391 172.384 150.557 173.216C157.724 174.08 164.872 173.44 168.426 173.12L172 172.8V192.32H168.426C164.872 192.32 157.724 192.32 150.557 192.32C143.391 192.32 136.205 192.32 129.038 192.32C121.872 192.32 114.724 192.32 107.557 192.32C100.391 192.32 93.2049 192.32 86.0382 192.32C78.8716 192.32 71.724 192.32 64.5573 192.32C57.3907 192.32 50.2049 192.32 43.0382 192.32C35.8716 192.32 28.724 192.32 21.5573 192.32C14.3907 192.32 7.20489 192.32 3.59289 192.32H0V182.08Z" fill="#E2D759"/>
<path d="M32.3276 33.8226C32.3276 34.3879 32.1942 34.9213 31.9276 35.4226C31.6609 35.9239 31.2342 36.3346 30.6476 36.6546C30.0609 36.9639 29.3089 37.1186 28.3916 37.1186H26.3756V41.6306H24.5516V30.5106H28.3916C29.2449 30.5106 29.9649 30.6599 30.5516 30.9586C31.1489 31.2466 31.5916 31.6413 31.8796 32.1426C32.1782 32.6439 32.3276 33.2039 32.3276 33.8226ZM28.3916 35.6306C29.0849 35.6306 29.6022 35.4759 29.9436 35.1666C30.2849 34.8466 30.4556 34.3986 30.4556 33.8226C30.4556 32.6066 29.7676 31.9986 28.3916 31.9986H26.3756V35.6306H28.3916ZM35.8912 34.0946C36.1579 33.6466 36.5099 33.2999 36.9472 33.0546C37.3952 32.7986 37.9232 32.6706 38.5312 32.6706V34.5586H38.0672C37.3525 34.5586 36.8085 34.7399 36.4352 35.1026C36.0725 35.4653 35.8912 36.0946 35.8912 36.9906V41.6306H34.0672V32.8146H35.8912V34.0946ZM44.0318 41.7746C43.1998 41.7746 42.4478 41.5879 41.7758 41.2146C41.1038 40.8306 40.5758 40.2973 40.1918 39.6146C39.8078 38.9213 39.6158 38.1213 39.6158 37.2146C39.6158 36.3186 39.8131 35.5239 40.2078 34.8306C40.6025 34.1373 41.1411 33.6039 41.8238 33.2306C42.5065 32.8573 43.2691 32.6706 44.1118 32.6706C44.9545 32.6706 45.7171 32.8573 46.3998 33.2306C47.0825 33.6039 47.6211 34.1373 48.0158 34.8306C48.4105 35.5239 48.6078 36.3186 48.6078 37.2146C48.6078 38.1106 48.4051 38.9053 47.9998 39.5986C47.5945 40.2919 47.0398 40.8306 46.3358 41.2146C45.6425 41.5879 44.8745 41.7746 44.0318 41.7746ZM44.0318 40.1906C44.5011 40.1906 44.9385 40.0786 45.3438 39.8546C45.7598 39.6306 46.0958 39.2946 46.3518 38.8466C46.6078 38.3986 46.7358 37.8546 46.7358 37.2146C46.7358 36.5746 46.6131 36.0359 46.3678 35.5986C46.1225 35.1506 45.7971 34.8146 45.3918 34.5906C44.9865 34.3666 44.5491 34.2546 44.0798 34.2546C43.6105 34.2546 43.1731 34.3666 42.7678 34.5906C42.3731 34.8146 42.0585 35.1506 41.8238 35.5986C41.5891 36.0359 41.4718 36.5746 41.4718 37.2146C41.4718 38.1639 41.7118 38.8999 42.1918 39.4226C42.6825 39.9346 43.2958 40.1906 44.0318 40.1906ZM53.8189 39.9986L56.3149 32.8146H58.2509L54.8909 41.6306H52.7149L49.3709 32.8146H51.3229L53.8189 39.9986ZM67.7097 37.0066C67.7097 37.3373 67.6884 37.6359 67.6457 37.9026H60.9097C60.963 38.6066 61.2244 39.1719 61.6937 39.5986C62.163 40.0253 62.739 40.2386 63.4217 40.2386C64.403 40.2386 65.0964 39.8279 65.5017 39.0066H67.4697C67.203 39.8173 66.7177 40.4839 66.0137 41.0066C65.3204 41.5186 64.4564 41.7746 63.4217 41.7746C62.579 41.7746 61.8217 41.5879 61.1497 41.2146C60.4884 40.8306 59.9657 40.2973 59.5817 39.6146C59.2084 38.9213 59.0217 38.1213 59.0217 37.2146C59.0217 36.3079 59.203 35.5133 59.5657 34.8306C59.939 34.1373 60.4564 33.6039 61.1177 33.2306C61.7897 32.8573 62.5577 32.6706 63.4217 32.6706C64.2537 32.6706 64.995 32.8519 65.6457 33.2146C66.2964 33.5773 66.803 34.0893 67.1657 34.7506C67.5284 35.4013 67.7097 36.1533 67.7097 37.0066ZM65.8057 36.4306C65.795 35.7586 65.555 35.2199 65.0857 34.8146C64.6164 34.4093 64.035 34.2066 63.3417 34.2066C62.7124 34.2066 62.1737 34.4093 61.7257 34.8146C61.2777 35.2093 61.011 35.7479 60.9257 36.4306H65.8057ZM73.9527 32.6706C74.646 32.6706 75.2647 32.8146 75.8087 33.1026C76.3634 33.3906 76.7954 33.8173 77.1047 34.3826C77.414 34.9479 77.5687 35.6306 77.5687 36.4306V41.6306H75.7607V36.7026C75.7607 35.9133 75.5634 35.3106 75.1687 34.8946C74.774 34.4679 74.2354 34.2546 73.5527 34.2546C72.87 34.2546 72.326 34.4679 71.9207 34.8946C71.526 35.3106 71.3287 35.9133 71.3287 36.7026V41.6306H69.5047V32.8146H71.3287V33.8226C71.6274 33.4599 72.006 33.1773 72.4647 32.9746C72.934 32.7719 73.43 32.6706 73.9527 32.6706ZM85.8756 30.5106V41.6306H84.0516V30.5106H85.8756ZM92.7183 32.6706C93.4116 32.6706 94.0303 32.8146 94.5743 33.1026C95.129 33.3906 95.561 33.8173 95.8703 34.3826C96.1796 34.9479 96.3343 35.6306 96.3343 36.4306V41.6306H94.5263V36.7026C94.5263 35.9133 94.329 35.3106 93.9343 34.8946C93.5396 34.4679 93.001 34.2546 92.3183 34.2546C91.6356 34.2546 91.0916 34.4679 90.6863 34.8946C90.2916 35.3106 90.0943 35.9133 90.0943 36.7026V41.6306H88.2703V32.8146H90.0943V33.8226C90.393 33.4599 90.7716 33.1773 91.2303 32.9746C91.6996 32.7719 92.1956 32.6706 92.7183 32.6706ZM98.0529 37.1826C98.0529 36.2973 98.2343 35.5133 98.5969 34.8306C98.9703 34.1479 99.4716 33.6199 100.101 33.2466C100.741 32.8626 101.45 32.6706 102.229 32.6706C102.805 32.6706 103.37 32.7986 103.925 33.0546C104.49 33.2999 104.938 33.6306 105.269 34.0466V29.7906H107.109V41.6306H105.269V40.3026C104.97 40.7293 104.554 41.0813 104.021 41.3586C103.498 41.6359 102.896 41.7746 102.213 41.7746C101.445 41.7746 100.741 41.5826 100.101 41.1986C99.4716 40.8039 98.9703 40.2599 98.5969 39.5666C98.2343 38.8626 98.0529 38.0679 98.0529 37.1826ZM105.269 37.2146C105.269 36.6066 105.141 36.0786 104.885 35.6306C104.64 35.1826 104.314 34.8413 103.909 34.6066C103.504 34.3719 103.066 34.2546 102.597 34.2546C102.128 34.2546 101.69 34.3719 101.285 34.6066C100.88 34.8306 100.549 35.1666 100.293 35.6146C100.048 36.0519 99.9249 36.5746 99.9249 37.1826C99.9249 37.7906 100.048 38.3239 100.293 38.7826C100.549 39.2413 100.88 39.5933 101.285 39.8386C101.701 40.0733 102.138 40.1906 102.597 40.1906C103.066 40.1906 103.504 40.0733 103.909 39.8386C104.314 39.6039 104.64 39.2626 104.885 38.8146C105.141 38.3559 105.269 37.8226 105.269 37.2146ZM117.489 32.8146V41.6306H115.665V40.5906C115.377 40.9533 114.998 41.2413 114.529 41.4546C114.07 41.6573 113.579 41.7586 113.057 41.7586C112.363 41.7586 111.739 41.6146 111.185 41.3266C110.641 41.0386 110.209 40.6119 109.889 40.0466C109.579 39.4813 109.425 38.7986 109.425 37.9986V32.8146H111.233V37.7266C111.233 38.5159 111.43 39.1239 111.825 39.5506C112.219 39.9666 112.758 40.1746 113.441 40.1746C114.123 40.1746 114.662 39.9666 115.057 39.5506C115.462 39.1239 115.665 38.5159 115.665 37.7266V32.8146H117.489ZM123.095 41.7746C122.402 41.7746 121.778 41.6519 121.223 41.4066C120.679 41.1506 120.247 40.8093 119.927 40.3826C119.607 39.9453 119.437 39.4599 119.415 38.9266H121.303C121.335 39.2999 121.511 39.6146 121.831 39.8706C122.162 40.1159 122.573 40.2386 123.063 40.2386C123.575 40.2386 123.97 40.1426 124.247 39.9506C124.535 39.7479 124.679 39.4919 124.679 39.1826C124.679 38.8519 124.519 38.6066 124.199 38.4466C123.89 38.2866 123.394 38.1106 122.711 37.9186C122.05 37.7373 121.511 37.5613 121.095 37.3906C120.679 37.2199 120.317 36.9586 120.007 36.6066C119.709 36.2546 119.559 35.7906 119.559 35.2146C119.559 34.7453 119.698 34.3186 119.975 33.9346C120.253 33.5399 120.647 33.2306 121.159 33.0066C121.682 32.7826 122.279 32.6706 122.951 32.6706C123.954 32.6706 124.759 32.9266 125.367 33.4386C125.986 33.9399 126.317 34.6279 126.359 35.5026H124.535C124.503 35.1079 124.343 34.7933 124.055 34.5586C123.767 34.3239 123.378 34.2066 122.887 34.2066C122.407 34.2066 122.039 34.2973 121.783 34.4786C121.527 34.6599 121.399 34.8999 121.399 35.1986C121.399 35.4333 121.485 35.6306 121.655 35.7906C121.826 35.9506 122.034 36.0786 122.279 36.1746C122.525 36.2599 122.887 36.3719 123.367 36.5106C124.007 36.6813 124.53 36.8573 124.935 37.0386C125.351 37.2093 125.709 37.4653 126.007 37.8066C126.306 38.1479 126.461 38.6013 126.471 39.1666C126.471 39.6679 126.333 40.1159 126.055 40.5106C125.778 40.9053 125.383 41.2146 124.871 41.4386C124.37 41.6626 123.778 41.7746 123.095 41.7746ZM130.57 34.3026V39.1826C130.57 39.5133 130.645 39.7533 130.794 39.9026C130.954 40.0413 131.221 40.1106 131.594 40.1106H132.714V41.6306H131.274C130.453 41.6306 129.824 41.4386 129.386 41.0546C128.949 40.6706 128.73 40.0466 128.73 39.1826V34.3026H127.69V32.8146H128.73V30.6226H130.57V32.8146H132.714V34.3026H130.57ZM136.219 34.0946C136.486 33.6466 136.838 33.2999 137.275 33.0546C137.723 32.7986 138.251 32.6706 138.859 32.6706V34.5586H138.395C137.681 34.5586 137.137 34.7399 136.763 35.1026C136.401 35.4653 136.219 36.0946 136.219 36.9906V41.6306H134.395V32.8146H136.219V34.0946ZM148.472 32.8146L143.064 45.7746H141.176L142.968 41.4866L139.496 32.8146H141.528L144.008 39.5346L146.584 32.8146H148.472ZM57.4068 64.1586H61.1668V65.6306H55.5828V54.5106H57.4068V64.1586ZM70.7722 61.0066C70.7722 61.3373 70.7509 61.6359 70.7082 61.9026H63.9722C64.0255 62.6066 64.2869 63.1719 64.7562 63.5986C65.2255 64.0253 65.8015 64.2386 66.4842 64.2386C67.4655 64.2386 68.1589 63.8279 68.5642 63.0066H70.5322C70.2655 63.8173 69.7802 64.4839 69.0762 65.0066C68.3829 65.5186 67.5189 65.7746 66.4842 65.7746C65.6415 65.7746 64.8842 65.5879 64.2122 65.2146C63.5509 64.8306 63.0282 64.2973 62.6442 63.6146C62.2709 62.9213 62.0842 62.1213 62.0842 61.2146C62.0842 60.3079 62.2655 59.5133 62.6282 58.8306C63.0015 58.1373 63.5189 57.6039 64.1802 57.2306C64.8522 56.8573 65.6202 56.6706 66.4842 56.6706C67.3162 56.6706 68.0575 56.8519 68.7082 57.2146C69.3589 57.5773 69.8655 58.0893 70.2282 58.7506C70.5909 59.4013 70.7722 60.1533 70.7722 61.0066ZM68.8682 60.4306C68.8575 59.7586 68.6175 59.2199 68.1482 58.8146C67.6789 58.4093 67.0975 58.2066 66.4042 58.2066C65.7749 58.2066 65.2362 58.4093 64.7882 58.8146C64.3402 59.2093 64.0735 59.7479 63.9882 60.4306H68.8682ZM71.9592 61.1826C71.9592 60.2973 72.1405 59.5133 72.5032 58.8306C72.8765 58.1479 73.3779 57.6199 74.0072 57.2466C74.6472 56.8626 75.3512 56.6706 76.1192 56.6706C76.8125 56.6706 77.4152 56.8093 77.9272 57.0866C78.4499 57.3533 78.8659 57.6893 79.1752 58.0946V56.8146H81.0152V65.6306H79.1752V64.3186C78.8659 64.7346 78.4445 65.0813 77.9112 65.3586C77.3779 65.6359 76.7699 65.7746 76.0872 65.7746C75.3299 65.7746 74.6365 65.5826 74.0072 65.1986C73.3779 64.8039 72.8765 64.2599 72.5032 63.5666C72.1405 62.8626 71.9592 62.0679 71.9592 61.1826ZM79.1752 61.2146C79.1752 60.6066 79.0472 60.0786 78.7912 59.6306C78.5459 59.1826 78.2205 58.8413 77.8152 58.6066C77.4099 58.3719 76.9725 58.2546 76.5032 58.2546C76.0339 58.2546 75.5965 58.3719 75.1912 58.6066C74.7859 58.8306 74.4552 59.1666 74.1992 59.6146C73.9539 60.0519 73.8312 60.5746 73.8312 61.1826C73.8312 61.7906 73.9539 62.3239 74.1992 62.7826C74.4552 63.2413 74.7859 63.5933 75.1912 63.8386C75.6072 64.0733 76.0445 64.1906 76.5032 64.1906C76.9725 64.1906 77.4099 64.0733 77.8152 63.8386C78.2205 63.6039 78.5459 63.2626 78.7912 62.8146C79.0472 62.3559 79.1752 61.8226 79.1752 61.2146ZM82.8029 61.1826C82.8029 60.2973 82.9843 59.5133 83.3469 58.8306C83.7203 58.1479 84.2216 57.6199 84.8509 57.2466C85.4909 56.8626 86.2003 56.6706 86.9789 56.6706C87.5549 56.6706 88.1203 56.7986 88.6749 57.0546C89.2403 57.2999 89.6883 57.6306 90.0189 58.0466V53.7906H91.8589V65.6306H90.0189V64.3026C89.7203 64.7293 89.3043 65.0813 88.7709 65.3586C88.2483 65.6359 87.6456 65.7746 86.9629 65.7746C86.1949 65.7746 85.4909 65.5826 84.8509 65.1986C84.2216 64.8039 83.7203 64.2599 83.3469 63.5666C82.9843 62.8626 82.8029 62.0679 82.8029 61.1826ZM90.0189 61.2146C90.0189 60.6066 89.8909 60.0786 89.6349 59.6306C89.3896 59.1826 89.0643 58.8413 88.6589 58.6066C88.2536 58.3719 87.8163 58.2546 87.3469 58.2546C86.8776 58.2546 86.4403 58.3719 86.0349 58.6066C85.6296 58.8306 85.2989 59.1666 85.0429 59.6146C84.7976 60.0519 84.6749 60.5746 84.6749 61.1826C84.6749 61.7906 84.7976 62.3239 85.0429 62.7826C85.2989 63.2413 85.6296 63.5933 86.0349 63.8386C86.4509 64.0733 86.8883 64.1906 87.3469 64.1906C87.8163 64.1906 88.2536 64.0733 88.6589 63.8386C89.0643 63.6039 89.3896 63.2626 89.6349 62.8146C89.8909 62.3559 90.0189 61.8226 90.0189 61.2146ZM102.335 61.0066C102.335 61.3373 102.313 61.6359 102.271 61.9026H95.5347C95.588 62.6066 95.8493 63.1719 96.3187 63.5986C96.788 64.0253 97.364 64.2386 98.0467 64.2386C99.028 64.2386 99.7213 63.8279 100.127 63.0066H102.095C101.828 63.8173 101.343 64.4839 100.639 65.0066C99.9453 65.5186 99.0813 65.7746 98.0467 65.7746C97.204 65.7746 96.4467 65.5879 95.7747 65.2146C95.1133 64.8306 94.5907 64.2973 94.2067 63.6146C93.8333 62.9213 93.6467 62.1213 93.6467 61.2146C93.6467 60.3079 93.828 59.5133 94.1907 58.8306C94.564 58.1373 95.0813 57.6039 95.7427 57.2306C96.4147 56.8573 97.1827 56.6706 98.0467 56.6706C98.8787 56.6706 99.62 56.8519 100.271 57.2146C100.921 57.5773 101.428 58.0893 101.791 58.7506C102.153 59.4013 102.335 60.1533 102.335 61.0066ZM100.431 60.4306C100.42 59.7586 100.18 59.2199 99.7107 58.8146C99.2413 58.4093 98.66 58.2066 97.9667 58.2066C97.3373 58.2066 96.7987 58.4093 96.3507 58.8146C95.9027 59.2093 95.636 59.7479 95.5507 60.4306H100.431ZM105.954 58.0946C106.22 57.6466 106.572 57.2999 107.01 57.0546C107.458 56.7986 107.986 56.6706 108.594 56.6706V58.5586H108.13C107.415 58.5586 106.871 58.7399 106.498 59.1026C106.135 59.4653 105.954 60.0946 105.954 60.9906V65.6306H104.13V56.8146H105.954V58.0946ZM113.47 65.7746C112.777 65.7746 112.153 65.6519 111.598 65.4066C111.054 65.1506 110.622 64.8093 110.302 64.3826C109.982 63.9453 109.812 63.4599 109.79 62.9266H111.678C111.71 63.2999 111.886 63.6146 112.206 63.8706C112.537 64.1159 112.948 64.2386 113.438 64.2386C113.95 64.2386 114.345 64.1426 114.622 63.9506C114.91 63.7479 115.054 63.4919 115.054 63.1826C115.054 62.8519 114.894 62.6066 114.574 62.4466C114.265 62.2866 113.769 62.1106 113.086 61.9186C112.425 61.7373 111.886 61.5613 111.47 61.3906C111.054 61.2199 110.692 60.9586 110.382 60.6066C110.084 60.2546 109.934 59.7906 109.934 59.2146C109.934 58.7453 110.073 58.3186 110.35 57.9346C110.628 57.5399 111.022 57.2306 111.534 57.0066C112.057 56.7826 112.654 56.6706 113.326 56.6706C114.329 56.6706 115.134 56.9266 115.742 57.4386C116.361 57.9399 116.692 58.6279 116.734 59.5026H114.91C114.878 59.1079 114.718 58.7933 114.43 58.5586C114.142 58.3239 113.753 58.2066 113.262 58.2066C112.782 58.2066 112.414 58.2973 112.158 58.4786C111.902 58.6599 111.774 58.8999 111.774 59.1986C111.774 59.4333 111.86 59.6306 112.03 59.7906C112.201 59.9506 112.409 60.0786 112.654 60.1746C112.9 60.2599 113.262 60.3719 113.742 60.5106C114.382 60.6813 114.905 60.8573 115.31 61.0386C115.726 61.2093 116.084 61.4653 116.382 61.8066C116.681 62.1479 116.836 62.6013 116.846 63.1666C116.846 63.6679 116.708 64.1159 116.43 64.5106C116.153 64.9053 115.758 65.2146 115.246 65.4386C114.745 65.6626 114.153 65.7746 113.47 65.7746Z" fill="#474E68"/>
</g>
</g>
<defs>
<filter id="filter0_i_889_7037" x="0" y="0" width="172" height="192" filterUnits="userSpaceOnUse" color-interpolation-filters="sRGB">
<feFlood flood-opacity="0" result="BackgroundImageFix"/>
<feBlend mode="normal" in="SourceGraphic" in2="BackgroundImageFix" result="shape"/>
<feColorMatrix in="SourceAlpha" type="matrix" values="0 0 0 0 0 0 0 0 0 0 0 0 0 0 0 0 0 0 127 0" result="hardAlpha"/>
<feOffset/>
<feGaussianBlur stdDeviation="3"/>
<feComposite in2="hardAlpha" operator="arithmetic" k2="-1" k3="1"/>
<feColorMatrix type="matrix" values="0 0 0 0 0.282353 0 0 0 0 0.282353 0 0 0 0 0.282353 0 0 0 0.25 0"/>
<feBlend mode="normal" in2="shape" result="effect1_innerShadow_889_7037"/>
</filter>
<clipPath id="clip0_889_7037">
<rect width="172" height="192" rx="20" fill="white"/>
</clipPath>
</defs>
</svg>
