<svg width="307" height="609" viewBox="0 0 307 609" fill="none" xmlns="http://www.w3.org/2000/svg">
<g filter="url(#filter0_i_1226_10192)">
<g clip-path="url(#clip0_1226_10192)">
<rect x="103.5" width="100" height="100" rx="50" fill="white"/>
<path d="M203.5 0H103.5V100H203.5V0Z" fill="white"/>
<path d="M103.5 69.3333L105.589 67.8833C107.689 66.45 111.867 63.55 116.033 61.6167C120.2 59.6667 124.356 58.6667 128.522 59.2833C132.689 59.8833 136.867 62.1167 141.033 62.7C145.2 63.2833 149.356 62.2167 153.522 62.3667C157.689 62.5 161.867 63.8333 166.033 65.2167C170.2 66.6167 174.356 68.05 178.522 68.8333C182.689 69.6167 186.867 69.7167 191.033 68.2833C195.2 66.8333 199.356 63.8333 201.422 62.3333L203.5 60.8333V100.167H201.422C199.356 100.167 195.2 100.167 191.033 100.167C186.867 100.167 182.689 100.167 178.522 100.167C174.356 100.167 170.2 100.167 166.033 100.167C161.867 100.167 157.689 100.167 153.522 100.167C149.356 100.167 145.2 100.167 141.033 100.167C136.867 100.167 132.689 100.167 128.522 100.167C124.356 100.167 120.2 100.167 116.033 100.167C111.867 100.167 107.689 100.167 105.589 100.167H103.5V69.3333Z" fill="#FFFAC3"/>
<path d="M103.5 64.8333L105.589 65.7833C107.689 66.7166 111.867 68.6166 116.033 69.3833C120.2 70.1666 124.356 69.8333 128.522 70.2166C132.689 70.6166 136.867 71.7166 141.033 72.95C145.2 74.1666 149.356 75.5 153.522 75.4666C157.689 75.45 161.867 74.05 166.033 72.5333C170.2 71 174.356 69.3333 178.522 69.55C182.689 69.7833 186.867 71.8833 191.033 72.5833C195.2 73.2833 199.356 72.55 201.422 72.2L203.5 71.8333V100.167H201.422C199.356 100.167 195.2 100.167 191.033 100.167C186.867 100.167 182.689 100.167 178.522 100.167C174.356 100.167 170.2 100.167 166.033 100.167C161.867 100.167 157.689 100.167 153.522 100.167C149.356 100.167 145.2 100.167 141.033 100.167C136.867 100.167 132.689 100.167 128.522 100.167C124.356 100.167 120.2 100.167 116.033 100.167C111.867 100.167 107.689 100.167 105.589 100.167H103.5V64.8333Z" fill="#F8F2A9"/>
<path d="M103.5 78.6667L105.589 78.0333C107.689 77.3833 111.867 76.1167 116.033 76.0333C120.2 75.95 124.356 77.05 128.522 77.25C132.689 77.45 136.867 76.7167 141.033 75.7C145.2 74.6667 149.356 73.3333 153.522 74.25C157.689 75.1667 161.867 78.3333 166.033 79.2C170.2 80.05 174.356 78.6167 178.522 78.3C182.689 78 186.867 78.8333 191.033 78.6167C195.2 78.3833 199.356 77.1167 201.422 76.4667L203.5 75.8333V100.167H201.422C199.356 100.167 195.2 100.167 191.033 100.167C186.867 100.167 182.689 100.167 178.522 100.167C174.356 100.167 170.2 100.167 166.033 100.167C161.867 100.167 157.689 100.167 153.522 100.167C149.356 100.167 145.2 100.167 141.033 100.167C136.867 100.167 132.689 100.167 128.522 100.167C124.356 100.167 120.2 100.167 116.033 100.167C111.867 100.167 107.689 100.167 105.589 100.167H103.5V78.6667Z" fill="#F1E98F"/>
<path d="M103.5 82.3333L105.589 83.3833C107.689 84.45 111.867 86.55 116.033 86.8C120.2 87.05 124.356 85.45 128.522 84.6667C132.689 83.8833 136.867 83.95 141.033 84.2167C145.2 84.5 149.356 85 153.522 84.75C157.689 84.5 161.867 83.5 166.033 84.2167C170.2 84.95 174.356 87.3833 178.522 87.3833C182.689 87.3833 186.867 84.95 191.033 84.05C195.2 83.1667 199.356 83.8333 201.422 84.1667L203.5 84.5V100.167H201.422C199.356 100.167 195.2 100.167 191.033 100.167C186.867 100.167 182.689 100.167 178.522 100.167C174.356 100.167 170.2 100.167 166.033 100.167C161.867 100.167 157.689 100.167 153.522 100.167C149.356 100.167 145.2 100.167 141.033 100.167C136.867 100.167 132.689 100.167 128.522 100.167C124.356 100.167 120.2 100.167 116.033 100.167C111.867 100.167 107.689 100.167 105.589 100.167H103.5V82.3333Z" fill="#EAE075"/>
<path d="M103.5 94.8333L105.589 94.4167C107.689 94 111.867 93.1667 116.033 92.3667C120.2 91.55 124.356 90.7833 128.522 90.6167C132.689 90.45 136.867 90.8833 141.033 91.4167C145.2 91.95 149.356 92.55 153.522 93.3833C157.689 94.2167 161.867 95.2833 166.033 94.3C170.2 93.3333 174.356 90.3333 178.522 89.45C182.689 88.55 186.867 89.7833 191.033 90.2167C195.2 90.6667 199.356 90.3333 201.422 90.1667L203.5 90V100.167H201.422C199.356 100.167 195.2 100.167 191.033 100.167C186.867 100.167 182.689 100.167 178.522 100.167C174.356 100.167 170.2 100.167 166.033 100.167C161.867 100.167 157.689 100.167 153.522 100.167C149.356 100.167 145.2 100.167 141.033 100.167C136.867 100.167 132.689 100.167 128.522 100.167C124.356 100.167 120.2 100.167 116.033 100.167C111.867 100.167 107.689 100.167 105.589 100.167H103.5V94.8333Z" fill="#E2D759"/>
<path d="M143 39H141.5C139.843 39 138.5 37.6569 138.5 36V30C138.5 28.3431 139.843 27 141.5 27H165.5C167.157 27 168.5 28.3431 168.5 30V36C168.5 37.6569 167.157 39 165.5 39M148.162 52.3649L148.636 35.4772L163.498 43.5107L158.152 45.319L162.579 52.9869L156.828 56.3073L152.401 48.6393L148.162 52.3649Z" stroke="#808195" stroke-width="1.5" stroke-linecap="round" stroke-linejoin="round"/>
</g>
</g>
<path d="M64.2409 136.46C64.2409 133.9 66.3609 132.12 69.4409 132.12C72.4009 132.12 74.2809 133.76 74.3609 136.4H71.8009C71.7409 135.14 70.8409 134.4 69.4009 134.4C67.8209 134.4 66.8009 135.16 66.8009 136.38C66.8009 137.42 67.3609 138 68.5809 138.28L70.8809 138.78C73.3809 139.32 74.6009 140.6 74.6009 142.78C74.6009 145.5 72.4809 147.26 69.2609 147.26C66.1409 147.26 64.1009 145.6 64.0409 142.98H66.6009C66.6209 144.22 67.6209 144.96 69.2609 144.96C70.9609 144.96 72.0409 144.22 72.0409 143C72.0409 142.02 71.5409 141.44 70.3409 141.18L68.0209 140.66C65.5409 140.12 64.2409 138.7 64.2409 136.46ZM77.7769 135.14C76.9369 135.14 76.2769 134.48 76.2769 133.66C76.2769 132.84 76.9369 132.2 77.7769 132.2C78.5769 132.2 79.2369 132.84 79.2369 133.66C79.2369 134.48 78.5769 135.14 77.7769 135.14ZM76.5569 147V137.12H78.9969V147H76.5569ZM80.9578 141.84C80.9578 138.96 82.8378 136.8 85.6578 136.8C87.1378 136.8 88.2978 137.42 88.8778 138.48L89.0178 137.12H91.2778V146.5C91.2778 149.8 89.2978 151.86 86.0978 151.86C83.2578 151.86 81.3178 150.24 81.0178 147.6H83.4578C83.6178 148.88 84.5978 149.64 86.0978 149.64C87.7778 149.64 88.8578 148.58 88.8578 146.94V145.3C88.2378 146.22 87.0178 146.8 85.5978 146.8C82.7978 146.8 80.9578 144.7 80.9578 141.84ZM83.4178 141.78C83.4178 143.44 84.4778 144.68 86.0778 144.68C87.7578 144.68 88.7978 143.5 88.7978 141.78C88.7978 140.1 87.7778 138.94 86.0778 138.94C84.4578 138.94 83.4178 140.16 83.4178 141.78ZM96.243 147H93.803V137.12H96.063L96.263 138.4C96.883 137.4 98.083 136.82 99.423 136.82C101.903 136.82 103.183 138.36 103.183 140.92V147H100.743V141.5C100.743 139.84 99.923 139.04 98.663 139.04C97.163 139.04 96.243 140.08 96.243 141.68V147ZM111.231 141.66V132.38H113.791V141.5C113.791 143.6 114.931 144.76 117.011 144.76C119.091 144.76 120.251 143.58 120.251 141.5V132.38H122.811V141.66C122.811 145.08 120.571 147.24 117.011 147.24C113.471 147.24 111.231 145.1 111.231 141.66ZM125.6 151.58V137.12H127.86L128.02 138.62C128.62 137.48 129.92 136.82 131.42 136.82C134.2 136.82 136.04 138.84 136.04 141.94C136.04 145.02 134.36 147.26 131.42 147.26C129.94 147.26 128.66 146.68 128.04 145.68V151.58H125.6ZM128.06 142.06C128.06 143.84 129.16 145.06 130.84 145.06C132.56 145.06 133.58 143.82 133.58 142.06C133.58 140.3 132.56 139.04 130.84 139.04C129.16 139.04 128.06 140.28 128.06 142.06ZM144.593 135.14C143.753 135.14 143.093 134.48 143.093 133.66C143.093 132.84 143.753 132.2 144.593 132.2C145.393 132.2 146.053 132.84 146.053 133.66C146.053 134.48 145.393 135.14 144.593 135.14ZM143.373 147V137.12H145.813V147H143.373ZM150.774 147H148.334V137.12H150.594L150.794 138.4C151.414 137.4 152.614 136.82 153.954 136.82C156.434 136.82 157.714 138.36 157.714 140.92V147H155.274V141.5C155.274 139.84 154.454 139.04 153.194 139.04C151.694 139.04 150.774 140.08 150.774 141.68V147ZM165.022 136.46C165.022 133.9 167.142 132.12 170.222 132.12C173.182 132.12 175.062 133.76 175.142 136.4H172.582C172.522 135.14 171.622 134.4 170.182 134.4C168.602 134.4 167.582 135.16 167.582 136.38C167.582 137.42 168.142 138 169.362 138.28L171.662 138.78C174.162 139.32 175.382 140.6 175.382 142.78C175.382 145.5 173.262 147.26 170.042 147.26C166.922 147.26 164.882 145.6 164.822 142.98H167.382C167.402 144.22 168.402 144.96 170.042 144.96C171.742 144.96 172.822 144.22 172.822 143C172.822 142.02 172.322 141.44 171.122 141.18L168.802 140.66C166.322 140.12 165.022 138.7 165.022 136.46ZM181.758 147.26C178.818 147.26 176.758 145.12 176.758 142.06C176.758 138.96 178.778 136.82 181.678 136.82C184.638 136.82 186.518 138.8 186.518 141.88V142.62L179.078 142.64C179.258 144.38 180.178 145.26 181.798 145.26C183.138 145.26 184.018 144.74 184.298 143.8H186.558C186.138 145.96 184.338 147.26 181.758 147.26ZM181.698 138.82C180.258 138.82 179.378 139.6 179.138 141.08H184.098C184.098 139.72 183.158 138.82 181.698 138.82ZM187.891 142.04C187.891 138.98 189.911 136.82 192.831 136.82C195.531 136.82 197.371 138.32 197.631 140.7H195.191C194.911 139.58 194.091 139 192.931 139C191.371 139 190.331 140.18 190.331 142.04C190.331 143.9 191.291 145.06 192.851 145.06C194.071 145.06 194.931 144.46 195.191 143.38H197.651C197.351 145.68 195.431 147.26 192.851 147.26C189.851 147.26 187.891 145.18 187.891 142.04ZM198.887 142.04C198.887 138.96 201.107 136.84 204.167 136.84C207.227 136.84 209.447 138.96 209.447 142.04C209.447 145.12 207.227 147.24 204.167 147.24C201.107 147.24 198.887 145.12 198.887 142.04ZM201.327 142.04C201.327 143.84 202.487 145.06 204.167 145.06C205.847 145.06 207.007 143.84 207.007 142.04C207.007 140.24 205.847 139.02 204.167 139.02C202.487 139.02 201.327 140.24 201.327 142.04ZM213.821 147H211.381V137.12H213.641L213.841 138.4C214.461 137.4 215.661 136.82 217.001 136.82C219.481 136.82 220.761 138.36 220.761 140.92V147H218.321V141.5C218.321 139.84 217.501 139.04 216.241 139.04C214.741 139.04 213.821 140.08 213.821 141.68V147ZM227.218 147.26C224.358 147.26 222.578 145.16 222.578 142.1C222.578 139.02 224.378 136.82 227.358 136.82C228.738 136.82 229.958 137.4 230.578 138.38V132.12H232.998V147H230.758L230.598 145.46C229.998 146.6 228.718 147.26 227.218 147.26ZM227.758 145.02C229.458 145.02 230.558 143.8 230.558 142.02C230.558 140.24 229.458 139 227.758 139C226.058 139 225.018 140.26 225.018 142.02C225.018 143.78 226.058 145.02 227.758 145.02ZM234.781 144H237.101C237.121 144.86 237.761 145.4 238.881 145.4C240.021 145.4 240.641 144.94 240.641 144.22C240.641 143.72 240.381 143.36 239.501 143.16L237.721 142.74C235.941 142.34 235.081 141.5 235.081 139.92C235.081 137.98 236.721 136.82 239.001 136.82C241.221 136.82 242.721 138.1 242.741 140.02H240.421C240.401 139.18 239.841 138.64 238.901 138.64C237.941 138.64 237.381 139.08 237.381 139.82C237.381 140.38 237.821 140.74 238.661 140.94L240.441 141.36C242.101 141.74 242.941 142.5 242.941 144.02C242.941 146.02 241.241 147.26 238.801 147.26C236.341 147.26 234.781 145.94 234.781 144Z" fill="#474E68"/>
<g filter="url(#filter1_i_1226_10192)">
<g clip-path="url(#clip1_1226_10192)">
<path d="M203.5 223H103.5V323H203.5V223Z" fill="white"/>
<path d="M103.5 292.333L105.589 290.883C107.689 289.45 111.867 286.55 116.033 284.617C120.2 282.667 124.356 281.667 128.522 282.283C132.689 282.883 136.867 285.117 141.033 285.7C145.2 286.283 149.356 285.217 153.522 285.367C157.689 285.5 161.867 286.833 166.033 288.217C170.2 289.617 174.356 291.05 178.522 291.833C182.689 292.617 186.867 292.717 191.033 291.283C195.2 289.833 199.356 286.833 201.422 285.333L203.5 283.833V323.167H201.422C199.356 323.167 195.2 323.167 191.033 323.167C186.867 323.167 182.689 323.167 178.522 323.167C174.356 323.167 170.2 323.167 166.033 323.167C161.867 323.167 157.689 323.167 153.522 323.167C149.356 323.167 145.2 323.167 141.033 323.167C136.867 323.167 132.689 323.167 128.522 323.167C124.356 323.167 120.2 323.167 116.033 323.167C111.867 323.167 107.689 323.167 105.589 323.167H103.5V292.333Z" fill="#FFE1E5"/>
<path d="M103.5 287.833L105.589 288.783C107.689 289.717 111.867 291.617 116.033 292.383C120.2 293.167 124.356 292.833 128.522 293.217C132.689 293.617 136.867 294.717 141.033 295.95C145.2 297.167 149.356 298.5 153.522 298.467C157.689 298.45 161.867 297.05 166.033 295.533C170.2 294 174.356 292.333 178.522 292.55C182.689 292.783 186.867 294.883 191.033 295.583C195.2 296.283 199.356 295.55 201.422 295.2L203.5 294.833V323.167H201.422C199.356 323.167 195.2 323.167 191.033 323.167C186.867 323.167 182.689 323.167 178.522 323.167C174.356 323.167 170.2 323.167 166.033 323.167C161.867 323.167 157.689 323.167 153.522 323.167C149.356 323.167 145.2 323.167 141.033 323.167C136.867 323.167 132.689 323.167 128.522 323.167C124.356 323.167 120.2 323.167 116.033 323.167C111.867 323.167 107.689 323.167 105.589 323.167H103.5V287.833Z" fill="#FFC6CD"/>
<path d="M103.5 301.667L105.589 301.033C107.689 300.383 111.867 299.117 116.033 299.033C120.2 298.95 124.356 300.05 128.522 300.25C132.689 300.45 136.867 299.717 141.033 298.7C145.2 297.667 149.356 296.333 153.522 297.25C157.689 298.167 161.867 301.333 166.033 302.2C170.2 303.05 174.356 301.617 178.522 301.3C182.689 301 186.867 301.833 191.033 301.617C195.2 301.383 199.356 300.117 201.422 299.467L203.5 298.833V323.167H201.422C199.356 323.167 195.2 323.167 191.033 323.167C186.867 323.167 182.689 323.167 178.522 323.167C174.356 323.167 170.2 323.167 166.033 323.167C161.867 323.167 157.689 323.167 153.522 323.167C149.356 323.167 145.2 323.167 141.033 323.167C136.867 323.167 132.689 323.167 128.522 323.167C124.356 323.167 120.2 323.167 116.033 323.167C111.867 323.167 107.689 323.167 105.589 323.167H103.5V301.667Z" fill="#FFABB5"/>
<path d="M103.5 305.333L105.589 306.383C107.689 307.45 111.867 309.55 116.033 309.8C120.2 310.05 124.356 308.45 128.522 307.667C132.689 306.883 136.867 306.95 141.033 307.217C145.2 307.5 149.356 308 153.522 307.75C157.689 307.5 161.867 306.5 166.033 307.217C170.2 307.95 174.356 310.383 178.522 310.383C182.689 310.383 186.867 307.95 191.033 307.05C195.2 306.167 199.356 306.833 201.422 307.167L203.5 307.5V323.167H201.422C199.356 323.167 195.2 323.167 191.033 323.167C186.867 323.167 182.689 323.167 178.522 323.167C174.356 323.167 170.2 323.167 166.033 323.167C161.867 323.167 157.689 323.167 153.522 323.167C149.356 323.167 145.2 323.167 141.033 323.167C136.867 323.167 132.689 323.167 128.522 323.167C124.356 323.167 120.2 323.167 116.033 323.167C111.867 323.167 107.689 323.167 105.589 323.167H103.5V305.333Z" fill="#FF8F9C"/>
<path d="M103.5 317.833L105.589 317.417C107.689 317 111.867 316.167 116.033 315.367C120.2 314.55 124.356 313.783 128.522 313.617C132.689 313.45 136.867 313.883 141.033 314.417C145.2 314.95 149.356 315.55 153.522 316.383C157.689 317.217 161.867 318.283 166.033 317.3C170.2 316.333 174.356 313.333 178.522 312.45C182.689 311.55 186.867 312.783 191.033 313.217C195.2 313.667 199.356 313.333 201.422 313.167L203.5 313V323.167H201.422C199.356 323.167 195.2 323.167 191.033 323.167C186.867 323.167 182.689 323.167 178.522 323.167C174.356 323.167 170.2 323.167 166.033 323.167C161.867 323.167 157.689 323.167 153.522 323.167C149.356 323.167 145.2 323.167 141.033 323.167C136.867 323.167 132.689 323.167 128.522 323.167C124.356 323.167 120.2 323.167 116.033 323.167C111.867 323.167 107.689 323.167 105.589 323.167H103.5V317.833Z" fill="#FF7083"/>
<path d="M153.501 254.5C153.503 253.9 153.385 253.306 153.154 252.752C152.922 252.199 152.583 251.697 152.155 251.276C151.727 250.856 151.219 250.525 150.661 250.304C150.104 250.083 149.507 249.975 148.907 249.988C148.308 250 147.716 250.133 147.168 250.377C146.62 250.621 146.127 250.973 145.717 251.411C145.307 251.848 144.988 252.364 144.78 252.927C144.572 253.489 144.479 254.088 144.506 254.687C143.624 254.914 142.805 255.339 142.112 255.928C141.419 256.518 140.869 257.258 140.503 258.092C140.138 258.926 139.968 259.832 140.005 260.742C140.042 261.652 140.285 262.541 140.717 263.343C139.958 263.959 139.361 264.751 138.979 265.651C138.596 266.55 138.439 267.53 138.521 268.504C138.603 269.478 138.922 270.417 139.45 271.24C139.978 272.063 140.699 272.744 141.551 273.224C141.446 274.038 141.508 274.864 141.735 275.652C141.962 276.44 142.348 277.174 142.869 277.807C143.39 278.44 144.036 278.96 144.766 279.334C145.495 279.708 146.294 279.928 147.113 279.981C147.931 280.034 148.752 279.919 149.524 279.642C150.296 279.366 151.003 278.934 151.602 278.374C152.201 277.813 152.678 277.136 153.005 276.384C153.331 275.631 153.5 274.82 153.501 274V254.5Z" stroke="#808195" stroke-width="1.5" stroke-linecap="round" stroke-linejoin="round"/>
<path d="M149 266.5C150.259 266.057 151.359 265.25 152.16 264.183C152.961 263.115 153.427 261.833 153.5 260.5" stroke="#808195" stroke-width="2" stroke-linecap="round" stroke-linejoin="round"/>
<path d="M144.504 254.688C144.534 255.413 144.738 256.121 145.101 256.75" stroke="#808195" stroke-width="2" stroke-linecap="round" stroke-linejoin="round"/>
<path d="M140.715 263.344C140.989 263.121 141.283 262.922 141.592 262.75" stroke="#808195" stroke-width="2" stroke-linecap="round" stroke-linejoin="round"/>
<path d="M144.501 274C143.468 274 142.451 273.734 141.551 273.226" stroke="#808195" stroke-width="2" stroke-linecap="round" stroke-linejoin="round"/>
<path d="M153.5 266.5H159.5" stroke="#808195" stroke-width="1.5" stroke-linecap="round" stroke-linejoin="round"/>
<path d="M153.5 274H162.5C163.296 274 164.059 274.316 164.621 274.879C165.184 275.441 165.5 276.204 165.5 277V278.5" stroke="#808195" stroke-width="1.5" stroke-linecap="round" stroke-linejoin="round"/>
<path d="M153.5 259H165.5" stroke="#808195" stroke-width="1.5" stroke-linecap="round" stroke-linejoin="round"/>
<path d="M159.5 259V254.5C159.5 253.704 159.816 252.941 160.379 252.379C160.941 251.816 161.704 251.5 162.5 251.5" stroke="#808195" stroke-width="1.5" stroke-linecap="round" stroke-linejoin="round"/>
<path d="M159.5 267.25C159.914 267.25 160.25 266.914 160.25 266.5C160.25 266.086 159.914 265.75 159.5 265.75C159.086 265.75 158.75 266.086 158.75 266.5C158.75 266.914 159.086 267.25 159.5 267.25Z" stroke="#808195" stroke-width="1.5" stroke-linecap="round" stroke-linejoin="round"/>
<path d="M162.5 252.25C162.914 252.25 163.25 251.914 163.25 251.5C163.25 251.086 162.914 250.75 162.5 250.75C162.086 250.75 161.75 251.086 161.75 251.5C161.75 251.914 162.086 252.25 162.5 252.25Z" stroke="#808195" stroke-width="1.5" stroke-linecap="round" stroke-linejoin="round"/>
<path d="M165.5 279.25C165.914 279.25 166.25 278.914 166.25 278.5C166.25 278.086 165.914 277.75 165.5 277.75C165.086 277.75 164.75 278.086 164.75 278.5C164.75 278.914 165.086 279.25 165.5 279.25Z" stroke="#808195" stroke-width="1.5" stroke-linecap="round" stroke-linejoin="round"/>
<path d="M165.5 259.75C165.914 259.75 166.25 259.414 166.25 259C166.25 258.586 165.914 258.25 165.5 258.25C165.086 258.25 164.75 258.586 164.75 259C164.75 259.414 165.086 259.75 165.5 259.75Z" stroke="#808195" stroke-width="1.5" stroke-linecap="round" stroke-linejoin="round"/>
</g>
</g>
<path d="M10.3851 355.38V367.64H16.5051V370H7.82508V355.38H10.3851ZM22.4515 370.26C19.5115 370.26 17.4515 368.12 17.4515 365.06C17.4515 361.96 19.4715 359.82 22.3715 359.82C25.3315 359.82 27.2115 361.8 27.2115 364.88V365.62L19.7715 365.64C19.9515 367.38 20.8715 368.26 22.4915 368.26C23.8315 368.26 24.7115 367.74 24.9915 366.8H27.2515C26.8315 368.96 25.0315 370.26 22.4515 370.26ZM22.3915 361.82C20.9515 361.82 20.0715 362.6 19.8315 364.08H24.7915C24.7915 362.72 23.8515 361.82 22.3915 361.82ZM32.4266 370H29.9866V362.16H28.0866V360.12H29.9866V357.04H32.4266V360.12H34.3466V362.16H32.4266V370ZM42.8741 370H40.2141L45.4941 355.38H48.1141L53.3941 370H50.6941L49.5141 366.62H44.0541L42.8741 370ZM46.4741 359.74L44.8141 364.46H48.7741L47.0941 359.74C46.9741 359.36 46.8341 358.92 46.7941 358.62C46.7341 358.9 46.6141 359.34 46.4741 359.74ZM57.7874 355.38V370H55.2274V355.38H57.7874ZM66.4188 370V355.38H72.2388C75.1188 355.38 76.8788 356.88 76.8788 359.32C76.8788 360.94 76.1588 362.1 74.7788 362.68C76.3188 363.18 77.0988 364.34 77.0988 366.04C77.0988 368.54 75.3588 370 72.3388 370H66.4188ZM72.0188 357.64H68.9788V361.62H72.0788C73.4788 361.62 74.2588 360.88 74.2588 359.58C74.2588 358.32 73.4588 357.64 72.0188 357.64ZM72.2388 363.78H68.9788V367.74H72.2388C73.6788 367.74 74.4788 367.04 74.4788 365.72C74.4788 364.48 73.6588 363.78 72.2388 363.78ZM83.5062 370.26C80.5662 370.26 78.5062 368.12 78.5062 365.06C78.5062 361.96 80.5262 359.82 83.4262 359.82C86.3862 359.82 88.2662 361.8 88.2662 364.88V365.62L80.8262 365.64C81.0062 367.38 81.9262 368.26 83.5462 368.26C84.8862 368.26 85.7662 367.74 86.0462 366.8H88.3062C87.8862 368.96 86.0862 370.26 83.5062 370.26ZM83.4462 361.82C82.0062 361.82 81.1262 362.6 80.8862 364.08H85.8462C85.8462 362.72 84.9062 361.82 83.4462 361.82ZM99.4896 364.24L94.5496 355.38H97.4096L100.29 360.7C100.51 361.1 100.65 361.42 100.81 361.78C100.99 361.42 101.07 361.18 101.33 360.7L104.19 355.38H106.97L102.05 364.24V370H99.4896V364.24ZM105.772 365.04C105.772 361.96 107.992 359.84 111.052 359.84C114.112 359.84 116.332 361.96 116.332 365.04C116.332 368.12 114.112 370.24 111.052 370.24C107.992 370.24 105.772 368.12 105.772 365.04ZM108.212 365.04C108.212 366.84 109.372 368.06 111.052 368.06C112.732 368.06 113.892 366.84 113.892 365.04C113.892 363.24 112.732 362.02 111.052 362.02C109.372 362.02 108.212 363.24 108.212 365.04ZM124.731 360.12H127.171V370H124.911L124.731 368.68C124.131 369.62 122.851 370.26 121.531 370.26C119.251 370.26 117.911 368.72 117.911 366.3V360.12H120.351V365.44C120.351 367.32 121.091 368.08 122.451 368.08C123.991 368.08 124.731 367.18 124.731 365.3V360.12ZM135.892 360.08V362.34H134.992C133.232 362.34 132.132 363.28 132.132 365.2V370H129.692V360.14H131.992L132.132 361.58C132.552 360.6 133.492 359.94 134.812 359.94C135.152 359.94 135.492 359.98 135.892 360.08ZM149.474 370.24C145.214 370.24 142.454 367.28 142.454 362.7C142.454 358.16 145.314 355.14 149.594 355.14C153.054 355.14 155.634 357.16 156.134 360.3H153.434C152.934 358.6 151.474 357.6 149.534 357.6C146.834 357.6 145.134 359.56 145.134 362.68C145.134 365.78 146.854 367.78 149.534 367.78C151.514 367.78 153.034 366.74 153.514 365.12H156.174C155.614 368.2 152.934 370.24 149.474 370.24ZM160.854 370.26C158.754 370.26 157.474 369.04 157.474 367.18C157.474 365.36 158.794 364.22 161.134 364.04L164.094 363.82V363.6C164.094 362.26 163.294 361.72 162.054 361.72C160.614 361.72 159.814 362.32 159.814 363.36H157.734C157.734 361.22 159.494 359.82 162.174 359.82C164.834 359.82 166.474 361.26 166.474 364V370H164.334L164.154 368.54C163.734 369.56 162.394 370.26 160.854 370.26ZM161.654 368.42C163.154 368.42 164.114 367.52 164.114 366V365.48L162.054 365.64C160.534 365.78 159.954 366.28 159.954 367.08C159.954 367.98 160.554 368.42 161.654 368.42ZM175.071 360.08V362.34H174.171C172.411 362.34 171.311 363.28 171.311 365.2V370H168.871V360.14H171.171L171.311 361.58C171.731 360.6 172.671 359.94 173.991 359.94C174.331 359.94 174.671 359.98 175.071 360.08ZM180.811 370.26C177.871 370.26 175.811 368.12 175.811 365.06C175.811 361.96 177.831 359.82 180.731 359.82C183.691 359.82 185.571 361.8 185.571 364.88V365.62L178.131 365.64C178.311 367.38 179.231 368.26 180.851 368.26C182.191 368.26 183.071 367.74 183.351 366.8H185.611C185.191 368.96 183.391 370.26 180.811 370.26ZM180.751 361.82C179.311 361.82 178.431 362.6 178.191 364.08H183.151C183.151 362.72 182.211 361.82 180.751 361.82ZM191.944 370.26C189.004 370.26 186.944 368.12 186.944 365.06C186.944 361.96 188.964 359.82 191.864 359.82C194.824 359.82 196.704 361.8 196.704 364.88V365.62L189.264 365.64C189.444 367.38 190.364 368.26 191.984 368.26C193.324 368.26 194.204 367.74 194.484 366.8H196.744C196.324 368.96 194.524 370.26 191.944 370.26ZM191.884 361.82C190.444 361.82 189.564 362.6 189.324 364.08H194.284C194.284 362.72 193.344 361.82 191.884 361.82ZM204.856 360.08V362.34H203.956C202.196 362.34 201.096 363.28 201.096 365.2V370H198.656V360.14H200.956L201.096 361.58C201.516 360.6 202.456 359.94 203.776 359.94C204.116 359.94 204.456 359.98 204.856 360.08ZM215.299 370L210.939 355.38H213.599L215.919 363.1C216.139 363.9 216.359 364.72 216.579 366C216.819 364.7 217.039 363.94 217.299 363.1L219.599 355.38H222.419L224.679 363.1C224.919 363.92 225.139 364.76 225.379 366C225.659 364.64 225.859 363.86 226.079 363.12L228.439 355.38H231.039L226.599 370H224.119L220.999 359.36L217.819 370H215.299ZM233.822 358.14C232.982 358.14 232.322 357.48 232.322 356.66C232.322 355.84 232.982 355.2 233.822 355.2C234.622 355.2 235.282 355.84 235.282 356.66C235.282 357.48 234.622 358.14 233.822 358.14ZM232.602 370V360.12H235.042V370H232.602ZM240.003 370H237.563V360.12H239.823L240.023 361.4C240.643 360.4 241.843 359.82 243.183 359.82C245.663 359.82 246.943 361.36 246.943 363.92V370H244.503V364.5C244.503 362.84 243.683 362.04 242.423 362.04C240.923 362.04 240.003 363.08 240.003 364.68V370ZM248.78 364.84C248.78 361.96 250.66 359.8 253.48 359.8C254.96 359.8 256.12 360.42 256.7 361.48L256.84 360.12H259.1V369.5C259.1 372.8 257.12 374.86 253.92 374.86C251.08 374.86 249.14 373.24 248.84 370.6H251.28C251.44 371.88 252.42 372.64 253.92 372.64C255.6 372.64 256.68 371.58 256.68 369.94V368.3C256.06 369.22 254.84 369.8 253.42 369.8C250.62 369.8 248.78 367.7 248.78 364.84ZM251.24 364.78C251.24 366.44 252.3 367.68 253.9 367.68C255.58 367.68 256.62 366.5 256.62 364.78C256.62 363.1 255.6 361.94 253.9 361.94C252.28 361.94 251.24 363.16 251.24 364.78ZM264.065 370H261.625V360.12H263.865L264.065 361.28C264.565 360.46 265.565 359.82 266.985 359.82C268.485 359.82 269.525 360.56 270.045 361.7C270.545 360.56 271.705 359.82 273.205 359.82C275.605 359.82 276.925 361.26 276.925 363.54V370H274.505V364.18C274.505 362.76 273.745 362.02 272.585 362.02C271.405 362.02 270.505 362.78 270.505 364.4V370H268.065V364.16C268.065 362.78 267.325 362.04 266.165 362.04C265.005 362.04 264.065 362.8 264.065 364.4V370ZM282.261 370.26C280.161 370.26 278.881 369.04 278.881 367.18C278.881 365.36 280.201 364.22 282.541 364.04L285.501 363.82V363.6C285.501 362.26 284.701 361.72 283.461 361.72C282.021 361.72 281.221 362.32 281.221 363.36H279.141C279.141 361.22 280.901 359.82 283.581 359.82C286.241 359.82 287.881 361.26 287.881 364V370H285.741L285.561 368.54C285.141 369.56 283.801 370.26 282.261 370.26ZM283.061 368.42C284.561 368.42 285.521 367.52 285.521 366V365.48L283.461 365.64C281.941 365.78 281.361 366.28 281.361 367.08C281.361 367.98 281.961 368.42 283.061 368.42ZM292.718 370H290.278V360.12H292.538L292.738 361.4C293.358 360.4 294.558 359.82 295.898 359.82C298.378 359.82 299.658 361.36 299.658 363.92V370H297.218V364.5C297.218 362.84 296.398 362.04 295.138 362.04C293.638 362.04 292.718 363.08 292.718 364.68V370Z" fill="#474E68"/>
<g filter="url(#filter2_i_1226_10192)">
<g clip-path="url(#clip2_1226_10192)">
<path d="M203.5 446H103.5V546H203.5V446Z" fill="white"/>
<path d="M103.5 515.333L105.589 513.883C107.689 512.45 111.867 509.55 116.033 507.617C120.2 505.667 124.356 504.667 128.522 505.283C132.689 505.883 136.867 508.117 141.033 508.7C145.2 509.283 149.356 508.217 153.522 508.367C157.689 508.5 161.867 509.833 166.033 511.217C170.2 512.617 174.356 514.05 178.522 514.833C182.689 515.617 186.867 515.717 191.033 514.283C195.2 512.833 199.356 509.833 201.422 508.333L203.5 506.833V546.167H201.422C199.356 546.167 195.2 546.167 191.033 546.167C186.867 546.167 182.689 546.167 178.522 546.167C174.356 546.167 170.2 546.167 166.033 546.167C161.867 546.167 157.689 546.167 153.522 546.167C149.356 546.167 145.2 546.167 141.033 546.167C136.867 546.167 132.689 546.167 128.522 546.167C124.356 546.167 120.2 546.167 116.033 546.167C111.867 546.167 107.689 546.167 105.589 546.167H103.5V515.333Z" fill="#D1FFEC"/>
<path d="M103.5 510.833L105.589 511.783C107.689 512.717 111.867 514.617 116.033 515.383C120.2 516.167 124.356 515.833 128.522 516.217C132.689 516.617 136.867 517.717 141.033 518.95C145.2 520.167 149.356 521.5 153.522 521.467C157.689 521.45 161.867 520.05 166.033 518.533C170.2 517 174.356 515.333 178.522 515.55C182.689 515.783 186.867 517.883 191.033 518.583C195.2 519.283 199.356 518.55 201.422 518.2L203.5 517.833V546.167H201.422C199.356 546.167 195.2 546.167 191.033 546.167C186.867 546.167 182.689 546.167 178.522 546.167C174.356 546.167 170.2 546.167 166.033 546.167C161.867 546.167 157.689 546.167 153.522 546.167C149.356 546.167 145.2 546.167 141.033 546.167C136.867 546.167 132.689 546.167 128.522 546.167C124.356 546.167 120.2 546.167 116.033 546.167C111.867 546.167 107.689 546.167 105.589 546.167H103.5V510.833Z" fill="#B5F4D9"/>
<path d="M103.5 524.667L105.589 524.033C107.689 523.383 111.867 522.117 116.033 522.033C120.2 521.95 124.356 523.05 128.522 523.25C132.689 523.45 136.867 522.717 141.033 521.7C145.2 520.667 149.356 519.333 153.522 520.25C157.689 521.167 161.867 524.333 166.033 525.2C170.2 526.05 174.356 524.617 178.522 524.3C182.689 524 186.867 524.833 191.033 524.617C195.2 524.383 199.356 523.117 201.422 522.467L203.5 521.833V546.167H201.422C199.356 546.167 195.2 546.167 191.033 546.167C186.867 546.167 182.689 546.167 178.522 546.167C174.356 546.167 170.2 546.167 166.033 546.167C161.867 546.167 157.689 546.167 153.522 546.167C149.356 546.167 145.2 546.167 141.033 546.167C136.867 546.167 132.689 546.167 128.522 546.167C124.356 546.167 120.2 546.167 116.033 546.167C111.867 546.167 107.689 546.167 105.589 546.167H103.5V524.667Z" fill="#99E8C6"/>
<path d="M103.5 528.333L105.589 529.383C107.689 530.45 111.867 532.55 116.033 532.8C120.2 533.05 124.356 531.45 128.522 530.667C132.689 529.883 136.867 529.95 141.033 530.217C145.2 530.5 149.356 531 153.522 530.75C157.689 530.5 161.867 529.5 166.033 530.217C170.2 530.95 174.356 533.383 178.522 533.383C182.689 533.383 186.867 530.95 191.033 530.05C195.2 529.167 199.356 529.833 201.422 530.167L203.5 530.5V546.167H201.422C199.356 546.167 195.2 546.167 191.033 546.167C186.867 546.167 182.689 546.167 178.522 546.167C174.356 546.167 170.2 546.167 166.033 546.167C161.867 546.167 157.689 546.167 153.522 546.167C149.356 546.167 145.2 546.167 141.033 546.167C136.867 546.167 132.689 546.167 128.522 546.167C124.356 546.167 120.2 546.167 116.033 546.167C111.867 546.167 107.689 546.167 105.589 546.167H103.5V528.333Z" fill="#7CDCB3"/>
<path d="M103.5 540.833L105.589 540.417C107.689 540 111.867 539.167 116.033 538.367C120.2 537.55 124.356 536.783 128.522 536.617C132.689 536.45 136.867 536.883 141.033 537.417C145.2 537.95 149.356 538.55 153.522 539.383C157.689 540.217 161.867 541.283 166.033 540.3C170.2 539.333 174.356 536.333 178.522 535.45C182.689 534.55 186.867 535.783 191.033 536.217C195.2 536.667 199.356 536.333 201.422 536.167L203.5 536V546.167H201.422C199.356 546.167 195.2 546.167 191.033 546.167C186.867 546.167 182.689 546.167 178.522 546.167C174.356 546.167 170.2 546.167 166.033 546.167C161.867 546.167 157.689 546.167 153.522 546.167C149.356 546.167 145.2 546.167 141.033 546.167C136.867 546.167 132.689 546.167 128.522 546.167C124.356 546.167 120.2 546.167 116.033 546.167C111.867 546.167 107.689 546.167 105.589 546.167H103.5V540.833Z" fill="#5DD0A0"/>
<path d="M145.501 482H143.501C142.617 482 141.769 481.649 141.144 481.024C140.519 480.399 140.168 479.551 140.168 478.667C140.168 477.783 140.519 476.935 141.144 476.31C141.769 475.685 142.617 475.333 143.501 475.333H145.501" stroke="#808195" stroke-width="1.5" stroke-linecap="round" stroke-linejoin="round"/>
<path d="M161.5 482H163.5C164.384 482 165.232 481.649 165.857 481.024C166.482 480.399 166.833 479.551 166.833 478.667C166.833 477.783 166.482 476.935 165.857 476.31C165.232 475.685 164.384 475.333 163.5 475.333H161.5" stroke="#808195" stroke-width="1.5" stroke-linecap="round" stroke-linejoin="round"/>
<path d="M142.832 499.333H164.165" stroke="#808195" stroke-width="1.5" stroke-linecap="round" stroke-linejoin="round"/>
<path d="M150.832 489.547V492.667C150.832 493.4 150.205 493.973 149.539 494.28C147.965 495 146.832 496.987 146.832 499.333" stroke="#808195" stroke-width="1.5" stroke-linecap="round" stroke-linejoin="round"/>
<path d="M156.168 489.547V492.667C156.168 493.4 156.795 493.973 157.461 494.28C159.035 495 160.168 496.987 160.168 499.333" stroke="#808195" stroke-width="1.5" stroke-linecap="round" stroke-linejoin="round"/>
<path d="M161.5 472.667H145.5V482C145.5 484.122 146.343 486.157 147.843 487.657C149.343 489.157 151.378 490 153.5 490C155.622 490 157.657 489.157 159.157 487.657C160.657 486.157 161.5 484.122 161.5 482V472.667Z" stroke="#808195" stroke-width="1.5" stroke-linecap="round" stroke-linejoin="round"/>
</g>
</g>
<path d="M12.3284 578.38V590.64H18.4484V593H9.76844V578.38H12.3284ZM19.3948 588.04C19.3948 584.96 21.6148 582.84 24.6748 582.84C27.7348 582.84 29.9548 584.96 29.9548 588.04C29.9548 591.12 27.7348 593.24 24.6748 593.24C21.6148 593.24 19.3948 591.12 19.3948 588.04ZM21.8348 588.04C21.8348 589.84 22.9948 591.06 24.6748 591.06C26.3548 591.06 27.5148 589.84 27.5148 588.04C27.5148 586.24 26.3548 585.02 24.6748 585.02C22.9948 585.02 21.8348 586.24 21.8348 588.04ZM31.3089 588.04C31.3089 584.98 33.3289 582.82 36.2489 582.82C38.9489 582.82 40.7889 584.32 41.0489 586.7H38.6089C38.3289 585.58 37.5089 585 36.3489 585C34.7889 585 33.7489 586.18 33.7489 588.04C33.7489 589.9 34.7089 591.06 36.2689 591.06C37.4889 591.06 38.3489 590.46 38.6089 589.38H41.0689C40.7689 591.68 38.8489 593.26 36.2689 593.26C33.2689 593.26 31.3089 591.18 31.3089 588.04ZM45.345 593H42.925V578.12H45.345V587.26L49.185 583.12H52.245L48.485 587.04L52.165 593H49.365L46.785 588.84L45.345 590.34V593ZM62.3973 593H59.9573V585.16H58.0573V583.12H59.9573V580.04H62.3973V583.12H64.3173V585.16H62.3973V593ZM68.2742 593H65.8342V578.12H68.2942V584.4C68.9142 583.44 70.0742 582.82 71.4942 582.82C73.9342 582.82 75.2142 584.36 75.2142 586.92V593H72.7742V587.5C72.7742 585.84 71.9542 585.04 70.7142 585.04C69.1742 585.04 68.2742 586.12 68.2742 587.6V593ZM82.0316 593.26C79.0916 593.26 77.0316 591.12 77.0316 588.06C77.0316 584.96 79.0516 582.82 81.9516 582.82C84.9116 582.82 86.7916 584.8 86.7916 587.88V588.62L79.3516 588.64C79.5316 590.38 80.4516 591.26 82.0716 591.26C83.4116 591.26 84.2916 590.74 84.5716 589.8H86.8316C86.4116 591.96 84.6116 593.26 82.0316 593.26ZM81.9716 584.82C80.5316 584.82 79.6516 585.6 79.4116 587.08H84.3716C84.3716 585.72 83.4316 584.82 81.9716 584.82ZM107.835 585.68C107.835 590.12 104.915 593.24 100.715 593.24C96.535 593.24 93.655 590.14 93.655 585.68C93.655 581.24 96.555 578.12 100.735 578.12C104.915 578.12 107.835 581.22 107.835 585.68ZM105.135 585.68C105.135 582.56 103.415 580.58 100.735 580.58C98.055 580.58 96.335 582.56 96.335 585.68C96.335 588.8 98.055 590.78 100.735 590.78C103.415 590.78 105.135 588.76 105.135 585.68ZM108.878 583.12H110.298V581.92C110.298 579.24 111.698 578.12 113.838 578.12C114.218 578.12 114.678 578.14 115.098 578.22V580.3H114.238C112.998 580.3 112.718 580.94 112.718 581.92V583.12H116.758V581.92C116.758 579.24 118.158 578.12 120.298 578.12C120.698 578.12 121.138 578.14 121.558 578.22V580.3H120.718C119.478 580.3 119.178 580.94 119.178 581.92V583.12H121.538V585.16H119.178V593H116.758V585.16H112.718V593H110.298V585.16H108.878V583.12ZM127.227 593.26C124.287 593.26 122.227 591.12 122.227 588.06C122.227 584.96 124.247 582.82 127.147 582.82C130.107 582.82 131.987 584.8 131.987 587.88V588.62L124.547 588.64C124.727 590.38 125.647 591.26 127.267 591.26C128.607 591.26 129.487 590.74 129.767 589.8H132.027C131.607 591.96 129.807 593.26 127.227 593.26ZM127.167 584.82C125.727 584.82 124.847 585.6 124.607 587.08H129.567C129.567 585.72 128.627 584.82 127.167 584.82ZM140.14 583.08V585.34H139.24C137.48 585.34 136.38 586.28 136.38 588.2V593H133.94V583.14H136.24L136.38 584.58C136.8 583.6 137.74 582.94 139.06 582.94C139.4 582.94 139.74 582.98 140.14 583.08ZM143.372 592.12C143.372 593.78 142.172 595.1 140.552 595.3V594.32C141.452 594.16 142.132 593.62 142.132 592.92C141.972 593 141.792 593.04 141.552 593.04C140.772 593.04 140.132 592.46 140.132 591.66C140.132 590.7 140.752 590.06 141.652 590.06C142.652 590.06 143.372 590.88 143.372 592.12ZM150.843 582.46C150.843 579.9 152.963 578.12 156.043 578.12C159.003 578.12 160.883 579.76 160.963 582.4H158.403C158.343 581.14 157.443 580.4 156.003 580.4C154.423 580.4 153.403 581.16 153.403 582.38C153.403 583.42 153.963 584 155.183 584.28L157.483 584.78C159.983 585.32 161.203 586.6 161.203 588.78C161.203 591.5 159.083 593.26 155.863 593.26C152.743 593.26 150.703 591.6 150.643 588.98H153.203C153.223 590.22 154.223 590.96 155.863 590.96C157.563 590.96 158.643 590.22 158.643 589C158.643 588.02 158.143 587.44 156.943 587.18L154.623 586.66C152.143 586.12 150.843 584.7 150.843 582.46ZM166.518 593H164.078V585.16H162.178V583.12H164.078V580.04H166.518V583.12H168.438V585.16H166.518V593ZM172.837 593.26C170.737 593.26 169.457 592.04 169.457 590.18C169.457 588.36 170.777 587.22 173.117 587.04L176.077 586.82V586.6C176.077 585.26 175.277 584.72 174.037 584.72C172.597 584.72 171.797 585.32 171.797 586.36H169.717C169.717 584.22 171.477 582.82 174.157 582.82C176.817 582.82 178.457 584.26 178.457 587V593H176.317L176.137 591.54C175.717 592.56 174.377 593.26 172.837 593.26ZM173.637 591.42C175.137 591.42 176.097 590.52 176.097 589V588.48L174.037 588.64C172.517 588.78 171.937 589.28 171.937 590.08C171.937 590.98 172.537 591.42 173.637 591.42ZM187.054 583.08V585.34H186.154C184.394 585.34 183.294 586.28 183.294 588.2V593H180.854V583.14H183.154L183.294 584.58C183.714 583.6 184.654 582.94 185.974 582.94C186.314 582.94 186.654 582.98 187.054 583.08ZM192.456 593H190.016V585.16H188.116V583.12H190.016V580.04H192.456V583.12H194.376V585.16H192.456V593ZM204.643 593H202.203V585.16H200.303V583.12H202.203V580.04H204.643V583.12H206.563V585.16H204.643V593ZM210.52 593H208.08V578.12H210.54V584.4C211.16 583.44 212.32 582.82 213.74 582.82C216.18 582.82 217.46 584.36 217.46 586.92V593H215.02V587.5C215.02 585.84 214.2 585.04 212.96 585.04C211.42 585.04 210.52 586.12 210.52 587.6V593ZM224.278 593.26C221.338 593.26 219.278 591.12 219.278 588.06C219.278 584.96 221.298 582.82 224.198 582.82C227.158 582.82 229.038 584.8 229.038 587.88V588.62L221.598 588.64C221.778 590.38 222.698 591.26 224.318 591.26C225.658 591.26 226.538 590.74 226.818 589.8H229.078C228.658 591.96 226.858 593.26 224.278 593.26ZM224.218 584.82C222.778 584.82 221.898 585.6 221.658 587.08H226.618C226.618 585.72 225.678 584.82 224.218 584.82ZM239.301 593H236.741V578.38H239.301V584.42H245.781V578.38H248.341V593H245.781V586.8H239.301V593ZM257.925 583.12H260.365V593H258.105L257.925 591.68C257.325 592.62 256.045 593.26 254.725 593.26C252.445 593.26 251.105 591.72 251.105 589.3V583.12H253.545V588.44C253.545 590.32 254.285 591.08 255.645 591.08C257.185 591.08 257.925 590.18 257.925 588.3V583.12ZM261.93 590H264.25C264.27 590.86 264.91 591.4 266.03 591.4C267.17 591.4 267.79 590.94 267.79 590.22C267.79 589.72 267.53 589.36 266.65 589.16L264.87 588.74C263.09 588.34 262.23 587.5 262.23 585.92C262.23 583.98 263.87 582.82 266.15 582.82C268.37 582.82 269.87 584.1 269.89 586.02H267.57C267.55 585.18 266.99 584.64 266.05 584.64C265.09 584.64 264.53 585.08 264.53 585.82C264.53 586.38 264.97 586.74 265.81 586.94L267.59 587.36C269.25 587.74 270.09 588.5 270.09 590.02C270.09 592.02 268.39 593.26 265.95 593.26C263.49 593.26 261.93 591.94 261.93 590ZM275.308 593H272.868V585.16H270.968V583.12H272.868V580.04H275.308V583.12H277.228V585.16H275.308V593ZM281.204 593H278.784V578.12H281.204V593ZM288.184 593.26C285.244 593.26 283.184 591.12 283.184 588.06C283.184 584.96 285.204 582.82 288.104 582.82C291.064 582.82 292.944 584.8 292.944 587.88V588.62L285.504 588.64C285.684 590.38 286.604 591.26 288.224 591.26C289.564 591.26 290.444 590.74 290.724 589.8H292.984C292.564 591.96 290.764 593.26 288.184 593.26ZM288.124 584.82C286.684 584.82 285.804 585.6 285.564 587.08H290.524C290.524 585.72 289.584 584.82 288.124 584.82ZM295.931 593.24C295.051 593.24 294.311 592.52 294.311 591.66C294.311 590.78 295.051 590.06 295.931 590.06C296.811 590.06 297.551 590.78 297.551 591.66C297.551 592.52 296.811 593.24 295.931 593.24Z" fill="#474E68"/>
<defs>
<filter id="filter0_i_1226_10192" x="103.5" y="0" width="100" height="100" filterUnits="userSpaceOnUse" color-interpolation-filters="sRGB">
<feFlood flood-opacity="0" result="BackgroundImageFix"/>
<feBlend mode="normal" in="SourceGraphic" in2="BackgroundImageFix" result="shape"/>
<feColorMatrix in="SourceAlpha" type="matrix" values="0 0 0 0 0 0 0 0 0 0 0 0 0 0 0 0 0 0 127 0" result="hardAlpha"/>
<feOffset/>
<feGaussianBlur stdDeviation="3"/>
<feComposite in2="hardAlpha" operator="arithmetic" k2="-1" k3="1"/>
<feColorMatrix type="matrix" values="0 0 0 0 0.282353 0 0 0 0 0.282353 0 0 0 0 0.282353 0 0 0 0.3 0"/>
<feBlend mode="normal" in2="shape" result="effect1_innerShadow_1226_10192"/>
</filter>
<filter id="filter1_i_1226_10192" x="103.5" y="223" width="100" height="100" filterUnits="userSpaceOnUse" color-interpolation-filters="sRGB">
<feFlood flood-opacity="0" result="BackgroundImageFix"/>
<feBlend mode="normal" in="SourceGraphic" in2="BackgroundImageFix" result="shape"/>
<feColorMatrix in="SourceAlpha" type="matrix" values="0 0 0 0 0 0 0 0 0 0 0 0 0 0 0 0 0 0 127 0" result="hardAlpha"/>
<feOffset/>
<feGaussianBlur stdDeviation="3"/>
<feComposite in2="hardAlpha" operator="arithmetic" k2="-1" k3="1"/>
<feColorMatrix type="matrix" values="0 0 0 0 0.282353 0 0 0 0 0.282353 0 0 0 0 0.282353 0 0 0 0.3 0"/>
<feBlend mode="normal" in2="shape" result="effect1_innerShadow_1226_10192"/>
</filter>
<filter id="filter2_i_1226_10192" x="103.5" y="446" width="100" height="100" filterUnits="userSpaceOnUse" color-interpolation-filters="sRGB">
<feFlood flood-opacity="0" result="BackgroundImageFix"/>
<feBlend mode="normal" in="SourceGraphic" in2="BackgroundImageFix" result="shape"/>
<feColorMatrix in="SourceAlpha" type="matrix" values="0 0 0 0 0 0 0 0 0 0 0 0 0 0 0 0 0 0 127 0" result="hardAlpha"/>
<feOffset/>
<feGaussianBlur stdDeviation="3"/>
<feComposite in2="hardAlpha" operator="arithmetic" k2="-1" k3="1"/>
<feColorMatrix type="matrix" values="0 0 0 0 0.282353 0 0 0 0 0.282353 0 0 0 0 0.282353 0 0 0 0.3 0"/>
<feBlend mode="normal" in2="shape" result="effect1_innerShadow_1226_10192"/>
</filter>
<clipPath id="clip0_1226_10192">
<rect x="103.5" width="100" height="100" rx="50" fill="white"/>
</clipPath>
<clipPath id="clip1_1226_10192">
<rect x="103.5" y="223" width="100" height="100" rx="50" fill="white"/>
</clipPath>
<clipPath id="clip2_1226_10192">
<rect x="103.5" y="446" width="100" height="100" rx="50" fill="white"/>
</clipPath>
</defs>
</svg>
