<svg width="332" height="182" viewBox="0 0 332 182" fill="none" xmlns="http://www.w3.org/2000/svg">
<g clip-path="url(#clip0_1587_13318)">
<path d="M170.317 147.177L54.2547 174.013C50.3178 174.919 46.1413 174.386 42.6416 172.53C39.1419 170.675 36.6047 167.649 35.5867 164.116L0.488363 41.7283C-0.520668 38.1933 0.0731454 34.4433 2.13953 31.3009C4.20592 28.1586 7.57612 25.8805 11.5108 24.9665L119.488 0.000488281L147.123 11.1089L181.34 130.415C182.349 133.95 181.755 137.7 179.689 140.843C177.622 143.985 174.252 146.263 170.317 147.177Z" fill="#F2F2F2"/>
<path d="M12.6135 28.8036C9.81157 29.4545 7.41153 31.0767 5.93998 33.3144C4.46843 35.5521 4.04554 38.2226 4.76405 40.7399L39.8646 163.128C40.5895 165.644 42.3962 167.799 44.8884 169.12C47.3806 170.441 50.3548 170.821 53.1584 170.176L169.221 143.341C172.023 142.69 174.423 141.068 175.895 138.83C177.366 136.592 177.789 133.922 177.07 131.405L143.384 13.9459L119.096 4.18311L12.6135 28.8036Z" fill="white"/>
<path d="M146.825 11.7414L128.862 15.8946C127.551 16.1978 126.159 16.0208 124.993 15.4026C123.827 14.7845 122.983 13.7757 122.645 12.5983L119.229 0.686286C119.214 0.634163 119.216 0.579334 119.234 0.528074C119.252 0.476814 119.286 0.431192 119.332 0.396433C119.377 0.361673 119.433 0.339183 119.492 0.331529C119.552 0.323874 119.612 0.331364 119.667 0.353149L146.875 11.2021C146.935 11.2263 146.986 11.2668 147.02 11.318C147.053 11.3691 147.069 11.4285 147.063 11.4877C147.058 11.547 147.032 11.6033 146.989 11.6487C146.946 11.6942 146.889 11.7266 146.825 11.7414Z" fill="#F2F2F2"/>
<path d="M137.376 116.257L84.5348 128.476C83.8806 128.623 83.1879 128.533 82.608 128.223C82.0281 127.914 81.6082 127.411 81.44 126.824C81.2718 126.238 81.369 125.615 81.7103 125.093C82.0517 124.57 82.6094 124.191 83.2617 124.036L136.103 111.817C136.429 111.74 136.768 111.722 137.101 111.763C137.434 111.804 137.755 111.904 138.046 112.057C138.336 112.21 138.59 112.413 138.792 112.654C138.995 112.895 139.142 113.17 139.226 113.462C139.31 113.755 139.329 114.059 139.281 114.358C139.233 114.658 139.12 114.945 138.948 115.205C138.777 115.465 138.549 115.691 138.279 115.872C138.01 116.052 137.703 116.183 137.376 116.257Z" fill="#CCCCCC"/>
<path d="M149.727 121.39L86.6877 135.966C86.3623 136.043 86.0232 136.062 85.6899 136.021C85.3566 135.98 85.0356 135.88 84.7454 135.727C84.4552 135.574 84.2015 135.371 83.999 135.13C83.7964 134.889 83.6489 134.614 83.565 134.321C83.4811 134.029 83.4625 133.724 83.5101 133.425C83.5578 133.126 83.6708 132.839 83.8427 132.579C84.0145 132.319 84.2419 132.093 84.5117 131.912C84.7814 131.732 85.0883 131.601 85.4146 131.527L148.454 116.951C149.108 116.803 149.801 116.894 150.381 117.204C150.96 117.513 151.38 118.016 151.549 118.602C151.717 119.189 151.62 119.811 151.278 120.334C150.937 120.856 150.379 121.236 149.727 121.39Z" fill="#CCCCCC"/>
<path d="M62.9681 143.19C67.9513 143.19 71.991 139.563 71.991 135.089C71.991 130.614 67.9513 126.987 62.9681 126.987C57.985 126.987 53.9453 130.614 53.9453 135.089C53.9453 139.563 57.985 143.19 62.9681 143.19Z" fill="#3C7EFC"/>
<path d="M131.757 95.0552L61.5777 111.276C59.5494 111.742 57.3979 111.467 55.5951 110.511C53.7923 109.556 52.4854 107.996 51.9613 106.176L37.2548 54.8773C36.7357 53.0564 37.042 51.1249 38.1067 49.5066C39.1713 47.8882 40.9074 46.7151 42.934 46.2444L113.113 30.0239C115.141 29.5573 117.293 29.8321 119.096 30.7881C120.898 31.7441 122.205 33.3032 122.729 35.1232L137.436 86.4223C137.955 88.2432 137.649 90.1746 136.584 91.793C135.52 93.4114 133.784 94.5845 131.757 95.0552Z" fill="white"/>
<path d="M131.757 95.0552L61.5777 111.276C59.5494 111.742 57.3979 111.467 55.5951 110.511C53.7923 109.556 52.4854 107.996 51.9613 106.176L37.2548 54.8773C36.7357 53.0564 37.042 51.1249 38.1067 49.5066C39.1713 47.8882 40.9074 46.7151 42.934 46.2444L113.113 30.0239C115.141 29.5573 117.293 29.8321 119.096 30.7881C120.898 31.7441 122.205 33.3032 122.729 35.1232L137.436 86.4223C137.955 88.2432 137.649 90.1746 136.584 91.793C135.52 93.4114 133.784 94.5845 131.757 95.0552ZM43.1654 47.0508C41.3772 47.4665 39.8456 48.502 38.9066 49.9303C37.9676 51.3585 37.6978 53.0629 38.1564 54.6695L52.8634 105.969C53.3263 107.574 54.4796 108.949 56.0703 109.793C57.661 110.636 59.5592 110.878 61.3485 110.466L131.526 94.2472C133.314 93.8315 134.846 92.796 135.785 91.3677C136.724 89.9395 136.994 88.2351 136.535 86.6285L121.83 35.3294C121.367 33.7238 120.213 32.3486 118.623 31.5055C117.032 30.6623 115.134 30.4201 113.344 30.8319L43.1654 47.0508Z" fill="#E6E6E6"/>
<path d="M109.558 47.2712L74.1404 55.4575C73.8308 55.5351 73.5 55.5043 73.2147 55.3713C72.9294 55.2383 72.711 55.0131 72.6036 54.7411C72.5536 54.5989 72.5364 54.4491 72.553 54.3008C72.5697 54.1524 72.6198 54.0087 72.7003 53.8783C72.7809 53.748 72.8902 53.6337 73.0216 53.5425C73.1529 53.4514 73.3036 53.3852 73.4644 53.348L109.518 45.0149C110.975 45.6776 110.591 47.0328 109.558 47.2716L109.558 47.2712Z" fill="#F2F2F2"/>
<path d="M111.159 52.8479L75.742 61.0341C75.4324 61.1117 75.1015 61.0809 74.8163 60.948C74.531 60.815 74.3126 60.5897 74.2051 60.3177C74.1551 60.1756 74.138 60.0257 74.1546 59.8774C74.1712 59.7291 74.2214 59.5853 74.3019 59.455C74.3825 59.3246 74.4918 59.2104 74.6231 59.1192C74.7545 59.028 74.9052 58.9618 75.066 58.9247L111.12 50.5916C112.576 51.2542 112.193 52.6095 111.16 52.8483L111.159 52.8479Z" fill="#F2F2F2"/>
<path d="M68.9899 65.9814L58.1807 68.4789C58.0059 68.5194 57.8239 68.5285 57.6452 68.5058C57.4665 68.4831 57.2945 68.429 57.139 68.3465C56.9836 68.2641 56.8478 68.155 56.7393 68.0254C56.6308 67.8959 56.5519 67.7484 56.5069 67.5914L53.2232 56.1406C53.1781 55.9837 53.168 55.8203 53.1933 55.6598C53.2186 55.4993 53.2788 55.3449 53.3706 55.2053C53.4624 55.0657 53.5839 54.9438 53.7283 54.8464C53.8726 54.749 54.0368 54.6781 54.2117 54.6378L65.0209 52.1394C65.3739 52.0583 65.7483 52.1062 66.0621 52.2726C66.3759 52.4389 66.6034 52.7102 66.6947 53.027L69.9784 64.4805C70.0235 64.6375 70.0337 64.8009 70.0084 64.9614C69.9831 65.1219 69.9228 65.2763 69.831 65.4159C69.7392 65.5554 69.6177 65.6774 69.4734 65.7748C69.329 65.8722 69.1648 65.9431 68.9899 65.9834V65.9814Z" fill="#3C7EFC"/>
<path d="M114.32 64.2948L60.2654 76.7883C59.9558 76.8659 59.625 76.8351 59.3397 76.7022C59.0544 76.5692 58.836 76.3439 58.7286 76.0719C58.6786 75.9298 58.6614 75.7799 58.678 75.6316C58.6947 75.4833 58.7448 75.3395 58.8254 75.2092C58.9059 75.0788 59.0152 74.9646 59.1466 74.8734C59.2779 74.7822 59.4286 74.716 59.5894 74.6789L114.28 62.0381C115.737 62.7008 115.353 64.056 114.32 64.2948Z" fill="#F2F2F2"/>
<path d="M115.923 69.8742L61.867 82.3682C61.5574 82.4458 61.2265 82.415 60.9413 82.282C60.656 82.149 60.4376 81.9237 60.3301 81.6517C60.2801 81.5096 60.263 81.3598 60.2796 81.2114C60.2962 81.0631 60.3464 80.9194 60.4269 80.789C60.5075 80.6587 60.6168 80.5444 60.7481 80.4532C60.8795 80.362 61.0302 80.2959 61.191 80.2587L115.882 67.6179C117.339 68.2806 116.955 69.6358 115.922 69.8746L115.923 69.8742Z" fill="#F2F2F2"/>
<path d="M117.523 75.4513L63.4685 87.9448C63.1589 88.0224 62.8281 87.9916 62.5428 87.8587C62.2575 87.7257 62.0391 87.5004 61.9317 87.2284C61.8817 87.0863 61.8645 86.9364 61.8812 86.7881C61.8978 86.6398 61.9479 86.496 62.0285 86.3657C62.109 86.2353 62.2183 86.1211 62.3497 86.0299C62.4811 85.9387 62.6317 85.8725 62.7925 85.8354L117.483 73.1946C118.94 73.8573 118.556 75.2125 117.523 75.4513Z" fill="#F2F2F2"/>
<path d="M119.125 81.0304L65.0701 93.5239C64.7605 93.6015 64.4296 93.5707 64.1444 93.4378C63.8591 93.3048 63.6407 93.0795 63.5333 92.8075C63.4833 92.6654 63.4661 92.5155 63.4827 92.3672C63.4994 92.2189 63.5495 92.0751 63.63 91.9448C63.7106 91.8144 63.8199 91.7002 63.9513 91.609C64.0826 91.5178 64.2333 91.4516 64.3941 91.4145L119.085 78.7737C120.541 79.4364 120.158 80.7916 119.125 81.0304Z" fill="#F2F2F2"/>
<path d="M120.719 86.6071L66.6638 99.1006C66.3542 99.1782 66.0234 99.1474 65.7381 99.0144C65.4528 98.8814 65.2344 98.6562 65.127 98.3842C65.077 98.242 65.0598 98.0922 65.0765 97.9439C65.0931 97.7955 65.1432 97.6518 65.2238 97.5214C65.3043 97.3911 65.4136 97.2768 65.545 97.1856C65.6764 97.0945 65.827 97.0283 65.9878 96.9911L120.679 84.3503C122.135 85.013 121.752 86.3682 120.719 86.6071Z" fill="#F2F2F2"/>
<path d="M63.6349 137.928C63.4384 137.974 63.2307 137.961 63.0431 137.892L63.0316 137.887L60.5736 136.952C60.4597 136.908 60.3565 136.845 60.2698 136.766C60.1831 136.686 60.1147 136.593 60.0684 136.49C60.0221 136.386 59.9989 136.276 60 136.165C60.0012 136.054 60.0267 135.944 60.0752 135.842C60.1236 135.74 60.194 135.647 60.2823 135.569C60.3707 135.491 60.4752 135.43 60.59 135.388C60.7047 135.347 60.8275 135.326 60.9513 135.327C61.075 135.328 61.1973 135.351 61.3112 135.394L62.9039 136.003L64.9908 131.594C65.0886 131.388 65.2737 131.225 65.5054 131.141C65.737 131.057 65.9964 131.059 66.2263 131.147L66.2138 131.175L66.2267 131.146C66.4565 131.234 66.6381 131.401 66.7315 131.609C66.8249 131.817 66.8226 132.05 66.7249 132.256L64.2696 137.439C64.2127 137.559 64.1258 137.665 64.0158 137.749C63.9058 137.834 63.7756 137.894 63.6353 137.926L63.6349 137.928Z" fill="white"/>
<path d="M283.59 179.464L166.529 159.628C162.56 158.952 159.07 156.873 156.823 153.85C154.577 150.826 153.759 147.104 154.548 143.5L182.009 18.7222C182.807 15.1199 185.146 11.9332 188.513 9.86112C191.881 7.78905 196.002 7.00085 199.973 7.66944L308.879 26.1231L328.325 46.7732L301.554 168.41C300.757 172.012 298.418 175.199 295.05 177.272C291.683 179.344 287.561 180.132 283.59 179.464Z" fill="#E6E6E6"/>
<path d="M199.115 11.585C196.288 11.1089 193.353 11.6702 190.955 13.1457C188.557 14.6212 186.891 16.8904 186.323 19.4555L158.863 144.229C158.301 146.795 158.884 149.445 160.484 151.598C162.083 153.751 164.569 155.231 167.395 155.713L284.452 175.547C287.28 176.023 290.214 175.462 292.612 173.987C295.011 172.511 296.676 170.242 297.244 167.677L323.599 47.9297L306.51 29.7825L199.115 11.585Z" fill="white"/>
<path d="M285.402 64.2662L231.863 55.0339C231.199 54.9194 230.615 54.5657 230.239 54.0509C229.863 53.536 229.726 52.902 229.859 52.2884C229.992 51.6748 230.383 51.1319 230.946 50.779C231.51 50.4261 232.2 50.2922 232.864 50.4068L286.404 59.6393C287.069 59.7538 287.653 60.1074 288.029 60.6223C288.405 61.1372 288.541 61.7712 288.409 62.3848C288.276 62.9983 287.885 63.5413 287.321 63.8942C286.758 64.2471 286.068 64.3809 285.404 64.2664L285.402 64.2662Z" fill="#3C7EFC"/>
<path d="M294.091 73.6637L230.215 62.6348C229.551 62.5201 228.966 62.166 228.59 61.6504C228.215 61.1348 228.078 60.5 228.211 59.8856C228.343 59.2711 228.734 58.7274 229.298 58.3741C229.862 58.0207 230.552 57.8866 231.216 58.0014L295.091 69.0303C295.756 69.145 296.34 69.4991 296.716 70.0147C297.092 70.5302 297.229 71.1651 297.096 71.7795C296.963 72.3939 296.572 72.9376 296.008 73.291C295.445 73.6443 294.755 73.7784 294.091 73.6637Z" fill="#3C7EFC"/>
<path d="M279.034 93.6695L225.497 84.4375C224.832 84.323 224.143 84.4568 223.579 84.8097C223.016 85.1625 222.625 85.7054 222.492 86.319C222.359 86.9325 222.496 87.5664 222.872 88.0813C223.248 88.5961 223.832 88.9497 224.496 89.0642L278.034 98.2962C278.694 98.4017 279.376 98.2629 279.932 97.9097C280.489 97.5565 280.874 97.0174 281.006 96.4091C281.137 95.8008 281.004 95.1722 280.635 94.6595C280.266 94.1467 279.691 93.7911 279.034 93.6695Z" fill="#CCCCCC"/>
<path d="M287.725 103.062L223.85 92.0327C223.52 91.9713 223.178 91.9714 222.846 92.0329C222.513 92.0944 222.196 92.216 221.914 92.3907C221.631 92.5655 221.388 92.7898 221.199 93.0508C221.01 93.3118 220.878 93.6042 220.812 93.911C220.746 94.2178 220.746 94.5329 220.813 94.8381C220.88 95.1432 221.012 95.4323 221.201 95.6886C221.391 95.9449 221.634 96.1632 221.917 96.331C222.2 96.4987 222.517 96.6125 222.85 96.6657L286.724 107.694C287.055 107.756 287.396 107.756 287.729 107.694C288.061 107.633 288.378 107.511 288.661 107.336C288.943 107.162 289.186 106.937 289.375 106.676C289.564 106.415 289.696 106.123 289.762 105.816C289.828 105.509 289.828 105.194 289.761 104.889C289.694 104.584 289.562 104.295 289.373 104.039C289.183 103.782 288.94 103.564 288.657 103.396C288.374 103.228 288.058 103.115 287.725 103.062Z" fill="#CCCCCC"/>
<path d="M270.668 132.329L217.129 123.096C216.465 122.982 215.88 122.628 215.505 122.113C215.129 121.598 214.992 120.965 215.125 120.351C215.257 119.737 215.649 119.194 216.212 118.841C216.776 118.489 217.465 118.355 218.13 118.469L271.67 127.702C272.334 127.816 272.919 128.17 273.295 128.685C273.67 129.2 273.807 129.834 273.674 130.447C273.542 131.061 273.151 131.604 272.587 131.957C272.023 132.31 271.334 132.443 270.669 132.329L270.668 132.329Z" fill="#CCCCCC"/>
<path d="M279.356 141.726L215.481 130.697C214.816 130.583 214.232 130.228 213.856 129.713C213.48 129.197 213.343 128.562 213.476 127.948C213.609 127.334 214 126.79 214.564 126.437C215.127 126.083 215.817 125.949 216.482 126.064L280.357 137.093C281.021 137.207 281.606 137.562 281.982 138.077C282.358 138.593 282.494 139.228 282.361 139.842C282.229 140.456 281.838 141 281.274 141.353C280.71 141.707 280.02 141.841 279.356 141.726Z" fill="#CCCCCC"/>
<path d="M207.459 60.5705C212.329 61.3958 217.065 58.4812 218.038 54.0607C219.01 49.6401 215.851 45.3875 210.981 44.5622C206.112 43.7369 201.376 46.6515 200.403 51.072C199.43 55.4926 202.589 59.7452 207.459 60.5705Z" fill="#3C7EFC"/>
<path d="M207.676 55.4733C207.478 55.44 207.297 55.349 207.162 55.214L207.154 55.2056L205.397 53.4139C205.237 53.2455 205.157 53.0258 205.175 52.8024C205.193 52.579 205.307 52.3698 205.493 52.2202C205.679 52.0707 205.921 51.9926 206.168 52.0031C206.414 52.0136 206.645 52.1117 206.81 52.2762L207.948 53.4389L211.948 50.2178C212.04 50.1431 212.148 50.0855 212.265 50.0483C212.382 50.0111 212.505 49.9951 212.628 50.001C212.752 50.007 212.872 50.0349 212.982 50.0831C213.093 50.1314 213.192 50.199 213.273 50.2821L213.248 50.3028L213.274 50.2815C213.438 50.4494 213.521 50.6703 213.504 50.8955C213.488 51.1208 213.374 51.3321 213.186 51.483L208.481 55.2702C208.372 55.3574 208.243 55.421 208.103 55.456C207.964 55.491 207.818 55.4966 207.676 55.4722L207.676 55.4733Z" fill="white"/>
<path d="M211.582 88.2501C211.352 89.3014 210.895 90.3039 210.238 91.2002C209.582 92.0965 208.738 92.8691 207.756 93.4739C206.774 94.0787 205.672 94.5038 204.514 94.725C203.355 94.9462 202.163 94.9591 201.005 94.763C200.929 94.7515 200.854 94.7359 200.78 94.7163C199.055 94.3821 197.484 93.5934 196.263 92.449C195.042 91.3045 194.225 89.8551 193.915 88.2821C193.605 86.7091 193.815 85.0824 194.519 83.6055C195.224 82.1287 196.391 80.8672 197.875 79.979C199.359 79.0909 201.093 78.6155 202.862 78.6123C204.63 78.6091 206.353 79.0782 207.817 79.961C209.28 80.8439 210.417 82.1011 211.087 83.5755C211.757 85.0499 211.929 86.6759 211.582 88.2501Z" fill="#3C7EFC"/>
<path d="M192.724 128.633C197.594 129.458 202.33 126.544 203.303 122.123C204.276 117.702 201.117 113.45 196.247 112.624C191.377 111.799 186.641 114.714 185.668 119.134C184.696 123.555 187.855 127.807 192.724 128.633Z" fill="#3C7EFC"/>
<path d="M327.757 48.0115L309.617 44.9356C308.292 44.711 307.127 44.0178 306.378 43.0085C305.629 41.9992 305.356 40.7565 305.621 39.5537L308.297 27.3849C308.309 27.3316 308.337 27.2823 308.378 27.2424C308.419 27.2026 308.472 27.1739 308.529 27.1597C308.587 27.1455 308.648 27.1463 308.705 27.162C308.762 27.1777 308.813 27.2077 308.852 27.2486L328.062 47.5376C328.105 47.5828 328.131 47.639 328.136 47.6986C328.142 47.7581 328.127 47.818 328.094 47.87C328.06 47.9219 328.01 47.9633 327.949 47.9885C327.889 48.0136 327.822 48.0213 327.757 48.0103L327.757 48.0115Z" fill="#CCCCCC"/>
<path d="M219.906 168.738C219.345 169.563 218.442 170.154 217.396 170.382C216.35 170.61 215.245 170.455 214.326 169.951L166.961 144.011C166.042 143.507 165.383 142.697 165.13 141.757C164.876 140.818 165.049 139.826 165.609 139.001C166.17 138.176 167.073 137.584 168.119 137.356C169.166 137.129 170.27 137.284 171.189 137.787L218.554 163.728C219.473 164.231 220.132 165.042 220.385 165.981C220.639 166.921 220.466 167.912 219.906 168.738Z" fill="#3F3D56"/>
<path d="M172.546 142.799C169.202 147.722 164.306 151.645 158.478 154.071C152.651 156.496 146.153 157.315 139.807 156.425C133.461 155.535 127.551 152.975 122.825 149.069C118.099 145.163 114.77 140.087 113.257 134.481C111.744 128.876 112.117 122.994 114.327 117.579C116.538 112.164 120.487 107.459 125.676 104.06C130.864 100.66 137.059 98.7179 143.477 98.4793C149.894 98.2407 156.247 99.7162 161.73 102.719C165.372 104.713 168.54 107.332 171.054 110.425C173.568 113.518 175.379 117.026 176.383 120.748C177.388 124.469 177.566 128.332 176.907 132.116C176.249 135.899 174.767 139.529 172.546 142.799ZM124.026 116.224C121.518 119.917 120.285 124.194 120.485 128.516C120.684 132.838 122.306 137.01 125.146 140.504C127.986 143.998 131.916 146.657 136.439 148.146C140.962 149.635 145.875 149.885 150.557 148.867C155.239 147.848 159.48 145.606 162.742 142.423C166.005 139.241 168.143 135.261 168.887 130.987C169.63 126.714 168.946 122.338 166.92 118.414C164.894 114.489 161.617 111.192 157.504 108.94C151.989 105.92 145.364 104.99 139.085 106.356C132.807 107.722 127.39 111.272 124.026 116.224Z" fill="#3F3D56"/>
<path d="M136.228 148.762C149.424 152.842 163.804 146.544 168.348 134.696C172.892 122.848 165.878 109.935 152.682 105.856C139.486 101.776 125.106 108.074 120.562 119.922C116.018 131.77 123.032 144.682 136.228 148.762Z" fill="#3C7EFC"/>
</g>
<defs>
<clipPath id="clip0_1587_13318">
<rect width="332" height="182" fill="white"/>
</clipPath>
</defs>
</svg>
