<svg width="557" height="473" viewBox="0 0 557 473" fill="none" xmlns="http://www.w3.org/2000/svg">
<g filter="url(#filter0_i_847_7168)">
<g clip-path="url(#clip0_847_7168)">
<path d="M556.171 135.25L325.156 87L271.999 341.508L503.014 389.758L556.171 135.25Z" fill="white"/>
<path d="M288.302 263.459L293.898 260.776C299.511 258.142 310.704 252.777 321.357 249.867C332.02 246.914 342.151 246.374 351.449 249.954C360.756 253.492 369.22 261.191 378.535 264.686C387.851 268.182 398.018 267.472 407.564 269.864C417.118 272.214 426.061 277.623 434.951 283.154C443.833 288.728 452.671 294.381 461.88 298.385C471.089 302.389 480.687 304.659 491.075 303.022C501.471 301.342 512.666 295.712 518.238 292.891L523.835 290.076L502.926 390.182L498.126 389.18C493.352 388.183 483.752 386.178 474.127 384.167C464.501 382.157 454.85 380.141 445.224 378.131C435.598 376.12 425.998 374.115 416.373 372.105C406.747 370.094 397.096 368.078 387.47 366.068C377.845 364.058 368.245 362.053 358.619 360.042C348.993 358.032 339.342 356.016 329.717 354.005C320.091 351.995 310.491 349.99 300.865 347.98C291.24 345.969 281.588 343.953 276.737 342.94L271.911 341.932L288.302 263.459Z" fill="#D1FFEC"/>
<path d="M290.693 252.006L295.014 255.432C299.369 258.82 308.011 265.672 317.229 269.634C326.438 273.638 336.215 274.794 345.637 277.78C355.05 280.809 364.116 285.624 373.086 290.774C382.065 295.881 390.956 301.279 400.6 303.205C410.234 305.173 420.63 303.625 431.062 301.776C441.502 299.884 451.988 297.647 461.499 300.209C471 302.813 479.535 310.174 488.789 313.966C498.042 317.757 508.032 317.896 512.992 318.003L517.987 318.072L502.926 390.182L498.126 389.18C493.352 388.183 483.752 386.178 474.126 384.167C464.501 382.157 454.849 380.141 445.224 378.131C435.598 376.12 425.998 374.115 416.373 372.105C406.747 370.094 397.096 368.079 387.47 366.068C377.844 364.058 368.244 362.053 358.619 360.042C348.993 358.032 339.342 356.016 329.716 354.005C320.091 351.995 310.491 349.99 300.865 347.98C291.239 345.969 281.588 343.953 276.737 342.94L271.911 341.932L290.693 252.006Z" fill="#B5F4D9"/>
<path d="M283.339 287.213L288.501 286.609C293.698 285.968 304.023 284.76 313.693 286.558C323.362 288.357 332.378 293.161 341.897 295.681C351.416 298.2 361.457 298.35 371.623 297.773C381.798 297.153 392.107 295.765 401.245 300.108C410.384 304.452 418.352 314.527 427.517 318.743C436.691 322.917 447.052 321.274 456.846 322.478C466.631 323.725 475.84 327.862 485.581 329.321C495.33 330.737 505.603 329.519 510.723 328.862L515.86 328.252L502.925 390.183L498.125 389.18C493.351 388.183 483.751 386.178 474.125 384.167C464.5 382.157 454.848 380.141 445.223 378.131C435.597 376.12 425.997 374.115 416.371 372.105C406.746 370.094 397.095 368.079 387.469 366.068C377.843 364.058 368.243 362.053 358.618 360.042C348.992 358.032 339.341 356.016 329.715 354.006C320.09 351.995 310.49 349.99 300.864 347.98C291.238 345.969 281.587 343.953 276.736 342.94L271.91 341.932L283.339 287.213Z" fill="#99E8C6"/>
<path d="M281.391 296.545L285.658 300.225C289.942 303.953 298.477 311.314 307.97 313.96C317.463 316.607 327.913 314.54 337.955 314.557C347.997 314.574 357.613 316.759 367.097 319.448C376.572 322.18 385.906 325.457 395.665 326.831C405.423 328.206 415.606 327.676 424.851 331.511C434.087 335.387 442.393 343.586 452.019 345.596C461.644 347.606 472.589 343.429 482.693 343.149C492.788 342.911 502.034 346.613 506.631 348.459L511.254 350.31L502.926 390.182L498.126 389.18C493.352 388.183 483.752 386.178 474.126 384.167C464.5 382.157 454.849 380.141 445.224 378.131C435.598 376.12 425.998 374.115 416.372 372.105C406.747 370.094 397.095 368.078 387.47 366.068C377.844 364.058 368.244 362.053 358.619 360.042C348.993 358.032 339.342 356.016 329.716 354.005C320.09 351.995 310.49 349.99 300.865 347.98C291.239 345.969 281.588 343.953 276.737 342.94L271.911 341.932L281.391 296.545Z" fill="#7CDCB3"/>
<path d="M274.745 328.358L279.792 328.306C284.865 328.259 294.959 328.154 305.01 328.128C315.07 328.06 325.077 328.114 334.792 329.7C344.506 331.286 353.927 334.405 363.269 337.773C372.611 341.141 381.892 344.673 391.075 348.804C400.257 352.935 409.342 357.666 419.49 357.174C429.629 356.724 440.824 351.094 450.919 350.856C461.023 350.576 470.019 355.73 479.414 358.844C488.801 361.999 498.578 363.156 503.441 363.729L508.329 364.308L502.925 390.183L498.125 389.18C493.351 388.183 483.751 386.178 474.125 384.167C464.5 382.157 454.848 380.141 445.223 378.131C435.597 376.12 425.997 374.115 416.371 372.105C406.746 370.094 397.094 368.079 387.469 366.068C377.843 364.058 368.243 362.053 358.618 360.042C348.992 358.032 339.341 356.016 329.715 354.006C320.09 351.995 310.49 349.99 300.864 347.98C291.238 345.969 281.587 343.953 276.736 342.94L271.91 341.932L274.745 328.358Z" fill="#5DD0A0"/>
<path d="M372.3 152.617L365.463 151.189L363.592 154.279L360.796 153.695L370.061 138.566L373.162 139.214L375.597 156.787L372.777 156.198L372.3 152.617ZM372.004 150.275L370.934 142.132L366.671 149.161L372.004 150.275ZM384.228 141.55L380.818 157.877L378.14 157.318L381.55 140.99L384.228 141.55ZM396.284 151.055L395.813 153.311L386.157 151.294L386.628 149.038L396.284 151.055ZM411.889 152.402C411.716 153.232 411.356 153.974 410.811 154.629C410.266 155.283 409.513 155.755 408.554 156.045C407.598 156.319 406.446 156.316 405.099 156.035L402.139 155.416L400.755 162.041L398.077 161.482L401.487 145.154L407.126 146.332C408.379 146.594 409.39 147.034 410.16 147.652C410.949 148.258 411.477 148.974 411.747 149.798C412.031 150.626 412.079 151.494 411.889 152.402ZM405.555 153.85C406.573 154.062 407.38 153.994 407.977 153.644C408.576 153.279 408.964 152.674 409.14 151.828C409.513 150.043 408.69 148.939 406.669 148.517L403.709 147.899L402.595 153.232L405.555 153.85ZM417.62 165.784C416.398 165.529 415.351 165.025 414.479 164.27C413.61 163.5 412.998 162.555 412.644 161.435C412.293 160.299 412.256 159.066 412.534 157.735C412.809 156.419 413.342 155.313 414.134 154.416C414.926 153.519 415.881 152.901 416.998 152.562C418.115 152.223 419.292 152.183 420.529 152.441C421.766 152.7 422.829 153.208 423.717 153.965C424.605 154.723 425.232 155.671 425.599 156.81C425.966 157.949 426.012 159.177 425.737 160.492C425.462 161.808 424.921 162.913 424.113 163.806C423.305 164.7 422.326 165.321 421.174 165.669C420.042 166.004 418.857 166.043 417.62 165.784ZM418.105 163.459C418.795 163.603 419.471 163.572 420.135 163.368C420.814 163.166 421.411 162.776 421.924 162.197C422.437 161.617 422.792 160.858 422.988 159.918C423.185 158.978 423.17 158.15 422.944 157.432C422.721 156.699 422.346 156.106 421.82 155.653C421.293 155.2 420.685 154.901 419.996 154.757C419.307 154.613 418.631 154.644 417.967 154.848C417.319 155.056 416.754 155.453 416.272 156.039C415.793 156.609 415.455 157.364 415.259 158.304C414.968 159.698 415.095 160.852 415.639 161.767C416.203 162.669 417.025 163.233 418.105 163.459ZM447.119 158.216L440.398 170.321L437.579 169.732L436.968 159.626L432.363 168.643L429.544 168.054L428.207 154.266L430.932 154.835L431.46 165.807L436.383 155.973L439.178 156.557L439.646 167.467L444.488 157.666L447.119 158.216ZM459.699 167.267C459.597 167.752 459.474 168.184 459.33 168.563L449.439 166.497C449.302 167.547 449.512 168.457 450.07 169.228C450.629 169.998 451.409 170.488 452.411 170.697C453.852 170.998 454.996 170.608 455.843 169.526L458.733 170.13C458.093 171.238 457.176 172.068 455.982 172.62C454.807 173.159 453.46 173.27 451.94 172.953C450.703 172.694 449.648 172.188 448.776 171.434C447.923 170.667 447.319 169.724 446.965 168.604C446.629 167.471 446.6 166.239 446.878 164.908C447.156 163.577 447.666 162.465 448.408 161.574C449.169 160.671 450.092 160.046 451.178 159.701C452.279 159.359 453.464 159.32 454.732 159.585C455.954 159.84 456.987 160.334 457.831 161.066C458.675 161.798 459.262 162.705 459.592 163.787C459.925 164.854 459.96 166.014 459.699 167.267ZM457.08 165.837C457.27 164.847 457.083 163.983 456.518 163.244C455.953 162.504 455.162 162.029 454.144 161.816C453.22 161.623 452.367 161.755 451.585 162.213C450.806 162.655 450.249 163.364 449.914 164.341L457.08 165.837ZM465.906 164.101C466.435 163.525 467.058 163.124 467.775 162.898C468.511 162.659 469.326 162.633 470.219 162.82L469.64 165.592L468.958 165.45C467.909 165.23 467.055 165.33 466.395 165.748C465.752 166.169 465.292 167.038 465.018 168.353L463.595 175.166L460.916 174.607L463.62 161.662L466.298 162.221L465.906 164.101ZM483.215 172.178C483.113 172.664 482.99 173.096 482.846 173.474L472.955 171.409C472.818 172.459 473.028 173.369 473.586 174.139C474.145 174.91 474.925 175.4 475.927 175.609C477.368 175.91 478.512 175.52 479.359 174.438L482.249 175.041C481.609 176.15 480.692 176.98 479.498 177.532C478.323 178.071 476.976 178.182 475.456 177.864C474.219 177.606 473.164 177.1 472.292 176.345C471.439 175.579 470.835 174.635 470.48 173.515C470.145 172.383 470.116 171.151 470.394 169.819C470.672 168.488 471.182 167.377 471.924 166.486C472.685 165.582 473.608 164.958 474.694 164.612C475.795 164.27 476.98 164.232 478.248 164.497C479.47 164.752 480.503 165.246 481.347 165.978C482.191 166.71 482.778 167.617 483.108 168.699C483.441 169.766 483.476 170.925 483.215 172.178ZM480.596 170.749C480.786 169.759 480.599 168.894 480.034 168.155C479.469 167.416 478.678 166.94 477.66 166.728C476.736 166.535 475.883 166.667 475.101 167.125C474.322 167.567 473.765 168.276 473.43 169.252L480.596 170.749ZM484.904 172.801C485.175 171.501 485.682 170.405 486.424 169.514C487.181 168.626 488.079 168.005 489.118 167.65C490.175 167.282 491.276 167.218 492.419 167.457C493.265 167.633 494.056 167.994 494.792 168.54C495.546 169.074 496.103 169.697 496.461 170.409L497.766 164.16L500.468 164.724L496.837 182.109L494.135 181.545L494.542 179.595C493.973 180.13 493.254 180.519 492.386 180.763C491.533 181.01 490.606 181.028 489.604 180.819C488.476 180.584 487.501 180.086 486.679 179.326C485.876 178.553 485.307 177.601 484.971 176.468C484.655 175.323 484.632 174.101 484.904 172.801ZM495.489 175.061C495.676 174.168 495.65 173.354 495.411 172.617C495.188 171.884 494.815 171.283 494.292 170.814C493.769 170.346 493.163 170.039 492.474 169.895C491.785 169.751 491.106 169.789 490.439 170.01C489.775 170.214 489.187 170.606 488.674 171.185C488.179 171.752 487.839 172.482 487.652 173.375C487.466 174.268 487.482 175.088 487.702 175.837C487.937 176.589 488.315 177.207 488.835 177.692C489.374 178.164 489.98 178.47 490.653 178.611C491.342 178.755 492.02 178.717 492.688 178.497C493.355 178.276 493.937 177.875 494.435 177.292C494.951 176.697 495.303 175.954 495.489 175.061ZM359.991 173.264L357.533 185.034C357.228 186.491 356.542 187.549 355.472 188.208C354.418 188.871 353.171 189.051 351.73 188.75C350.289 188.449 349.211 187.783 348.495 186.751C347.794 185.722 347.596 184.479 347.9 183.022L350.602 183.587C350.467 184.31 350.528 184.92 350.784 185.415C351.056 185.913 351.537 186.234 352.226 186.378C352.915 186.522 353.484 186.42 353.932 186.072C354.384 185.709 354.684 185.175 354.831 184.47L357.289 172.7L359.991 173.264ZM366.508 191.886C365.287 191.631 364.24 191.126 363.367 190.372C362.498 189.602 361.887 188.657 361.532 187.537C361.181 186.401 361.145 185.167 361.423 183.836C361.697 182.521 362.231 181.414 363.023 180.517C363.815 179.62 364.77 179.002 365.886 178.664C367.003 178.325 368.18 178.285 369.418 178.543C370.655 178.801 371.718 179.309 372.605 180.067C373.493 180.824 374.121 181.773 374.488 182.912C374.854 184.051 374.9 185.278 374.626 186.594C374.351 187.909 373.81 189.014 373.002 189.908C372.194 190.802 371.214 191.422 370.063 191.77C368.93 192.106 367.746 192.144 366.508 191.886ZM366.994 189.56C367.683 189.704 368.36 189.674 369.023 189.469C369.703 189.268 370.299 188.878 370.813 188.298C371.326 187.719 371.681 186.959 371.877 186.02C372.073 185.08 372.058 184.251 371.832 183.534C371.609 182.801 371.235 182.208 370.708 181.755C370.182 181.301 369.574 181.003 368.885 180.859C368.196 180.715 367.519 180.745 366.855 180.95C366.207 181.158 365.642 181.555 365.16 182.141C364.682 182.711 364.344 183.466 364.148 184.405C363.857 185.799 363.983 186.954 364.528 187.868C365.091 188.77 365.913 189.334 366.994 189.56ZM380.898 183.172C381.483 182.64 382.208 182.261 383.073 182.033C383.957 181.792 384.885 181.773 385.856 181.976C386.999 182.215 387.975 182.705 388.785 183.446C389.595 184.187 390.159 185.123 390.479 186.252C390.802 187.365 390.828 188.572 390.557 189.872C390.285 191.172 389.775 192.283 389.027 193.206C388.282 194.113 387.379 194.758 386.318 195.141C385.276 195.512 384.191 195.579 383.064 195.344C382.061 195.134 381.209 194.752 380.508 194.197C379.822 193.645 379.316 193.017 378.99 192.311L378.597 194.19L375.919 193.631L379.55 176.246L382.228 176.805L380.898 183.172ZM387.831 189.303C388.018 188.41 387.99 187.604 387.748 186.883C387.526 186.15 387.143 185.555 386.601 185.099C386.078 184.63 385.472 184.323 384.783 184.179C384.109 184.039 383.431 184.077 382.748 184.294C382.081 184.514 381.491 184.914 380.978 185.493C380.48 186.076 380.138 186.813 379.951 187.706C379.765 188.599 379.782 189.42 380.001 190.168C380.24 190.905 380.62 191.507 381.144 191.976C381.682 192.448 382.289 192.755 382.962 192.895C383.651 193.039 384.329 193.001 384.996 192.781C385.683 192.548 386.276 192.133 386.777 191.535C387.293 190.94 387.645 190.196 387.831 189.303ZM418.551 185.495L415.141 201.823L412.462 201.263L414.798 190.081L407.482 200.223L405.626 199.836L402.958 187.608L400.622 198.79L397.944 198.231L401.354 181.903L404.244 182.507L407.302 196.508L415.685 184.897L418.551 185.495ZM419.132 195.84C419.404 194.541 419.91 193.445 420.652 192.554C421.41 191.666 422.308 191.044 423.346 190.689C424.404 190.322 425.496 190.256 426.624 190.491C427.642 190.704 428.484 191.092 429.151 191.657C429.837 192.208 430.345 192.829 430.674 193.519L431.067 191.64L433.769 192.204L431.065 205.149L428.363 204.585L428.766 202.658C428.184 203.174 427.459 203.554 426.591 203.798C425.723 204.041 424.787 204.058 423.785 203.849C422.673 203.617 421.714 203.122 420.908 202.365C420.105 201.593 419.535 200.64 419.2 199.508C418.883 198.363 418.861 197.14 419.132 195.84ZM429.718 198.1C429.904 197.208 429.878 196.393 429.64 195.657C429.417 194.924 429.044 194.323 428.521 193.854C427.997 193.385 427.391 193.079 426.702 192.935C426.013 192.791 425.335 192.829 424.668 193.049C424.004 193.254 423.415 193.646 422.902 194.225C422.408 194.792 422.067 195.522 421.881 196.415C421.694 197.307 421.711 198.128 421.93 198.877C422.166 199.629 422.543 200.247 423.063 200.732C423.602 201.204 424.208 201.51 424.882 201.651C425.571 201.795 426.249 201.756 426.916 201.536C427.583 201.316 428.165 200.915 428.663 200.332C429.18 199.737 429.531 198.993 429.718 198.1ZM439.955 195.776L438.458 202.942C438.357 203.427 438.393 203.803 438.566 204.068C438.759 204.32 439.129 204.504 439.677 204.618L441.322 204.962L440.855 207.194L438.741 206.752C437.535 206.5 436.67 206.025 436.145 205.327C435.621 204.629 435.491 203.646 435.756 202.377L437.253 195.212L435.726 194.893L436.182 192.708L437.709 193.027L438.381 189.809L441.083 190.373L440.411 193.591L443.559 194.249L443.103 196.434L439.955 195.776ZM443.785 201.039C444.063 199.707 444.573 198.596 445.315 197.705C446.076 196.802 446.991 196.175 448.061 195.827C449.131 195.478 450.285 195.433 451.522 195.691C453.088 196.019 454.302 196.664 455.163 197.629C456.043 198.581 456.519 199.784 456.591 201.237L453.702 200.634C453.601 199.942 453.33 199.363 452.888 198.894C452.446 198.426 451.834 198.11 451.051 197.947C449.955 197.718 448.996 197.926 448.174 198.572C447.372 199.205 446.825 200.219 446.534 201.613C446.243 203.007 446.337 204.162 446.815 205.079C447.309 206 448.105 206.575 449.201 206.804C450.752 207.128 451.92 206.661 452.706 205.403L455.595 206.006C454.945 207.243 454.021 208.145 452.823 208.713C451.629 209.264 450.265 209.38 448.73 209.059C447.493 208.801 446.454 208.298 445.613 207.55C444.775 206.786 444.187 205.846 443.848 204.729C443.528 203.6 443.507 202.37 443.785 201.039ZM466.854 198.894C467.84 199.1 468.673 199.494 469.353 200.078C470.047 200.664 470.527 201.418 470.792 202.34C471.073 203.265 471.091 204.315 470.846 205.489L469.251 213.124L466.596 212.57L468.108 205.334C468.35 204.175 468.245 203.23 467.793 202.498C467.344 201.75 466.619 201.272 465.616 201.063C464.614 200.853 463.75 201 463.024 201.502C462.317 201.992 461.842 202.816 461.6 203.975L460.089 211.211L457.41 210.651L461.041 193.267L463.72 193.826L462.478 199.77C463.047 199.316 463.707 199.013 464.458 198.859C465.225 198.709 466.024 198.72 466.854 198.894ZM485.949 209.526C485.848 210.012 485.725 210.444 485.58 210.822L475.69 208.757C475.552 209.807 475.763 210.717 476.321 211.487C476.879 212.258 477.66 212.748 478.662 212.957C480.103 213.258 481.247 212.868 482.094 211.786L484.983 212.389C484.343 213.498 483.426 214.328 482.232 214.88C481.057 215.419 479.71 215.53 478.191 215.212C476.954 214.954 475.899 214.448 475.027 213.693C474.173 212.927 473.569 211.983 473.215 210.863C472.879 209.731 472.851 208.499 473.129 207.167C473.407 205.836 473.917 204.725 474.659 203.834C475.419 202.93 476.343 202.306 477.428 201.96C478.529 201.618 479.714 201.58 480.983 201.845C482.204 202.1 483.237 202.593 484.082 203.326C484.926 204.058 485.513 204.965 485.842 206.047C486.175 207.114 486.211 208.273 485.949 209.526ZM483.33 208.097C483.521 207.107 483.333 206.242 482.769 205.503C482.204 204.764 481.412 204.288 480.394 204.076C479.47 203.883 478.617 204.015 477.835 204.473C477.056 204.915 476.499 205.624 476.165 206.6L483.33 208.097ZM491.821 218.059C490.803 217.847 489.925 217.475 489.185 216.945C488.465 216.402 487.936 215.768 487.597 215.044C487.261 214.303 487.159 213.538 487.291 212.749L490.063 213.328C489.996 213.886 490.158 214.402 490.549 214.876C490.959 215.337 491.525 215.644 492.245 215.794C492.997 215.951 493.606 215.931 494.072 215.734C494.557 215.525 494.847 215.193 494.942 214.739C495.043 214.254 494.884 213.844 494.463 213.511C494.058 213.181 493.383 212.771 492.44 212.28C491.525 211.81 490.788 211.387 490.229 211.009C489.671 210.631 489.218 210.136 488.872 209.524C488.541 208.915 488.464 208.188 488.641 207.343C488.785 206.653 489.119 206.07 489.644 205.591C490.173 205.096 490.847 204.763 491.668 204.591C492.504 204.423 493.415 204.441 494.402 204.647C495.874 204.955 496.978 205.578 497.714 206.516C498.468 207.442 498.743 208.553 498.537 209.851L495.859 209.291C495.933 208.702 495.795 208.191 495.444 207.758C495.093 207.325 494.557 207.034 493.837 206.883C493.132 206.736 492.564 206.756 492.132 206.944C491.701 207.132 491.439 207.445 491.348 207.883C491.276 208.228 491.34 208.544 491.542 208.831C491.744 209.118 492.01 209.37 492.34 209.586C492.675 209.787 493.173 210.063 493.835 210.413C494.722 210.86 495.436 211.279 495.975 211.669C496.534 212.048 496.98 212.533 497.314 213.126C497.648 213.719 497.736 214.432 497.578 215.265C497.424 216.001 497.083 216.617 496.555 217.111C496.027 217.605 495.352 217.939 494.532 218.11C493.727 218.286 492.824 218.269 491.821 218.059Z" fill="#474E68"/>
</g>
</g>
<g filter="url(#filter1_i_847_7168)">
<g clip-path="url(#clip1_847_7168)">
<path d="M229.191 9.65595e-06L0 56.2796L62.0029 308.778L291.194 252.499L229.191 9.65595e-06Z" fill="white"/>
<path d="M42.9883 231.345L46.8768 226.509C50.8011 221.708 58.5781 212.034 66.929 204.807C75.2696 197.539 84.1737 192.675 94.1057 191.887C104.027 191.057 114.987 194.345 124.898 193.473C134.81 192.601 143.673 187.569 153.315 185.602C162.948 183.594 173.349 184.609 183.757 185.757C194.174 186.947 204.587 188.228 214.623 187.861C224.658 187.494 234.295 185.395 242.956 179.431C251.607 173.425 259.271 163.511 263.077 158.56L266.909 153.603L291.297 252.92L286.535 254.089C281.798 255.252 272.274 257.591 262.725 259.936C253.175 262.281 243.6 264.632 234.05 266.977C224.501 269.322 214.976 271.661 205.427 274.006C195.877 276.351 186.302 278.702 176.752 281.047C167.203 283.392 157.679 285.731 148.129 288.076C138.579 290.421 129.004 292.772 119.455 295.117C109.905 297.462 100.381 299.801 90.8311 302.145C81.2815 304.49 71.7064 306.842 66.8934 308.024L62.1058 309.199L42.9883 231.345Z" fill="#FFE1E5"/>
<path d="M40.1992 219.983L45.5758 221.206C50.9675 222.381 61.7207 224.827 71.7456 224.418C81.781 224.051 91.0985 220.87 100.886 219.493C110.683 218.158 120.941 218.585 131.255 219.354C141.559 220.081 151.91 221.109 161.439 218.68C170.978 216.293 179.685 210.406 188.294 204.232C196.893 198.015 205.384 191.468 215.068 189.67C224.762 187.914 235.639 190.866 245.623 190.288C255.607 189.711 264.676 185.52 269.196 183.473L273.731 181.378L291.298 252.92L286.536 254.089C281.799 255.252 272.275 257.591 262.726 259.936C253.176 262.281 243.601 264.632 234.051 266.977C224.502 269.322 214.977 271.661 205.428 274.006C195.878 276.351 186.303 278.702 176.753 281.047C167.204 283.392 157.68 285.731 148.13 288.076C138.58 290.421 129.005 292.772 119.456 295.117C109.906 297.462 100.382 299.801 90.8322 302.145C81.2826 304.49 71.7075 306.842 66.8945 308.024L62.1069 309.199L40.1992 219.983Z" fill="#FFC6CD"/>
<path d="M48.7762 254.912L53.1711 252.137C57.5811 249.314 66.3708 243.765 75.8688 241.209C85.3667 238.654 95.5729 239.092 105.247 237.252C114.92 235.413 124.041 231.21 132.96 226.298C141.869 221.343 150.566 215.638 160.684 215.608C170.802 215.577 182.341 221.222 192.428 221.065C202.504 220.866 211.14 214.908 220.493 211.764C229.857 208.661 239.949 208.414 249.364 205.522C258.769 202.588 267.508 197.051 271.841 194.247L276.211 191.478L291.298 252.92L286.536 254.089C281.799 255.252 272.275 257.591 262.726 259.936C253.176 262.281 243.601 264.632 234.051 266.977C224.502 269.322 214.977 271.661 205.428 274.006C195.878 276.351 186.303 278.702 176.753 281.047C167.204 283.392 157.68 285.731 148.13 288.076C138.58 290.421 129.005 292.772 119.456 295.117C109.906 297.462 100.382 299.801 90.8321 302.145C81.2825 304.49 71.7074 306.842 66.8944 308.024L62.1068 309.199L48.7762 254.912Z" fill="#FFABB5"/>
<path d="M51.0488 264.17L56.4874 265.646C61.9618 267.157 72.8389 270.109 82.5436 268.395C92.2482 266.681 100.78 260.302 109.844 255.98C118.908 251.657 128.525 249.474 138.24 247.802C147.965 246.172 157.799 245.096 167.194 242.12C176.588 239.144 185.543 234.268 195.537 233.732C205.542 233.239 216.575 237.044 226.124 234.699C235.674 232.354 243.74 223.859 252.732 219.241C261.734 214.666 271.671 214.011 276.615 213.689L281.583 213.362L291.297 252.92L286.535 254.089C281.799 255.252 272.274 257.591 262.725 259.936C253.175 262.281 243.6 264.632 234.05 266.977C224.501 269.322 214.977 271.661 205.427 274.006C195.877 276.351 186.302 278.702 176.753 281.047C167.203 283.392 157.679 285.731 148.129 288.076C138.579 290.421 129.004 292.772 119.455 295.117C109.905 297.462 100.381 299.801 90.8313 302.146C81.2817 304.491 71.7066 306.842 66.8936 308.024L62.106 309.199L51.0488 264.17Z" fill="#FF8F9C"/>
<path d="M58.7986 295.733L63.3278 293.505C67.8824 291.271 76.9408 286.816 85.9945 282.451C95.0377 278.044 104.087 273.769 113.533 271.003C122.979 268.237 132.823 266.98 142.703 265.982C152.584 264.984 162.48 264.16 172.546 263.919C182.612 263.678 192.849 264.02 201.789 259.192C210.739 254.407 218.403 244.493 227.405 239.918C236.397 235.3 246.736 236.063 256.555 234.812C266.383 233.603 275.701 230.423 280.334 228.839L284.993 227.249L291.297 252.92L286.535 254.089C281.798 255.252 272.274 257.591 262.724 259.936C253.174 262.281 243.599 264.632 234.05 266.977C224.5 269.322 214.976 271.661 205.426 274.006C195.877 276.351 186.302 278.702 176.752 281.047C167.202 283.392 157.678 285.731 148.128 288.076C138.579 290.421 129.004 292.772 119.454 295.117C109.904 297.462 100.38 299.801 90.8307 302.146C81.281 304.49 71.7059 306.842 66.8929 308.024L62.1054 309.199L58.7986 295.733Z" fill="#FF7083"/>
<path d="M63.7445 83.1744L67.7222 99.3731L65.0651 100.026L63.3252 92.9401L55.7036 94.8116L57.4435 101.897L54.7865 102.55L50.8088 86.3508L53.4658 85.6984L55.1714 92.644L62.793 90.7725L61.0874 83.8268L63.7445 83.1744ZM69.0006 83.6383C68.5189 83.7566 68.0749 83.6926 67.6684 83.4465C67.262 83.2003 66.9996 82.8364 66.8814 82.3547C66.7631 81.873 66.827 81.4289 67.0732 81.0225C67.3194 80.616 67.6833 80.3537 68.165 80.2354C68.6312 80.1209 69.0675 80.1868 69.4739 80.433C69.8803 80.6792 70.1427 81.0431 70.261 81.5248C70.3792 82.0065 70.3153 82.4505 70.0691 82.857C69.8229 83.2634 69.4668 83.5238 69.0006 83.6383ZM70.7236 85.0193L73.8772 97.8617L71.2201 98.5142L68.0666 85.6717L70.7236 85.0193ZM79.3349 82.6823C80.3294 82.4381 81.2569 82.4245 82.1175 82.6415C82.9898 82.8392 83.716 83.1799 84.296 83.6635L83.8382 81.7989L86.5185 81.1407L89.7236 94.193C90.0136 95.3739 90.0225 96.4838 89.7504 97.5226C89.4821 98.577 88.9389 99.4848 88.1208 100.246C87.3182 101.003 86.2643 101.542 84.9591 101.862C83.2188 102.29 81.6726 102.233 80.3206 101.692C78.9723 101.166 78.0488 100.223 77.55 98.8628L80.1838 98.216C80.5498 98.8346 81.1088 99.2657 81.8606 99.5095C82.6318 99.7649 83.4757 99.7801 84.3925 99.555C85.4647 99.2917 86.2469 98.7536 86.7393 97.9408C87.2472 97.1241 87.3485 96.0942 87.0432 94.8511L86.5167 92.7068C86.2149 93.4235 85.727 94.087 85.0531 94.6973C84.391 95.2882 83.5704 95.7039 82.5915 95.9443C81.4727 96.219 80.3785 96.1912 79.3089 95.8607C78.2509 95.5109 77.326 94.8978 76.5342 94.0213C75.754 93.1255 75.2056 92.0328 74.8889 90.7431C74.5722 89.4534 74.5559 88.2465 74.84 87.1223C75.1397 85.9943 75.6811 85.0458 76.4643 84.2768C77.2593 83.4885 78.2161 82.957 79.3349 82.6823ZM85.4121 88.2085C85.1946 87.3228 84.8193 86.5994 84.2861 86.0384C83.7685 85.4735 83.1724 85.0927 82.498 84.8958C81.8236 84.699 81.1446 84.6845 80.4609 84.8524C79.7772 85.0203 79.1821 85.3476 78.6756 85.8345C78.1653 86.3058 77.8038 86.9135 77.5911 87.6577C77.3901 88.3825 77.3984 89.1878 77.6159 90.0735C77.8334 90.9591 78.2029 91.6922 78.7243 92.2726C79.2613 92.8492 79.8689 93.2436 80.5471 93.456C81.2371 93.6491 81.9161 93.6636 82.5843 93.4995C83.268 93.3316 83.8631 93.0042 84.3696 92.5174C84.8761 92.0306 85.2279 91.417 85.425 90.6766C85.6339 89.9169 85.6296 89.0942 85.4121 88.2085ZM96.5996 78.4428C97.5786 78.2024 98.5002 78.1985 99.3646 78.4311C100.245 78.6599 101.003 79.1326 101.64 79.8493C102.293 80.5622 102.763 81.5013 103.049 82.6667L104.909 90.2416L102.275 90.8884L100.513 83.7096C100.23 82.5598 99.7271 81.7525 99.0034 81.2876C98.2759 80.8073 97.4149 80.6892 96.4204 80.9334C95.4259 81.1776 94.7098 81.683 94.272 82.4495C93.8458 83.1967 93.774 84.1452 94.0563 85.295L95.8191 92.4737L93.162 93.1262L88.9268 75.8786L91.5838 75.2261L93.0318 81.1229C93.3489 80.4685 93.813 79.9097 94.4242 79.4465C95.051 78.9796 95.7761 78.645 96.5996 78.4428ZM115.811 77.4323L116.36 79.6698L106.781 82.0221L106.231 79.7846L115.811 77.4323ZM120.612 69.2102L124.589 85.409L121.932 86.0614L117.955 69.8627L120.612 69.2102ZM140.419 67.6826C141.429 67.4346 142.382 67.4231 143.277 67.648C144.188 67.8692 144.97 68.3362 145.623 69.0491C146.291 69.7581 146.769 70.6953 147.055 71.8607L148.915 79.4357L146.281 80.0824L144.518 72.9037C144.236 71.7538 143.733 70.9465 143.009 70.4817C142.282 70.0013 141.421 69.8833 140.426 70.1275C139.432 70.3716 138.716 70.877 138.278 71.6435C137.852 72.3907 137.78 73.3392 138.062 74.4891L139.825 81.6678L137.191 82.3145L135.428 75.1358C135.146 73.986 134.643 73.1786 133.919 72.7138C133.192 72.2334 132.331 72.1154 131.336 72.3596C130.342 72.6038 129.626 73.1091 129.188 73.8756C128.762 74.6228 128.69 75.5713 128.972 76.7212L130.735 83.8999L128.078 84.5524L124.924 71.7099L127.581 71.0574L127.942 72.5258C128.247 71.8907 128.698 71.3434 129.293 70.8841C129.889 70.4248 130.568 70.1017 131.329 69.9147C132.355 69.6629 133.325 69.6553 134.24 69.892C135.154 70.1287 135.93 70.6054 136.568 71.322C136.765 70.4497 137.221 69.6872 137.934 69.0343C138.643 68.366 139.471 67.9154 140.419 67.6826ZM152.263 66.9984C152.569 66.2973 153.06 65.6494 153.738 65.0546C154.416 64.4598 155.244 64.0422 156.223 63.8019C157.342 63.5271 158.428 63.5569 159.482 63.8912C160.548 64.2061 161.467 64.7959 162.24 65.6606C163.012 66.5253 163.557 67.6026 163.874 68.8922C164.19 70.1819 164.21 71.4044 163.934 72.5597C163.654 73.6994 163.118 74.6712 162.327 75.475C161.547 76.2595 160.598 76.7891 159.48 77.0639C158.501 77.3042 157.583 77.3237 156.726 77.1222C155.865 76.9052 155.122 76.5606 154.495 76.0884L156.453 84.0596L153.795 84.712L149.142 65.763L151.799 65.1105L152.263 66.9984ZM161.17 69.5562C160.952 68.6705 160.579 67.9549 160.05 67.4094C159.532 66.8445 158.93 66.4733 158.244 66.2958C157.57 66.099 156.891 66.0845 156.207 66.2524C155.539 66.4165 154.944 66.7438 154.422 67.2345C153.915 67.7213 153.555 68.3368 153.343 69.081C153.146 69.8214 153.156 70.6344 153.373 71.5201C153.591 72.4058 153.96 73.1388 154.482 73.7192C155.015 74.2802 155.619 74.6592 156.293 74.856C156.983 75.0491 157.662 75.0636 158.33 74.8995C159.014 74.7316 159.609 74.4043 160.116 73.9174C160.634 73.4112 160.99 72.7802 161.183 72.0243C161.392 71.2645 161.387 70.4418 161.17 69.5562ZM165.615 68.4645C165.299 67.1748 165.283 65.9679 165.567 64.8437C165.866 63.7157 166.408 62.7672 167.191 61.9983C167.986 61.2099 168.943 60.6784 170.061 60.4037C171.071 60.1557 171.999 60.1421 172.844 60.363C173.701 60.5645 174.427 60.9051 175.023 61.3849L174.565 59.5203L177.245 58.8621L180.399 71.7046L177.718 72.3628L177.249 70.4516C176.947 71.1682 176.457 71.8239 175.78 72.4187C175.102 73.0135 174.266 73.433 173.271 73.6772C172.168 73.9481 171.09 73.9164 170.035 73.5821C168.977 73.2323 168.053 72.6192 167.261 71.7427C166.481 70.8469 165.932 69.7542 165.615 68.4645ZM176.139 65.9299C175.921 65.0442 175.546 64.3208 175.013 63.7598C174.495 63.195 173.899 62.8141 173.225 62.6172C172.55 62.4204 171.871 62.4059 171.187 62.5738C170.504 62.7417 169.909 63.069 169.402 63.5559C168.892 64.0272 168.53 64.6349 168.318 65.3791C168.117 66.1039 168.125 66.9092 168.342 67.7949C168.56 68.6806 168.929 69.4136 169.451 69.994C169.988 70.5706 170.595 70.9651 171.274 71.1775C171.964 71.3705 172.643 71.385 173.311 71.2209C173.995 71.053 174.59 70.7257 175.096 70.2388C175.603 69.752 175.954 69.1384 176.152 68.398C176.36 67.6383 176.356 66.8156 176.139 65.9299ZM181.423 64.6322C181.099 63.3115 181.079 62.089 181.363 60.9648C181.659 59.8213 182.214 58.8612 183.028 58.0846C183.842 57.308 184.863 56.769 186.091 56.4676C187.645 56.086 189.018 56.1441 190.211 56.642C191.416 57.1204 192.365 57.9995 193.058 59.2791L190.192 59.9831C189.802 59.4032 189.307 58.9976 188.707 58.7661C188.106 58.5347 187.417 58.5143 186.64 58.7051C185.553 58.9722 184.778 59.5743 184.316 60.5115C183.866 61.4293 183.811 62.5797 184.15 63.9626C184.49 65.3455 185.074 66.3472 185.901 66.9677C186.745 67.5843 187.71 67.7591 188.798 67.492C190.336 67.1143 191.188 66.1885 191.353 64.7145L194.22 64.0106C194.168 65.4074 193.724 66.6201 192.889 67.6489C192.051 68.6621 190.87 69.3556 189.347 69.7296C188.12 70.031 186.965 70.0262 185.884 69.7151C184.799 69.3884 183.862 68.7947 183.074 67.9338C182.298 67.0535 181.748 65.953 181.423 64.6322ZM198.343 55.9798L200.088 63.0886C200.207 63.5703 200.401 63.8932 200.672 64.0573C200.955 64.2021 201.368 64.2077 201.912 64.0741L203.543 63.6735L204.087 65.8877L201.99 66.4028C200.793 66.6966 199.808 66.642 199.033 66.2391C198.259 65.8362 197.717 65.0054 197.408 63.7468L195.662 56.638L194.147 57.01L193.615 54.8424L195.13 54.4704L194.346 51.2772L197.026 50.619L197.81 53.8122L200.934 53.0452L201.466 55.2128L198.343 55.9798ZM64.609 137.38C63.1018 137.75 61.6252 137.742 60.1794 137.356C58.7453 136.95 57.5007 136.209 56.4458 135.134C55.4027 134.039 54.6865 132.699 54.2973 131.114C53.9081 129.529 53.9241 128.018 54.3454 126.58C54.7822 125.138 55.544 123.913 56.6309 122.905C57.7295 121.877 59.0325 121.179 60.5397 120.808C62.0625 120.434 63.5409 120.45 64.975 120.856C66.4209 121.242 67.6635 121.975 68.7028 123.055C69.7422 124.134 70.4565 125.466 70.8457 127.051C71.2349 128.636 71.2207 130.155 70.8033 131.608C70.3821 133.046 69.6221 134.279 68.5235 135.307C67.4366 136.315 66.1318 137.006 64.609 137.38ZM64.0424 135.073C65.1145 134.809 66.011 134.334 66.7318 133.646C67.4488 132.943 67.9297 132.083 68.1745 131.068C68.4311 130.033 68.4125 128.917 68.1187 127.72C67.8249 126.524 67.3265 125.534 66.6235 124.751C65.936 123.965 65.1136 123.433 64.1563 123.158C63.1989 122.882 62.1842 122.876 61.112 123.139C60.0399 123.402 59.1434 123.878 58.4226 124.566C57.7018 125.253 57.2112 126.107 56.9509 127.127C56.706 128.142 56.7305 129.248 57.0243 130.445C57.3181 131.641 57.8106 132.641 58.5019 133.443C59.2049 134.226 60.037 134.763 60.9981 135.054C61.9555 135.33 62.9702 135.336 64.0424 135.073ZM75.4191 122.913C75.6473 122.165 76.0361 121.534 76.5854 121.02C77.1464 120.487 77.8698 120.112 78.7555 119.894L79.4309 122.644L78.7549 122.81C77.7139 123.066 76.9863 123.525 76.5722 124.187C76.1736 124.845 76.1345 125.826 76.4551 127.131L78.1148 133.891L75.4578 134.543L72.3042 121.701L74.9613 121.048L75.4191 122.913ZM86.3722 118.024C87.3666 117.78 88.2941 117.766 89.1547 117.983C90.027 118.181 90.7532 118.521 91.3333 119.005L90.8754 117.14L93.5558 116.482L96.7609 129.534C97.0508 130.715 97.0598 131.825 96.7877 132.864C96.5194 133.918 95.9762 134.826 95.1581 135.587C94.3555 136.344 93.3016 136.883 91.9964 137.204C90.2561 137.631 88.7099 137.574 87.3578 137.033C86.0096 136.507 85.0861 135.564 84.5873 134.204L87.221 133.557C87.5871 134.176 88.146 134.607 88.8979 134.851C89.669 135.106 90.513 135.122 91.4298 134.896C92.5019 134.633 93.2842 134.095 93.7765 133.282C94.2844 132.466 94.3857 131.436 94.0805 130.193L93.5539 128.048C93.2521 128.765 92.7643 129.428 92.0904 130.039C91.4282 130.63 90.6077 131.045 89.6287 131.286C88.51 131.56 87.4158 131.533 86.3461 131.202C85.2882 130.852 84.3633 130.239 83.5714 129.363C82.7913 128.467 82.2429 127.374 81.9262 126.085C81.6095 124.795 81.5932 123.588 81.8773 122.464C82.1769 121.336 82.7184 120.387 83.5016 119.618C84.2965 118.83 85.2534 118.298 86.3722 118.024ZM92.4493 123.55C92.2319 122.664 91.8565 121.941 91.3233 121.38C90.8057 120.815 90.2097 120.434 89.5353 120.237C88.8609 120.04 88.1818 120.026 87.4982 120.194C86.8145 120.362 86.2194 120.689 85.7128 121.176C85.2025 121.647 84.841 122.255 84.6283 122.999C84.4274 123.724 84.4357 124.529 84.6532 125.415C84.8706 126.301 85.2401 127.034 85.7616 127.614C86.2986 128.191 86.9062 128.585 87.5844 128.797C88.2743 128.991 88.9534 129.005 89.6215 128.841C90.3052 128.673 90.9003 128.346 91.4068 127.859C91.9133 127.372 92.2652 126.758 92.4623 126.018C92.6711 125.258 92.6668 124.436 92.4493 123.55ZM97.7225 122.206C97.4058 120.916 97.3895 119.709 97.6736 118.585C97.9733 117.457 98.5147 116.508 99.2979 115.739C100.093 114.951 101.05 114.42 102.169 114.145C103.179 113.897 104.106 113.883 104.951 114.104C105.808 114.306 106.534 114.646 107.13 115.126L106.672 113.261L109.352 112.603L112.506 125.446L109.825 126.104L109.356 124.193C109.054 124.909 108.564 125.565 107.887 126.16C107.209 126.755 106.373 127.174 105.378 127.418C104.275 127.689 103.197 127.657 102.142 127.323C101.085 126.973 100.16 126.36 99.3678 125.484C98.5876 124.588 98.0392 123.495 97.7225 122.206ZM108.246 119.671C108.028 118.785 107.653 118.062 107.12 117.501C106.602 116.936 106.006 116.555 105.332 116.358C104.657 116.161 103.978 116.147 103.295 116.315C102.611 116.483 102.016 116.81 101.509 117.297C100.999 117.768 100.637 118.376 100.425 119.12C100.224 119.845 100.232 120.65 100.45 121.536C100.667 122.422 101.036 123.155 101.558 123.735C102.095 124.312 102.703 124.706 103.381 124.919C104.071 125.112 104.75 125.126 105.418 124.962C106.102 124.794 106.697 124.467 107.203 123.98C107.71 123.493 108.062 122.879 108.259 122.139C108.467 121.379 108.463 120.557 108.246 119.671ZM119.27 109.945C120.28 109.697 121.233 109.686 122.128 109.911C123.039 110.132 123.821 110.599 124.474 111.312C125.127 112.025 125.596 112.964 125.883 114.129L127.743 121.704L125.109 122.351L123.346 115.172C123.064 114.022 122.561 113.215 121.837 112.75C121.109 112.27 120.248 112.152 119.254 112.396C118.26 112.64 117.543 113.145 117.106 113.912C116.679 114.659 116.608 115.608 116.89 116.758L118.653 123.936L115.996 124.589L112.842 111.746L115.499 111.094L115.86 112.562C116.165 111.927 116.616 111.38 117.211 110.921C117.822 110.457 118.509 110.132 119.27 109.945ZM128.912 105.996C128.431 106.114 127.987 106.05 127.58 105.804C127.174 105.558 126.911 105.194 126.793 104.712C126.675 104.231 126.739 103.787 126.985 103.38C127.231 102.974 127.595 102.711 128.077 102.593C128.543 102.479 128.979 102.545 129.386 102.791C129.792 103.037 130.054 103.401 130.173 103.882C130.291 104.364 130.227 104.808 129.981 105.215C129.735 105.621 129.379 105.882 128.912 105.996ZM130.635 107.377L133.789 120.219L131.132 120.872L127.978 108.029L130.635 107.377ZM139.099 116.617L144.926 115.186L145.458 117.354L136.555 119.54L136.023 117.373L139.784 107.429L133.934 108.865L133.401 106.698L142.305 104.511L142.837 106.679L139.099 116.617ZM145.772 110.407C145.455 109.117 145.439 107.91 145.723 106.786C146.022 105.658 146.564 104.71 147.347 103.941C148.142 103.152 149.099 102.621 150.218 102.346C151.228 102.098 152.155 102.084 153 102.305C153.857 102.507 154.583 102.847 155.179 103.327L154.721 101.463L157.401 100.804L160.555 113.647L157.874 114.305L157.405 112.394C157.103 113.111 156.614 113.766 155.936 114.361C155.258 114.956 154.422 115.375 153.428 115.619C152.324 115.89 151.246 115.859 150.192 115.524C149.134 115.175 148.209 114.561 147.417 113.685C146.637 112.789 146.088 111.696 145.772 110.407ZM156.295 107.872C156.077 106.986 155.702 106.263 155.169 105.702C154.651 105.137 154.055 104.756 153.381 104.56C152.706 104.363 152.027 104.348 151.344 104.516C150.66 104.684 150.065 105.011 149.558 105.498C149.048 105.969 148.686 106.577 148.474 107.321C148.273 108.046 148.281 108.851 148.499 109.737C148.716 110.623 149.086 111.356 149.607 111.936C150.144 112.513 150.752 112.907 151.43 113.12C152.12 113.313 152.799 113.327 153.467 113.163C154.151 112.995 154.746 112.668 155.252 112.181C155.759 111.694 156.111 111.081 156.308 110.34C156.517 109.581 156.512 108.758 156.295 107.872ZM164.523 101.354L166.269 108.463C166.387 108.944 166.582 109.267 166.853 109.431C167.136 109.576 167.549 109.582 168.093 109.448L169.724 109.048L170.268 111.262L168.17 111.777C166.974 112.071 165.988 112.016 165.214 111.613C164.439 111.21 163.898 110.379 163.589 109.121L161.843 102.012L160.328 102.384L159.796 100.216L161.311 99.8444L160.527 96.6513L163.207 95.9931L163.991 99.1862L167.114 98.4193L167.647 100.587L164.523 101.354ZM170.497 95.7845C170.016 95.9028 169.572 95.8389 169.165 95.5927C168.759 95.3465 168.496 94.9826 168.378 94.5009C168.26 94.0192 168.324 93.5751 168.57 93.1687C168.816 92.7623 169.18 92.4999 169.662 92.3816C170.128 92.2672 170.564 92.333 170.971 92.5792C171.377 92.8254 171.639 93.1893 171.758 93.671C171.876 94.1527 171.812 94.5968 171.566 95.0032C171.32 95.4096 170.963 95.6701 170.497 95.7845ZM172.22 97.1655L175.374 110.008L172.717 110.66L169.563 97.8179L172.22 97.1655ZM184.484 107.993C183.272 108.291 182.11 108.288 180.998 107.984C179.881 107.665 178.922 107.077 178.118 106.22C177.311 105.348 176.745 104.251 176.42 102.93C176.1 101.625 176.103 100.397 176.43 99.2456C176.757 98.0944 177.351 97.1248 178.212 96.3368C179.073 95.5488 180.117 95.004 181.344 94.7026C182.572 94.4012 183.75 94.4003 184.878 94.6999C186.006 94.9996 186.981 95.5838 187.804 96.4526C188.627 97.3214 189.199 98.4085 189.519 99.7137C189.84 101.019 189.829 102.249 189.486 103.404C189.144 104.559 188.529 105.542 187.64 106.353C186.764 107.145 185.712 107.692 184.484 107.993ZM183.918 105.686C184.601 105.518 185.198 105.198 185.709 104.727C186.235 104.252 186.604 103.642 186.817 102.898C187.029 102.154 187.021 101.316 186.792 100.383C186.563 99.451 186.192 98.7102 185.678 98.1609C185.16 97.596 184.566 97.223 183.896 97.0416C183.225 96.8603 182.548 96.8536 181.864 97.0215C181.181 97.1894 180.584 97.509 180.073 97.9803C179.579 98.4477 179.24 99.0498 179.059 99.7863C178.873 100.507 178.895 101.334 179.124 102.266C179.464 103.649 180.077 104.636 180.963 105.225C181.861 105.796 182.846 105.949 183.918 105.686ZM197 90.8582C198.01 90.6102 198.963 90.5987 199.858 90.8236C200.769 91.0448 201.551 91.5118 202.204 92.2247C202.857 92.9375 203.326 93.8767 203.612 95.0421L205.473 102.617L202.839 103.264L201.076 96.085C200.794 94.9352 200.291 94.1278 199.567 93.663C198.839 93.1827 197.978 93.0646 196.984 93.3088C195.989 93.553 195.273 94.0583 194.835 94.8249C194.409 95.572 194.337 96.5205 194.62 97.6704L196.383 104.849L193.726 105.502L190.572 92.6591L193.229 92.0066L193.59 93.475C193.895 92.8399 194.345 92.2927 194.941 91.8334C195.552 91.3703 196.239 91.0452 197 90.8582ZM213.575 100.85C212.565 101.098 211.612 101.142 210.716 100.983C209.832 100.805 209.081 100.462 208.462 99.9553C207.839 99.4327 207.417 98.7868 207.195 98.0175L209.946 97.3421C210.126 97.8745 210.495 98.2699 211.052 98.5284C211.622 98.7675 212.264 98.7993 212.979 98.6238C213.725 98.4406 214.265 98.1596 214.6 97.7807C214.948 97.3825 215.066 96.958 214.955 96.5074C214.837 96.0257 214.516 95.7256 213.993 95.607C213.485 95.4845 212.699 95.4056 211.636 95.3701C210.608 95.3425 209.76 95.2788 209.093 95.179C208.426 95.0792 207.804 94.8282 207.228 94.4261C206.667 94.0202 206.283 93.3977 206.077 92.5586C205.909 91.8749 205.959 91.2038 206.225 90.5452C206.488 89.8711 206.952 89.2793 207.618 88.7698C208.299 88.2566 209.13 87.8797 210.108 87.6394C211.569 87.2807 212.834 87.3655 213.903 87.8939C214.983 88.4029 215.711 89.2868 216.086 90.5457L213.429 91.1982C213.241 90.6347 212.896 90.2336 212.392 89.9947C211.889 89.7559 211.279 89.7243 210.565 89.8998C209.865 90.0715 209.362 90.3352 209.054 90.6909C208.746 91.0466 208.645 91.442 208.752 91.8771C208.836 92.219 209.031 92.4759 209.337 92.6479C209.642 92.82 209.991 92.932 210.383 92.9841C210.771 93.0206 211.339 93.0541 212.088 93.0844C213.081 93.104 213.906 93.1735 214.561 93.2926C215.228 93.3924 215.84 93.6375 216.397 94.0279C216.955 94.4183 217.342 95.0234 217.56 95.8431C217.739 96.5734 217.697 97.2756 217.435 97.9497C217.172 98.6239 216.707 99.2157 216.042 99.7251C215.392 100.231 214.569 100.606 213.575 100.85Z" fill="#474E68"/>
</g>
</g>
<g filter="url(#filter2_i_847_7168)">
<g clip-path="url(#clip2_847_7168)">
<path d="M382 212.28H146V472.28H382V212.28Z" fill="white"/>
<path d="M146 392.546L150.93 388.776C155.886 385.05 165.745 377.51 175.579 372.483C185.412 367.413 195.219 364.813 205.052 366.416C214.886 367.976 224.745 373.783 234.579 375.3C244.412 376.816 254.219 374.043 264.052 374.433C273.886 374.78 283.745 378.246 293.579 381.843C303.412 385.483 313.219 389.21 323.052 391.246C332.886 393.283 342.745 393.543 352.579 389.816C362.412 386.046 372.219 378.246 377.096 374.346L382 370.446V472.713H377.096C372.219 472.713 362.412 472.713 352.579 472.713C342.745 472.713 332.886 472.713 323.052 472.713C313.219 472.713 303.412 472.713 293.579 472.713C283.745 472.713 273.886 472.713 264.052 472.713C254.219 472.713 244.412 472.713 234.579 472.713C224.745 472.713 214.886 472.713 205.052 472.713C195.219 472.713 185.412 472.713 175.579 472.713C165.745 472.713 155.886 472.713 150.93 472.713H146V392.546Z" fill="#FFFAC3"/>
<path d="M146 380.846L150.93 383.316C155.886 385.743 165.745 390.683 175.579 392.676C185.412 394.713 195.219 393.846 205.052 394.843C214.886 395.883 224.745 398.743 234.579 401.95C244.412 405.113 254.219 408.58 264.052 408.493C273.886 408.45 283.745 404.81 293.579 400.866C303.412 396.88 313.219 392.546 323.052 393.11C332.886 393.716 342.745 399.176 352.579 400.996C362.412 402.816 372.219 400.91 377.096 400L382 399.046V472.713H377.096C372.219 472.713 362.412 472.713 352.579 472.713C342.745 472.713 332.886 472.713 323.052 472.713C313.219 472.713 303.412 472.713 293.579 472.713C283.745 472.713 273.886 472.713 264.052 472.713C254.219 472.713 244.412 472.713 234.579 472.713C224.745 472.713 214.886 472.713 205.052 472.713C195.219 472.713 185.412 472.713 175.579 472.713C165.745 472.713 155.886 472.713 150.93 472.713H146V380.846Z" fill="#F8F2A9"/>
<path d="M146 416.813L150.93 415.166C155.886 413.476 165.745 410.183 175.579 409.966C185.412 409.75 195.219 412.61 205.052 413.13C214.886 413.65 224.745 411.743 234.579 409.1C244.412 406.413 254.219 402.946 264.052 405.33C273.886 407.713 283.745 415.946 293.579 418.2C303.412 420.41 313.219 416.683 323.052 415.86C332.886 415.08 342.745 417.246 352.579 416.683C362.412 416.076 372.219 412.783 377.096 411.093L382 409.446V472.713H377.096C372.219 472.713 362.412 472.713 352.579 472.713C342.745 472.713 332.886 472.713 323.052 472.713C313.219 472.713 303.412 472.713 293.579 472.713C283.745 472.713 273.886 472.713 264.052 472.713C254.219 472.713 244.412 472.713 234.579 472.713C224.745 472.713 214.886 472.713 205.052 472.713C195.219 472.713 185.412 472.713 175.579 472.713C165.745 472.713 155.886 472.713 150.93 472.713H146V416.813Z" fill="#F1E98F"/>
<path d="M146 426.346L150.93 429.076C155.886 431.85 165.745 437.31 175.579 437.96C185.412 438.61 195.219 434.45 205.052 432.413C214.886 430.376 224.745 430.55 234.579 431.243C244.412 431.98 254.219 433.28 264.052 432.63C273.886 431.98 283.745 429.38 293.579 431.243C303.412 433.15 313.219 439.476 323.052 439.476C332.886 439.476 342.745 433.15 352.579 430.81C362.412 428.513 372.219 430.246 377.096 431.113L382 431.98V472.713H377.096C372.219 472.713 362.412 472.713 352.579 472.713C342.745 472.713 332.886 472.713 323.052 472.713C313.219 472.713 303.412 472.713 293.579 472.713C283.745 472.713 273.886 472.713 264.052 472.713C254.219 472.713 244.412 472.713 234.579 472.713C224.745 472.713 214.886 472.713 205.052 472.713C195.219 472.713 185.412 472.713 175.579 472.713C165.745 472.713 155.886 472.713 150.93 472.713H146V426.346Z" fill="#EAE075"/>
<path d="M146 458.846L150.93 457.763C155.886 456.68 165.745 454.513 175.579 452.433C185.412 450.31 195.219 448.316 205.052 447.883C214.886 447.45 224.745 448.576 234.579 449.963C244.412 451.35 254.219 452.91 264.052 455.076C273.886 457.243 283.745 460.016 293.579 457.46C303.412 454.946 313.219 447.146 323.052 444.85C332.886 442.51 342.745 445.716 352.579 446.843C362.412 448.013 372.219 447.146 377.096 446.713L382 446.28V472.713H377.096C372.219 472.713 362.412 472.713 352.579 472.713C342.745 472.713 332.886 472.713 323.052 472.713C313.219 472.713 303.412 472.713 293.579 472.713C283.745 472.713 273.886 472.713 264.052 472.713C254.219 472.713 244.412 472.713 234.579 472.713C224.745 472.713 214.886 472.713 205.052 472.713C195.219 472.713 185.412 472.713 175.579 472.713C165.745 472.713 155.886 472.713 150.93 472.713H146V458.846Z" fill="#E2D759"/>
<path d="M235.956 258.568C235.956 259.416 235.756 260.216 235.356 260.968C234.956 261.72 234.316 262.336 233.436 262.816C232.556 263.28 231.428 263.512 230.052 263.512H227.028V270.28H224.292V253.6H230.052C231.332 253.6 232.412 253.824 233.292 254.272C234.188 254.704 234.852 255.296 235.284 256.048C235.732 256.8 235.956 257.64 235.956 258.568ZM230.052 261.28C231.092 261.28 231.868 261.048 232.38 260.584C232.892 260.104 233.148 259.432 233.148 258.568C233.148 256.744 232.116 255.832 230.052 255.832H227.028V261.28H230.052ZM241.302 258.976C241.702 258.304 242.23 257.784 242.886 257.416C243.558 257.032 244.35 256.84 245.262 256.84V259.672H244.566C243.494 259.672 242.678 259.944 242.118 260.488C241.574 261.032 241.302 261.976 241.302 263.32V270.28H238.566V257.056H241.302V258.976ZM253.513 270.496C252.265 270.496 251.137 270.216 250.129 269.656C249.121 269.08 248.329 268.28 247.753 267.256C247.177 266.216 246.889 265.016 246.889 263.656C246.889 262.312 247.185 261.12 247.777 260.08C248.369 259.04 249.177 258.24 250.201 257.68C251.225 257.12 252.369 256.84 253.633 256.84C254.897 256.84 256.041 257.12 257.065 257.68C258.089 258.24 258.897 259.04 259.489 260.08C260.081 261.12 260.377 262.312 260.377 263.656C260.377 265 260.073 266.192 259.465 267.232C258.857 268.272 258.025 269.08 256.969 269.656C255.929 270.216 254.777 270.496 253.513 270.496ZM253.513 268.12C254.217 268.12 254.873 267.952 255.481 267.616C256.105 267.28 256.609 266.776 256.993 266.104C257.377 265.432 257.569 264.616 257.569 263.656C257.569 262.696 257.385 261.888 257.017 261.232C256.649 260.56 256.161 260.056 255.553 259.72C254.945 259.384 254.289 259.216 253.585 259.216C252.881 259.216 252.225 259.384 251.617 259.72C251.025 260.056 250.553 260.56 250.201 261.232C249.849 261.888 249.673 262.696 249.673 263.656C249.673 265.08 250.033 266.184 250.753 266.968C251.489 267.736 252.409 268.12 253.513 268.12ZM268.193 267.832L271.937 257.056H274.841L269.801 270.28H266.537L261.521 257.056H264.449L268.193 267.832ZM289.029 263.344C289.029 263.84 288.997 264.288 288.933 264.688H278.829C278.909 265.744 279.301 266.592 280.005 267.232C280.709 267.872 281.573 268.192 282.597 268.192C284.069 268.192 285.109 267.576 285.717 266.344H288.669C288.269 267.56 287.541 268.56 286.485 269.344C285.445 270.112 284.149 270.496 282.597 270.496C281.333 270.496 280.197 270.216 279.189 269.656C278.197 269.08 277.413 268.28 276.837 267.256C276.277 266.216 275.997 265.016 275.997 263.656C275.997 262.296 276.269 261.104 276.813 260.08C277.373 259.04 278.149 258.24 279.141 257.68C280.149 257.12 281.301 256.84 282.597 256.84C283.845 256.84 284.957 257.112 285.933 257.656C286.909 258.2 287.669 258.968 288.213 259.96C288.757 260.936 289.029 262.064 289.029 263.344ZM286.173 262.48C286.157 261.472 285.797 260.664 285.093 260.056C284.389 259.448 283.517 259.144 282.477 259.144C281.533 259.144 280.725 259.448 280.053 260.056C279.381 260.648 278.981 261.456 278.853 262.48H286.173ZM298.394 256.84C299.434 256.84 300.362 257.056 301.178 257.488C302.01 257.92 302.658 258.56 303.122 259.408C303.586 260.256 303.818 261.28 303.818 262.48V270.28H301.106V262.888C301.106 261.704 300.81 260.8 300.218 260.176C299.626 259.536 298.818 259.216 297.794 259.216C296.77 259.216 295.954 259.536 295.346 260.176C294.754 260.8 294.458 261.704 294.458 262.888V270.28H291.722V257.056H294.458V258.568C294.906 258.024 295.474 257.6 296.162 257.296C296.866 256.992 297.61 256.84 298.394 256.84ZM219.188 289.6V306.28H216.452V289.6H219.188ZM229.452 292.84C230.492 292.84 231.42 293.056 232.236 293.488C233.068 293.92 233.716 294.56 234.18 295.408C234.644 296.256 234.876 297.28 234.876 298.48V306.28H232.164V298.888C232.164 297.704 231.868 296.8 231.276 296.176C230.684 295.536 229.876 295.216 228.852 295.216C227.828 295.216 227.012 295.536 226.404 296.176C225.812 296.8 225.516 297.704 225.516 298.888V306.28H222.78V293.056H225.516V294.568C225.964 294.024 226.532 293.6 227.22 293.296C227.924 292.992 228.668 292.84 229.452 292.84ZM237.454 299.608C237.454 298.28 237.726 297.104 238.27 296.08C238.83 295.056 239.582 294.264 240.526 293.704C241.486 293.128 242.55 292.84 243.718 292.84C244.582 292.84 245.43 293.032 246.262 293.416C247.11 293.784 247.782 294.28 248.278 294.904V288.52H251.038V306.28H248.278V304.288C247.83 304.928 247.206 305.456 246.406 305.872C245.622 306.288 244.718 306.496 243.694 306.496C242.542 306.496 241.486 306.208 240.526 305.632C239.582 305.04 238.83 304.224 238.27 303.184C237.726 302.128 237.454 300.936 237.454 299.608ZM248.278 299.656C248.278 298.744 248.086 297.952 247.702 297.28C247.334 296.608 246.846 296.096 246.238 295.744C245.63 295.392 244.974 295.216 244.27 295.216C243.566 295.216 242.91 295.392 242.302 295.744C241.694 296.08 241.198 296.584 240.814 297.256C240.446 297.912 240.262 298.696 240.262 299.608C240.262 300.52 240.446 301.32 240.814 302.008C241.198 302.696 241.694 303.224 242.302 303.592C242.926 303.944 243.582 304.12 244.27 304.12C244.974 304.12 245.63 303.944 246.238 303.592C246.846 303.24 247.334 302.728 247.702 302.056C248.086 301.368 248.278 300.568 248.278 299.656ZM266.608 293.056V306.28H263.872V304.72C263.44 305.264 262.872 305.696 262.168 306.016C261.48 306.32 260.744 306.472 259.96 306.472C258.92 306.472 257.984 306.256 257.152 305.824C256.336 305.392 255.688 304.752 255.208 303.904C254.744 303.056 254.512 302.032 254.512 300.832V293.056H257.224V300.424C257.224 301.608 257.52 302.52 258.112 303.16C258.704 303.784 259.512 304.096 260.536 304.096C261.56 304.096 262.368 303.784 262.96 303.16C263.568 302.52 263.872 301.608 263.872 300.424V293.056H266.608ZM275.018 306.496C273.978 306.496 273.042 306.312 272.21 305.944C271.394 305.56 270.746 305.048 270.266 304.408C269.786 303.752 269.53 303.024 269.498 302.224H272.33C272.378 302.784 272.642 303.256 273.122 303.64C273.618 304.008 274.234 304.192 274.97 304.192C275.738 304.192 276.33 304.048 276.746 303.76C277.178 303.456 277.394 303.072 277.394 302.608C277.394 302.112 277.154 301.744 276.674 301.504C276.21 301.264 275.466 301 274.442 300.712C273.45 300.44 272.642 300.176 272.018 299.92C271.394 299.664 270.85 299.272 270.386 298.744C269.938 298.216 269.714 297.52 269.714 296.656C269.714 295.952 269.922 295.312 270.338 294.736C270.754 294.144 271.346 293.68 272.114 293.344C272.898 293.008 273.794 292.84 274.802 292.84C276.306 292.84 277.514 293.224 278.426 293.992C279.354 294.744 279.85 295.776 279.914 297.088H277.178C277.13 296.496 276.89 296.024 276.458 295.672C276.026 295.32 275.442 295.144 274.706 295.144C273.986 295.144 273.434 295.28 273.05 295.552C272.666 295.824 272.474 296.184 272.474 296.632C272.474 296.984 272.602 297.28 272.858 297.52C273.114 297.76 273.426 297.952 273.794 298.096C274.162 298.224 274.706 298.392 275.426 298.6C276.386 298.856 277.17 299.12 277.778 299.392C278.402 299.648 278.938 300.032 279.386 300.544C279.834 301.056 280.066 301.736 280.082 302.584C280.082 303.336 279.874 304.008 279.458 304.6C279.042 305.192 278.45 305.656 277.682 305.992C276.93 306.328 276.042 306.496 275.018 306.496ZM286.23 295.288V302.608C286.23 303.104 286.342 303.464 286.566 303.688C286.806 303.896 287.206 304 287.766 304H289.446V306.28H287.286C286.054 306.28 285.11 305.992 284.454 305.416C283.798 304.84 283.47 303.904 283.47 302.608V295.288H281.91V293.056H283.47V289.768H286.23V293.056H289.446V295.288H286.23ZM294.704 294.976C295.104 294.304 295.632 293.784 296.288 293.416C296.96 293.032 297.752 292.84 298.664 292.84V295.672H297.968C296.896 295.672 296.08 295.944 295.52 296.488C294.976 297.032 294.704 297.976 294.704 299.32V306.28H291.968V293.056H294.704V294.976ZM313.083 293.056L304.971 312.496H302.139L304.827 306.064L299.619 293.056H302.667L306.387 303.136L310.251 293.056H313.083ZM221.11 340.072H226.75V342.28H218.374V325.6H221.11V340.072ZM241.158 335.344C241.158 335.84 241.126 336.288 241.062 336.688H230.958C231.038 337.744 231.43 338.592 232.134 339.232C232.838 339.872 233.702 340.192 234.726 340.192C236.198 340.192 237.238 339.576 237.846 338.344H240.798C240.398 339.56 239.67 340.56 238.614 341.344C237.574 342.112 236.278 342.496 234.726 342.496C233.462 342.496 232.326 342.216 231.318 341.656C230.326 341.08 229.542 340.28 228.966 339.256C228.406 338.216 228.126 337.016 228.126 335.656C228.126 334.296 228.398 333.104 228.942 332.08C229.502 331.04 230.278 330.24 231.27 329.68C232.278 329.12 233.43 328.84 234.726 328.84C235.974 328.84 237.086 329.112 238.062 329.656C239.038 330.2 239.798 330.968 240.342 331.96C240.886 332.936 241.158 334.064 241.158 335.344ZM238.302 334.48C238.286 333.472 237.926 332.664 237.222 332.056C236.518 331.448 235.646 331.144 234.606 331.144C233.662 331.144 232.854 331.448 232.182 332.056C231.51 332.648 231.11 333.456 230.982 334.48H238.302ZM242.939 335.608C242.939 334.28 243.211 333.104 243.755 332.08C244.315 331.056 245.067 330.264 246.011 329.704C246.971 329.128 248.027 328.84 249.179 328.84C250.219 328.84 251.123 329.048 251.891 329.464C252.675 329.864 253.299 330.368 253.763 330.976V329.056H256.523V342.28H253.763V340.312C253.299 340.936 252.667 341.456 251.867 341.872C251.067 342.288 250.155 342.496 249.131 342.496C247.995 342.496 246.955 342.208 246.011 341.632C245.067 341.04 244.315 340.224 243.755 339.184C243.211 338.128 242.939 336.936 242.939 335.608ZM253.763 335.656C253.763 334.744 253.571 333.952 253.187 333.28C252.819 332.608 252.331 332.096 251.723 331.744C251.115 331.392 250.459 331.216 249.755 331.216C249.051 331.216 248.395 331.392 247.787 331.744C247.179 332.08 246.683 332.584 246.299 333.256C245.931 333.912 245.747 334.696 245.747 335.608C245.747 336.52 245.931 337.32 246.299 338.008C246.683 338.696 247.179 339.224 247.787 339.592C248.411 339.944 249.067 340.12 249.755 340.12C250.459 340.12 251.115 339.944 251.723 339.592C252.331 339.24 252.819 338.728 253.187 338.056C253.571 337.368 253.763 336.568 253.763 335.656ZM259.204 335.608C259.204 334.28 259.476 333.104 260.02 332.08C260.58 331.056 261.332 330.264 262.276 329.704C263.236 329.128 264.3 328.84 265.468 328.84C266.332 328.84 267.18 329.032 268.012 329.416C268.86 329.784 269.532 330.28 270.028 330.904V324.52H272.788V342.28H270.028V340.288C269.58 340.928 268.956 341.456 268.156 341.872C267.372 342.288 266.468 342.496 265.444 342.496C264.292 342.496 263.236 342.208 262.276 341.632C261.332 341.04 260.58 340.224 260.02 339.184C259.476 338.128 259.204 336.936 259.204 335.608ZM270.028 335.656C270.028 334.744 269.836 333.952 269.452 333.28C269.084 332.608 268.596 332.096 267.988 331.744C267.38 331.392 266.724 331.216 266.02 331.216C265.316 331.216 264.66 331.392 264.052 331.744C263.444 332.08 262.948 332.584 262.564 333.256C262.196 333.912 262.012 334.696 262.012 335.608C262.012 336.52 262.196 337.32 262.564 338.008C262.948 338.696 263.444 339.224 264.052 339.592C264.676 339.944 265.332 340.12 266.02 340.12C266.724 340.12 267.38 339.944 267.988 339.592C268.596 339.24 269.084 338.728 269.452 338.056C269.836 337.368 270.028 336.568 270.028 335.656ZM288.502 335.344C288.502 335.84 288.47 336.288 288.406 336.688H278.302C278.382 337.744 278.774 338.592 279.478 339.232C280.182 339.872 281.046 340.192 282.07 340.192C283.542 340.192 284.582 339.576 285.19 338.344H288.142C287.742 339.56 287.014 340.56 285.958 341.344C284.918 342.112 283.622 342.496 282.07 342.496C280.806 342.496 279.67 342.216 278.662 341.656C277.67 341.08 276.886 340.28 276.31 339.256C275.75 338.216 275.47 337.016 275.47 335.656C275.47 334.296 275.742 333.104 276.286 332.08C276.846 331.04 277.622 330.24 278.614 329.68C279.622 329.12 280.774 328.84 282.07 328.84C283.318 328.84 284.43 329.112 285.406 329.656C286.382 330.2 287.142 330.968 287.686 331.96C288.23 332.936 288.502 334.064 288.502 335.344ZM285.646 334.48C285.63 333.472 285.27 332.664 284.566 332.056C283.862 331.448 282.99 331.144 281.95 331.144C281.006 331.144 280.198 331.448 279.526 332.056C278.854 332.648 278.454 333.456 278.326 334.48H285.646ZM293.931 330.976C294.331 330.304 294.859 329.784 295.515 329.416C296.187 329.032 296.979 328.84 297.891 328.84V331.672H297.195C296.123 331.672 295.307 331.944 294.747 332.488C294.203 333.032 293.931 333.976 293.931 335.32V342.28H291.195V329.056H293.931V330.976ZM305.205 342.496C304.165 342.496 303.229 342.312 302.397 341.944C301.581 341.56 300.933 341.048 300.453 340.408C299.973 339.752 299.717 339.024 299.685 338.224H302.517C302.565 338.784 302.829 339.256 303.309 339.64C303.805 340.008 304.421 340.192 305.157 340.192C305.925 340.192 306.517 340.048 306.933 339.76C307.365 339.456 307.581 339.072 307.581 338.608C307.581 338.112 307.341 337.744 306.861 337.504C306.397 337.264 305.653 337 304.629 336.712C303.637 336.44 302.829 336.176 302.205 335.92C301.581 335.664 301.037 335.272 300.573 334.744C300.125 334.216 299.901 333.52 299.901 332.656C299.901 331.952 300.109 331.312 300.525 330.736C300.941 330.144 301.533 329.68 302.301 329.344C303.085 329.008 303.981 328.84 304.989 328.84C306.493 328.84 307.701 329.224 308.613 329.992C309.541 330.744 310.037 331.776 310.101 333.088H307.365C307.317 332.496 307.077 332.024 306.645 331.672C306.213 331.32 305.629 331.144 304.893 331.144C304.173 331.144 303.621 331.28 303.237 331.552C302.853 331.824 302.661 332.184 302.661 332.632C302.661 332.984 302.789 333.28 303.045 333.52C303.301 333.76 303.613 333.952 303.981 334.096C304.349 334.224 304.893 334.392 305.613 334.6C306.573 334.856 307.357 335.12 307.965 335.392C308.589 335.648 309.125 336.032 309.573 336.544C310.021 337.056 310.253 337.736 310.269 338.584C310.269 339.336 310.061 340.008 309.645 340.6C309.229 341.192 308.637 341.656 307.869 341.992C307.117 342.328 306.229 342.496 305.205 342.496Z" fill="#474E68"/>
</g>
</g>
<defs>
<filter id="filter0_i_847_7168" x="272" y="87" width="284.172" height="302.758" filterUnits="userSpaceOnUse" color-interpolation-filters="sRGB">
<feFlood flood-opacity="0" result="BackgroundImageFix"/>
<feBlend mode="normal" in="SourceGraphic" in2="BackgroundImageFix" result="shape"/>
<feColorMatrix in="SourceAlpha" type="matrix" values="0 0 0 0 0 0 0 0 0 0 0 0 0 0 0 0 0 0 127 0" result="hardAlpha"/>
<feOffset/>
<feGaussianBlur stdDeviation="3"/>
<feComposite in2="hardAlpha" operator="arithmetic" k2="-1" k3="1"/>
<feColorMatrix type="matrix" values="0 0 0 0 0.282353 0 0 0 0 0.282353 0 0 0 0 0.282353 0 0 0 0.25 0"/>
<feBlend mode="normal" in2="shape" result="effect1_innerShadow_847_7168"/>
</filter>
<filter id="filter1_i_847_7168" x="0" y="0" width="291.193" height="308.778" filterUnits="userSpaceOnUse" color-interpolation-filters="sRGB">
<feFlood flood-opacity="0" result="BackgroundImageFix"/>
<feBlend mode="normal" in="SourceGraphic" in2="BackgroundImageFix" result="shape"/>
<feColorMatrix in="SourceAlpha" type="matrix" values="0 0 0 0 0 0 0 0 0 0 0 0 0 0 0 0 0 0 127 0" result="hardAlpha"/>
<feOffset/>
<feGaussianBlur stdDeviation="3"/>
<feComposite in2="hardAlpha" operator="arithmetic" k2="-1" k3="1"/>
<feColorMatrix type="matrix" values="0 0 0 0 0.282353 0 0 0 0 0.282353 0 0 0 0 0.282353 0 0 0 0.25 0"/>
<feBlend mode="normal" in2="shape" result="effect1_innerShadow_847_7168"/>
</filter>
<filter id="filter2_i_847_7168" x="146" y="212.28" width="236" height="260" filterUnits="userSpaceOnUse" color-interpolation-filters="sRGB">
<feFlood flood-opacity="0" result="BackgroundImageFix"/>
<feBlend mode="normal" in="SourceGraphic" in2="BackgroundImageFix" result="shape"/>
<feColorMatrix in="SourceAlpha" type="matrix" values="0 0 0 0 0 0 0 0 0 0 0 0 0 0 0 0 0 0 127 0" result="hardAlpha"/>
<feOffset/>
<feGaussianBlur stdDeviation="3"/>
<feComposite in2="hardAlpha" operator="arithmetic" k2="-1" k3="1"/>
<feColorMatrix type="matrix" values="0 0 0 0 0.282353 0 0 0 0 0.282353 0 0 0 0 0.282353 0 0 0 0.25 0"/>
<feBlend mode="normal" in2="shape" result="effect1_innerShadow_847_7168"/>
</filter>
<clipPath id="clip0_847_7168">
<rect x="325.156" y="87" width="236" height="260" rx="20" transform="rotate(11.7973 325.156 87)" fill="white"/>
</clipPath>
<clipPath id="clip1_847_7168">
<rect y="56.2796" width="236" height="260" rx="20" transform="rotate(-13.7964 0 56.2796)" fill="white"/>
</clipPath>
<clipPath id="clip2_847_7168">
<rect x="146" y="212.28" width="236" height="260" rx="20" fill="white"/>
</clipPath>
</defs>
</svg>
