<svg width="363" height="309" viewBox="0 0 363 309" fill="none" xmlns="http://www.w3.org/2000/svg">
<g filter="url(#filter0_i_175_732)">
<g clip-path="url(#clip0_175_732)">
<path d="M362.172 51.5298L131.157 3.27954L78.0001 257.788L309.015 306.038L362.172 51.5298Z" fill="white"/>
<path d="M94.3016 179.739L99.898 177.056C105.511 174.421 116.704 169.056 127.357 166.146C138.02 163.194 148.151 162.654 157.449 166.234C166.756 169.771 175.22 177.471 184.535 180.966C193.851 184.461 204.018 183.752 213.564 186.144C223.118 188.493 232.061 193.903 240.951 199.434C249.833 205.007 258.671 210.66 267.88 214.664C277.089 218.669 286.687 220.939 297.075 219.301C307.471 217.621 318.666 211.991 324.238 209.171L329.835 206.356L308.926 306.462L304.126 305.46C299.352 304.462 289.752 302.457 280.127 300.447C270.501 298.437 260.85 296.421 251.224 294.41C241.598 292.4 231.998 290.395 222.373 288.384C212.747 286.374 203.096 284.358 193.47 282.348C183.845 280.337 174.245 278.332 164.619 276.322C154.993 274.311 145.342 272.296 135.717 270.285C126.091 268.275 116.491 266.27 106.865 264.259C97.2397 262.249 87.5884 260.233 82.7371 259.22L77.9114 258.212L94.3016 179.739Z" fill="#D1FFEC"/>
<path d="M96.6934 168.286L101.014 171.711C105.369 175.1 114.011 181.951 123.229 185.913C132.438 189.917 142.215 191.074 151.637 194.06C161.05 197.088 170.116 201.904 179.086 207.053C188.065 212.16 196.956 217.559 206.6 219.484C216.234 221.452 226.63 219.905 237.062 218.055C247.502 216.163 257.988 213.927 267.499 216.488C277 219.093 285.535 226.453 294.789 230.245C304.042 234.037 314.032 234.176 318.992 234.282L323.987 234.352L308.926 306.462L304.126 305.46C299.352 304.462 289.752 302.457 280.126 300.447C270.501 298.436 260.849 296.421 251.224 294.41C241.598 292.4 231.998 290.395 222.373 288.384C212.747 286.374 203.096 284.358 193.47 282.348C183.844 280.337 174.244 278.332 164.619 276.322C154.993 274.311 145.342 272.296 135.716 270.285C126.091 268.275 116.491 266.27 106.865 264.259C97.2394 262.249 87.5881 260.233 82.7368 259.22L77.9112 258.212L96.6934 168.286Z" fill="#B5F4D9"/>
<path d="M89.3398 203.492L94.5022 202.888C99.699 202.247 110.024 201.039 119.694 202.838C129.363 204.636 138.379 209.441 147.898 211.96C157.417 214.48 167.458 214.629 177.624 214.052C187.799 213.433 198.108 212.044 207.246 216.388C216.385 220.731 224.353 230.806 233.518 235.022C242.691 239.196 253.053 237.553 262.847 238.758C272.632 240.005 281.841 244.141 291.582 245.6C301.331 247.017 311.604 245.798 316.724 245.141L321.861 244.532L308.926 306.462L304.126 305.459C299.352 304.462 289.752 302.457 280.126 300.447C270.501 298.436 260.849 296.421 251.224 294.41C241.598 292.4 231.998 290.395 222.372 288.384C212.747 286.374 203.096 284.358 193.47 282.348C183.844 280.337 174.244 278.332 164.619 276.322C154.993 274.311 145.342 272.295 135.716 270.285C126.091 268.275 116.491 266.269 106.865 264.259C97.2393 262.249 87.588 260.233 82.7367 259.22L77.9111 258.212L89.3398 203.492Z" fill="#99E8C6"/>
<path d="M87.3916 212.824L91.6591 216.505C95.9434 220.233 104.478 227.593 113.971 230.24C123.464 232.887 133.914 230.819 143.956 230.836C153.998 230.853 163.614 233.039 173.098 235.728C182.573 238.459 191.907 241.737 201.666 243.111C211.424 244.485 221.607 243.956 230.852 247.79C240.088 251.667 248.394 259.865 258.02 261.876C267.645 263.886 278.59 259.709 288.694 259.429C298.789 259.191 308.035 262.893 312.632 264.738L317.255 266.589L308.927 306.462L304.127 305.459C299.353 304.462 289.753 302.457 280.127 300.447C270.501 298.436 260.85 296.421 251.224 294.41C241.599 292.4 231.999 290.395 222.373 288.384C212.748 286.374 203.096 284.358 193.471 282.348C183.845 280.337 174.245 278.332 164.62 276.322C154.994 274.311 145.343 272.295 135.717 270.285C126.091 268.275 116.491 266.27 106.866 264.259C97.2402 262.249 87.5889 260.233 82.7376 259.22L77.9119 258.212L87.3916 212.824Z" fill="#7CDCB3"/>
<path d="M80.747 244.638L85.7942 244.585C90.867 244.538 100.961 244.433 111.012 244.408C121.072 244.34 131.079 244.393 140.794 245.98C150.508 247.566 159.929 250.685 169.271 254.052C178.613 257.42 187.894 260.952 197.077 265.084C206.259 269.215 215.344 273.945 225.492 273.453C235.631 273.003 246.826 267.373 256.921 267.135C267.025 266.855 276.021 272.01 285.416 275.123C294.803 278.279 304.58 279.436 309.443 280.009L314.331 280.587L308.927 306.462L304.127 305.46C299.353 304.462 289.753 302.457 280.127 300.447C270.501 298.436 260.85 296.421 251.225 294.41C241.599 292.4 231.999 290.395 222.373 288.384C212.748 286.374 203.096 284.358 193.471 282.348C183.845 280.337 174.245 278.332 164.62 276.322C154.994 274.311 145.343 272.296 135.717 270.285C126.091 268.275 116.492 266.27 106.866 264.259C97.2403 262.249 87.589 260.233 82.7376 259.22L77.912 258.212L80.747 244.638Z" fill="#5DD0A0"/>
<path d="M178.3 68.896L171.464 67.4681L169.593 70.5588L166.797 69.9749L176.062 54.8455L179.163 55.4932L181.598 73.0662L178.778 72.4774L178.3 68.896ZM178.005 66.5542L176.935 58.4114L172.672 65.4403L178.005 66.5542ZM190.229 57.8291L186.819 74.1568L184.141 73.5974L187.551 57.2698L190.229 57.8291ZM202.285 67.3346L201.814 69.59L192.158 67.5733L192.629 65.318L202.285 67.3346ZM217.89 68.6816C217.717 69.5117 217.357 70.2539 216.812 70.9082C216.267 71.5626 215.514 72.0347 214.555 72.3247C213.599 72.599 212.447 72.5954 211.1 72.3141L208.14 71.6958L206.756 78.3209L204.078 77.7615L207.488 61.4338L213.127 62.6115C214.38 62.8732 215.391 63.3132 216.161 63.9317C216.949 64.5378 217.478 65.253 217.748 66.0775C218.032 66.9052 218.08 67.7732 217.89 68.6816ZM211.556 70.1293C212.574 70.3419 213.381 70.2734 213.978 69.9239C214.577 69.5587 214.965 68.9533 215.141 68.1075C215.514 66.322 214.691 65.2183 212.67 64.7963L209.71 64.1781L208.596 69.511L211.556 70.1293ZM223.621 82.0639C222.399 81.8087 221.352 81.304 220.48 80.5498C219.611 79.7799 218.999 78.8348 218.645 77.7147C218.294 76.5789 218.257 75.3454 218.535 74.0141C218.81 72.6985 219.343 71.5922 220.135 70.6952C220.927 69.7982 221.882 69.1803 222.999 68.8415C224.116 68.5026 225.293 68.4625 226.53 68.7209C227.767 68.9793 228.83 69.4873 229.718 70.2448C230.606 71.0023 231.233 71.9506 231.6 73.0897C231.967 74.2288 232.013 75.4561 231.738 76.7717C231.463 78.0873 230.922 79.192 230.114 80.0857C229.306 80.9794 228.327 81.6003 227.175 81.9482C226.043 82.2838 224.858 82.3223 223.621 82.0639ZM224.106 79.7381C224.796 79.882 225.472 79.8517 226.136 79.6471C226.815 79.4458 227.412 79.0554 227.925 78.4761C228.438 77.8968 228.793 77.1373 228.989 76.1976C229.186 75.2579 229.171 74.4293 228.945 73.712C228.722 72.9789 228.347 72.3858 227.821 71.9326C227.294 71.4794 226.686 71.1808 225.997 71.0369C225.308 70.8929 224.632 70.9233 223.968 71.1279C223.32 71.3357 222.755 71.7326 222.273 72.3184C221.794 72.8886 221.456 73.6436 221.26 74.5833C220.969 75.9772 221.096 77.1315 221.64 78.0461C222.204 78.9484 223.026 79.5124 224.106 79.7381ZM253.12 74.4951L246.399 86.6007L243.58 86.0119L242.969 75.9056L238.364 84.9226L235.545 84.3338L234.208 70.5452L236.933 71.1143L237.461 82.0861L242.384 72.2527L245.179 72.8366L245.647 83.7466L250.489 73.9456L253.12 74.4951ZM265.7 83.5463C265.598 84.0318 265.475 84.4638 265.331 84.8423L255.44 82.7765C255.303 83.8266 255.513 84.7368 256.071 85.5072C256.63 86.2776 257.41 86.7675 258.412 86.9769C259.853 87.2778 260.997 86.8875 261.844 85.8058L264.734 86.4093C264.094 87.5179 263.177 88.3479 261.983 88.8994C260.808 89.4386 259.461 89.5495 257.941 89.2322C256.704 88.9738 255.649 88.4674 254.777 87.7132C253.924 86.9465 253.32 86.0031 252.965 84.883C252.63 83.7505 252.601 82.5186 252.879 81.1873C253.157 79.856 253.667 78.7448 254.409 77.8537C255.17 76.9501 256.093 76.3257 257.179 75.9803C258.28 75.6382 259.465 75.5997 260.733 75.8647C261.955 76.1198 262.988 76.6134 263.832 77.3455C264.676 78.0775 265.263 78.9847 265.593 80.0669C265.926 81.1335 265.961 82.2933 265.7 83.5463ZM263.081 82.1166C263.271 81.1267 263.084 80.2621 262.519 79.523C261.954 78.7839 261.163 78.3081 260.145 78.0955C259.221 77.9025 258.368 78.0348 257.586 78.4926C256.807 78.9347 256.25 79.6439 255.915 80.6201L263.081 82.1166ZM271.907 80.3804C272.436 79.8044 273.059 79.4033 273.776 79.1772C274.512 78.9387 275.327 78.9127 276.22 79.0992L275.641 81.8713L274.959 81.729C273.91 81.5099 273.056 81.6093 272.396 82.0273C271.753 82.4486 271.293 83.3171 271.019 84.6327L269.596 91.4456L266.917 90.8863L269.621 77.9416L272.299 78.501L271.907 80.3804ZM289.216 88.4579C289.114 88.9434 288.991 89.3754 288.847 89.7539L278.956 87.6881C278.819 88.7382 279.029 89.6484 279.587 90.4188C280.146 91.1892 280.926 91.6791 281.928 91.8885C283.369 92.1894 284.513 91.7991 285.36 90.7174L288.25 91.3209C287.61 92.4295 286.693 93.2595 285.499 93.811C284.324 94.3502 282.977 94.4611 281.457 94.1438C280.22 93.8854 279.165 93.379 278.293 92.6248C277.44 91.8581 276.836 90.9147 276.481 89.7946C276.146 88.6621 276.117 87.4302 276.395 86.0989C276.673 84.7676 277.183 83.6564 277.925 82.7653C278.686 81.8617 279.609 81.2373 280.695 80.8919C281.796 80.5498 282.981 80.5113 284.249 80.7763C285.471 81.0314 286.504 81.525 287.348 82.2571C288.192 82.9891 288.779 83.8963 289.109 84.9785C289.442 86.0452 289.477 87.2049 289.216 88.4579ZM286.597 87.0282C286.787 86.0383 286.6 85.1737 286.035 84.4346C285.47 83.6955 284.679 83.2197 283.661 83.0071C282.737 82.8141 281.884 82.9464 281.102 83.4042C280.323 83.8463 279.766 84.5555 279.431 85.5317L286.597 87.0282ZM290.905 89.0803C291.176 87.7804 291.683 86.6848 292.425 85.7937C293.182 84.9058 294.08 84.2843 295.119 83.9291C296.176 83.5616 297.277 83.4972 298.42 83.736C299.266 83.9126 300.057 84.2739 300.793 84.8199C301.547 85.3535 302.104 85.9765 302.462 86.6887L303.767 80.4395L306.469 81.0038L302.838 98.3887L300.136 97.8244L300.543 95.8745C299.974 96.4093 299.255 96.7986 298.387 97.0423C297.534 97.2892 296.607 97.308 295.605 97.0986C294.477 96.8631 293.502 96.3653 292.68 95.6052C291.877 94.8327 291.308 93.8802 290.972 92.7476C290.656 91.6027 290.633 90.3803 290.905 89.0803ZM301.49 91.3403C301.677 90.4476 301.651 89.633 301.412 88.8967C301.189 88.1637 300.816 87.5627 300.293 87.0939C299.77 86.625 299.164 86.3186 298.475 86.1747C297.786 86.0307 297.107 86.0689 296.44 86.2891C295.776 86.4937 295.188 86.8857 294.675 87.465C294.18 88.0319 293.84 88.7617 293.653 89.6544C293.467 90.5472 293.483 91.3679 293.703 92.1166C293.938 92.8686 294.316 93.4868 294.836 93.9714C295.375 94.4435 295.981 94.7499 296.654 94.8906C297.343 95.0345 298.021 94.9963 298.689 94.7761C299.356 94.5558 299.938 94.1544 300.436 93.5718C300.952 92.9769 301.304 92.233 301.49 91.3403ZM165.992 89.5437L163.534 101.314C163.229 102.77 162.543 103.828 161.473 104.487C160.419 105.15 159.172 105.331 157.731 105.03C156.29 104.729 155.212 104.062 154.496 103.03C153.795 102.001 153.597 100.758 153.901 99.3019L156.603 99.8662C156.468 100.59 156.529 101.199 156.785 101.694C157.057 102.192 157.538 102.513 158.227 102.657C158.916 102.801 159.485 102.699 159.933 102.352C160.385 101.988 160.685 101.454 160.832 100.749L163.29 88.9794L165.992 89.5437ZM172.509 108.165C171.288 107.91 170.241 107.406 169.368 106.651C168.499 105.881 167.888 104.936 167.533 103.816C167.182 102.68 167.146 101.447 167.424 100.116C167.698 98.8001 168.232 97.6938 169.024 96.7968C169.816 95.8998 170.771 95.2819 171.887 94.9431C173.004 94.6042 174.181 94.564 175.419 94.8225C176.656 95.0809 177.719 95.5889 178.606 96.3464C179.494 97.1039 180.122 98.0522 180.489 99.1913C180.855 100.33 180.901 101.558 180.627 102.873C180.352 104.189 179.811 105.294 179.003 106.187C178.195 107.081 177.215 107.702 176.064 108.05C174.931 108.385 173.746 108.424 172.509 108.165ZM172.995 105.84C173.684 105.984 174.361 105.953 175.024 105.749C175.704 105.547 176.3 105.157 176.814 104.578C177.327 103.998 177.682 103.239 177.878 102.299C178.074 101.359 178.059 100.531 177.833 99.8136C177.61 99.0805 177.236 98.4874 176.709 98.0342C176.183 97.581 175.575 97.2824 174.886 97.1385C174.197 96.9945 173.52 97.0249 172.856 97.2295C172.208 97.4373 171.643 97.8342 171.161 98.42C170.683 98.9902 170.345 99.7452 170.149 100.685C169.858 102.079 169.984 103.233 170.529 104.148C171.092 105.05 171.914 105.614 172.995 105.84ZM186.899 99.4515C187.484 98.9199 188.209 98.5401 189.074 98.3121C189.958 98.0717 190.886 98.0529 191.857 98.2557C193 98.4945 193.976 98.9845 194.786 99.7257C195.596 100.467 196.16 101.402 196.48 102.531C196.803 103.645 196.829 104.852 196.558 106.152C196.286 107.452 195.776 108.563 195.028 109.485C194.283 110.392 193.38 111.037 192.319 111.42C191.277 111.791 190.192 111.859 189.065 111.623C188.062 111.414 187.21 111.032 186.509 110.477C185.823 109.925 185.317 109.296 184.991 108.59L184.598 110.47L181.92 109.91L185.551 92.5255L188.229 93.0849L186.899 99.4515ZM193.832 105.582C194.019 104.69 193.991 103.883 193.749 103.162C193.527 102.429 193.144 101.835 192.602 101.378C192.079 100.909 191.473 100.603 190.784 100.459C190.11 100.318 189.432 100.356 188.749 100.573C188.082 100.794 187.492 101.193 186.979 101.773C186.481 102.355 186.139 103.093 185.952 103.986C185.766 104.878 185.783 105.699 186.002 106.448C186.241 107.184 186.621 107.787 187.145 108.256C187.683 108.728 188.29 109.034 188.963 109.175C189.652 109.319 190.33 109.281 190.997 109.06C191.684 108.828 192.277 108.412 192.778 107.814C193.294 107.219 193.646 106.475 193.832 105.582ZM224.552 101.775L221.142 118.102L218.463 117.543L220.799 106.36L213.483 116.503L211.627 116.115L208.959 103.887L206.623 115.07L203.945 114.511L207.355 98.1828L210.245 98.7864L213.303 112.787L221.686 101.176L224.552 101.775ZM225.133 112.12C225.405 110.82 225.911 109.724 226.653 108.833C227.411 107.945 228.309 107.324 229.347 106.969C230.405 106.601 231.497 106.535 232.625 106.771C233.643 106.983 234.485 107.372 235.152 107.936C235.838 108.488 236.346 109.109 236.675 109.799L237.068 107.919L239.77 108.484L237.066 121.428L234.364 120.864L234.767 118.938C234.185 119.454 233.46 119.833 232.592 120.077C231.724 120.321 230.788 120.338 229.786 120.128C228.674 119.896 227.715 119.402 226.909 118.645C226.106 117.872 225.536 116.92 225.201 115.787C224.884 114.642 224.862 113.42 225.133 112.12ZM235.719 114.38C235.905 113.487 235.879 112.673 235.641 111.936C235.418 111.203 235.045 110.602 234.521 110.133C233.998 109.665 233.392 109.358 232.703 109.214C232.014 109.07 231.336 109.109 230.669 109.329C230.005 109.533 229.416 109.925 228.903 110.505C228.409 111.072 228.068 111.801 227.882 112.694C227.695 113.587 227.712 114.408 227.931 115.156C228.167 115.908 228.544 116.526 229.064 117.011C229.603 117.483 230.209 117.79 230.883 117.93C231.572 118.074 232.25 118.036 232.917 117.816C233.584 117.595 234.166 117.194 234.664 116.611C235.181 116.017 235.532 115.273 235.719 114.38ZM245.956 112.056L244.459 119.221C244.358 119.707 244.394 120.082 244.567 120.347C244.76 120.6 245.13 120.783 245.678 120.898L247.323 121.241L246.856 123.473L244.742 123.032C243.536 122.78 242.671 122.305 242.146 121.607C241.622 120.909 241.492 119.926 241.757 118.657L243.254 111.492L241.727 111.173L242.183 108.988L243.71 109.307L244.382 106.088L247.084 106.652L246.412 109.871L249.56 110.528L249.104 112.713L245.956 112.056ZM249.786 117.318C250.064 115.987 250.574 114.876 251.316 113.985C252.077 113.081 252.992 112.455 254.062 112.106C255.132 111.758 256.286 111.713 257.523 111.971C259.089 112.298 260.303 112.944 261.164 113.908C262.044 114.86 262.52 116.063 262.592 117.517L259.703 116.913C259.602 116.222 259.331 115.642 258.889 115.174C258.447 114.706 257.835 114.39 257.052 114.226C255.956 113.997 254.997 114.206 254.175 114.851C253.373 115.485 252.826 116.498 252.535 117.892C252.244 119.286 252.338 120.442 252.816 121.359C253.31 122.279 254.106 122.854 255.202 123.083C256.753 123.407 257.921 122.94 258.707 121.682L261.596 122.286C260.946 123.523 260.022 124.425 258.824 124.992C257.63 125.544 256.266 125.659 254.731 125.339C253.494 125.08 252.455 124.577 251.614 123.829C250.776 123.066 250.188 122.126 249.849 121.009C249.529 119.88 249.508 118.649 249.786 117.318ZM272.855 115.173C273.841 115.379 274.674 115.774 275.354 116.357C276.048 116.944 276.528 117.698 276.793 118.619C277.074 119.544 277.092 120.594 276.847 121.769L275.252 129.404L272.597 128.849L274.109 121.614C274.351 120.455 274.246 119.509 273.794 118.777C273.345 118.03 272.62 117.551 271.617 117.342C270.615 117.133 269.751 117.279 269.025 117.781C268.318 118.271 267.843 119.095 267.601 120.254L266.09 127.49L263.411 126.931L267.042 109.546L269.721 110.105L268.479 116.049C269.048 115.596 269.708 115.292 270.459 115.139C271.226 114.988 272.025 115 272.855 115.173ZM291.95 125.806C291.849 126.291 291.726 126.723 291.581 127.102L281.691 125.036C281.553 126.086 281.764 126.996 282.322 127.767C282.88 128.537 283.661 129.027 284.663 129.236C286.104 129.537 287.248 129.147 288.095 128.065L290.984 128.669C290.344 129.777 289.427 130.607 288.233 131.159C287.058 131.698 285.711 131.809 284.192 131.492C282.955 131.233 281.9 130.727 281.028 129.973C280.174 129.206 279.57 128.263 279.216 127.143C278.88 126.01 278.852 124.778 279.13 123.447C279.408 122.116 279.918 121.004 280.66 120.113C281.42 119.21 282.344 118.585 283.429 118.24C284.53 117.898 285.715 117.859 286.984 118.124C288.205 118.379 289.238 118.873 290.083 119.605C290.927 120.337 291.514 121.244 291.843 122.327C292.176 123.393 292.212 124.553 291.95 125.806ZM289.331 124.376C289.522 123.386 289.334 122.522 288.77 121.783C288.205 121.044 287.413 120.568 286.395 120.355C285.471 120.162 284.618 120.294 283.836 120.752C283.057 121.194 282.5 121.903 282.166 122.88L289.331 124.376ZM297.822 134.339C296.804 134.126 295.926 133.755 295.186 133.224C294.466 132.681 293.936 132.048 293.597 131.323C293.262 130.583 293.16 129.818 293.292 129.028L296.064 129.607C295.997 130.165 296.159 130.681 296.55 131.155C296.96 131.617 297.526 131.923 298.246 132.073C298.998 132.231 299.607 132.211 300.073 132.014C300.558 131.804 300.848 131.473 300.943 131.019C301.044 130.533 300.885 130.124 300.464 129.791C300.059 129.461 299.384 129.05 298.441 128.559C297.525 128.09 296.789 127.666 296.23 127.288C295.672 126.91 295.219 126.415 294.873 125.803C294.542 125.195 294.465 124.468 294.642 123.622C294.786 122.933 295.12 122.349 295.645 121.87C296.174 121.376 296.848 121.043 297.668 120.871C298.505 120.702 299.416 120.721 300.403 120.927C301.875 121.234 302.979 121.857 303.715 122.796C304.469 123.721 304.744 124.833 304.538 126.13L301.86 125.571C301.934 124.982 301.796 124.471 301.445 124.038C301.094 123.605 300.558 123.313 299.838 123.163C299.133 123.015 298.565 123.036 298.133 123.223C297.702 123.411 297.44 123.724 297.349 124.163C297.277 124.507 297.341 124.823 297.543 125.111C297.745 125.398 298.011 125.65 298.341 125.866C298.676 126.066 299.174 126.342 299.836 126.693C300.723 127.14 301.437 127.558 301.976 127.949C302.535 128.327 302.981 128.813 303.315 129.405C303.649 129.998 303.737 130.711 303.579 131.545C303.425 132.281 303.084 132.896 302.556 133.39C302.028 133.885 301.353 134.218 300.533 134.39C299.728 134.565 298.825 134.548 297.822 134.339Z" fill="#474E68"/>
</g>
</g>
<g filter="url(#filter1_i_175_732)">
<g clip-path="url(#clip1_175_732)">
<path d="M229.191 -5.13792e-05L0 56.2795L62.0029 308.778L291.194 252.499L229.191 -5.13792e-05Z" fill="white"/>
<path d="M42.9883 231.345L46.8768 226.509C50.8011 221.708 58.5781 212.034 66.929 204.807C75.2696 197.539 84.1737 192.675 94.1057 191.887C104.027 191.057 114.987 194.345 124.898 193.473C134.81 192.601 143.673 187.569 153.315 185.602C162.948 183.594 173.349 184.61 183.757 185.757C194.174 186.947 204.587 188.228 214.623 187.861C224.658 187.494 234.295 185.395 242.956 179.431C251.607 173.425 259.271 163.511 263.077 158.56L266.909 153.603L291.297 252.92L286.535 254.089C281.798 255.252 272.274 257.591 262.725 259.936C253.175 262.281 243.6 264.632 234.05 266.977C224.501 269.322 214.976 271.661 205.427 274.006C195.877 276.351 186.302 278.702 176.752 281.047C167.203 283.392 157.679 285.731 148.129 288.076C138.579 290.421 129.004 292.772 119.455 295.117C109.905 297.462 100.381 299.801 90.8311 302.146C81.2815 304.491 71.7064 306.842 66.8934 308.024L62.1058 309.199L42.9883 231.345Z" fill="#FFE1E5"/>
<path d="M40.1982 219.983L45.5748 221.206C50.9665 222.381 61.7197 224.827 71.7447 224.418C81.78 224.051 91.0975 220.87 100.885 219.493C110.682 218.158 120.94 218.585 131.254 219.354C141.558 220.081 151.909 221.109 161.438 218.68C170.977 216.293 179.684 210.406 188.293 204.232C196.892 198.015 205.383 191.468 215.067 189.67C224.761 187.914 235.639 190.866 245.622 190.288C255.606 189.711 264.675 185.52 269.195 183.473L273.73 181.378L291.297 252.92L286.535 254.089C281.798 255.252 272.274 257.591 262.725 259.936C253.175 262.281 243.6 264.632 234.05 266.977C224.501 269.322 214.976 271.661 205.427 274.006C195.877 276.351 186.302 278.702 176.752 281.047C167.203 283.392 157.679 285.731 148.129 288.076C138.579 290.421 129.004 292.772 119.455 295.117C109.905 297.462 100.381 299.8 90.8312 302.145C81.2816 304.49 71.7065 306.842 66.8935 308.024L62.1059 309.199L40.1982 219.983Z" fill="#FFC6CD"/>
<path d="M48.7752 254.912L53.1701 252.137C57.5801 249.314 66.3698 243.765 75.8678 241.209C85.3657 238.654 95.5719 239.092 105.246 237.252C114.919 235.413 124.04 231.21 132.959 226.298C141.868 221.343 150.565 215.638 160.683 215.608C170.801 215.577 182.34 221.222 192.427 221.065C202.503 220.866 211.139 214.908 220.492 211.764C229.856 208.661 239.948 208.414 249.363 205.522C258.768 202.588 267.507 197.051 271.84 194.247L276.21 191.478L291.297 252.92L286.535 254.089C281.798 255.252 272.274 257.591 262.725 259.936C253.175 262.281 243.6 264.632 234.05 266.977C224.501 269.322 214.976 271.661 205.427 274.006C195.877 276.351 186.302 278.702 176.752 281.047C167.203 283.392 157.679 285.731 148.129 288.076C138.579 290.421 129.004 292.772 119.455 295.117C109.905 297.462 100.381 299.801 90.8312 302.145C81.2815 304.49 71.7064 306.842 66.8934 308.024L62.1059 309.199L48.7752 254.912Z" fill="#FFABB5"/>
<path d="M51.0488 264.17L56.4874 265.646C61.9618 267.157 72.8389 270.108 82.5436 268.395C92.2482 266.681 100.78 260.302 109.844 255.979C118.908 251.657 128.525 249.474 138.24 247.802C147.965 246.172 157.799 245.096 167.194 242.12C176.588 239.144 185.543 234.267 195.537 233.732C205.542 233.239 216.575 237.044 226.124 234.699C235.674 232.354 243.74 223.859 252.732 219.241C261.734 214.666 271.671 214.011 276.615 213.689L281.583 213.361L291.297 252.92L286.535 254.089C281.799 255.252 272.274 257.591 262.725 259.936C253.175 262.281 243.6 264.632 234.05 266.977C224.501 269.322 214.977 271.661 205.427 274.006C195.877 276.351 186.302 278.702 176.753 281.047C167.203 283.392 157.679 285.731 148.129 288.076C138.579 290.42 129.004 292.772 119.455 295.117C109.905 297.462 100.381 299.8 90.8313 302.145C81.2817 304.49 71.7066 306.842 66.8936 308.023L62.106 309.199L51.0488 264.17Z" fill="#FF8F9C"/>
<path d="M58.7995 295.733L63.3287 293.505C67.8834 291.271 76.9418 286.816 85.9954 282.451C95.0387 278.044 104.088 273.769 113.534 271.003C122.98 268.237 132.824 266.98 142.704 265.982C152.585 264.984 162.481 264.16 172.547 263.919C182.613 263.678 192.85 264.02 201.79 259.192C210.74 254.407 218.404 244.493 227.406 239.918C236.398 235.3 246.737 236.063 256.556 234.812C266.384 233.603 275.702 230.423 280.335 228.839L284.994 227.249L291.298 252.92L286.535 254.089C281.799 255.252 272.275 257.591 262.725 259.936C253.175 262.281 243.6 264.632 234.051 266.977C224.501 269.322 214.977 271.661 205.427 274.006C195.878 276.351 186.303 278.702 176.753 281.047C167.203 283.392 157.679 285.731 148.129 288.076C138.58 290.421 129.005 292.772 119.455 295.117C109.905 297.462 100.381 299.801 90.8317 302.146C81.282 304.491 71.7069 306.842 66.8939 308.024L62.1064 309.199L58.7995 295.733Z" fill="#FF7083"/>
<path d="M63.7435 83.1744L67.7212 99.3732L65.0641 100.026L63.3243 92.9401L55.7027 94.8117L57.4426 101.897L54.7855 102.55L50.8078 86.3509L53.4648 85.6984L55.1704 92.6441L62.792 90.7725L61.0864 83.8269L63.7435 83.1744ZM68.9996 83.6383C68.5179 83.7566 68.0739 83.6927 67.6675 83.4465C67.261 83.2003 66.9987 82.8364 66.8804 82.3547C66.7621 81.873 66.826 81.4289 67.0722 81.0225C67.3184 80.6161 67.6823 80.3537 68.164 80.2354C68.6302 80.121 69.0665 80.1868 69.4729 80.433C69.8793 80.6792 70.1417 81.0431 70.26 81.5248C70.3783 82.0065 70.3143 82.4506 70.0681 82.857C69.822 83.2634 69.4658 83.5239 68.9996 83.6383ZM70.7227 85.0193L73.8762 97.8618L71.2192 98.5142L68.0656 85.6718L70.7227 85.0193ZM79.3339 82.6823C80.3284 82.4381 81.2559 82.4245 82.1165 82.6416C82.9888 82.8393 83.715 83.1799 84.2951 83.6635L83.8372 81.7989L86.5176 81.1407L89.7226 94.193C90.0126 95.3739 90.0216 96.4838 89.7494 97.5227C89.4812 98.5771 88.9379 99.4848 88.1198 100.246C87.3173 101.003 86.2634 101.542 84.9581 101.862C83.2178 102.29 81.6717 102.233 80.3196 101.692C78.9713 101.166 78.0478 100.223 77.549 98.8628L80.1828 98.216C80.5489 98.8346 81.1078 99.2657 81.8596 99.5095C82.6308 99.765 83.4748 99.7801 84.3915 99.555C85.4637 99.2917 86.2459 98.7537 86.7383 97.9408C87.2462 97.1241 87.3475 96.0942 87.0423 94.8512L86.5157 92.7069C86.2139 93.4235 85.7261 94.087 85.0522 94.6973C84.39 95.2883 83.5694 95.7039 82.5905 95.9443C81.4718 96.219 80.3775 96.1912 79.3079 95.8607C78.2499 95.5109 77.325 94.8978 76.5332 94.0214C75.753 93.1256 75.2046 92.0328 74.8879 90.7431C74.5713 89.4534 74.555 88.2465 74.8391 87.1223C75.1387 85.9943 75.6802 85.0458 76.4634 84.2769C77.2583 83.4886 78.2152 82.957 79.3339 82.6823ZM85.4111 88.2085C85.1936 87.3228 84.8183 86.5995 84.2851 86.0384C83.7675 85.4736 83.1715 85.0927 82.4971 84.8959C81.8227 84.699 81.1436 84.6845 80.4599 84.8524C79.7762 85.0203 79.1811 85.3477 78.6746 85.8345C78.1643 86.3058 77.8028 86.9135 77.5901 87.6577C77.3892 88.3825 77.3974 89.1878 77.6149 90.0735C77.8324 90.9592 78.2019 91.6922 78.7233 92.2726C79.2603 92.8492 79.8679 93.2437 80.5462 93.4561C81.2361 93.6491 81.9151 93.6636 82.5833 93.4995C83.267 93.3316 83.8621 93.0043 84.3686 92.5174C84.8751 92.0306 85.2269 91.417 85.4241 90.6766C85.6329 89.9169 85.6286 89.0942 85.4111 88.2085ZM96.5987 78.4428C97.5776 78.2025 98.4992 78.1986 99.3636 78.4311C100.244 78.6599 101.002 79.1326 101.639 79.8493C102.292 80.5622 102.762 81.5013 103.048 82.6667L104.908 90.2417L102.274 90.8884L100.512 83.7097C100.229 82.5598 99.7262 81.7525 99.0024 81.2877C98.2749 80.8073 97.4139 80.6892 96.4194 80.9334C95.425 81.1776 94.7088 81.683 94.271 82.4495C93.8449 83.1967 93.773 84.1452 94.0553 85.295L95.8181 92.4738L93.1611 93.1262L88.9258 75.8786L91.5829 75.2262L93.0309 81.123C93.3479 80.4685 93.8121 79.9097 94.4233 79.4466C95.05 78.9796 95.7751 78.6451 96.5987 78.4428ZM115.81 77.4323L116.359 79.6699L106.78 82.0222L106.23 79.7846L115.81 77.4323ZM120.611 69.2102L124.588 85.409L121.931 86.0615L117.954 69.8627L120.611 69.2102ZM140.418 67.6827C141.428 67.4347 142.381 67.4231 143.276 67.6481C144.187 67.8692 144.969 68.3362 145.622 69.0491C146.29 69.7582 146.768 70.6954 147.054 71.8608L148.914 79.4357L146.28 80.0825L144.517 72.9037C144.235 71.7539 143.732 70.9465 143.008 70.4817C142.281 70.0014 141.42 69.8833 140.425 70.1275C139.431 70.3717 138.715 70.877 138.277 71.6436C137.851 72.3907 137.779 73.3392 138.061 74.4891L139.824 81.6678L137.19 82.3146L135.427 75.1358C135.145 73.986 134.642 73.1787 133.918 72.7138C133.191 72.2335 132.33 72.1154 131.335 72.3596C130.341 72.6038 129.625 73.1091 129.187 73.8757C128.761 74.6228 128.689 75.5714 128.971 76.7212L130.734 83.8999L128.077 84.5524L124.923 71.7099L127.58 71.0575L127.941 72.5258C128.246 71.8907 128.697 71.3435 129.292 70.8842C129.888 70.4249 130.567 70.1017 131.328 69.9148C132.354 69.663 133.324 69.6554 134.239 69.892C135.153 70.1287 135.929 70.6054 136.567 71.3221C136.764 70.4498 137.22 69.6872 137.933 69.0344C138.642 68.366 139.47 67.9154 140.418 67.6827ZM152.262 66.9984C152.568 66.2973 153.059 65.6494 153.737 65.0546C154.415 64.4598 155.243 64.0423 156.222 63.8019C157.341 63.5272 158.427 63.5569 159.481 63.8912C160.547 64.2061 161.466 64.7959 162.239 65.6607C163.011 66.5254 163.556 67.6026 163.873 68.8923C164.189 70.182 164.209 71.4044 163.933 72.5597C163.653 73.6994 163.117 74.6712 162.326 75.4751C161.546 76.2596 160.597 76.7892 159.479 77.0639C158.5 77.3043 157.582 77.3237 156.725 77.1222C155.864 76.9052 155.121 76.5606 154.494 76.0884L156.452 84.0596L153.794 84.7121L149.141 65.763L151.798 65.1105L152.262 66.9984ZM161.169 69.5562C160.951 68.6705 160.578 67.9549 160.049 67.4094C159.531 66.8445 158.929 66.4734 158.243 66.2959C157.569 66.099 156.89 66.0845 156.206 66.2524C155.538 66.4165 154.943 66.7438 154.421 67.2345C153.914 67.7213 153.554 68.3368 153.342 69.081C153.145 69.8214 153.155 70.6344 153.372 71.5201C153.59 72.4058 153.959 73.1388 154.481 73.7192C155.014 74.2803 155.618 74.6592 156.292 74.8561C156.982 75.0491 157.661 75.0636 158.329 74.8995C159.013 74.7316 159.608 74.4043 160.115 73.9174C160.633 73.4113 160.989 72.7802 161.182 72.0243C161.391 71.2646 161.386 70.4419 161.169 69.5562ZM165.615 68.4645C165.298 67.1749 165.282 65.9679 165.566 64.8437C165.865 63.7157 166.407 62.7673 167.19 61.9983C167.985 61.21 168.942 60.6785 170.061 60.4037C171.07 60.1557 171.998 60.1421 172.843 60.363C173.7 60.5645 174.426 60.9051 175.022 61.3849L174.564 59.5203L177.244 58.8622L180.398 71.7046L177.717 72.3628L177.248 70.4516C176.946 71.1682 176.456 71.824 175.779 72.4187C175.101 73.0135 174.265 73.433 173.27 73.6772C172.167 73.9481 171.089 73.9164 170.034 73.5822C168.977 73.2324 168.052 72.6192 167.26 71.7428C166.48 70.847 165.931 69.7542 165.615 68.4645ZM176.138 65.9299C175.92 65.0442 175.545 64.3209 175.012 63.7598C174.494 63.195 173.898 62.8141 173.224 62.6173C172.549 62.4204 171.87 62.4059 171.186 62.5738C170.503 62.7417 169.908 63.0691 169.401 63.5559C168.891 64.0272 168.529 64.6349 168.317 65.3791C168.116 66.104 168.124 66.9092 168.342 67.7949C168.559 68.6806 168.928 69.4136 169.45 69.994C169.987 70.5706 170.595 70.9651 171.273 71.1775C171.963 71.3705 172.642 71.385 173.31 71.2209C173.994 71.0531 174.589 70.7257 175.095 70.2389C175.602 69.752 175.954 69.1384 176.151 68.398C176.359 67.6383 176.355 66.8156 176.138 65.9299ZM181.422 64.6322C181.098 63.3115 181.078 62.089 181.362 60.9648C181.658 59.8213 182.213 58.8612 183.027 58.0846C183.841 57.308 184.862 56.769 186.09 56.4676C187.644 56.086 189.017 56.1442 190.21 56.642C191.415 57.1205 192.364 57.9995 193.057 59.2791L190.191 59.9831C189.801 59.4033 189.306 58.9976 188.706 58.7662C188.105 58.5347 187.416 58.5143 186.639 58.7051C185.552 58.9722 184.777 59.5743 184.315 60.5115C183.865 61.4293 183.81 62.5797 184.149 63.9626C184.489 65.3455 185.073 66.3472 185.9 66.9677C186.744 67.5844 187.709 67.7592 188.797 67.4921C190.335 67.1143 191.187 66.1885 191.352 64.7146L194.219 64.0106C194.167 65.4074 193.723 66.6202 192.889 67.6489C192.05 68.6621 190.869 69.3557 189.347 69.7296C188.119 70.031 186.965 70.0262 185.883 69.7151C184.798 69.3885 183.861 68.7947 183.073 67.9338C182.297 67.0535 181.747 65.953 181.422 64.6322ZM198.342 55.9798L200.087 63.0886C200.206 63.5703 200.4 63.8932 200.671 64.0573C200.954 64.2021 201.367 64.2077 201.911 64.0742L203.542 63.6735L204.086 65.8877L201.989 66.4028C200.792 66.6966 199.807 66.6421 199.032 66.2391C198.258 65.8362 197.716 65.0054 197.407 63.7468L195.661 56.638L194.146 57.01L193.614 54.8424L195.129 54.4704L194.345 51.2772L197.025 50.6191L197.809 53.8122L200.933 53.0453L201.465 55.2129L198.342 55.9798ZM64.608 137.38C63.1008 137.75 61.6243 137.742 60.1784 137.356C58.7443 136.95 57.4998 136.209 56.4449 135.134C55.4017 134.039 54.6855 132.699 54.2963 131.114C53.9071 129.529 53.9232 128.018 54.3444 126.58C54.7812 125.138 55.543 123.913 56.6299 122.905C57.7286 121.877 59.0315 121.179 60.5387 120.808C62.0615 120.435 63.5399 120.45 64.974 120.856C66.4199 121.242 67.6625 121.975 68.7019 123.055C69.7412 124.134 70.4555 125.466 70.8447 127.051C71.2339 128.636 71.2198 130.155 70.8023 131.608C70.3811 133.046 69.6212 134.279 68.5225 135.307C67.4356 136.315 66.1308 137.006 64.608 137.38ZM64.0414 135.073C65.1136 134.809 66.01 134.334 66.7308 133.646C67.4478 132.943 67.9287 132.083 68.1736 131.068C68.4301 130.033 68.4115 128.917 68.1177 127.72C67.8239 126.524 67.3255 125.534 66.6225 124.751C65.9351 123.965 65.1127 123.433 64.1553 123.158C63.198 122.882 62.1832 122.876 61.1111 123.139C60.0389 123.402 59.1424 123.878 58.4216 124.566C57.7009 125.253 57.2103 126.107 56.9499 127.127C56.705 128.142 56.7295 129.248 57.0233 130.445C57.3171 131.641 57.8096 132.641 58.5009 133.443C59.2039 134.226 60.036 134.763 60.9972 135.054C61.9545 135.33 62.9693 135.336 64.0414 135.073ZM75.4181 122.913C75.6464 122.165 76.0351 121.534 76.5844 121.02C77.1455 120.487 77.8688 120.112 78.7545 119.894L79.4299 122.644L78.754 122.81C77.7129 123.066 76.9853 123.525 76.5712 124.187C76.1726 124.845 76.1336 125.826 76.4541 127.131L78.1138 133.891L75.4568 134.543L72.3032 121.701L74.9603 121.048L75.4181 122.913ZM86.3712 118.024C87.3656 117.78 88.2932 117.766 89.1537 117.983C90.0261 118.181 90.7522 118.521 91.3323 119.005L90.8744 117.14L93.5548 116.482L96.7599 129.534C97.0499 130.715 97.0588 131.825 96.7867 132.864C96.5184 133.918 95.9752 134.826 95.1571 135.587C94.3545 136.345 93.3006 136.883 91.9954 137.204C90.2551 137.631 88.7089 137.574 87.3568 137.033C86.0086 136.507 85.0851 135.565 84.5863 134.204L87.22 133.557C87.5861 134.176 88.1451 134.607 88.8969 134.851C89.668 135.106 90.512 135.122 91.4288 134.896C92.5009 134.633 93.2832 134.095 93.7755 133.282C94.2834 132.466 94.3848 131.436 94.0795 130.193L93.553 128.048C93.2512 128.765 92.7633 129.428 92.0894 130.039C91.4272 130.63 90.6067 131.045 89.6278 131.286C88.509 131.56 87.4148 131.533 86.3451 131.202C85.2872 130.852 84.3623 130.239 83.5704 129.363C82.7903 128.467 82.2419 127.374 81.9252 126.085C81.6085 124.795 81.5922 123.588 81.8763 122.464C82.176 121.336 82.7174 120.387 83.5006 119.618C84.2956 118.83 85.2524 118.298 86.3712 118.024ZM92.4484 123.55C92.2309 122.664 91.8555 121.941 91.3224 121.38C90.8047 120.815 90.2087 120.434 89.5343 120.237C88.8599 120.04 88.1809 120.026 87.4972 120.194C86.8135 120.362 86.2184 120.689 85.7119 121.176C85.2015 121.647 84.84 122.255 84.6274 122.999C84.4264 123.724 84.4347 124.529 84.6522 125.415C84.8697 126.301 85.2391 127.034 85.7606 127.614C86.2976 128.191 86.9052 128.585 87.5834 128.798C88.2733 128.991 88.9524 129.005 89.6205 128.841C90.3042 128.673 90.8993 128.346 91.4058 127.859C91.9124 127.372 92.2642 126.758 92.4613 126.018C92.6702 125.258 92.6659 124.436 92.4484 123.55ZM97.7215 122.206C97.4049 120.916 97.3886 119.709 97.6727 118.585C97.9723 117.457 98.5138 116.508 99.297 115.739C100.092 114.951 101.049 114.42 102.168 114.145C103.178 113.897 104.105 113.883 104.95 114.104C105.807 114.306 106.533 114.646 107.129 115.126L106.671 113.261L109.351 112.603L112.505 125.446L109.824 126.104L109.355 124.193C109.053 124.909 108.563 125.565 107.886 126.16C107.208 126.755 106.372 127.174 105.378 127.418C104.274 127.689 103.196 127.658 102.141 127.323C101.084 126.973 100.159 126.36 99.3668 125.484C98.5866 124.588 98.0382 123.495 97.7215 122.206ZM108.245 119.671C108.027 118.785 107.652 118.062 107.119 117.501C106.601 116.936 106.005 116.555 105.331 116.358C104.656 116.162 103.977 116.147 103.294 116.315C102.61 116.483 102.015 116.81 101.508 117.297C100.998 117.768 100.636 118.376 100.424 119.12C100.223 119.845 100.231 120.65 100.449 121.536C100.666 122.422 101.035 123.155 101.557 123.735C102.094 124.312 102.702 124.706 103.38 124.919C104.07 125.112 104.749 125.126 105.417 124.962C106.101 124.794 106.696 124.467 107.202 123.98C107.709 123.493 108.061 122.88 108.258 122.139C108.467 121.379 108.462 120.557 108.245 119.671ZM119.269 109.945C120.279 109.697 121.232 109.686 122.127 109.911C123.038 110.132 123.82 110.599 124.473 111.312C125.126 112.025 125.595 112.964 125.882 114.129L127.742 121.704L125.108 122.351L123.345 115.172C123.063 114.022 122.56 113.215 121.836 112.75C121.108 112.27 120.247 112.152 119.253 112.396C118.259 112.64 117.542 113.146 117.105 113.912C116.678 114.659 116.607 115.608 116.889 116.758L118.652 123.936L115.995 124.589L112.841 111.746L115.498 111.094L115.859 112.562C116.164 111.927 116.615 111.38 117.21 110.921C117.821 110.457 118.508 110.132 119.269 109.945ZM128.911 105.996C128.43 106.114 127.986 106.05 127.579 105.804C127.173 105.558 126.91 105.194 126.792 104.712C126.674 104.231 126.738 103.787 126.984 103.38C127.23 102.974 127.594 102.711 128.076 102.593C128.542 102.479 128.978 102.545 129.385 102.791C129.791 103.037 130.053 103.401 130.172 103.883C130.29 104.364 130.226 104.808 129.98 105.215C129.734 105.621 129.378 105.882 128.911 105.996ZM130.634 107.377L133.788 120.219L131.131 120.872L127.977 108.029L130.634 107.377ZM139.098 116.617L144.925 115.186L145.457 117.354L136.554 119.54L136.022 117.373L139.783 107.429L133.933 108.865L133.4 106.698L142.304 104.511L142.836 106.679L139.098 116.617ZM145.771 110.407C145.454 109.117 145.438 107.91 145.722 106.786C146.021 105.658 146.563 104.71 147.346 103.941C148.141 103.152 149.098 102.621 150.217 102.346C151.227 102.098 152.154 102.084 152.999 102.305C153.856 102.507 154.582 102.847 155.178 103.327L154.72 101.463L157.4 100.804L160.554 113.647L157.873 114.305L157.404 112.394C157.102 113.111 156.613 113.766 155.935 114.361C155.257 114.956 154.421 115.375 153.427 115.619C152.323 115.89 151.245 115.859 150.191 115.524C149.133 115.175 148.208 114.562 147.416 113.685C146.636 112.789 146.087 111.697 145.771 110.407ZM156.294 107.872C156.076 106.987 155.701 106.263 155.168 105.702C154.65 105.137 154.054 104.756 153.38 104.56C152.705 104.363 152.026 104.348 151.343 104.516C150.659 104.684 150.064 105.011 149.557 105.498C149.047 105.969 148.686 106.577 148.473 107.321C148.272 108.046 148.28 108.852 148.498 109.737C148.715 110.623 149.085 111.356 149.606 111.936C150.143 112.513 150.751 112.907 151.429 113.12C152.119 113.313 152.798 113.327 153.466 113.163C154.15 112.995 154.745 112.668 155.251 112.181C155.758 111.694 156.11 111.081 156.307 110.34C156.516 109.581 156.511 108.758 156.294 107.872ZM164.522 101.354L166.268 108.463C166.386 108.944 166.581 109.267 166.852 109.431C167.135 109.576 167.548 109.582 168.092 109.448L169.723 109.048L170.267 111.262L168.169 111.777C166.973 112.071 165.987 112.016 165.213 111.613C164.438 111.21 163.897 110.379 163.588 109.121L161.842 102.012L160.327 102.384L159.795 100.216L161.31 99.8444L160.526 96.6513L163.206 95.9931L163.99 99.1863L167.113 98.4193L167.646 100.587L164.522 101.354ZM170.496 95.7846C170.015 95.9029 169.571 95.8389 169.164 95.5927C168.758 95.3465 168.495 94.9826 168.377 94.5009C168.259 94.0192 168.323 93.5752 168.569 93.1687C168.815 92.7623 169.179 92.4999 169.661 92.3817C170.127 92.2672 170.563 92.3331 170.97 92.5792C171.376 92.8254 171.638 93.1893 171.757 93.671C171.875 94.1527 171.811 94.5968 171.565 95.0032C171.319 95.4097 170.962 95.6701 170.496 95.7846ZM172.219 97.1655L175.373 110.008L172.716 110.66L169.562 97.818L172.219 97.1655ZM184.483 107.993C183.271 108.291 182.109 108.288 180.997 107.984C179.88 107.665 178.921 107.077 178.117 106.22C177.31 105.348 176.744 104.251 176.419 102.93C176.099 101.625 176.102 100.397 176.429 99.2456C176.756 98.0945 177.35 97.1249 178.211 96.3368C179.072 95.5488 180.116 95.0041 181.343 94.7026C182.571 94.4012 183.749 94.4003 184.877 94.7C186.005 94.9996 186.98 95.5838 187.803 96.4527C188.626 97.3215 189.198 98.4085 189.518 99.7137C189.839 101.019 189.828 102.249 189.485 103.404C189.143 104.559 188.528 105.542 187.639 106.353C186.763 107.145 185.711 107.692 184.483 107.993ZM183.917 105.686C184.601 105.518 185.198 105.198 185.708 104.727C186.234 104.252 186.603 103.642 186.816 102.898C187.028 102.154 187.02 101.316 186.791 100.383C186.562 99.451 186.191 98.7102 185.677 98.1609C185.159 97.5961 184.565 97.223 183.895 97.0417C183.224 96.8604 182.547 96.8536 181.863 97.0215C181.18 97.1894 180.583 97.509 180.072 97.9803C179.578 98.4478 179.239 99.0498 179.058 99.7864C178.872 100.507 178.894 101.334 179.123 102.266C179.463 103.649 180.076 104.636 180.962 105.225C181.86 105.796 182.845 105.949 183.917 105.686ZM196.999 90.8583C198.009 90.6103 198.962 90.5987 199.857 90.8237C200.768 91.0448 201.55 91.5118 202.203 92.2247C202.856 92.9376 203.325 93.8767 203.611 95.0421L205.472 102.617L202.838 103.264L201.075 96.0851C200.793 94.9352 200.29 94.1279 199.566 93.6631C198.838 93.1827 197.977 93.0646 196.983 93.3088C195.988 93.553 195.272 94.0584 194.834 94.8249C194.408 95.5721 194.336 96.5206 194.619 97.6704L196.382 104.849L193.725 105.502L190.571 92.6591L193.228 92.0067L193.589 93.4751C193.894 92.8399 194.344 92.2927 194.94 91.8334C195.551 91.3703 196.238 91.0452 196.999 90.8583ZM213.574 100.85C212.564 101.098 211.611 101.142 210.715 100.983C209.831 100.805 209.08 100.462 208.461 99.9554C207.838 99.4327 207.416 98.7868 207.194 98.0175L209.945 97.3422C210.125 97.8746 210.494 98.27 211.051 98.5284C211.621 98.7675 212.263 98.7993 212.978 98.6238C213.724 98.4407 214.264 98.1596 214.6 97.7807C214.947 97.3825 215.065 96.9581 214.954 96.5075C214.836 96.0258 214.515 95.7256 213.992 95.607C213.484 95.4846 212.698 95.4056 211.635 95.3701C210.607 95.3425 209.759 95.2788 209.092 95.179C208.425 95.0792 207.803 94.8283 207.227 94.4261C206.666 94.0202 206.282 93.3977 206.076 92.5586C205.908 91.875 205.958 91.2038 206.224 90.5452C206.487 89.8711 206.952 89.2793 207.617 88.7699C208.298 88.2566 209.129 87.8798 210.107 87.6394C211.568 87.2807 212.833 87.3656 213.902 87.8939C214.982 88.4029 215.71 89.2869 216.085 90.5458L213.428 91.1982C213.24 90.6347 212.895 90.2336 212.391 89.9948C211.888 89.7559 211.278 89.7243 210.564 89.8998C209.864 90.0715 209.361 90.3352 209.053 90.6909C208.745 91.0467 208.644 91.4421 208.751 91.8772C208.835 92.219 209.03 92.4759 209.336 92.648C209.641 92.82 209.99 92.932 210.382 92.9841C210.77 93.0207 211.338 93.0541 212.087 93.0844C213.08 93.1041 213.905 93.1735 214.56 93.2927C215.227 93.3925 215.839 93.6376 216.396 94.028C216.954 94.4184 217.341 95.0234 217.559 95.8431C217.738 96.5734 217.696 97.2756 217.434 97.9498C217.171 98.6239 216.707 99.2157 216.041 99.7251C215.391 100.231 214.568 100.606 213.574 100.85Z" fill="#474E68"/>
</g>
</g>
<g filter="url(#filter2_i_175_732)">
<g clip-path="url(#clip2_175_732)">
<path d="M301 25.2795H65V285.28H301V25.2795Z" fill="white"/>
<path d="M65 205.546L69.9298 201.776C74.8858 198.05 84.7453 190.51 94.5787 185.483C104.412 180.413 114.219 177.813 124.052 179.416C133.886 180.976 143.745 186.783 153.579 188.3C163.412 189.816 173.219 187.043 183.052 187.433C192.886 187.78 202.745 191.246 212.579 194.843C222.412 198.483 232.219 202.21 242.052 204.246C251.886 206.283 261.745 206.543 271.579 202.816C281.412 199.046 291.219 191.246 296.096 187.346L301 183.446V285.713H296.096C291.219 285.713 281.412 285.713 271.579 285.713C261.745 285.713 251.886 285.713 242.052 285.713C232.219 285.713 222.412 285.713 212.579 285.713C202.745 285.713 192.886 285.713 183.052 285.713C173.219 285.713 163.412 285.713 153.579 285.713C143.745 285.713 133.886 285.713 124.052 285.713C114.219 285.713 104.412 285.713 94.5787 285.713C84.7453 285.713 74.8858 285.713 69.9298 285.713H65V205.546Z" fill="#FFFAC3"/>
<path d="M65 193.846L69.9298 196.316C74.8858 198.743 84.7453 203.683 94.5787 205.676C104.412 207.713 114.219 206.846 124.052 207.843C133.886 208.883 143.745 211.743 153.579 214.95C163.412 218.113 173.219 221.58 183.052 221.493C192.886 221.45 202.745 217.81 212.579 213.866C222.412 209.88 232.219 205.546 242.052 206.11C251.886 206.716 261.745 212.176 271.579 213.996C281.412 215.816 291.219 213.91 296.096 213L301 212.046V285.713H296.096C291.219 285.713 281.412 285.713 271.579 285.713C261.745 285.713 251.886 285.713 242.052 285.713C232.219 285.713 222.412 285.713 212.579 285.713C202.745 285.713 192.886 285.713 183.052 285.713C173.219 285.713 163.412 285.713 153.579 285.713C143.745 285.713 133.886 285.713 124.052 285.713C114.219 285.713 104.412 285.713 94.5787 285.713C84.7453 285.713 74.8858 285.713 69.9298 285.713H65V193.846Z" fill="#F8F2A9"/>
<path d="M65 229.813L69.9298 228.166C74.8858 226.476 84.7453 223.183 94.5787 222.966C104.412 222.75 114.219 225.61 124.052 226.13C133.886 226.65 143.745 224.743 153.579 222.1C163.412 219.413 173.219 215.946 183.052 218.33C192.886 220.713 202.745 228.946 212.579 231.2C222.412 233.41 232.219 229.683 242.052 228.86C251.886 228.08 261.745 230.246 271.579 229.683C281.412 229.076 291.219 225.783 296.096 224.093L301 222.446V285.713H296.096C291.219 285.713 281.412 285.713 271.579 285.713C261.745 285.713 251.886 285.713 242.052 285.713C232.219 285.713 222.412 285.713 212.579 285.713C202.745 285.713 192.886 285.713 183.052 285.713C173.219 285.713 163.412 285.713 153.579 285.713C143.745 285.713 133.886 285.713 124.052 285.713C114.219 285.713 104.412 285.713 94.5787 285.713C84.7453 285.713 74.8858 285.713 69.9298 285.713H65V229.813Z" fill="#F1E98F"/>
<path d="M65 239.346L69.9298 242.076C74.8858 244.85 84.7453 250.31 94.5787 250.96C104.412 251.61 114.219 247.45 124.052 245.413C133.886 243.376 143.745 243.55 153.579 244.243C163.412 244.98 173.219 246.28 183.052 245.63C192.886 244.98 202.745 242.38 212.579 244.243C222.412 246.15 232.219 252.476 242.052 252.476C251.886 252.476 261.745 246.15 271.579 243.81C281.412 241.513 291.219 243.246 296.096 244.113L301 244.98V285.713H296.096C291.219 285.713 281.412 285.713 271.579 285.713C261.745 285.713 251.886 285.713 242.052 285.713C232.219 285.713 222.412 285.713 212.579 285.713C202.745 285.713 192.886 285.713 183.052 285.713C173.219 285.713 163.412 285.713 153.579 285.713C143.745 285.713 133.886 285.713 124.052 285.713C114.219 285.713 104.412 285.713 94.5787 285.713C84.7453 285.713 74.8858 285.713 69.9298 285.713H65V239.346Z" fill="#EAE075"/>
<path d="M65 271.846L69.9298 270.763C74.8858 269.679 84.7453 267.513 94.5787 265.433C104.412 263.309 114.219 261.316 124.052 260.883C133.886 260.449 143.745 261.576 153.579 262.963C163.412 264.349 173.219 265.909 183.052 268.076C192.886 270.243 202.745 273.016 212.579 270.459C222.412 267.946 232.219 260.146 242.052 257.849C251.886 255.509 261.745 258.716 271.579 259.843C281.412 261.013 291.219 260.146 296.096 259.713L301 259.279V285.713H296.096C291.219 285.713 281.412 285.713 271.579 285.713C261.745 285.713 251.886 285.713 242.052 285.713C232.219 285.713 222.412 285.713 212.579 285.713C202.745 285.713 192.886 285.713 183.052 285.713C173.219 285.713 163.412 285.713 153.579 285.713C143.745 285.713 133.886 285.713 124.052 285.713C114.219 285.713 104.412 285.713 94.5787 285.713C84.7453 285.713 74.8858 285.713 69.9298 285.713H65V271.846Z" fill="#E2D759"/>
<path d="M154.956 71.5675C154.956 72.4155 154.756 73.2155 154.356 73.9675C153.956 74.7195 153.316 75.3355 152.436 75.8155C151.556 76.2795 150.428 76.5115 149.052 76.5115H146.028V83.2795H143.292V66.5995H149.052C150.332 66.5995 151.412 66.8235 152.292 67.2715C153.188 67.7035 153.852 68.2955 154.284 69.0475C154.732 69.7995 154.956 70.6395 154.956 71.5675ZM149.052 74.2795C150.092 74.2795 150.868 74.0475 151.38 73.5835C151.892 73.1035 152.148 72.4315 152.148 71.5675C152.148 69.7435 151.116 68.8315 149.052 68.8315H146.028V74.2795H149.052ZM160.302 71.9755C160.702 71.3035 161.23 70.7835 161.886 70.4155C162.558 70.0315 163.35 69.8395 164.262 69.8395V72.6715H163.566C162.494 72.6715 161.678 72.9435 161.118 73.4875C160.574 74.0315 160.302 74.9755 160.302 76.3195V83.2795H157.566V70.0555H160.302V71.9755ZM172.513 83.4955C171.265 83.4955 170.137 83.2155 169.129 82.6555C168.121 82.0795 167.329 81.2795 166.753 80.2555C166.177 79.2155 165.889 78.0155 165.889 76.6555C165.889 75.3115 166.185 74.1195 166.777 73.0795C167.369 72.0395 168.177 71.2395 169.201 70.6795C170.225 70.1195 171.369 69.8395 172.633 69.8395C173.897 69.8395 175.041 70.1195 176.065 70.6795C177.089 71.2395 177.897 72.0395 178.489 73.0795C179.081 74.1195 179.377 75.3115 179.377 76.6555C179.377 77.9995 179.073 79.1915 178.465 80.2315C177.857 81.2715 177.025 82.0795 175.969 82.6555C174.929 83.2155 173.777 83.4955 172.513 83.4955ZM172.513 81.1195C173.217 81.1195 173.873 80.9515 174.481 80.6155C175.105 80.2795 175.609 79.7755 175.993 79.1035C176.377 78.4315 176.569 77.6155 176.569 76.6555C176.569 75.6955 176.385 74.8875 176.017 74.2315C175.649 73.5595 175.161 73.0555 174.553 72.7195C173.945 72.3835 173.289 72.2155 172.585 72.2155C171.881 72.2155 171.225 72.3835 170.617 72.7195C170.025 73.0555 169.553 73.5595 169.201 74.2315C168.849 74.8875 168.673 75.6955 168.673 76.6555C168.673 78.0795 169.033 79.1835 169.753 79.9675C170.489 80.7355 171.409 81.1195 172.513 81.1195ZM187.193 80.8315L190.937 70.0555H193.841L188.801 83.2795H185.537L180.521 70.0555H183.449L187.193 80.8315ZM208.029 76.3435C208.029 76.8395 207.997 77.2875 207.933 77.6875H197.829C197.909 78.7435 198.301 79.5915 199.005 80.2315C199.709 80.8715 200.573 81.1915 201.597 81.1915C203.069 81.1915 204.109 80.5755 204.717 79.3435H207.669C207.269 80.5595 206.541 81.5595 205.485 82.3435C204.445 83.1115 203.149 83.4955 201.597 83.4955C200.333 83.4955 199.197 83.2155 198.189 82.6555C197.197 82.0795 196.413 81.2795 195.837 80.2555C195.277 79.2155 194.997 78.0155 194.997 76.6555C194.997 75.2955 195.269 74.1035 195.813 73.0795C196.373 72.0395 197.149 71.2395 198.141 70.6795C199.149 70.1195 200.301 69.8395 201.597 69.8395C202.845 69.8395 203.957 70.1115 204.933 70.6555C205.909 71.1995 206.669 71.9675 207.213 72.9595C207.757 73.9355 208.029 75.0635 208.029 76.3435ZM205.173 75.4795C205.157 74.4715 204.797 73.6635 204.093 73.0555C203.389 72.4475 202.517 72.1435 201.477 72.1435C200.533 72.1435 199.725 72.4475 199.053 73.0555C198.381 73.6475 197.981 74.4555 197.853 75.4795H205.173ZM217.394 69.8395C218.434 69.8395 219.362 70.0555 220.178 70.4875C221.01 70.9195 221.658 71.5595 222.122 72.4075C222.586 73.2555 222.818 74.2795 222.818 75.4795V83.2795H220.106V75.8875C220.106 74.7035 219.81 73.7995 219.218 73.1755C218.626 72.5355 217.818 72.2155 216.794 72.2155C215.77 72.2155 214.954 72.5355 214.346 73.1755C213.754 73.7995 213.458 74.7035 213.458 75.8875V83.2795H210.722V70.0555H213.458V71.5675C213.906 71.0235 214.474 70.5995 215.162 70.2955C215.866 69.9915 216.61 69.8395 217.394 69.8395ZM138.188 102.6V119.28H135.452V102.6H138.188ZM148.452 105.84C149.492 105.84 150.42 106.056 151.236 106.488C152.068 106.92 152.716 107.56 153.18 108.408C153.644 109.256 153.876 110.28 153.876 111.48V119.28H151.164V111.888C151.164 110.704 150.868 109.8 150.276 109.176C149.684 108.536 148.876 108.216 147.852 108.216C146.828 108.216 146.012 108.536 145.404 109.176C144.812 109.8 144.516 110.704 144.516 111.888V119.28H141.78V106.056H144.516V107.568C144.964 107.024 145.532 106.6 146.22 106.296C146.924 105.992 147.668 105.84 148.452 105.84ZM156.454 112.608C156.454 111.28 156.726 110.104 157.27 109.08C157.83 108.056 158.582 107.264 159.526 106.704C160.486 106.128 161.55 105.84 162.718 105.84C163.582 105.84 164.43 106.032 165.262 106.416C166.11 106.784 166.782 107.28 167.278 107.904V101.52H170.038V119.28H167.278V117.288C166.83 117.928 166.206 118.456 165.406 118.872C164.622 119.288 163.718 119.496 162.694 119.496C161.542 119.496 160.486 119.208 159.526 118.632C158.582 118.04 157.83 117.224 157.27 116.184C156.726 115.128 156.454 113.936 156.454 112.608ZM167.278 112.656C167.278 111.744 167.086 110.952 166.702 110.28C166.334 109.608 165.846 109.096 165.238 108.744C164.63 108.392 163.974 108.216 163.27 108.216C162.566 108.216 161.91 108.392 161.302 108.744C160.694 109.08 160.198 109.584 159.814 110.256C159.446 110.912 159.262 111.696 159.262 112.608C159.262 113.52 159.446 114.32 159.814 115.008C160.198 115.696 160.694 116.224 161.302 116.592C161.926 116.944 162.582 117.12 163.27 117.12C163.974 117.12 164.63 116.944 165.238 116.592C165.846 116.24 166.334 115.728 166.702 115.056C167.086 114.368 167.278 113.568 167.278 112.656ZM185.608 106.056V119.28H182.872V117.72C182.44 118.264 181.872 118.696 181.168 119.016C180.48 119.32 179.744 119.472 178.96 119.472C177.92 119.472 176.984 119.256 176.152 118.824C175.336 118.392 174.688 117.752 174.208 116.904C173.744 116.056 173.512 115.032 173.512 113.832V106.056H176.224V113.424C176.224 114.608 176.52 115.52 177.112 116.16C177.704 116.784 178.512 117.096 179.536 117.096C180.56 117.096 181.368 116.784 181.96 116.16C182.568 115.52 182.872 114.608 182.872 113.424V106.056H185.608ZM194.018 119.496C192.978 119.496 192.042 119.312 191.21 118.944C190.394 118.56 189.746 118.048 189.266 117.408C188.786 116.752 188.53 116.024 188.498 115.224H191.33C191.378 115.784 191.642 116.256 192.122 116.64C192.618 117.008 193.234 117.192 193.97 117.192C194.738 117.192 195.33 117.048 195.746 116.76C196.178 116.456 196.394 116.072 196.394 115.608C196.394 115.112 196.154 114.744 195.674 114.504C195.21 114.264 194.466 114 193.442 113.712C192.45 113.44 191.642 113.176 191.018 112.92C190.394 112.664 189.85 112.272 189.386 111.744C188.938 111.216 188.714 110.52 188.714 109.656C188.714 108.952 188.922 108.312 189.338 107.736C189.754 107.144 190.346 106.68 191.114 106.344C191.898 106.008 192.794 105.84 193.802 105.84C195.306 105.84 196.514 106.224 197.426 106.992C198.354 107.744 198.85 108.776 198.914 110.088H196.178C196.13 109.496 195.89 109.024 195.458 108.672C195.026 108.32 194.442 108.144 193.706 108.144C192.986 108.144 192.434 108.28 192.05 108.552C191.666 108.824 191.474 109.184 191.474 109.632C191.474 109.984 191.602 110.28 191.858 110.52C192.114 110.76 192.426 110.952 192.794 111.096C193.162 111.224 193.706 111.392 194.426 111.6C195.386 111.856 196.17 112.12 196.778 112.392C197.402 112.648 197.938 113.032 198.386 113.544C198.834 114.056 199.066 114.736 199.082 115.584C199.082 116.336 198.874 117.008 198.458 117.6C198.042 118.192 197.45 118.656 196.682 118.992C195.93 119.328 195.042 119.496 194.018 119.496ZM205.23 108.288V115.608C205.23 116.104 205.342 116.464 205.566 116.688C205.806 116.896 206.206 117 206.766 117H208.446V119.28H206.286C205.054 119.28 204.11 118.992 203.454 118.416C202.798 117.84 202.47 116.904 202.47 115.608V108.288H200.91V106.056H202.47V102.768H205.23V106.056H208.446V108.288H205.23ZM213.704 107.976C214.104 107.304 214.632 106.784 215.288 106.416C215.96 106.032 216.752 105.84 217.664 105.84V108.672H216.968C215.896 108.672 215.08 108.944 214.52 109.488C213.976 110.032 213.704 110.976 213.704 112.32V119.28H210.968V106.056H213.704V107.976ZM232.083 106.056L223.971 125.496H221.139L223.827 119.064L218.619 106.056H221.667L225.387 116.136L229.251 106.056H232.083ZM140.11 153.072H145.75V155.28H137.374V138.6H140.11V153.072ZM160.158 148.344C160.158 148.84 160.126 149.288 160.062 149.688H149.958C150.038 150.744 150.43 151.592 151.134 152.232C151.838 152.872 152.702 153.192 153.726 153.192C155.198 153.192 156.238 152.576 156.846 151.344H159.798C159.398 152.56 158.67 153.56 157.614 154.344C156.574 155.112 155.278 155.496 153.726 155.496C152.462 155.496 151.326 155.216 150.318 154.656C149.326 154.08 148.542 153.28 147.966 152.256C147.406 151.216 147.126 150.016 147.126 148.656C147.126 147.296 147.398 146.104 147.942 145.08C148.502 144.04 149.278 143.24 150.27 142.68C151.278 142.12 152.43 141.84 153.726 141.84C154.974 141.84 156.086 142.112 157.062 142.656C158.038 143.2 158.798 143.968 159.342 144.96C159.886 145.936 160.158 147.064 160.158 148.344ZM157.302 147.48C157.286 146.472 156.926 145.664 156.222 145.056C155.518 144.448 154.646 144.144 153.606 144.144C152.662 144.144 151.854 144.448 151.182 145.056C150.51 145.648 150.11 146.456 149.982 147.48H157.302ZM161.939 148.608C161.939 147.28 162.211 146.104 162.755 145.08C163.315 144.056 164.067 143.264 165.011 142.704C165.971 142.128 167.027 141.84 168.179 141.84C169.219 141.84 170.123 142.048 170.891 142.464C171.675 142.864 172.299 143.368 172.763 143.976V142.056H175.523V155.28H172.763V153.312C172.299 153.936 171.667 154.456 170.867 154.872C170.067 155.288 169.155 155.496 168.131 155.496C166.995 155.496 165.955 155.208 165.011 154.632C164.067 154.04 163.315 153.224 162.755 152.184C162.211 151.128 161.939 149.936 161.939 148.608ZM172.763 148.656C172.763 147.744 172.571 146.952 172.187 146.28C171.819 145.608 171.331 145.096 170.723 144.744C170.115 144.392 169.459 144.216 168.755 144.216C168.051 144.216 167.395 144.392 166.787 144.744C166.179 145.08 165.683 145.584 165.299 146.256C164.931 146.912 164.747 147.696 164.747 148.608C164.747 149.52 164.931 150.32 165.299 151.008C165.683 151.696 166.179 152.224 166.787 152.592C167.411 152.944 168.067 153.12 168.755 153.12C169.459 153.12 170.115 152.944 170.723 152.592C171.331 152.24 171.819 151.728 172.187 151.056C172.571 150.368 172.763 149.568 172.763 148.656ZM178.204 148.608C178.204 147.28 178.476 146.104 179.02 145.08C179.58 144.056 180.332 143.264 181.276 142.704C182.236 142.128 183.3 141.84 184.468 141.84C185.332 141.84 186.18 142.032 187.012 142.416C187.86 142.784 188.532 143.28 189.028 143.904V137.52H191.788V155.28H189.028V153.288C188.58 153.928 187.956 154.456 187.156 154.872C186.372 155.288 185.468 155.496 184.444 155.496C183.292 155.496 182.236 155.208 181.276 154.632C180.332 154.04 179.58 153.224 179.02 152.184C178.476 151.128 178.204 149.936 178.204 148.608ZM189.028 148.656C189.028 147.744 188.836 146.952 188.452 146.28C188.084 145.608 187.596 145.096 186.988 144.744C186.38 144.392 185.724 144.216 185.02 144.216C184.316 144.216 183.66 144.392 183.052 144.744C182.444 145.08 181.948 145.584 181.564 146.256C181.196 146.912 181.012 147.696 181.012 148.608C181.012 149.52 181.196 150.32 181.564 151.008C181.948 151.696 182.444 152.224 183.052 152.592C183.676 152.944 184.332 153.12 185.02 153.12C185.724 153.12 186.38 152.944 186.988 152.592C187.596 152.24 188.084 151.728 188.452 151.056C188.836 150.368 189.028 149.568 189.028 148.656ZM207.502 148.344C207.502 148.84 207.47 149.288 207.406 149.688H197.302C197.382 150.744 197.774 151.592 198.478 152.232C199.182 152.872 200.046 153.192 201.07 153.192C202.542 153.192 203.582 152.576 204.19 151.344H207.142C206.742 152.56 206.014 153.56 204.958 154.344C203.918 155.112 202.622 155.496 201.07 155.496C199.806 155.496 198.67 155.216 197.662 154.656C196.67 154.08 195.886 153.28 195.31 152.256C194.75 151.216 194.47 150.016 194.47 148.656C194.47 147.296 194.742 146.104 195.286 145.08C195.846 144.04 196.622 143.24 197.614 142.68C198.622 142.12 199.774 141.84 201.07 141.84C202.318 141.84 203.43 142.112 204.406 142.656C205.382 143.2 206.142 143.968 206.686 144.96C207.23 145.936 207.502 147.064 207.502 148.344ZM204.646 147.48C204.63 146.472 204.27 145.664 203.566 145.056C202.862 144.448 201.99 144.144 200.95 144.144C200.006 144.144 199.198 144.448 198.526 145.056C197.854 145.648 197.454 146.456 197.326 147.48H204.646ZM212.931 143.976C213.331 143.304 213.859 142.784 214.515 142.416C215.187 142.032 215.979 141.84 216.891 141.84V144.672H216.195C215.123 144.672 214.307 144.944 213.747 145.488C213.203 146.032 212.931 146.976 212.931 148.32V155.28H210.195V142.056H212.931V143.976ZM224.205 155.496C223.165 155.496 222.229 155.312 221.397 154.944C220.581 154.56 219.933 154.048 219.453 153.408C218.973 152.752 218.717 152.024 218.685 151.224H221.517C221.565 151.784 221.829 152.256 222.309 152.64C222.805 153.008 223.421 153.192 224.157 153.192C224.925 153.192 225.517 153.048 225.933 152.76C226.365 152.456 226.581 152.072 226.581 151.608C226.581 151.112 226.341 150.744 225.861 150.504C225.397 150.264 224.653 150 223.629 149.712C222.637 149.44 221.829 149.176 221.205 148.92C220.581 148.664 220.037 148.272 219.573 147.744C219.125 147.216 218.901 146.52 218.901 145.656C218.901 144.952 219.109 144.312 219.525 143.736C219.941 143.144 220.533 142.68 221.301 142.344C222.085 142.008 222.981 141.84 223.989 141.84C225.493 141.84 226.701 142.224 227.613 142.992C228.541 143.744 229.037 144.776 229.101 146.088H226.365C226.317 145.496 226.077 145.024 225.645 144.672C225.213 144.32 224.629 144.144 223.893 144.144C223.173 144.144 222.621 144.28 222.237 144.552C221.853 144.824 221.661 145.184 221.661 145.632C221.661 145.984 221.789 146.28 222.045 146.52C222.301 146.76 222.613 146.952 222.981 147.096C223.349 147.224 223.893 147.392 224.613 147.6C225.573 147.856 226.357 148.12 226.965 148.392C227.589 148.648 228.125 149.032 228.573 149.544C229.021 150.056 229.253 150.736 229.269 151.584C229.269 152.336 229.061 153.008 228.645 153.6C228.229 154.192 227.637 154.656 226.869 154.992C226.117 155.328 225.229 155.496 224.205 155.496Z" fill="#474E68"/>
</g>
</g>
<defs>
<filter id="filter0_i_175_732" x="78" y="3.27954" width="284.172" height="302.758" filterUnits="userSpaceOnUse" color-interpolation-filters="sRGB">
<feFlood flood-opacity="0" result="BackgroundImageFix"/>
<feBlend mode="normal" in="SourceGraphic" in2="BackgroundImageFix" result="shape"/>
<feColorMatrix in="SourceAlpha" type="matrix" values="0 0 0 0 0 0 0 0 0 0 0 0 0 0 0 0 0 0 127 0" result="hardAlpha"/>
<feOffset/>
<feGaussianBlur stdDeviation="3"/>
<feComposite in2="hardAlpha" operator="arithmetic" k2="-1" k3="1"/>
<feColorMatrix type="matrix" values="0 0 0 0 0.282353 0 0 0 0 0.282353 0 0 0 0 0.282353 0 0 0 0.25 0"/>
<feBlend mode="normal" in2="shape" result="effect1_innerShadow_175_732"/>
</filter>
<filter id="filter1_i_175_732" x="0" y="0" width="291.194" height="308.778" filterUnits="userSpaceOnUse" color-interpolation-filters="sRGB">
<feFlood flood-opacity="0" result="BackgroundImageFix"/>
<feBlend mode="normal" in="SourceGraphic" in2="BackgroundImageFix" result="shape"/>
<feColorMatrix in="SourceAlpha" type="matrix" values="0 0 0 0 0 0 0 0 0 0 0 0 0 0 0 0 0 0 127 0" result="hardAlpha"/>
<feOffset/>
<feGaussianBlur stdDeviation="3"/>
<feComposite in2="hardAlpha" operator="arithmetic" k2="-1" k3="1"/>
<feColorMatrix type="matrix" values="0 0 0 0 0.282353 0 0 0 0 0.282353 0 0 0 0 0.282353 0 0 0 0.25 0"/>
<feBlend mode="normal" in2="shape" result="effect1_innerShadow_175_732"/>
</filter>
<filter id="filter2_i_175_732" x="65" y="25.2795" width="236" height="260" filterUnits="userSpaceOnUse" color-interpolation-filters="sRGB">
<feFlood flood-opacity="0" result="BackgroundImageFix"/>
<feBlend mode="normal" in="SourceGraphic" in2="BackgroundImageFix" result="shape"/>
<feColorMatrix in="SourceAlpha" type="matrix" values="0 0 0 0 0 0 0 0 0 0 0 0 0 0 0 0 0 0 127 0" result="hardAlpha"/>
<feOffset/>
<feGaussianBlur stdDeviation="3"/>
<feComposite in2="hardAlpha" operator="arithmetic" k2="-1" k3="1"/>
<feColorMatrix type="matrix" values="0 0 0 0 0.282353 0 0 0 0 0.282353 0 0 0 0 0.282353 0 0 0 0.25 0"/>
<feBlend mode="normal" in2="shape" result="effect1_innerShadow_175_732"/>
</filter>
<clipPath id="clip0_175_732">
<rect x="131.157" y="3.27954" width="236" height="260" rx="20" transform="rotate(11.7973 131.157 3.27954)" fill="white"/>
</clipPath>
<clipPath id="clip1_175_732">
<rect y="56.2795" width="236" height="260" rx="20" transform="rotate(-13.7964 0 56.2795)" fill="white"/>
</clipPath>
<clipPath id="clip2_175_732">
<rect x="65" y="25.2795" width="236" height="260" rx="20" fill="white"/>
</clipPath>
</defs>
</svg>
