<svg width="284" height="149" viewBox="0 0 284 149" fill="none" xmlns="http://www.w3.org/2000/svg">
<g filter="url(#filter0_d_1301_11449)">
<rect x="4" y="4" width="276" height="141" rx="20" fill="white" shape-rendering="crispEdges"/>
<path d="M142 66.5C153.046 66.5 162 57.5457 162 46.5C162 35.4543 153.046 26.5 142 26.5C130.954 26.5 122 35.4543 122 46.5C122 57.5457 130.954 66.5 142 66.5Z" stroke="#3C7EFC" stroke-width="3" stroke-linecap="round" stroke-linejoin="round"/>
<path d="M124.5 21.5L117 29" stroke="#3C7EFC" stroke-width="3" stroke-linecap="round" stroke-linejoin="round"/>
<path d="M167 29L159.5 21.5" stroke="#3C7EFC" stroke-width="3" stroke-linecap="round" stroke-linejoin="round"/>
<path d="M127.95 60.75L122 66.5" stroke="#3C7EFC" stroke-width="3" stroke-linecap="round" stroke-linejoin="round"/>
<path d="M156.1 60.6758L162 66.5008" stroke="#3C7EFC" stroke-width="3" stroke-linecap="round" stroke-linejoin="round"/>
<path d="M134.5 46.5L139.5 51.5L149.5 41.5" stroke="#3C7EFC" stroke-width="3" stroke-linecap="round" stroke-linejoin="round"/>
<path d="M49.5329 118.126C48.7049 118.126 47.9609 117.982 47.3009 117.694C46.6529 117.394 46.1429 116.986 45.7709 116.47C45.3989 115.942 45.2069 115.336 45.1949 114.652H46.9409C47.0009 115.24 47.2409 115.738 47.6609 116.146C48.0929 116.542 48.7169 116.74 49.5329 116.74C50.3129 116.74 50.9249 116.548 51.3689 116.164C51.8249 115.768 52.0529 115.264 52.0529 114.652C52.0529 114.172 51.9209 113.782 51.6569 113.482C51.3929 113.182 51.0629 112.954 50.6669 112.798C50.2709 112.642 49.7369 112.474 49.0649 112.294C48.2369 112.078 47.5709 111.862 47.0669 111.646C46.5749 111.43 46.1489 111.094 45.7889 110.638C45.4409 110.17 45.2669 109.546 45.2669 108.766C45.2669 108.082 45.4409 107.476 45.7889 106.948C46.1369 106.42 46.6229 106.012 47.2469 105.724C47.8829 105.436 48.6089 105.292 49.4249 105.292C50.6009 105.292 51.5609 105.586 52.3049 106.174C53.0609 106.762 53.4869 107.542 53.5829 108.514H51.7829C51.7229 108.034 51.4709 107.614 51.0269 107.254C50.5829 106.882 49.9949 106.696 49.2629 106.696C48.5789 106.696 48.0209 106.876 47.5889 107.236C47.1569 107.584 46.9409 108.076 46.9409 108.712C46.9409 109.168 47.0669 109.54 47.3189 109.828C47.5829 110.116 47.9009 110.338 48.2729 110.494C48.6569 110.638 49.1909 110.806 49.8749 110.998C50.7029 111.226 51.3689 111.454 51.8729 111.682C52.3769 111.898 52.8089 112.24 53.1689 112.708C53.5289 113.164 53.7089 113.788 53.7089 114.58C53.7089 115.192 53.5469 115.768 53.2229 116.308C52.8989 116.848 52.4189 117.286 51.7829 117.622C51.1469 117.958 50.3969 118.126 49.5329 118.126ZM55.5074 113.032C55.5074 112.024 55.7114 111.142 56.1194 110.386C56.5274 109.618 57.0854 109.024 57.7934 108.604C58.5134 108.184 59.3114 107.974 60.1874 107.974C61.0514 107.974 61.8014 108.16 62.4374 108.532C63.0734 108.904 63.5474 109.372 63.8594 109.936V108.136H65.5154V118H63.8594V116.164C63.5354 116.74 63.0494 117.22 62.4014 117.604C61.7654 117.976 61.0214 118.162 60.1694 118.162C59.2934 118.162 58.5014 117.946 57.7934 117.514C57.0854 117.082 56.5274 116.476 56.1194 115.696C55.7114 114.916 55.5074 114.028 55.5074 113.032ZM63.8594 113.05C63.8594 112.306 63.7094 111.658 63.4094 111.106C63.1094 110.554 62.7014 110.134 62.1854 109.846C61.6814 109.546 61.1234 109.396 60.5114 109.396C59.8994 109.396 59.3414 109.54 58.8374 109.828C58.3334 110.116 57.9314 110.536 57.6314 111.088C57.3314 111.64 57.1814 112.288 57.1814 113.032C57.1814 113.788 57.3314 114.448 57.6314 115.012C57.9314 115.564 58.3334 115.99 58.8374 116.29C59.3414 116.578 59.8994 116.722 60.5114 116.722C61.1234 116.722 61.6814 116.578 62.1854 116.29C62.7014 115.99 63.1094 115.564 63.4094 115.012C63.7094 114.448 63.8594 113.794 63.8594 113.05ZM71.9555 116.488L75.0155 108.136H76.7615L72.8915 118H70.9835L67.1135 108.136H68.8775L71.9555 116.488ZM87.3733 112.69C87.3733 113.002 87.3553 113.332 87.3193 113.68H79.4353C79.4953 114.652 79.8253 115.414 80.4253 115.966C81.0373 116.506 81.7753 116.776 82.6393 116.776C83.3473 116.776 83.9353 116.614 84.4033 116.29C84.8833 115.954 85.2193 115.51 85.4113 114.958H87.1753C86.9113 115.906 86.3833 116.68 85.5913 117.28C84.7993 117.868 83.8153 118.162 82.6393 118.162C81.7033 118.162 80.8633 117.952 80.1193 117.532C79.3873 117.112 78.8113 116.518 78.3913 115.75C77.9713 114.97 77.7613 114.07 77.7613 113.05C77.7613 112.03 77.9653 111.136 78.3733 110.368C78.7813 109.6 79.3513 109.012 80.0833 108.604C80.8273 108.184 81.6793 107.974 82.6393 107.974C83.5753 107.974 84.4033 108.178 85.1233 108.586C85.8433 108.994 86.3953 109.558 86.7793 110.278C87.1753 110.986 87.3733 111.79 87.3733 112.69ZM85.6813 112.348C85.6813 111.724 85.5433 111.19 85.2673 110.746C84.9913 110.29 84.6133 109.948 84.1333 109.72C83.6653 109.48 83.1433 109.36 82.5673 109.36C81.7393 109.36 81.0313 109.624 80.4433 110.152C79.8673 110.68 79.5373 111.412 79.4533 112.348H85.6813ZM102.056 105.454V106.786H98.6362V118H96.9982V106.786H93.5602V105.454H102.056ZM104.919 106.534C104.607 106.534 104.343 106.426 104.127 106.21C103.911 105.994 103.803 105.73 103.803 105.418C103.803 105.106 103.911 104.842 104.127 104.626C104.343 104.41 104.607 104.302 104.919 104.302C105.219 104.302 105.471 104.41 105.675 104.626C105.891 104.842 105.999 105.106 105.999 105.418C105.999 105.73 105.891 105.994 105.675 106.21C105.471 106.426 105.219 106.534 104.919 106.534ZM105.711 108.136V118H104.073V108.136H105.711ZM120.364 107.956C121.132 107.956 121.816 108.118 122.416 108.442C123.016 108.754 123.49 109.228 123.838 109.864C124.186 110.5 124.36 111.274 124.36 112.186V118H122.74V112.42C122.74 111.436 122.494 110.686 122.002 110.17C121.522 109.642 120.868 109.378 120.04 109.378C119.188 109.378 118.51 109.654 118.006 110.206C117.502 110.746 117.25 111.532 117.25 112.564V118H115.63V112.42C115.63 111.436 115.384 110.686 114.892 110.17C114.412 109.642 113.758 109.378 112.93 109.378C112.078 109.378 111.4 109.654 110.896 110.206C110.392 110.746 110.14 111.532 110.14 112.564V118H108.502V108.136H110.14V109.558C110.464 109.042 110.896 108.646 111.436 108.37C111.988 108.094 112.594 107.956 113.254 107.956C114.082 107.956 114.814 108.142 115.45 108.514C116.086 108.886 116.56 109.432 116.872 110.152C117.148 109.456 117.604 108.916 118.24 108.532C118.876 108.148 119.584 107.956 120.364 107.956ZM136.047 112.69C136.047 113.002 136.029 113.332 135.993 113.68H128.109C128.169 114.652 128.499 115.414 129.099 115.966C129.711 116.506 130.449 116.776 131.313 116.776C132.021 116.776 132.609 116.614 133.077 116.29C133.557 115.954 133.893 115.51 134.085 114.958H135.849C135.585 115.906 135.057 116.68 134.265 117.28C133.473 117.868 132.489 118.162 131.313 118.162C130.377 118.162 129.537 117.952 128.793 117.532C128.061 117.112 127.485 116.518 127.065 115.75C126.645 114.97 126.435 114.07 126.435 113.05C126.435 112.03 126.639 111.136 127.047 110.368C127.455 109.6 128.025 109.012 128.757 108.604C129.501 108.184 130.353 107.974 131.313 107.974C132.249 107.974 133.077 108.178 133.797 108.586C134.517 108.994 135.069 109.558 135.453 110.278C135.849 110.986 136.047 111.79 136.047 112.69ZM134.355 112.348C134.355 111.724 134.217 111.19 133.941 110.746C133.665 110.29 133.287 109.948 132.807 109.72C132.339 109.48 131.817 109.36 131.241 109.36C130.413 109.36 129.705 109.624 129.117 110.152C128.541 110.68 128.211 111.412 128.127 112.348H134.355ZM139.901 115.732L137.885 120.574H136.787L138.101 115.732H139.901ZM156.242 105.454V118H154.604V112.312H148.214V118H146.576V105.454H148.214V110.962H154.604V105.454H156.242ZM159.885 106.534C159.573 106.534 159.309 106.426 159.093 106.21C158.877 105.994 158.769 105.73 158.769 105.418C158.769 105.106 158.877 104.842 159.093 104.626C159.309 104.41 159.573 104.302 159.885 104.302C160.185 104.302 160.437 104.41 160.641 104.626C160.857 104.842 160.965 105.106 160.965 105.418C160.965 105.73 160.857 105.994 160.641 106.21C160.437 106.426 160.185 106.534 159.885 106.534ZM160.677 108.136V118H159.039V108.136H160.677ZM165.107 109.738C165.395 109.174 165.803 108.736 166.331 108.424C166.871 108.112 167.525 107.956 168.293 107.956V109.648H167.861C166.025 109.648 165.107 110.644 165.107 112.636V118H163.469V108.136H165.107V109.738ZM179.184 112.69C179.184 113.002 179.166 113.332 179.13 113.68H171.246C171.306 114.652 171.636 115.414 172.236 115.966C172.848 116.506 173.586 116.776 174.45 116.776C175.158 116.776 175.746 116.614 176.214 116.29C176.694 115.954 177.03 115.51 177.222 114.958H178.986C178.722 115.906 178.194 116.68 177.402 117.28C176.61 117.868 175.626 118.162 174.45 118.162C173.514 118.162 172.674 117.952 171.93 117.532C171.198 117.112 170.622 116.518 170.202 115.75C169.782 114.97 169.572 114.07 169.572 113.05C169.572 112.03 169.776 111.136 170.184 110.368C170.592 109.6 171.162 109.012 171.894 108.604C172.638 108.184 173.49 107.974 174.45 107.974C175.386 107.974 176.214 108.178 176.934 108.586C177.654 108.994 178.206 109.558 178.59 110.278C178.986 110.986 179.184 111.79 179.184 112.69ZM177.492 112.348C177.492 111.724 177.354 111.19 177.078 110.746C176.802 110.29 176.424 109.948 175.944 109.72C175.476 109.48 174.954 109.36 174.378 109.36C173.55 109.36 172.842 109.624 172.254 110.152C171.678 110.68 171.348 111.412 171.264 112.348H177.492ZM193.237 105.454V106.786H187.783V111.016H192.211V112.348H187.783V118H186.145V105.454H193.237ZM194.603 113.032C194.603 112.024 194.807 111.142 195.215 110.386C195.623 109.618 196.181 109.024 196.889 108.604C197.609 108.184 198.407 107.974 199.283 107.974C200.147 107.974 200.897 108.16 201.533 108.532C202.169 108.904 202.643 109.372 202.955 109.936V108.136H204.611V118H202.955V116.164C202.631 116.74 202.145 117.22 201.497 117.604C200.861 117.976 200.117 118.162 199.265 118.162C198.389 118.162 197.597 117.946 196.889 117.514C196.181 117.082 195.623 116.476 195.215 115.696C194.807 114.916 194.603 114.028 194.603 113.032ZM202.955 113.05C202.955 112.306 202.805 111.658 202.505 111.106C202.205 110.554 201.797 110.134 201.281 109.846C200.777 109.546 200.219 109.396 199.607 109.396C198.995 109.396 198.437 109.54 197.933 109.828C197.429 110.116 197.027 110.536 196.727 111.088C196.427 111.64 196.277 112.288 196.277 113.032C196.277 113.788 196.427 114.448 196.727 115.012C197.027 115.564 197.429 115.99 197.933 116.29C198.437 116.578 198.995 116.722 199.607 116.722C200.219 116.722 200.777 116.578 201.281 116.29C201.797 115.99 202.205 115.564 202.505 115.012C202.805 114.448 202.955 113.794 202.955 113.05ZM210.871 118.162C210.115 118.162 209.437 118.036 208.837 117.784C208.237 117.52 207.763 117.16 207.415 116.704C207.067 116.236 206.875 115.702 206.839 115.102H208.531C208.579 115.594 208.807 115.996 209.215 116.308C209.635 116.62 210.181 116.776 210.853 116.776C211.477 116.776 211.969 116.638 212.329 116.362C212.689 116.086 212.869 115.738 212.869 115.318C212.869 114.886 212.677 114.568 212.293 114.364C211.909 114.148 211.315 113.938 210.511 113.734C209.779 113.542 209.179 113.35 208.711 113.158C208.255 112.954 207.859 112.66 207.523 112.276C207.199 111.88 207.037 111.364 207.037 110.728C207.037 110.224 207.187 109.762 207.487 109.342C207.787 108.922 208.213 108.592 208.765 108.352C209.317 108.1 209.947 107.974 210.655 107.974C211.747 107.974 212.629 108.25 213.301 108.802C213.973 109.354 214.333 110.11 214.381 111.07H212.743C212.707 110.554 212.497 110.14 212.113 109.828C211.741 109.516 211.237 109.36 210.601 109.36C210.013 109.36 209.545 109.486 209.197 109.738C208.849 109.99 208.675 110.32 208.675 110.728C208.675 111.052 208.777 111.322 208.981 111.538C209.197 111.742 209.461 111.91 209.773 112.042C210.097 112.162 210.541 112.3 211.105 112.456C211.813 112.648 212.389 112.84 212.833 113.032C213.277 113.212 213.655 113.488 213.967 113.86C214.291 114.232 214.459 114.718 214.471 115.318C214.471 115.858 214.321 116.344 214.021 116.776C213.721 117.208 213.295 117.55 212.743 117.802C212.203 118.042 211.579 118.162 210.871 118.162ZM218.781 109.486V115.3C218.781 115.78 218.883 116.122 219.087 116.326C219.291 116.518 219.645 116.614 220.149 116.614H221.355V118H219.879C218.967 118 218.283 117.79 217.827 117.37C217.371 116.95 217.143 116.26 217.143 115.3V109.486H215.865V108.136H217.143V105.652H218.781V108.136H221.355V109.486H218.781ZM232.34 112.69C232.34 113.002 232.322 113.332 232.286 113.68H224.402C224.462 114.652 224.792 115.414 225.392 115.966C226.004 116.506 226.742 116.776 227.606 116.776C228.314 116.776 228.902 116.614 229.37 116.29C229.85 115.954 230.186 115.51 230.378 114.958H232.142C231.878 115.906 231.35 116.68 230.558 117.28C229.766 117.868 228.782 118.162 227.606 118.162C226.67 118.162 225.83 117.952 225.086 117.532C224.354 117.112 223.778 116.518 223.358 115.75C222.938 114.97 222.728 114.07 222.728 113.05C222.728 112.03 222.932 111.136 223.34 110.368C223.748 109.6 224.318 109.012 225.05 108.604C225.794 108.184 226.646 107.974 227.606 107.974C228.542 107.974 229.37 108.178 230.09 108.586C230.81 108.994 231.362 109.558 231.746 110.278C232.142 110.986 232.34 111.79 232.34 112.69ZM230.648 112.348C230.648 111.724 230.51 111.19 230.234 110.746C229.958 110.29 229.58 109.948 229.1 109.72C228.632 109.48 228.11 109.36 227.534 109.36C226.706 109.36 225.998 109.624 225.41 110.152C224.834 110.68 224.504 111.412 224.42 112.348H230.648ZM236.14 109.738C236.428 109.174 236.836 108.736 237.364 108.424C237.904 108.112 238.558 107.956 239.326 107.956V109.648H238.894C237.058 109.648 236.14 110.644 236.14 112.636V118H234.502V108.136H236.14V109.738Z" fill="#474E68"/>
</g>
<defs>
<filter id="filter0_d_1301_11449" x="0" y="0" width="284" height="149" filterUnits="userSpaceOnUse" color-interpolation-filters="sRGB">
<feFlood flood-opacity="0" result="BackgroundImageFix"/>
<feColorMatrix in="SourceAlpha" type="matrix" values="0 0 0 0 0 0 0 0 0 0 0 0 0 0 0 0 0 0 127 0" result="hardAlpha"/>
<feOffset/>
<feGaussianBlur stdDeviation="2"/>
<feComposite in2="hardAlpha" operator="out"/>
<feColorMatrix type="matrix" values="0 0 0 0 0 0 0 0 0 0 0 0 0 0 0 0 0 0 0.25 0"/>
<feBlend mode="normal" in2="BackgroundImageFix" result="effect1_dropShadow_1301_11449"/>
<feBlend mode="normal" in="SourceGraphic" in2="effect1_dropShadow_1301_11449" result="shape"/>
</filter>
</defs>
</svg>
