<svg width="301" height="149" viewBox="0 0 301 149" fill="none" xmlns="http://www.w3.org/2000/svg">
<g filter="url(#filter0_d_1301_11498)">
<rect x="4" y="4" width="293" height="141" rx="20" fill="white" shape-rendering="crispEdges"/>
<path d="M151.523 46.5425C152.662 43.901 154.678 41.7334 157.23 40.4055C159.782 39.0775 162.714 38.6704 165.531 39.2529C168.348 39.8353 170.878 41.3717 172.694 43.6028C174.51 45.8339 175.501 48.6232 175.5 51.5C175.5 61.165 165.5 69 153 69C142.808 69 132.618 66.95 127.073 62.845C126.008 62.055 125.495 60.765 125.523 59.44C125.795 45.8075 127.068 19 145.5 19C147.489 19 149.397 19.7902 150.803 21.1967C152.21 22.6032 153 24.5109 153 26.5C153 27.8261 152.473 29.0979 151.536 30.0355C150.598 30.9732 149.326 31.5 148 31.5C145.238 31.5 143.9 30.39 143 29" stroke="#3C7EFC" stroke-width="3" stroke-linecap="round" stroke-linejoin="round"/>
<path d="M157.999 49.0001C156.49 47.8678 154.745 47.0918 152.893 46.73C151.042 46.3683 149.133 46.4303 147.309 46.9113C145.485 47.3923 143.793 48.2799 142.361 49.5075C140.929 50.7352 139.793 52.2711 139.039 54.0001" stroke="#3C7EFC" stroke-width="3" stroke-linecap="round" stroke-linejoin="round"/>
<path d="M145.41 31.0625C140.547 33.9425 144.25 46.5 140.5 51.5" stroke="#3C7EFC" stroke-width="3" stroke-linecap="round" stroke-linejoin="round"/>
<path d="M53.2356 115.21H47.7636L46.7556 118H45.0276L49.5636 105.526H51.4536L55.9716 118H54.2436L53.2356 115.21ZM52.7676 113.878L50.4996 107.542L48.2316 113.878H52.7676ZM61.9625 109.486H59.8925V118H58.2545V109.486H56.9765V108.136H58.2545V107.434C58.2545 106.33 58.5365 105.526 59.1005 105.022C59.6765 104.506 60.5945 104.248 61.8545 104.248V105.616C61.1345 105.616 60.6245 105.76 60.3245 106.048C60.0365 106.324 59.8925 106.786 59.8925 107.434V108.136H61.9625V109.486ZM67.8863 109.486H65.8163V118H64.1783V109.486H62.9003V108.136H64.1783V107.434C64.1783 106.33 64.4603 105.526 65.0243 105.022C65.6003 104.506 66.5183 104.248 67.7783 104.248V105.616C67.0583 105.616 66.5483 105.76 66.2483 106.048C65.9603 106.324 65.8163 106.786 65.8163 107.434V108.136H67.8863V109.486ZM74.0982 118.162C73.1742 118.162 72.3342 117.952 71.5782 117.532C70.8342 117.112 70.2462 116.518 69.8142 115.75C69.3942 114.97 69.1842 114.07 69.1842 113.05C69.1842 112.042 69.4002 111.154 69.8322 110.386C70.2762 109.606 70.8762 109.012 71.6322 108.604C72.3882 108.184 73.2342 107.974 74.1702 107.974C75.1062 107.974 75.9522 108.184 76.7082 108.604C77.4642 109.012 78.0582 109.6 78.4902 110.368C78.9342 111.136 79.1562 112.03 79.1562 113.05C79.1562 114.07 78.9282 114.97 78.4722 115.75C78.0282 116.518 77.4222 117.112 76.6542 117.532C75.8862 117.952 75.0342 118.162 74.0982 118.162ZM74.0982 116.722C74.6862 116.722 75.2382 116.584 75.7542 116.308C76.2702 116.032 76.6842 115.618 76.9962 115.066C77.3202 114.514 77.4822 113.842 77.4822 113.05C77.4822 112.258 77.3262 111.586 77.0142 111.034C76.7022 110.482 76.2942 110.074 75.7902 109.81C75.2862 109.534 74.7402 109.396 74.1522 109.396C73.5522 109.396 73.0002 109.534 72.4962 109.81C72.0042 110.074 71.6082 110.482 71.3082 111.034C71.0082 111.586 70.8582 112.258 70.8582 113.05C70.8582 113.854 71.0022 114.532 71.2902 115.084C71.5902 115.636 71.9862 116.05 72.4782 116.326C72.9702 116.59 73.5102 116.722 74.0982 116.722ZM82.9478 109.738C83.2358 109.174 83.6438 108.736 84.1718 108.424C84.7118 108.112 85.3658 107.956 86.1338 107.956V109.648H85.7018C83.8658 109.648 82.9478 110.644 82.9478 112.636V118H81.3098V108.136H82.9478V109.738ZM87.4127 113.032C87.4127 112.024 87.6167 111.142 88.0247 110.386C88.4327 109.618 88.9907 109.024 89.6987 108.604C90.4187 108.184 91.2227 107.974 92.1107 107.974C92.8787 107.974 93.5927 108.154 94.2527 108.514C94.9127 108.862 95.4167 109.324 95.7647 109.9V104.68H97.4207V118H95.7647V116.146C95.4407 116.734 94.9607 117.22 94.3247 117.604C93.6887 117.976 92.9447 118.162 92.0927 118.162C91.2167 118.162 90.4187 117.946 89.6987 117.514C88.9907 117.082 88.4327 116.476 88.0247 115.696C87.6167 114.916 87.4127 114.028 87.4127 113.032ZM95.7647 113.05C95.7647 112.306 95.6147 111.658 95.3147 111.106C95.0147 110.554 94.6067 110.134 94.0907 109.846C93.5867 109.546 93.0287 109.396 92.4167 109.396C91.8047 109.396 91.2467 109.54 90.7427 109.828C90.2387 110.116 89.8367 110.536 89.5367 111.088C89.2367 111.64 89.0867 112.288 89.0867 113.032C89.0867 113.788 89.2367 114.448 89.5367 115.012C89.8367 115.564 90.2387 115.99 90.7427 116.29C91.2467 116.578 91.8047 116.722 92.4167 116.722C93.0287 116.722 93.5867 116.578 94.0907 116.29C94.6067 115.99 95.0147 115.564 95.3147 115.012C95.6147 114.448 95.7647 113.794 95.7647 113.05ZM99.5767 113.032C99.5767 112.024 99.7807 111.142 100.189 110.386C100.597 109.618 101.155 109.024 101.863 108.604C102.583 108.184 103.381 107.974 104.257 107.974C105.121 107.974 105.871 108.16 106.507 108.532C107.143 108.904 107.617 109.372 107.929 109.936V108.136H109.585V118H107.929V116.164C107.605 116.74 107.119 117.22 106.471 117.604C105.835 117.976 105.091 118.162 104.239 118.162C103.363 118.162 102.571 117.946 101.863 117.514C101.155 117.082 100.597 116.476 100.189 115.696C99.7807 114.916 99.5767 114.028 99.5767 113.032ZM107.929 113.05C107.929 112.306 107.779 111.658 107.479 111.106C107.179 110.554 106.771 110.134 106.255 109.846C105.751 109.546 105.193 109.396 104.581 109.396C103.969 109.396 103.411 109.54 102.907 109.828C102.403 110.116 102.001 110.536 101.701 111.088C101.401 111.64 101.251 112.288 101.251 113.032C101.251 113.788 101.401 114.448 101.701 115.012C102.001 115.564 102.403 115.99 102.907 116.29C103.411 116.578 103.969 116.722 104.581 116.722C105.193 116.722 105.751 116.578 106.255 116.29C106.771 115.99 107.179 115.564 107.479 115.012C107.779 114.448 107.929 113.794 107.929 113.05ZM113.991 109.972C114.327 109.384 114.819 108.904 115.467 108.532C116.115 108.16 116.853 107.974 117.681 107.974C118.569 107.974 119.367 108.184 120.075 108.604C120.783 109.024 121.341 109.618 121.749 110.386C122.157 111.142 122.361 112.024 122.361 113.032C122.361 114.028 122.157 114.916 121.749 115.696C121.341 116.476 120.777 117.082 120.057 117.514C119.349 117.946 118.557 118.162 117.681 118.162C116.829 118.162 116.079 117.976 115.431 117.604C114.795 117.232 114.315 116.758 113.991 116.182V118H112.353V104.68H113.991V109.972ZM120.687 113.032C120.687 112.288 120.537 111.64 120.237 111.088C119.937 110.536 119.529 110.116 119.013 109.828C118.509 109.54 117.951 109.396 117.339 109.396C116.739 109.396 116.181 109.546 115.665 109.846C115.161 110.134 114.753 110.56 114.441 111.124C114.141 111.676 113.991 112.318 113.991 113.05C113.991 113.794 114.141 114.448 114.441 115.012C114.753 115.564 115.161 115.99 115.665 116.29C116.181 116.578 116.739 116.722 117.339 116.722C117.951 116.722 118.509 116.578 119.013 116.29C119.529 115.99 119.937 115.564 120.237 115.012C120.537 114.448 120.687 113.788 120.687 113.032ZM126.155 104.68V118H124.517V104.68H126.155ZM137.947 112.69C137.947 113.002 137.929 113.332 137.893 113.68H130.009C130.069 114.652 130.399 115.414 130.999 115.966C131.611 116.506 132.349 116.776 133.213 116.776C133.921 116.776 134.509 116.614 134.977 116.29C135.457 115.954 135.793 115.51 135.985 114.958H137.749C137.485 115.906 136.957 116.68 136.165 117.28C135.373 117.868 134.389 118.162 133.213 118.162C132.277 118.162 131.437 117.952 130.693 117.532C129.961 117.112 129.385 116.518 128.965 115.75C128.545 114.97 128.335 114.07 128.335 113.05C128.335 112.03 128.539 111.136 128.947 110.368C129.355 109.6 129.925 109.012 130.657 108.604C131.401 108.184 132.253 107.974 133.213 107.974C134.149 107.974 134.977 108.178 135.697 108.586C136.417 108.994 136.969 109.558 137.353 110.278C137.749 110.986 137.947 111.79 137.947 112.69ZM136.255 112.348C136.255 111.724 136.117 111.19 135.841 110.746C135.565 110.29 135.187 109.948 134.707 109.72C134.239 109.48 133.717 109.36 133.141 109.36C132.313 109.36 131.605 109.624 131.017 110.152C130.441 110.68 130.111 111.412 130.027 112.348H136.255ZM141.801 115.732L139.785 120.574H138.687L140.001 115.732H141.801ZM157.26 105.454L153.174 113.266V118H151.536V113.266L147.432 105.454H149.25L152.346 111.808L155.442 105.454H157.26ZM167.988 112.69C167.988 113.002 167.97 113.332 167.934 113.68H160.05C160.11 114.652 160.44 115.414 161.04 115.966C161.652 116.506 162.39 116.776 163.254 116.776C163.962 116.776 164.55 116.614 165.018 116.29C165.498 115.954 165.834 115.51 166.026 114.958H167.79C167.526 115.906 166.998 116.68 166.206 117.28C165.414 117.868 164.43 118.162 163.254 118.162C162.318 118.162 161.478 117.952 160.734 117.532C160.002 117.112 159.426 116.518 159.006 115.75C158.586 114.97 158.376 114.07 158.376 113.05C158.376 112.03 158.58 111.136 158.988 110.368C159.396 109.6 159.966 109.012 160.698 108.604C161.442 108.184 162.294 107.974 163.254 107.974C164.19 107.974 165.018 108.178 165.738 108.586C166.458 108.994 167.01 109.558 167.394 110.278C167.79 110.986 167.988 111.79 167.988 112.69ZM166.296 112.348C166.296 111.724 166.158 111.19 165.882 110.746C165.606 110.29 165.228 109.948 164.748 109.72C164.28 109.48 163.758 109.36 163.182 109.36C162.354 109.36 161.646 109.624 161.058 110.152C160.482 110.68 160.152 111.412 160.068 112.348H166.296ZM172.148 109.486V115.3C172.148 115.78 172.25 116.122 172.454 116.326C172.658 116.518 173.012 116.614 173.516 116.614H174.722V118H173.246C172.334 118 171.65 117.79 171.194 117.37C170.738 116.95 170.51 116.26 170.51 115.3V109.486H169.232V108.136H170.51V105.652H172.148V108.136H174.722V109.486H172.148ZM189.893 109.126C189.893 110.17 189.533 111.04 188.813 111.736C188.105 112.42 187.019 112.762 185.555 112.762H183.143V118H181.505V105.454H185.555C186.971 105.454 188.045 105.796 188.777 106.48C189.521 107.164 189.893 108.046 189.893 109.126ZM185.555 111.412C186.467 111.412 187.139 111.214 187.571 110.818C188.003 110.422 188.219 109.858 188.219 109.126C188.219 107.578 187.331 106.804 185.555 106.804H183.143V111.412H185.555ZM196.231 118.162C195.307 118.162 194.467 117.952 193.711 117.532C192.967 117.112 192.379 116.518 191.947 115.75C191.527 114.97 191.317 114.07 191.317 113.05C191.317 112.042 191.533 111.154 191.965 110.386C192.409 109.606 193.009 109.012 193.765 108.604C194.521 108.184 195.367 107.974 196.303 107.974C197.239 107.974 198.085 108.184 198.841 108.604C199.597 109.012 200.191 109.6 200.623 110.368C201.067 111.136 201.289 112.03 201.289 113.05C201.289 114.07 201.061 114.97 200.605 115.75C200.161 116.518 199.555 117.112 198.787 117.532C198.019 117.952 197.167 118.162 196.231 118.162ZM196.231 116.722C196.819 116.722 197.371 116.584 197.887 116.308C198.403 116.032 198.817 115.618 199.129 115.066C199.453 114.514 199.615 113.842 199.615 113.05C199.615 112.258 199.459 111.586 199.147 111.034C198.835 110.482 198.427 110.074 197.923 109.81C197.419 109.534 196.873 109.396 196.285 109.396C195.685 109.396 195.133 109.534 194.629 109.81C194.137 110.074 193.741 110.482 193.441 111.034C193.141 111.586 192.991 112.258 192.991 113.05C192.991 113.854 193.135 114.532 193.423 115.084C193.723 115.636 194.119 116.05 194.611 116.326C195.103 116.59 195.643 116.722 196.231 116.722ZM216.583 108.136L213.505 118H211.813L209.437 110.17L207.061 118H205.369L202.273 108.136H203.947L206.215 116.416L208.663 108.136H210.337L212.731 116.434L214.963 108.136H216.583ZM227.208 112.69C227.208 113.002 227.19 113.332 227.154 113.68H219.27C219.33 114.652 219.66 115.414 220.26 115.966C220.872 116.506 221.61 116.776 222.474 116.776C223.182 116.776 223.77 116.614 224.238 116.29C224.718 115.954 225.054 115.51 225.246 114.958H227.01C226.746 115.906 226.218 116.68 225.426 117.28C224.634 117.868 223.65 118.162 222.474 118.162C221.538 118.162 220.698 117.952 219.954 117.532C219.222 117.112 218.646 116.518 218.226 115.75C217.806 114.97 217.596 114.07 217.596 113.05C217.596 112.03 217.8 111.136 218.208 110.368C218.616 109.6 219.186 109.012 219.918 108.604C220.662 108.184 221.514 107.974 222.474 107.974C223.41 107.974 224.238 108.178 224.958 108.586C225.678 108.994 226.23 109.558 226.614 110.278C227.01 110.986 227.208 111.79 227.208 112.69ZM225.516 112.348C225.516 111.724 225.378 111.19 225.102 110.746C224.826 110.29 224.448 109.948 223.968 109.72C223.5 109.48 222.978 109.36 222.402 109.36C221.574 109.36 220.866 109.624 220.278 110.152C219.702 110.68 219.372 111.412 219.288 112.348H225.516ZM231.008 109.738C231.296 109.174 231.704 108.736 232.232 108.424C232.772 108.112 233.426 107.956 234.194 107.956V109.648H233.762C231.926 109.648 231.008 110.644 231.008 112.636V118H229.37V108.136H231.008V109.738ZM240.099 109.486H238.029V118H236.391V109.486H235.113V108.136H236.391V107.434C236.391 106.33 236.673 105.526 237.237 105.022C237.813 104.506 238.731 104.248 239.991 104.248V105.616C239.271 105.616 238.761 105.76 238.461 106.048C238.173 106.324 238.029 106.786 238.029 107.434V108.136H240.099V109.486ZM250.757 108.136V118H249.119V116.542C248.807 117.046 248.369 117.442 247.805 117.73C247.253 118.006 246.641 118.144 245.969 118.144C245.201 118.144 244.511 117.988 243.899 117.676C243.287 117.352 242.801 116.872 242.441 116.236C242.093 115.6 241.919 114.826 241.919 113.914V108.136H243.539V113.698C243.539 114.67 243.785 115.42 244.277 115.948C244.769 116.464 245.441 116.722 246.293 116.722C247.169 116.722 247.859 116.452 248.363 115.912C248.867 115.372 249.119 114.586 249.119 113.554V108.136H250.757ZM255.161 104.68V118H253.523V104.68H255.161Z" fill="#474E68"/>
</g>
<defs>
<filter id="filter0_d_1301_11498" x="0" y="0" width="301" height="149" filterUnits="userSpaceOnUse" color-interpolation-filters="sRGB">
<feFlood flood-opacity="0" result="BackgroundImageFix"/>
<feColorMatrix in="SourceAlpha" type="matrix" values="0 0 0 0 0 0 0 0 0 0 0 0 0 0 0 0 0 0 127 0" result="hardAlpha"/>
<feOffset/>
<feGaussianBlur stdDeviation="2"/>
<feComposite in2="hardAlpha" operator="out"/>
<feColorMatrix type="matrix" values="0 0 0 0 0 0 0 0 0 0 0 0 0 0 0 0 0 0 0.25 0"/>
<feBlend mode="normal" in2="BackgroundImageFix" result="effect1_dropShadow_1301_11498"/>
<feBlend mode="normal" in="SourceGraphic" in2="effect1_dropShadow_1301_11498" result="shape"/>
</filter>
</defs>
</svg>
