<svg width="276" height="149" viewBox="0 0 276 149" fill="none" xmlns="http://www.w3.org/2000/svg">
<g filter="url(#filter0_d_1301_11509)">
<rect x="4" y="4" width="268" height="141" rx="20" fill="white" shape-rendering="crispEdges"/>
<path d="M138 26.5006C138.003 25.5007 137.806 24.5103 137.421 23.5876C137.035 22.665 136.469 21.8287 135.756 21.128C135.042 20.4273 134.196 19.8763 133.267 19.5074C132.337 19.1386 131.344 18.9593 130.344 18.9801C129.344 19.001 128.359 19.2215 127.445 19.6288C126.532 20.036 125.71 20.6218 125.026 21.3516C124.343 22.0814 123.812 22.9406 123.465 23.8785C123.119 24.8164 122.963 25.8142 123.008 26.8131C121.538 27.191 120.174 27.8982 119.018 28.8814C117.862 29.8645 116.946 31.0978 116.337 32.4877C115.729 33.8777 115.444 35.3879 115.506 36.9039C115.568 38.4199 115.973 39.9021 116.693 41.2381C115.428 42.2654 114.434 43.5862 113.796 45.0855C113.158 46.5847 112.896 48.2171 113.033 49.8406C113.17 51.4641 113.702 53.0295 114.582 54.4007C115.462 55.7719 116.664 56.9073 118.083 57.7081C117.907 59.0637 118.012 60.4408 118.39 61.7544C118.768 63.068 119.411 64.2902 120.28 65.3455C121.148 66.4008 122.224 67.2668 123.441 67.89C124.657 68.5132 125.989 68.8804 127.353 68.969C128.717 69.0575 130.084 68.8654 131.371 68.4046C132.658 67.9439 133.837 67.2242 134.834 66.29C135.832 65.3558 136.628 64.227 137.172 62.9733C137.717 61.7195 137.999 60.3675 138 59.0006V26.5006Z" stroke="#3C7EFC" stroke-width="3" stroke-linecap="round" stroke-linejoin="round"/>
<path d="M130.5 46.5C132.599 45.7616 134.432 44.4175 135.767 42.6375C137.102 40.8575 137.879 38.7217 138 36.5" stroke="#3C7EFC" stroke-width="3" stroke-linecap="round" stroke-linejoin="round"/>
<path d="M123.008 26.8125C123.057 28.0218 123.399 29.2012 124.003 30.25" stroke="#3C7EFC" stroke-width="3" stroke-linecap="round" stroke-linejoin="round"/>
<path d="M116.693 41.24C117.151 40.8675 117.64 40.5362 118.156 40.25" stroke="#3C7EFC" stroke-width="3" stroke-linecap="round" stroke-linejoin="round"/>
<path d="M123 59.0009C121.277 59.0017 119.583 58.5574 118.082 57.7109" stroke="#3C7EFC" stroke-width="3" stroke-linecap="round" stroke-linejoin="round"/>
<path d="M138 46.5H148" stroke="#3C7EFC" stroke-width="3" stroke-linecap="round" stroke-linejoin="round"/>
<path d="M138 59H153C154.326 59 155.598 59.5268 156.536 60.4645C157.473 61.4021 158 62.6739 158 64V66.5" stroke="#3C7EFC" stroke-width="2" stroke-linecap="round" stroke-linejoin="round"/>
<path d="M138 34H158" stroke="#3C7EFC" stroke-width="2" stroke-linecap="round" stroke-linejoin="round"/>
<path d="M148 34V26.5C148 25.1739 148.527 23.9021 149.464 22.9645C150.402 22.0268 151.674 21.5 153 21.5" stroke="#3C7EFC" stroke-width="2" stroke-linecap="round" stroke-linejoin="round"/>
<path d="M148 47.75C148.69 47.75 149.25 47.1904 149.25 46.5C149.25 45.8096 148.69 45.25 148 45.25C147.31 45.25 146.75 45.8096 146.75 46.5C146.75 47.1904 147.31 47.75 148 47.75Z" stroke="#3C7EFC" stroke-width="2" stroke-linecap="round" stroke-linejoin="round"/>
<path d="M153 22.75C153.69 22.75 154.25 22.1904 154.25 21.5C154.25 20.8096 153.69 20.25 153 20.25C152.31 20.25 151.75 20.8096 151.75 21.5C151.75 22.1904 152.31 22.75 153 22.75Z" stroke="#3C7EFC" stroke-width="2" stroke-linecap="round" stroke-linejoin="round"/>
<path d="M158 67.75C158.69 67.75 159.25 67.1904 159.25 66.5C159.25 65.8096 158.69 65.25 158 65.25C157.31 65.25 156.75 65.8096 156.75 66.5C156.75 67.1904 157.31 67.75 158 67.75Z" stroke="#3C7EFC" stroke-width="2" stroke-linecap="round" stroke-linejoin="round"/>
<path d="M158 35.25C158.69 35.25 159.25 34.6904 159.25 34C159.25 33.3096 158.69 32.75 158 32.75C157.31 32.75 156.75 33.3096 156.75 34C156.75 34.6904 157.31 35.25 158 35.25Z" stroke="#3C7EFC" stroke-width="2" stroke-linecap="round" stroke-linejoin="round"/>
<path d="M52.8645 115.21H47.3925L46.3845 118H44.6565L49.1925 105.526H51.0825L55.6005 118H53.8725L52.8645 115.21ZM52.3965 113.878L50.1285 107.542L47.8605 113.878H52.3965ZM59.2154 105.454V118H57.5774V105.454H59.2154ZM74.5279 105.454V106.786H71.1079V118H69.4699V106.786H66.0319V105.454H74.5279ZM81.4402 107.956C82.1842 107.956 82.8562 108.118 83.4562 108.442C84.0562 108.754 84.5242 109.228 84.8602 109.864C85.2082 110.5 85.3822 111.274 85.3822 112.186V118H83.7622V112.42C83.7622 111.436 83.5162 110.686 83.0242 110.17C82.5322 109.642 81.8602 109.378 81.0082 109.378C80.1442 109.378 79.4542 109.648 78.9382 110.188C78.4342 110.728 78.1822 111.514 78.1822 112.546V118H76.5442V104.68H78.1822V109.54C78.5062 109.036 78.9502 108.646 79.5142 108.37C80.0902 108.094 80.7322 107.956 81.4402 107.956ZM87.4459 113.032C87.4459 112.024 87.6499 111.142 88.0579 110.386C88.4659 109.618 89.0239 109.024 89.7319 108.604C90.4519 108.184 91.2499 107.974 92.1259 107.974C92.9899 107.974 93.7399 108.16 94.3759 108.532C95.0119 108.904 95.4859 109.372 95.7979 109.936V108.136H97.4539V118H95.7979V116.164C95.4739 116.74 94.9879 117.22 94.3399 117.604C93.7039 117.976 92.9599 118.162 92.1079 118.162C91.2319 118.162 90.4399 117.946 89.7319 117.514C89.0239 117.082 88.4659 116.476 88.0579 115.696C87.6499 114.916 87.4459 114.028 87.4459 113.032ZM95.7979 113.05C95.7979 112.306 95.6479 111.658 95.3479 111.106C95.0479 110.554 94.6399 110.134 94.1239 109.846C93.6199 109.546 93.0619 109.396 92.4499 109.396C91.8379 109.396 91.2799 109.54 90.7759 109.828C90.2719 110.116 89.8699 110.536 89.5699 111.088C89.2699 111.64 89.1199 112.288 89.1199 113.032C89.1199 113.788 89.2699 114.448 89.5699 115.012C89.8699 115.564 90.2719 115.99 90.7759 116.29C91.2799 116.578 91.8379 116.722 92.4499 116.722C93.0619 116.722 93.6199 116.578 94.1239 116.29C94.6399 115.99 95.0479 115.564 95.3479 115.012C95.6479 114.448 95.7979 113.794 95.7979 113.05ZM102.22 109.486V115.3C102.22 115.78 102.322 116.122 102.526 116.326C102.73 116.518 103.084 116.614 103.588 116.614H104.794V118H103.318C102.406 118 101.722 117.79 101.266 117.37C100.81 116.95 100.582 116.26 100.582 115.3V109.486H99.3039V108.136H100.582V105.652H102.22V108.136H104.794V109.486H102.22ZM127.345 105.454L123.709 118H121.873L118.957 107.902L115.933 118L114.115 118.018L110.605 105.454H112.351L115.087 116.092L118.111 105.454H119.947L122.827 116.056L125.581 105.454H127.345ZM133.44 118.162C132.516 118.162 131.676 117.952 130.92 117.532C130.176 117.112 129.588 116.518 129.156 115.75C128.736 114.97 128.526 114.07 128.526 113.05C128.526 112.042 128.742 111.154 129.174 110.386C129.618 109.606 130.218 109.012 130.974 108.604C131.73 108.184 132.576 107.974 133.512 107.974C134.448 107.974 135.294 108.184 136.05 108.604C136.806 109.012 137.4 109.6 137.832 110.368C138.276 111.136 138.498 112.03 138.498 113.05C138.498 114.07 138.27 114.97 137.814 115.75C137.37 116.518 136.764 117.112 135.996 117.532C135.228 117.952 134.376 118.162 133.44 118.162ZM133.44 116.722C134.028 116.722 134.58 116.584 135.096 116.308C135.612 116.032 136.026 115.618 136.338 115.066C136.662 114.514 136.824 113.842 136.824 113.05C136.824 112.258 136.668 111.586 136.356 111.034C136.044 110.482 135.636 110.074 135.132 109.81C134.628 109.534 134.082 109.396 133.494 109.396C132.894 109.396 132.342 109.534 131.838 109.81C131.346 110.074 130.95 110.482 130.65 111.034C130.35 111.586 130.2 112.258 130.2 113.05C130.2 113.854 130.344 114.532 130.632 115.084C130.932 115.636 131.328 116.05 131.82 116.326C132.312 116.59 132.852 116.722 133.44 116.722ZM142.29 109.738C142.578 109.174 142.986 108.736 143.514 108.424C144.054 108.112 144.708 107.956 145.476 107.956V109.648H145.044C143.208 109.648 142.29 110.644 142.29 112.636V118H140.652V108.136H142.29V109.738ZM152.874 118L149.004 113.644V118H147.366V104.68H149.004V112.51L152.802 108.136H155.088L150.444 113.05L155.106 118H152.874ZM160.122 118.162C159.366 118.162 158.688 118.036 158.088 117.784C157.488 117.52 157.014 117.16 156.666 116.704C156.318 116.236 156.126 115.702 156.09 115.102H157.782C157.83 115.594 158.058 115.996 158.466 116.308C158.886 116.62 159.432 116.776 160.104 116.776C160.728 116.776 161.22 116.638 161.58 116.362C161.94 116.086 162.12 115.738 162.12 115.318C162.12 114.886 161.928 114.568 161.544 114.364C161.16 114.148 160.566 113.938 159.762 113.734C159.03 113.542 158.43 113.35 157.962 113.158C157.506 112.954 157.11 112.66 156.774 112.276C156.45 111.88 156.288 111.364 156.288 110.728C156.288 110.224 156.438 109.762 156.738 109.342C157.038 108.922 157.464 108.592 158.016 108.352C158.568 108.1 159.198 107.974 159.906 107.974C160.998 107.974 161.88 108.25 162.552 108.802C163.224 109.354 163.584 110.11 163.632 111.07H161.994C161.958 110.554 161.748 110.14 161.364 109.828C160.992 109.516 160.488 109.36 159.852 109.36C159.264 109.36 158.796 109.486 158.448 109.738C158.1 109.99 157.926 110.32 157.926 110.728C157.926 111.052 158.028 111.322 158.232 111.538C158.448 111.742 158.712 111.91 159.024 112.042C159.348 112.162 159.792 112.3 160.356 112.456C161.064 112.648 161.64 112.84 162.084 113.032C162.528 113.212 162.906 113.488 163.218 113.86C163.542 114.232 163.71 114.718 163.722 115.318C163.722 115.858 163.572 116.344 163.272 116.776C162.972 117.208 162.546 117.55 161.994 117.802C161.454 118.042 160.83 118.162 160.122 118.162ZM174.847 109.486H172.777V118H171.139V109.486H169.861V108.136H171.139V107.434C171.139 106.33 171.421 105.526 171.985 105.022C172.561 104.506 173.479 104.248 174.739 104.248V105.616C174.019 105.616 173.509 105.76 173.209 106.048C172.921 106.324 172.777 106.786 172.777 107.434V108.136H174.847V109.486ZM181.059 118.162C180.135 118.162 179.295 117.952 178.539 117.532C177.795 117.112 177.207 116.518 176.775 115.75C176.355 114.97 176.145 114.07 176.145 113.05C176.145 112.042 176.361 111.154 176.793 110.386C177.237 109.606 177.837 109.012 178.593 108.604C179.349 108.184 180.195 107.974 181.131 107.974C182.067 107.974 182.913 108.184 183.669 108.604C184.425 109.012 185.019 109.6 185.451 110.368C185.895 111.136 186.117 112.03 186.117 113.05C186.117 114.07 185.889 114.97 185.433 115.75C184.989 116.518 184.383 117.112 183.615 117.532C182.847 117.952 181.995 118.162 181.059 118.162ZM181.059 116.722C181.647 116.722 182.199 116.584 182.715 116.308C183.231 116.032 183.645 115.618 183.957 115.066C184.281 114.514 184.443 113.842 184.443 113.05C184.443 112.258 184.287 111.586 183.975 111.034C183.663 110.482 183.255 110.074 182.751 109.81C182.247 109.534 181.701 109.396 181.113 109.396C180.513 109.396 179.961 109.534 179.457 109.81C178.965 110.074 178.569 110.482 178.269 111.034C177.969 111.586 177.819 112.258 177.819 113.05C177.819 113.854 177.963 114.532 178.251 115.084C178.551 115.636 178.947 116.05 179.439 116.326C179.931 116.59 180.471 116.722 181.059 116.722ZM189.909 109.738C190.197 109.174 190.605 108.736 191.133 108.424C191.673 108.112 192.327 107.956 193.095 107.956V109.648H192.663C190.827 109.648 189.909 110.644 189.909 112.636V118H188.271V108.136H189.909V109.738ZM208.568 105.454L204.482 113.266V118H202.844V113.266L198.74 105.454H200.558L203.654 111.808L206.75 105.454H208.568ZM214.598 118.162C213.674 118.162 212.834 117.952 212.078 117.532C211.334 117.112 210.746 116.518 210.314 115.75C209.894 114.97 209.684 114.07 209.684 113.05C209.684 112.042 209.9 111.154 210.332 110.386C210.776 109.606 211.376 109.012 212.132 108.604C212.888 108.184 213.734 107.974 214.67 107.974C215.606 107.974 216.452 108.184 217.208 108.604C217.964 109.012 218.558 109.6 218.99 110.368C219.434 111.136 219.656 112.03 219.656 113.05C219.656 114.07 219.428 114.97 218.972 115.75C218.528 116.518 217.922 117.112 217.154 117.532C216.386 117.952 215.534 118.162 214.598 118.162ZM214.598 116.722C215.186 116.722 215.738 116.584 216.254 116.308C216.77 116.032 217.184 115.618 217.496 115.066C217.82 114.514 217.982 113.842 217.982 113.05C217.982 112.258 217.826 111.586 217.514 111.034C217.202 110.482 216.794 110.074 216.29 109.81C215.786 109.534 215.24 109.396 214.652 109.396C214.052 109.396 213.5 109.534 212.996 109.81C212.504 110.074 212.108 110.482 211.808 111.034C211.508 111.586 211.358 112.258 211.358 113.05C211.358 113.854 211.502 114.532 211.79 115.084C212.09 115.636 212.486 116.05 212.978 116.326C213.47 116.59 214.01 116.722 214.598 116.722ZM230.558 108.136V118H228.92V116.542C228.608 117.046 228.17 117.442 227.606 117.73C227.054 118.006 226.442 118.144 225.77 118.144C225.002 118.144 224.312 117.988 223.7 117.676C223.088 117.352 222.602 116.872 222.242 116.236C221.894 115.6 221.72 114.826 221.72 113.914V108.136H223.34V113.698C223.34 114.67 223.586 115.42 224.078 115.948C224.57 116.464 225.242 116.722 226.094 116.722C226.97 116.722 227.66 116.452 228.164 115.912C228.668 115.372 228.92 114.586 228.92 113.554V108.136H230.558Z" fill="#474E68"/>
</g>
<defs>
<filter id="filter0_d_1301_11509" x="0" y="0" width="276" height="149" filterUnits="userSpaceOnUse" color-interpolation-filters="sRGB">
<feFlood flood-opacity="0" result="BackgroundImageFix"/>
<feColorMatrix in="SourceAlpha" type="matrix" values="0 0 0 0 0 0 0 0 0 0 0 0 0 0 0 0 0 0 127 0" result="hardAlpha"/>
<feOffset/>
<feGaussianBlur stdDeviation="2"/>
<feComposite in2="hardAlpha" operator="out"/>
<feColorMatrix type="matrix" values="0 0 0 0 0 0 0 0 0 0 0 0 0 0 0 0 0 0 0.25 0"/>
<feBlend mode="normal" in2="BackgroundImageFix" result="effect1_dropShadow_1301_11509"/>
<feBlend mode="normal" in="SourceGraphic" in2="effect1_dropShadow_1301_11509" result="shape"/>
</filter>
</defs>
</svg>
