<svg width="22" height="22" viewBox="0 0 22 22" fill="none" xmlns="http://www.w3.org/2000/svg">
<path d="M1.83301 6.41634C1.83301 5.93011 2.02616 5.4638 2.36998 5.11998C2.7138 4.77616 3.18011 4.58301 3.66634 4.58301H18.333C18.8192 4.58301 19.2856 4.77616 19.6294 5.11998C19.9732 5.4638 20.1663 5.93011 20.1663 6.41634V15.583C20.1663 16.0692 19.9732 16.5356 19.6294 16.8794C19.2856 17.2232 18.8192 17.4163 18.333 17.4163H3.66634C3.18011 17.4163 2.7138 17.2232 2.36998 16.8794C2.02616 16.5356 1.83301 16.0692 1.83301 15.583V6.41634Z" stroke="#505050" stroke-linecap="round" stroke-linejoin="round"/>
<path d="M11 13.75C12.5188 13.75 13.75 12.5188 13.75 11C13.75 9.48122 12.5188 8.25 11 8.25C9.48122 8.25 8.25 9.48122 8.25 11C8.25 12.5188 9.48122 13.75 11 13.75Z" stroke="#505050" stroke-linecap="round" stroke-linejoin="round"/>
<path d="M1.83301 8.24967C2.80547 8.24967 3.7381 7.86337 4.42573 7.17573C5.11337 6.4881 5.49967 5.55547 5.49967 4.58301M16.4997 17.4163C16.4997 16.4439 16.886 15.5112 17.5736 14.8236C18.2613 14.136 19.1939 13.7497 20.1663 13.7497" stroke="#505050" stroke-linecap="round" stroke-linejoin="round"/>
</svg>
