<svg width="208" height="138" viewBox="0 0 208 138" fill="none" xmlns="http://www.w3.org/2000/svg">
<g clip-path="url(#clip0_1680_19349)">
<path d="M74.607 79.4204C81.7353 66.9021 95.3324 57.29 109.726 58.216C99.1089 69.7425 92.9178 84.6468 92.2481 100.292C92.0118 106.326 92.3783 113.063 88.3649 117.581C85.8676 120.393 82.0506 121.755 78.2976 122.04C74.5444 122.326 70.7921 121.649 67.0891 120.975L66.1909 121.25C65.8489 106.854 67.4788 91.9388 74.607 79.4204Z" fill="#F0F0F0"/>
<path d="M109.746 58.5174C99.1025 63.6329 90.0266 72.1763 84.4551 82.5957C83.2506 84.8483 82.225 87.2381 81.7777 89.7649C81.3301 92.2928 81.6427 94.6991 82.5076 97.1C83.2983 99.295 84.3616 101.449 84.6041 103.797C84.8596 106.273 83.9472 108.588 82.3049 110.425C80.2954 112.672 77.5969 114.065 74.9104 115.336C71.9277 116.746 68.8072 118.164 66.6945 120.797C66.4385 121.116 65.9577 120.701 66.2133 120.383C69.8889 115.802 76.1806 114.941 80.5436 111.251C82.5795 109.529 84.1079 107.184 84.0114 104.437C83.9271 102.035 82.8325 99.8127 82.0127 97.5972C81.1519 95.2708 80.7226 92.9318 81.0313 90.4515C81.3471 87.9144 82.2812 85.4795 83.4227 83.206C85.9972 78.0787 89.5205 73.3715 93.5567 69.3023C98.1953 64.625 103.601 60.7743 109.541 57.9169C109.908 57.7402 110.112 58.3419 109.746 58.5174Z" fill="white"/>
<path d="M86.0935 79.113C84.4618 77.9218 83.3073 76.1904 82.8362 74.2279C82.3651 72.2654 82.6082 70.1996 83.5219 68.3995C83.708 68.0359 84.2827 68.3076 84.0963 68.6717C83.2424 70.3464 83.0162 72.2707 83.4586 74.0972C83.901 75.9238 84.9829 77.5324 86.5089 78.6325C86.8403 78.872 86.423 79.3511 86.0935 79.113Z" fill="white"/>
<path d="M81.9608 96.0398C86.0496 95.4433 89.763 93.3303 92.3606 90.1219C92.6177 89.8038 93.0986 90.2189 92.8418 90.5366C90.1325 93.8703 86.2637 96.0614 82.0074 96.6727C81.6017 96.7307 81.5573 96.0975 81.9608 96.0398Z" fill="white"/>
<path d="M98.5136 65.4056C99.0487 65.9978 99.7229 66.448 100.475 66.7159C101.228 66.9837 102.035 67.0608 102.825 66.9401C103.23 66.877 103.274 67.5104 102.872 67.5731C101.998 67.7023 101.107 67.6161 100.275 67.3221C99.4427 67.028 98.6954 66.5349 98.0982 65.886C98.0368 65.8295 97.9992 65.7518 97.9931 65.6687C97.987 65.5856 98.0128 65.5032 98.0653 65.4384C98.1206 65.3751 98.1987 65.3361 98.2827 65.33C98.3666 65.3238 98.4496 65.351 98.5136 65.4056Z" fill="white"/>
<path d="M138.366 97.7071C138.114 97.7537 137.862 97.8002 137.608 97.8517C134.229 98.4953 130.907 99.412 127.676 100.593C127.425 100.68 127.171 100.772 126.923 100.867C119.169 103.794 112.027 108.133 105.859 113.664C103.407 115.867 101.127 118.253 99.037 120.801C96.1515 124.321 93.3034 128.366 89.5328 130.661C89.1421 130.904 88.7367 131.124 88.3188 131.318L66.5973 122.323C66.5582 122.278 66.5168 122.237 66.4775 122.192L65.5938 121.873C65.6923 121.734 65.7975 121.592 65.8961 121.453C65.953 121.372 66.0146 121.293 66.0715 121.212C66.1109 121.159 66.1506 121.106 66.1831 121.055C66.1962 121.038 66.2095 121.02 66.2205 121.007C66.253 120.957 66.2886 120.914 66.3191 120.868C66.905 120.073 67.4976 119.28 68.0969 118.49C68.0989 118.485 68.0989 118.486 68.1058 118.483C72.6869 112.476 77.8106 106.798 83.6346 102.077C83.8099 101.935 83.987 101.788 84.1722 101.65C86.8092 99.537 89.6148 97.6423 92.561 95.9852C94.1772 95.0831 95.8381 94.2631 97.5373 93.5286C101.931 91.6392 106.596 90.4515 111.36 90.0092C120.857 89.1288 130.53 91.2904 137.814 97.2466C138 97.3991 138.182 97.5496 138.366 97.7071Z" fill="#F0F0F0"/>
<path d="M138.205 97.9619C126.621 95.6486 114.223 97.0148 103.49 101.985C101.17 103.06 98.9101 104.352 97.0291 106.1C95.1472 107.85 93.9456 109.959 93.1882 112.396C92.4958 114.623 92.0459 116.982 90.8231 119.003C89.5342 121.133 87.4098 122.433 84.9906 122.913C82.0306 123.5 79.036 122.99 76.1248 122.389C72.8925 121.723 69.5458 120.98 66.2712 121.812C65.8744 121.913 65.7409 121.292 66.137 121.191C71.8343 119.743 77.3771 122.838 83.086 122.514C85.7499 122.363 88.3843 121.409 89.9642 119.158C91.3457 117.189 91.8117 114.757 92.4932 112.495C93.2089 110.12 94.2768 107.995 96.019 106.2C97.8013 104.364 100.015 102.981 102.298 101.852C107.446 99.3057 113.098 97.6649 118.774 96.8419C125.299 95.8955 131.937 96.0703 138.403 97.3587C138.803 97.4386 138.603 98.0413 138.205 97.9619Z" fill="white"/>
<path d="M106.895 100.185C106.311 98.2533 106.433 96.1769 107.241 94.3268C108.048 92.4767 109.488 90.9734 111.303 90.0853C111.671 89.9069 111.966 90.4692 111.598 90.6479C109.906 91.4718 108.565 92.8723 107.816 94.5966C107.068 96.321 106.962 98.2556 107.517 100.051C107.637 100.442 107.015 100.573 106.895 100.185Z" fill="white"/>
<path d="M93.3865 111.22C97.0109 113.201 101.25 113.746 105.259 112.745C105.656 112.646 105.79 113.266 105.393 113.366C101.22 114.399 96.809 113.823 93.042 111.753C92.683 111.555 93.0295 111.023 93.3865 111.22Z" fill="white"/>
<path d="M125.08 96.7071C125.15 97.5016 125.417 98.2663 125.856 98.9325C126.295 99.5987 126.894 100.146 127.597 100.524C127.958 100.717 127.611 101.249 127.252 101.057C126.477 100.636 125.817 100.031 125.33 99.2959C124.843 98.561 124.544 97.7181 124.458 96.841C124.443 96.759 124.46 96.6744 124.506 96.6043C124.551 96.5343 124.621 96.4841 124.702 96.4639C124.784 96.4466 124.87 96.4624 124.941 96.5079C125.012 96.5535 125.062 96.625 125.08 96.7071Z" fill="white"/>
<path d="M96.99 112.546C93.9479 97.8617 90.1454 92.9659 90.1454 92.9659L88.6927 91.8412L86.9457 90.4865L86.9542 90.3124L86.5398 90.1718L86.4425 90.0963L86.283 89.974L86.2574 90.0015L86.2032 90.0575L78.298 87.3749L68.269 83.974L63.6249 77.9476C62.8685 76.9662 61.8947 76.1729 60.7799 75.63C59.6651 75.0872 58.4394 74.8094 57.1991 74.8186L42.3673 74.9281C40.3619 74.943 38.4346 75.7062 36.9642 77.0677L27.2156 86.0953L12.0253 93.338L11.9996 93.3124L11.8401 93.4261L9.49309 94.5465L9.58994 95.0498L8.13727 96.0963C8.13727 96.0963 4.33472 100.652 1.29267 114.315C0.518804 117.792 0.13788 125.25 0.000386385 134.44C-0.00651988 134.905 0.0792182 135.366 0.252613 135.798C0.426008 136.229 0.683602 136.622 1.01042 136.953C1.33723 137.285 1.72675 137.548 2.15631 137.727C2.58588 137.907 3.04693 138 3.51265 138H84.647L94.7736 138C95.239 137.999 95.6998 137.907 96.129 137.728C96.5583 137.548 96.9477 137.285 97.2744 136.955C97.6012 136.624 97.8588 136.231 98.0325 135.8C98.2061 135.369 98.2923 134.908 98.2859 134.443C98.1516 124.443 97.7709 116.316 96.99 112.546Z" fill="url(#paint0_linear_1680_19349)"/>
<path d="M107.402 12.8057C104.245 12.8057 101.218 14.0575 98.986 16.2859C96.754 18.5142 95.5 21.5365 95.5 24.6878C95.5 27.8391 96.754 30.8614 98.986 33.0897C101.218 35.3181 104.245 36.5699 107.402 36.5699H196.1C199.257 36.5699 202.284 35.3181 204.516 33.0897C206.748 30.8614 208.002 27.8391 208.002 24.6878C208.002 21.5365 206.748 18.5142 204.516 16.2859C202.284 14.0575 199.257 12.8057 196.1 12.8057H107.402Z" fill="#E5E5E5"/>
<path d="M107.399 15.2109C104.882 15.2109 102.467 16.2094 100.687 17.9868C98.9064 19.7642 97.9062 22.1748 97.9063 24.6884C97.9062 27.2019 98.9064 29.6125 100.687 31.3899C102.467 33.1673 104.882 34.1658 107.399 34.1658H196.098C198.615 34.1658 201.03 33.1673 202.81 31.3899C204.591 29.6125 205.591 27.2019 205.591 24.6884C205.591 22.1748 204.591 19.7642 202.81 17.9868C201.03 16.2094 198.615 15.2109 196.098 15.2109H107.399Z" fill="white"/>
<path d="M52.1107 69.2562C62.8421 69.2562 71.5417 60.5712 71.5417 49.8576C71.5417 39.144 62.8421 30.459 52.1107 30.459C41.3792 30.459 32.6797 39.144 32.6797 49.8576C32.6797 60.5712 41.3792 69.2562 52.1107 69.2562Z" fill="#EDEDED"/>
<path d="M47.139 68.3061C47.056 68.1237 46.9732 67.9406 46.8906 67.7568C46.9224 67.7579 46.9539 67.7624 46.9857 67.7633L47.139 68.3061Z" fill="#2F2E41"/>
<path d="M32.1378 31.3408C33.1206 30.5582 34.2692 29.838 35.5257 29.8785C36.7822 29.9189 38.0564 31.0519 37.7961 32.2797C40.104 28.2002 43.7775 25.0625 48.1718 23.4175C52.5661 21.7725 57.4004 21.7253 61.8261 23.2841C64.949 24.3841 68.0115 26.5846 68.7289 29.8122C68.913 30.6407 68.9526 31.5491 69.4707 32.2219C70.1241 33.0702 71.3741 33.2621 72.4034 32.9637C72.4137 32.9607 72.424 32.9577 72.4342 32.9546C72.6081 32.8953 72.7958 32.8895 72.973 32.9379C73.1503 32.9862 73.3089 33.0866 73.4284 33.226C73.5479 33.3653 73.6227 33.5373 73.6432 33.7195C73.6638 33.9018 73.6291 34.0861 73.5436 34.2484L72.6599 35.8937C73.7738 36.1415 74.9312 36.1169 76.0335 35.822C76.2166 35.7741 76.4101 35.7839 76.5874 35.85C76.7647 35.9162 76.9172 36.0355 77.0239 36.1917C77.1306 36.3478 77.1863 36.533 77.1834 36.722C77.1804 36.9109 77.119 37.0944 77.0075 37.2471C74.0939 41.2407 69.2262 43.8195 64.2588 43.7892C60.7283 43.7677 57.1614 42.553 53.7254 43.3635C52.3961 43.6771 51.1541 44.2838 50.0903 45.1391C49.0266 45.9944 48.1681 47.0766 47.5779 48.3063C46.9878 49.536 46.6808 50.882 46.6797 52.2456C46.6786 53.6092 46.9833 54.9557 47.5714 56.1864C46.5158 55.0338 44.4753 55.3067 43.3956 56.4368C42.3159 57.5669 42.0363 59.2537 42.1451 60.8117C42.3115 63.1946 43.2467 65.4399 44.2326 67.6253C35.9668 67.3655 28.1488 61.5769 25.5173 53.7476C22.8747 45.8856 25.6442 36.5124 32.1378 31.3408Z" fill="#2F2E41"/>
<path opacity="0.2" d="M19.125 108.113L24.575 137.716L27.8451 138L19.125 108.113Z" fill="black"/>
<path opacity="0.2" d="M79.1576 105.881L73.7076 137.695L70.4375 138L79.1576 105.881Z" fill="black"/>
<path d="M36.789 21.3784C35.7441 21.814 34.6537 21.3366 34.1964 20.2434C33.7322 19.1334 34.1658 18.0066 35.2275 17.564C36.2893 17.1213 37.3602 17.5999 37.832 18.7278C38.2967 19.8388 37.8678 20.9287 36.789 21.3784ZM34.7873 15.3791L33.9565 15.7255C33.7489 15.811 33.5168 15.8156 33.306 15.7384C33.0952 15.6612 32.9211 15.5079 32.8181 15.3087L32.777 15.2284C31.883 13.6188 31.7807 11.6626 32.4744 9.41711C33.117 7.40281 33.384 5.98615 32.8472 4.70274C32.2265 3.21888 30.9012 2.75406 29.2111 3.4274C28.5557 3.70065 28.3471 3.6963 27.8312 4.20716C27.719 4.31964 27.5853 4.40841 27.438 4.46817C27.2907 4.52793 27.1328 4.55746 26.9738 4.55501C26.8201 4.5532 26.6684 4.52051 26.5276 4.45889C26.3868 4.39727 26.2599 4.30798 26.1545 4.19634C25.9513 3.9812 25.8374 3.69711 25.836 3.40143C25.8345 3.10575 25.9454 2.82052 26.1464 2.60335C27.0134 1.69724 28.0592 0.9804 29.2177 0.498052C32.8489 -1.01569 34.6769 1.21913 35.5134 3.21909C36.3316 5.17528 35.8713 6.9903 35.1318 9.34093C34.5121 11.2942 34.5482 12.7415 35.2522 14.1806C35.303 14.2893 35.3313 14.4073 35.3353 14.5273C35.3393 14.6472 35.319 14.7668 35.2756 14.8787C35.2322 14.9907 35.1666 15.0927 35.0827 15.1787C34.9988 15.2647 34.8983 15.3329 34.7873 15.3791Z" fill="#3C7EFC"/>
<path d="M126.99 30.3546H109.342C109.286 30.355 109.23 30.3443 109.178 30.3231C109.127 30.302 109.079 30.2708 109.04 30.2313C109 30.1919 108.968 30.145 108.947 30.0933C108.925 30.0416 108.914 29.9862 108.914 29.9302C108.914 29.8743 108.925 29.8188 108.947 29.7672C108.968 29.7155 109 29.6686 109.04 29.6291C109.079 29.5897 109.127 29.5585 109.178 29.5373C109.23 29.5162 109.286 29.5055 109.342 29.5059H126.99C127.102 29.5066 127.209 29.5517 127.288 29.6312C127.367 29.7107 127.412 29.8182 127.412 29.9302C127.412 30.0423 127.367 30.1498 127.288 30.2293C127.209 30.3088 127.102 30.3538 126.99 30.3546Z" fill="#B00020"/>
<path d="M149.38 30.4962H131.733C131.677 30.4966 131.621 30.4859 131.569 30.4647C131.517 30.4436 131.47 30.4124 131.43 30.3729C131.39 30.3335 131.359 30.2866 131.337 30.2349C131.316 30.1832 131.305 30.1278 131.305 30.0718C131.305 30.0159 131.316 29.9604 131.337 29.9088C131.359 29.8571 131.39 29.8102 131.43 29.7707C131.47 29.7313 131.517 29.7001 131.569 29.6789C131.621 29.6578 131.677 29.6471 131.733 29.6475H149.38C149.436 29.6471 149.492 29.6578 149.544 29.6789C149.596 29.7001 149.643 29.7313 149.683 29.7707C149.723 29.8102 149.754 29.8571 149.776 29.9088C149.797 29.9604 149.808 30.0159 149.808 30.0718C149.808 30.1278 149.797 30.1832 149.776 30.2349C149.754 30.2866 149.723 30.3335 149.683 30.3729C149.643 30.4124 149.596 30.4436 149.544 30.4647C149.492 30.4859 149.436 30.4966 149.38 30.4962Z" fill="#808195"/>
<path d="M171.765 30.6378H154.118C154.005 30.637 153.898 30.592 153.819 30.5125C153.74 30.433 153.695 30.3255 153.695 30.2134C153.695 30.1014 153.74 29.9939 153.819 29.9144C153.898 29.8349 154.005 29.7898 154.118 29.7891H171.765C171.821 29.7887 171.877 29.7994 171.929 29.8205C171.981 29.8417 172.028 29.8729 172.068 29.9123C172.107 29.9518 172.139 29.9987 172.16 30.0504C172.182 30.102 172.193 30.1575 172.193 30.2134C172.193 30.2694 172.182 30.3248 172.16 30.3765C172.139 30.4282 172.107 30.4751 172.068 30.5145C172.028 30.554 171.981 30.5852 171.929 30.6063C171.877 30.6275 171.821 30.6382 171.765 30.6378Z" fill="#808195"/>
<path d="M194.156 30.7794H176.508C176.396 30.7786 176.289 30.7336 176.209 30.6541C176.13 30.5746 176.086 30.4671 176.086 30.355C176.086 30.243 176.13 30.1355 176.209 30.056C176.289 29.9765 176.396 29.9314 176.508 29.9307H194.156C194.268 29.9314 194.375 29.9765 194.454 30.056C194.534 30.1355 194.578 30.243 194.578 30.355C194.578 30.4671 194.534 30.5746 194.454 30.6541C194.375 30.7336 194.268 30.7786 194.156 30.7794Z" fill="#808195"/>
<path d="M118.132 26.4493C119.943 26.4493 121.411 24.9833 121.411 23.1749C121.411 21.3664 119.943 19.9004 118.132 19.9004C116.32 19.9004 114.852 21.3664 114.852 23.1749C114.852 24.9833 116.32 26.4493 118.132 26.4493Z" fill="#B00020"/>
<path d="M140.655 26.4493C142.466 26.4493 143.935 24.9833 143.935 23.1749C143.935 21.3664 142.466 19.9004 140.655 19.9004C138.843 19.9004 137.375 21.3664 137.375 23.1749C137.375 24.9833 138.843 26.4493 140.655 26.4493Z" fill="#808195"/>
<path d="M163.171 26.4493C164.982 26.4493 166.451 24.9833 166.451 23.1749C166.451 21.3664 164.982 19.9004 163.171 19.9004C161.359 19.9004 159.891 21.3664 159.891 23.1749C159.891 24.9833 161.359 26.4493 163.171 26.4493Z" fill="#808195"/>
<path d="M185.694 26.4493C187.505 26.4493 188.974 24.9833 188.974 23.1749C188.974 21.3664 187.505 19.9004 185.694 19.9004C183.883 19.9004 182.414 21.3664 182.414 23.1749C182.414 24.9833 183.883 26.4493 185.694 26.4493Z" fill="#808195"/>
</g>
<defs>
<linearGradient id="paint0_linear_1680_19349" x1="-17.5" y1="-9.99999" x2="124" y2="85" gradientUnits="userSpaceOnUse">
<stop stop-color="#808195"/>
<stop offset="1" stop-color="#808195" stop-opacity="0"/>
</linearGradient>
<clipPath id="clip0_1680_19349">
<rect width="208" height="138" fill="white"/>
</clipPath>
</defs>
</svg>
